<svg xmlns="http://www.w3.org/2000/svg" width="47.228" height="48.694" viewBox="0 0 47.228 48.694"><defs><style>.a{fill:#8010aa;}</style></defs><g transform="translate(-4 -2.013)"><g transform="translate(4 2.013)"><path class="a" d="M45.106,5.553a9.271,9.271,0,0,1,11.147,0,.84.84,0,1,0,1.014-1.339,10.961,10.961,0,0,0-13.174,0,.84.84,0,0,0,1.014,1.339Z" transform="translate(-10.372 -2.013)"/><path class="a" d="M48.608,11.081a.84.84,0,0,0,1.127,1.244,2.519,2.519,0,0,1,3.359,0,.84.84,0,1,0,1.129-1.244,4.163,4.163,0,0,0-5.615,0Z" transform="translate(-11.107 -3.292)"/><path class="a" d="M55.2,9.135a.84.84,0,0,0,.523-1.5,7.577,7.577,0,0,0-9.36,0,.84.84,0,0,0,1.045,1.315,5.878,5.878,0,0,1,7.269,0A.84.84,0,0,0,55.2,9.135Z" transform="translate(-10.739 -2.655)"/><rect class="a" width="2.519" height="1.679" transform="translate(11.756 11.745)"/><path class="a" d="M23,28.3v.655a7.367,7.367,0,0,1,1.218-.487,7.459,7.459,0,0,1,2.141-.311.779.779,0,0,0,.579-.244.8.8,0,0,0,.26-.6V26.256a5.853,5.853,0,0,1-2.477-4.123,4.711,4.711,0,0,1-.042-.7V14.718a.84.84,0,0,1,.84-.84h3.628a2.575,2.575,0,0,0,1.251-.328,5.571,5.571,0,0,0,.537-.42l.689-.689a.84.84,0,0,1,1.184,0l.731.722a2.555,2.555,0,0,0,1.763.714H35.6a.84.84,0,0,1,.84.84v6.718a5.887,5.887,0,0,1-2.519,4.82v1.058a.84.84,0,0,0,.84.84,7.281,7.281,0,0,1,3.359.8V27.2a.8.8,0,0,0-.235-.571l-.244-.269a2.514,2.514,0,0,1-.244-3.2l.26-.369a2.484,2.484,0,0,0,.462-1.444V12.2a4.2,4.2,0,0,0-4.2-4.2H32.237a2.119,2.119,0,0,0-.865.168,2.506,2.506,0,0,0-1.654,2.351.84.84,0,1,1-1.679,0,.779.779,0,0,0-.244-.579.8.8,0,0,0-.6-.26H25.519a1.494,1.494,0,0,0-.554.118,3.023,3.023,0,0,0-1.31,1.176A4.058,4.058,0,0,0,23,13.038V21.3a1.629,1.629,0,0,0,.487,1.15,2.963,2.963,0,0,1,.437.529,3.286,3.286,0,0,1-.437,4.157A1.614,1.614,0,0,0,23,28.3Z" transform="translate(-7.045 -2.973)"/><path class="a" d="M31.277,35.152a4.974,4.974,0,0,0,3.787-1.721,2.512,2.512,0,0,1-2.108-2.477V30.71a6.1,6.1,0,0,1-1.679.244A5.887,5.887,0,0,1,29.6,30.71v.244a2.5,2.5,0,0,1-.747,1.789,2.435,2.435,0,0,1-1.36.689,4.986,4.986,0,0,0,3.787,1.721Z" transform="translate(-7.764 -6.612)"/><path class="a" d="M13.878,21.679H8v3.5a.854.854,0,0,0,.252.6l.7.7a2.553,2.553,0,0,1,.731,1.78v5.324a2.547,2.547,0,0,1-.722,1.772l-.714.714A.847.847,0,0,0,8,36.652v4.341a.84.84,0,0,0,.84.84H16.4v-4.2a7.5,7.5,0,0,1,2.519-5.618v-1.8a3.305,3.305,0,0,1,.982-2.343,1.614,1.614,0,0,0,.487-1.159,1.575,1.575,0,0,0-.277-.9,1.154,1.154,0,0,0-.21-.252,3.319,3.319,0,0,1-.982-2.343V20h-2.67a2.528,2.528,0,0,1-2.368,1.679Z" transform="translate(-4.641 -4.896)"/><rect class="a" width="10.077" height="1.679" transform="translate(18.474 41.976)"/><rect class="a" width="5.038" height="3.359" transform="translate(20.994 45.335)"/><path class="a" d="M51.026,18.519A2.527,2.527,0,0,0,48.506,16H36.75v1.679H46.827A2.527,2.527,0,0,1,49.346,20.2V40.353a2.527,2.527,0,0,1-2.519,2.519H8.2a2.527,2.527,0,0,1-2.519-2.519V36.011A2.547,2.547,0,0,1,6.4,34.239l.714-.714a.847.847,0,0,0,.244-.588V27.614a.854.854,0,0,0-.252-.6l-.7-.7a2.553,2.553,0,0,1-.731-1.78v-3.5H4.84A2.519,2.519,0,0,1,4,20.887V42.032a2.527,2.527,0,0,0,2.519,2.519H48.506a2.527,2.527,0,0,0,2.519-2.519ZM4.84,31.115V29.436a.84.84,0,1,1,1.679,0v1.679a.84.84,0,1,1-1.679,0Z" transform="translate(-4 -4.255)"/><path class="a" d="M41.834,27.129l.235.26a2.45,2.45,0,0,1,.705,1.738v2.889c.1.092.21.168.311.269a7.535,7.535,0,0,1,2.209,5.349v4.2h7.558a.84.84,0,0,0,.84-.84V20.84a.84.84,0,0,0-.84-.84H42.775v3.275a4.191,4.191,0,0,1-.764,2.41l-.26.378a.828.828,0,0,0,.084,1.066Z" transform="translate(-10.025 -4.896)"/><path class="a" d="M8,15.545l3.346-1.915L8,11.722Z" transform="translate(-4.641 -3.569)"/><path class="a" d="M13.237,8H4.84A.84.84,0,0,0,4,8.84v8.4a.84.84,0,0,0,.84.84h8.4a.84.84,0,0,0,.84-.84V8.84A.84.84,0,0,0,13.237,8Zm-.42,5.761L6.939,17.126a.84.84,0,0,1-1.26-.729V9.679a.84.84,0,0,1,1.26-.73L12.817,12.3a.84.84,0,0,1,0,1.458Z" transform="translate(-4 -2.973)"/><path class="a" d="M20,39.917v4.2h3.359v-.487A5.931,5.931,0,0,1,23.98,41l.311-.621a.84.84,0,0,1,1.495.756l-.3.613a4.162,4.162,0,0,0-.445,1.881v.487H35.115v-.487a4.162,4.162,0,0,0-.445-1.881l-.3-.613a.84.84,0,0,1,1.495-.756l.311.621a5.931,5.931,0,0,1,.621,2.628v.487h3.359v-4.2a5.907,5.907,0,0,0-1.721-4.165,5.612,5.612,0,0,0-.479-.411,5.844,5.844,0,0,0-2.007-1.058c-.067-.017-.126-.025-.193-.042a6.682,6.682,0,0,1-11.353,0c-.059.017-.126.025-.185.042a5.93,5.93,0,0,0-2.015,1.05A5.849,5.849,0,0,0,20,39.917Z" transform="translate(-6.564 -7.178)"/><path class="a" d="M35.4,22.623V16.712A4.344,4.344,0,0,1,33,15.553l-.143-.143-.092.1a8.74,8.74,0,0,1-.764.6,4.153,4.153,0,0,1-2.217.63H27v5.878a4.611,4.611,0,0,0,.025.487,4.2,4.2,0,0,0,8.372-.487Zm-3.359-3.359a.84.84,0,0,1,1.679,0v.84a.84.84,0,1,1-1.679,0Zm-3.359,0a.84.84,0,0,1,1.679,0v.84a.84.84,0,0,1-1.679,0Zm.246,3.605a.84.84,0,0,1,1.187,0,1.538,1.538,0,0,0,2.172,0,.84.84,0,1,1,1.187,1.187,3.217,3.217,0,0,1-4.546,0A.84.84,0,0,1,28.926,22.869Z" transform="translate(-7.686 -4.16)"/></g></g></svg>