<svg xmlns="http://www.w3.org/2000/svg" width="25.197" height="30.236" viewBox="0 0 25.197 30.236"><defs><style>.a{fill:#fff;}</style></defs><g transform="translate(-2)"><path class="a" d="M18.653,24.39H7.945a.945.945,0,0,1,0-1.89H18.653a.945.945,0,0,1,0,1.89Z" transform="translate(1.299 5.846)"/><path class="a" d="M20.146,16.378H7.394A2.206,2.206,0,0,1,5.222,13.8L7.3,1.827A2.2,2.2,0,0,1,9.475,0h8.588a2.2,2.2,0,0,1,2.172,1.828L22.316,13.8a2.2,2.2,0,0,1-2.171,2.581ZM9.475,1.89a.315.315,0,0,0-.311.261L7.083,14.119a.314.314,0,0,0,.069.257.308.308,0,0,0,.241.112H20.145a.307.307,0,0,0,.241-.112.312.312,0,0,0,.069-.257L18.373,2.151a.312.312,0,0,0-.309-.261Z" transform="translate(0.829)"/><path class="a" d="M12.195,25.559a.945.945,0,0,1-.945-.945V18.945a.945.945,0,1,1,1.89,0v5.669A.945.945,0,0,1,12.195,25.559Z" transform="translate(2.403 4.677)"/><path class="a" d="M23.212,20.929H4.945A.945.945,0,0,1,4,19.984v-2.52A3.467,3.467,0,0,1,7.465,14H20.693a3.467,3.467,0,0,1,3.465,3.465v2.52A.945.945,0,0,1,23.212,20.929ZM5.89,19.039H22.268V17.465a1.577,1.577,0,0,0-1.575-1.575H7.465A1.577,1.577,0,0,0,5.89,17.465Z" transform="translate(0.52 3.638)"/><path class="a" d="M19.445,19.939a.945.945,0,0,1-.945-.945V15.215a3.467,3.467,0,0,1,3.465-3.465.945.945,0,0,1,0,1.89,1.577,1.577,0,0,0-1.575,1.575v3.779A.945.945,0,0,1,19.445,19.939Z" transform="translate(4.287 3.053)"/><path class="a" d="M5.465,19.939a.945.945,0,0,1-.945-.945V15.215A1.577,1.577,0,0,0,2.945,13.64a.945.945,0,0,1,0-1.89,3.467,3.467,0,0,1,3.465,3.465v3.779A.945.945,0,0,1,5.465,19.939Z" transform="translate(0 3.053)"/></g></svg>