<svg xmlns="http://www.w3.org/2000/svg" width="409.006" height="414" viewBox="0 0 409.006 414"><defs><style>.a{fill:#e0e0e0;}.b{fill:#fafafa;}.c{fill:#ebebeb;}.d{fill:#263238;}.e{fill:#230124;}.f{opacity:0.3;}.g{fill:#fff;}.h{fill:#ff725e;}.i{fill:#d86713;}.j{font-size:14px;font-family:Roboto-Bold, Roboto;font-weight:700;}.k{fill:#455a64;}.l{fill:#ffbe9d;}.m{fill:#eb996e;}.n{opacity:0.6;}.o{fill:#1d8efc;}.p{fill:#07345a;}.q{opacity:0.2;}.r{fill:#f1a34f;}.s{fill:#b8742a;}</style></defs><g transform="translate(-40.315 -40.593)"><g transform="translate(43.203 40.592)"><g transform="translate(295.219 220.128)"><g transform="translate(0)"><g transform="translate(3.111 88.672)"><path class="a" d="M384.386,378.807a28.054,28.054,0,0,0-12-4.131c-1.962-.2-4.105-.145-5.678,1.044a1.165,1.165,0,0,0-.585,1.036,1.268,1.268,0,0,0,.556.709,17.16,17.16,0,0,0,17.71,1.342" transform="translate(-366.109 -374.586)"/></g><g transform="translate(8.323 73.734)"><path class="a" d="M384.5,377.249a58.567,58.567,0,0,1-7.753-6.821,19.61,19.61,0,0,1-4.86-8.989,3.624,3.624,0,0,1,.384-3.009c6.18,4.826,11.035,11.069,12.229,18.819" transform="translate(-371.746 -358.43)"/></g><g transform="translate(20.931 74.268)"><path class="a" d="M385.776,377.585a28.054,28.054,0,0,1,.143-10.179,13.761,13.761,0,0,1,5.423-8.4c1.068,2.5.608,5.372-.143,7.98a38.8,38.8,0,0,1-5.376,11.319" transform="translate(-385.382 -359.007)"/></g><g transform="translate(12.25 103.701)"><path class="a" d="M391.125,390.842a17.737,17.737,0,0,0-9.626,4.872,18.212,18.212,0,0,0-5.507,9.452c3.608-.223,6.668-2.766,8.887-5.619s3.757-5.982,6.2-8.649" transform="translate(-375.993 -390.842)"/></g><g transform="translate(27.043 82.979)"><path class="a" d="M393.648,390.887a23.746,23.746,0,0,1,2.741-22.458c2.1,7.453,1.327,15.871-2.741,22.458" transform="translate(-391.993 -368.429)"/></g><g transform="translate(20.038 114.936)"><path class="a" d="M401.081,403.025a17.169,17.169,0,0,0-16.416,9.449c-.2.407-.383.924-.11,1.287a1.22,1.22,0,0,0,1.088.321c3.235-.21,6.1-2.156,8.468-4.373s4.427-4.776,7.042-6.693" transform="translate(-384.417 -402.993)"/></g><g transform="translate(35.073 91.704)"><path class="a" d="M402.053,400.611a30.573,30.573,0,0,1-.305-17.079c.6-2.2,1.612-4.513,3.645-5.543a.712.712,0,0,1,.557-.1.734.734,0,0,1,.352.408,10.287,10.287,0,0,1,.859,4.9,30.7,30.7,0,0,1-.767,4.959c-.64,3.032-.981,6.29-2.643,8.9a18.2,18.2,0,0,0-1.058,1.955c-.314.665-.316.9-.606,1.428" transform="translate(-400.678 -377.866)"/></g><g transform="translate(57.047 98.793)"><path class="a" d="M425.034,404.346a22.017,22.017,0,0,1,3.859-18.1c.276-.361.643-.747,1.1-.7.693.064.873.987.841,1.682a32.719,32.719,0,0,1-5.8,17.128" transform="translate(-424.445 -385.534)"/></g><g transform="translate(59.546 112.652)"><path class="a" d="M427.148,406.782a26.335,26.335,0,0,0,21.611-4.394,17.492,17.492,0,0,0-11.7-1.436c-3.908.893-7.479,2.644-9.911,5.83" transform="translate(-427.148 -400.523)"/></g><g transform="translate(61.156 103.595)"><path class="a" d="M428.89,402.068A24.976,24.976,0,0,1,448.5,390.727a12.08,12.08,0,0,1-6.416,7.092,35.593,35.593,0,0,1-9.415,2.753c-1.253.243-2.971.511-3.783,1.5" transform="translate(-428.89 -390.727)"/></g><g transform="translate(55.221 72.795)"><path class="a" d="M425.288,380.263a56.928,56.928,0,0,0,2.508-11.487,19.127,19.127,0,0,0-2.287-11.362,25.011,25.011,0,0,0-.335,23.243" transform="translate(-422.471 -357.414)"/></g><g transform="translate(70.816 73.773)"><path class="a" d="M439.338,373.885c4.439-8.067,13.493-14.509,22.656-15.413-3.535,8.8-13.173,15.6-22.656,15.413" transform="translate(-439.338 -358.472)"/></g><g transform="translate(68.024 89.443)"><path class="a" d="M436.318,376.744c6.619,1.008,12.259,5.235,18.444,7.8a8.266,8.266,0,0,0,4.17.8,3.264,3.264,0,0,0,2.043-5.774,8.912,8.912,0,0,0-3.029-1.837c-6.737-2.805-13.962-2.875-21.059-1.174" transform="translate(-436.318 -375.42)"/></g><g transform="translate(64.194 95.089)"><path class="a" d="M432.175,381.847c1.5.429,2.011,1.2,3.2,2.215a34.5,34.5,0,0,0,13.987,7.185c.534.133,1.235.186,1.5-.3.231-.422-.061-.933-.362-1.308a19.252,19.252,0,0,0-8.445-5.732c-3.228-1.2-6.024-2.651-9.877-2.34" transform="translate(-432.175 -381.527)"/></g><g transform="translate(59.871 66.654)"><path class="a" d="M427.5,351.488a26.471,26.471,0,0,0,20.293,6.9,1.388,1.388,0,0,0,.924-.332c.511-.556-.1-1.413-.7-1.877-5.966-4.651-13.193-6.58-20.52-4.7" transform="translate(-427.5 -350.772)"/></g><g transform="translate(64.996 59.984)"><path class="a" d="M433.043,349.068a28.28,28.28,0,0,1,25.322-4.178,20.1,20.1,0,0,1-12.067,5.3,38.175,38.175,0,0,1-13.256-1.119" transform="translate(-433.043 -343.557)"/></g><g transform="translate(59.539 34.701)"><path class="a" d="M430.561,334.121c-.586-5.955-.205-10.656-.619-16.639-.033-.478-.136-1.053-.583-1.225-.622-.24-1.142.525-1.346,1.16a19.074,19.074,0,0,0,2.54,16.572" transform="translate(-427.141 -316.212)"/></g><g transform="translate(62.531 34.547)"><path class="a" d="M430.377,334.767a35.031,35.031,0,0,0,9.864-9.588c1.948-2.666,3.591-5.859,3.148-9.132a9.442,9.442,0,0,0-7.115,3.534,19.85,19.85,0,0,0-3.627,7.3c-.79,2.62-1.343,5.313-2.27,7.887" transform="translate(-430.377 -316.045)"/></g><g transform="translate(72.096 35.66)"><path class="a" d="M440.849,332.165a79.545,79.545,0,0,0,24.277-14.315c-2.9-1.168-6.22-.469-9.12.7A28.753,28.753,0,0,0,440.722,332.1" transform="translate(-440.722 -317.25)"/></g><g transform="translate(65.256 49.504)"><path class="a" d="M433.324,339.245a49.426,49.426,0,0,0,13.48.066,57.2,57.2,0,0,0,12.584-4.182,1.478,1.478,0,0,0,.855-.649.985.985,0,0,0-.307-1.077,2.609,2.609,0,0,0-1.073-.5,23.3,23.3,0,0,0-13.6.813,63.1,63.1,0,0,0-11.941,5.533" transform="translate(-433.324 -332.223)"/></g><g transform="translate(37.421 47.839)"><path class="a" d="M405.464,350.156a23.842,23.842,0,0,1-.217-19.734c1.859,2.833,2.086,6.441,1.746,9.812s-1.366,6.842-1.432,10.229" transform="translate(-403.218 -330.422)"/></g><g transform="translate(6.999 61.409)"><path class="a" d="M390.767,345.1a27.524,27.524,0,0,0-20.453,8.712,19.113,19.113,0,0,0,11.2-2.076,57.031,57.031,0,0,0,9.6-6.424" transform="translate(-370.314 -345.099)"/></g><g transform="translate(0 58.307)"><path class="a" d="M381.984,342.1c-3.734-.3-7.327-.765-10.918.336a13.094,13.094,0,0,0-8.322,7.056,19.727,19.727,0,0,0,10.236-1.933,58.864,58.864,0,0,0,9-5.459" transform="translate(-362.744 -341.744)"/></g><g transform="translate(9.505 53.059)"><path class="a" d="M394.919,341.8c-3.36-2.2-6.809-4.443-10.721-5.355s-8.445-.238-11.173,2.711c3.167,1.858,7.008,2.077,10.68,2.075s8.172-.044,11.634,1.181" transform="translate(-373.025 -336.068)"/></g><g transform="translate(24.901 35.488)"><path class="a" d="M396.2,340.545c-5.744-5.64-7.921-15.771-5.61-23.482a35.78,35.78,0,0,1,5.61,23.482" transform="translate(-389.676 -317.063)"/></g><g transform="translate(47.212 24.458)"><path class="a" d="M413.808,323.665c1.084-2.518,1.845-5.161,2.817-7.724a22.186,22.186,0,0,1,4.015-7.121,10.582,10.582,0,0,1,7.114-3.687,28.649,28.649,0,0,1-13.806,18.573" transform="translate(-413.808 -305.133)"/></g><g transform="translate(29.497 36.198)"><path class="a" d="M409.5,327.953c-1.793-2.468-3.864-5.816-6.294-7.658s-5.6-2.956-8.562-2.249a19.945,19.945,0,0,0,14.857,9.907" transform="translate(-394.648 -317.832)"/></g><g transform="translate(41.886 24.69)"><path class="a" d="M411.087,323.889a42.638,42.638,0,0,1-2.833-9.175,14.317,14.317,0,0,1,1.436-9.33c3.153,5.96,4.169,12.357,1.558,18.573" transform="translate(-408.047 -305.384)"/></g><g transform="translate(47.242 12.059)"><path class="a" d="M413.84,304.353c1.785-5.908,7.2-10.258,13.035-12.254a4.873,4.873,0,0,1,2.286-.343,1.984,1.984,0,0,1,1.685,1.406c.214,1.005-.617,1.906-1.4,2.573a44.377,44.377,0,0,1-15.608,8.618" transform="translate(-413.84 -291.722)"/></g><g transform="translate(47.212)"><path class="a" d="M413.9,298.538c.227-3.809.465-7.674,1.7-11.283s3.627-6.994,7.1-8.574c.591,3.848-1.107,7.675-3.154,10.986s-4.515,6.436-5.744,10.129" transform="translate(-413.808 -278.68)"/></g><g transform="translate(36.134 1.769)"><path class="a" d="M412.9,301.3c-1.476-4.306-1.628-9.775-4.207-13.525-1.8-2.622-4.688-4.408-6.241-7.186a10.935,10.935,0,0,0,.362,8.157,23.633,23.633,0,0,0,4.77,6.828c1.908,2.038,3.542,3.571,5.315,5.726" transform="translate(-401.826 -280.593)"/></g><g transform="translate(47.018 20.979)"><path class="a" d="M413.822,429.67c-.116,0-.214-28.723-.223-64.147s.079-64.152.193-64.152.215,28.717.222,64.152S413.936,429.67,413.822,429.67Z" transform="translate(-413.599 -301.371)"/></g><g transform="translate(47.204 63.235)"><path class="a" d="M438.937,347.079a6.178,6.178,0,0,1-1.08.4l-2.972,1c-2.506.853-5.949,2.09-9.685,3.621-3.7,1.587-7.189,2.875-9.174,4.6a6.741,6.741,0,0,0-1.844,2.439c-.286.675-.337,1.087-.374,1.08a.853.853,0,0,1,.012-.3,4.594,4.594,0,0,1,.212-.837,6.483,6.483,0,0,1,1.8-2.6,16.1,16.1,0,0,1,3.981-2.473c1.592-.743,3.357-1.519,5.231-2.288,3.747-1.536,7.217-2.732,9.751-3.516,1.266-.395,2.3-.686,3.016-.878A6.1,6.1,0,0,1,438.937,347.079Z" transform="translate(-413.799 -347.074)"/></g><g transform="translate(49.18 43.029)"><path class="a" d="M447.325,325.221a1.771,1.771,0,0,1-.3.323l-.922.866-3.44,3.125-11.453,10.2c-4.47,3.978-8.334,7.781-11.011,10.644-1.342,1.429-2.4,2.614-3.117,3.441-.337.384-.612.7-.832.95a1.858,1.858,0,0,1-.312.315,1.763,1.763,0,0,1,.246-.368c.174-.231.427-.575.774-1,.683-.861,1.708-2.078,3.024-3.536a145.162,145.162,0,0,1,10.951-10.755c4.486-3.97,8.568-7.536,11.534-10.107l3.528-3.026.974-.807A1.786,1.786,0,0,1,447.325,325.221Z" transform="translate(-415.936 -325.22)"/></g><g transform="translate(59.616 51.644)"><path class="a" d="M427.233,344.482c-.117-.053.817-2.209,1.747-4.935s1.381-5.029,1.5-5.008a16.831,16.831,0,0,1-1.108,5.141,33.338,33.338,0,0,1-1.391,3.452A5.39,5.39,0,0,1,427.233,344.482Z" transform="translate(-427.223 -334.538)"/></g><g transform="translate(30.619 57.999)"><path class="a" d="M412.51,362.385a5.193,5.193,0,0,1-.689-.8l-1.765-2.263c-1.482-1.916-3.532-4.561-5.828-7.455s-4.409-5.492-5.939-7.371c-.721-.892-1.326-1.64-1.8-2.232a5.075,5.075,0,0,1-.622-.852,5.221,5.221,0,0,1,.745.748c.459.5,1.11,1.232,1.9,2.148,1.588,1.832,3.738,4.4,6.039,7.3s4.315,5.574,5.739,7.537c.712.981,1.279,1.783,1.66,2.344A5.188,5.188,0,0,1,412.51,362.385Z" transform="translate(-395.861 -341.411)"/></g><g transform="translate(38.908 63.225)"><path class="a" d="M407.682,355.746a10.114,10.114,0,0,1-2.3-4.316,12.319,12.319,0,0,1-.523-4.352l.183.015c-.081.333-.141.508-.175.5s-.034-.19-.007-.533l.184.015a19.786,19.786,0,0,0,.736,4.234A32.264,32.264,0,0,0,407.682,355.746Z" transform="translate(-404.826 -347.063)"/></g><g transform="translate(22.226 61.205)"><path class="a" d="M399.216,346.643a7.4,7.4,0,0,0-1.61-.935,10.771,10.771,0,0,0-4.469-.356,27.684,27.684,0,0,0-4.5.727,13.678,13.678,0,0,1-1.852.445,6.443,6.443,0,0,1,1.773-.728,20.558,20.558,0,0,1,4.549-.857,9.759,9.759,0,0,1,4.61.5A2.846,2.846,0,0,1,399.216,346.643Z" transform="translate(-386.784 -344.879)"/></g><g transform="translate(15.506 58.164)"><path class="a" d="M396.984,344.229c-.032.065-.938-.375-2.467-.9a24.82,24.82,0,0,0-12.428-.948c-1.59.285-2.553.582-2.574.514a2.353,2.353,0,0,1,.654-.278,15.236,15.236,0,0,1,1.863-.523,21.942,21.942,0,0,1,12.586.96,15.332,15.332,0,0,1,1.761.8A2.376,2.376,0,0,1,396.984,344.229Z" transform="translate(-379.515 -341.589)"/></g><g transform="translate(44.005 39.046)"><path class="a" d="M413.546,333.51a101.9,101.9,0,0,1-3.194-12.6,101.894,101.894,0,0,1,3.194,12.6Z" transform="translate(-410.339 -320.912)"/></g><g transform="translate(42.398 44.869)"><path class="a" d="M413.53,333.985a30.123,30.123,0,0,0-1.993-3.741,16.487,16.487,0,0,0-2.934-3.028,2.727,2.727,0,0,1,1.132.584,9.1,9.1,0,0,1,2.141,2.205A8.288,8.288,0,0,1,413.53,333.985Z" transform="translate(-408.601 -327.21)"/></g><g transform="translate(20.928 92.043)"><path class="a" d="M411.693,420.156c-.045.007-.129-.691-.453-1.91a27.243,27.243,0,0,0-1.919-4.973,68.834,68.834,0,0,0-10.184-14.346c-2.274-2.6-4.48-5.048-6.352-7.395a51.921,51.921,0,0,1-4.541-6.551,31.474,31.474,0,0,1-2.293-4.861c-.211-.6-.365-1.067-.45-1.391a2.363,2.363,0,0,1-.118-.5c.037-.012.246.657.719,1.828a35.477,35.477,0,0,0,2.4,4.772,54.927,54.927,0,0,0,4.586,6.458c1.88,2.323,4.089,4.76,6.367,7.361a65.264,65.264,0,0,1,10.136,14.493,24.829,24.829,0,0,1,1.811,5.062,13.929,13.929,0,0,1,.254,1.44A2.381,2.381,0,0,1,411.693,420.156Z" transform="translate(-385.379 -378.233)"/></g><g transform="translate(47.238 108.345)"><path class="a" d="M436.52,395.867a10.332,10.332,0,0,1-1.188.668,25.913,25.913,0,0,0-3.083,2.038,35.335,35.335,0,0,0-4.05,3.694c-1.421,1.5-2.885,3.245-4.38,5.113-2.987,3.748-5.781,7.066-7.454,9.714-.85,1.313-1.467,2.421-1.872,3.2a10.031,10.031,0,0,1-.655,1.2,1.175,1.175,0,0,1,.111-.337c.088-.214.208-.534.4-.931a30.206,30.206,0,0,1,1.768-3.282,107,107,0,0,1,7.379-9.816c1.5-1.871,2.979-3.619,4.428-5.117a32.865,32.865,0,0,1,4.149-3.664,21.668,21.668,0,0,1,3.184-1.946c.394-.2.715-.319.927-.411A1.142,1.142,0,0,1,436.52,395.867Z" transform="translate(-413.836 -395.864)"/></g><g transform="translate(54.691 116.628)"><path class="a" d="M437.573,404.854a17.185,17.185,0,0,1-2.513.365,33.134,33.134,0,0,0-5.959,1.173,17.907,17.907,0,0,0-5.336,2.8c-1.23.95-1.809,1.736-1.867,1.69a1.948,1.948,0,0,1,.373-.578,9.393,9.393,0,0,1,1.309-1.34A16.142,16.142,0,0,1,428.974,406a26.943,26.943,0,0,1,6.058-1.071A13.886,13.886,0,0,1,437.573,404.854Z" transform="translate(-421.897 -404.823)"/></g><g transform="translate(55.416 113.262)"><path class="a" d="M422.691,409.7c-.13-.075,1-1.8,1.88-4.13.825-2.347,1.017-4.406,1.165-4.382a3.971,3.971,0,0,1-.042,1.348,14.482,14.482,0,0,1-.733,3.176,15.281,15.281,0,0,1-1.457,2.912A4.043,4.043,0,0,1,422.691,409.7Z" transform="translate(-422.681 -401.183)"/></g><g transform="translate(47.248 86.033)"><path class="a" d="M443.868,371.734a1.879,1.879,0,0,1-.4.214l-1.181.537c-.518.222-1.146.5-1.853.876s-1.538.743-2.4,1.262l-1.371.778c-.475.274-.945.6-1.446.912-1.011.613-2.022,1.367-3.1,2.139a53.245,53.245,0,0,0-11.951,12.367c-.734,1.107-1.453,2.144-2.032,3.175-.3.51-.6.992-.861,1.476l-.732,1.4c-.488.879-.837,1.721-1.178,2.443s-.608,1.356-.813,1.881l-.5,1.2a1.916,1.916,0,0,1-.2.409,1.789,1.789,0,0,1,.121-.436c.112-.325.251-.731.423-1.229.181-.535.421-1.183.75-1.916s.656-1.588,1.13-2.482l.712-1.417c.251-.491.555-.979.846-1.5.57-1.046,1.283-2.1,2.014-3.218a51.3,51.3,0,0,1,12.039-12.458c1.095-.767,2.121-1.517,3.146-2.122.508-.309.986-.629,1.468-.9l1.392-.761c.876-.5,1.718-.865,2.441-1.213s1.36-.616,1.889-.815l1.213-.466A1.913,1.913,0,0,1,443.868,371.734Z" transform="translate(-413.847 -371.732)"/></g><g transform="translate(59.314 95.064)"><path class="a" d="M426.9,384.5a2.892,2.892,0,0,1,.987-1.47,6.227,6.227,0,0,1,3.977-1.526,10.873,10.873,0,0,1,4.186.817,5.95,5.95,0,0,1,1.582.768,9.655,9.655,0,0,1-1.679-.491,12.649,12.649,0,0,0-4.075-.681,6.481,6.481,0,0,0-3.8,1.333A11.651,11.651,0,0,0,426.9,384.5Z" transform="translate(-426.897 -381.5)"/></g><g transform="translate(56.625 93.32)"><path class="a" d="M424,387.124a10.625,10.625,0,0,0,.876-7.51,2.444,2.444,0,0,1,.466,1.071,7.594,7.594,0,0,1-.643,5.5C424.348,386.825,424.038,387.153,424,387.124Z" transform="translate(-423.989 -379.613)"/></g></g><g transform="translate(27.403 138.081)"><path class="a" d="M392.383,428.027C393,439,396.31,450.168,401.4,461.454h22.125c4.852-11.174,7.931-22.321,8.478-33.427Z" transform="translate(-392.383 -428.027)"/></g><g transform="translate(30.897 155.636)"><path class="b" d="M428.7,447.222c0,.115-7.285.207-16.269.207s-16.27-.092-16.27-.207,7.283-.208,16.27-.208S428.7,447.107,428.7,447.222Z" transform="translate(-396.162 -447.014)"/></g><g transform="translate(32.438 159.613)"><path class="b" d="M428.331,451.523c0,.115-6.829.207-15.251.207s-15.253-.092-15.253-.207,6.827-.208,15.253-.208S428.331,451.408,428.331,451.523Z" transform="translate(-397.828 -451.315)"/></g><g transform="translate(36.568 145.288)"><path class="b" d="M402.5,435.822a62.533,62.533,0,0,1,0,10.192,62.809,62.809,0,0,1,0-10.192Z" transform="translate(-402.295 -435.822)"/></g><g transform="translate(48.421 145.288)"><path class="b" d="M415.323,435.822a67.054,67.054,0,0,1,0,10.556,67.359,67.359,0,0,1,0-10.556Z" transform="translate(-415.116 -435.822)"/></g><g transform="translate(59.55 145.2)"><path class="b" d="M427.36,435.726a70.048,70.048,0,0,1,0,10.765,69.73,69.73,0,0,1,0-10.765Z" transform="translate(-427.152 -435.726)"/></g><g transform="translate(28.155 145.081)"><path class="b" d="M431.359,435.805c0,.115-8.544.208-19.08.208s-19.083-.093-19.083-.208,8.542-.207,19.083-.207S431.359,435.69,431.359,435.805Z" transform="translate(-393.196 -435.598)"/></g></g><g transform="translate(0 267.07)"><g transform="translate(11.055)"><rect class="a" width="18.207" height="109.245"/></g><g transform="translate(40.317)"><rect class="a" width="18.207" height="109.245"/></g><g transform="translate(69.579)"><rect class="a" width="18.208" height="109.245"/></g><g transform="translate(98.841)"><rect class="a" width="18.208" height="109.245"/></g><g transform="translate(128.103)"><rect class="a" width="18.208" height="109.245"/></g><g transform="translate(157.365)"><rect class="a" width="18.207" height="109.245"/></g><g transform="translate(186.627)"><rect class="a" width="18.207" height="109.245"/></g><g transform="translate(0 12.355)"><rect class="a" width="202.233" height="5.852" rx="1.422"/></g><g transform="translate(0 96.098)"><rect class="a" width="202.233" height="5.852" rx="1.422"/></g></g><g transform="translate(275.766)"><g transform="translate(3.375)"><rect class="a" width="101.48" height="167.979"/></g><g transform="translate(0)"><rect class="c" width="101.48" height="167.979"/></g><g transform="translate(4.321 3.406)"><rect class="b" width="92.838" height="161.166"/></g><g transform="translate(21.994 24.349)"><g transform="translate(0.002)"><rect class="c" width="57.088" height="119.281"/></g><g transform="translate(0 33.066)"><path class="a" d="M365.494,146.7c-.132-11.142,9.886-22.02,20.921-23.576,5.262-.742,10.852.3,15.768-1.713,8.775-3.6,11.567-15.258,20.4-18.716l.4,86.215H365.494Z" transform="translate(-365.493 -102.692)"/></g></g></g></g><g transform="translate(46.458 433.096)"><g transform="translate(0 0)"><path class="d" d="M420.56,465.359c0,.133-83.64.24-186.791.24-103.188,0-186.81-.107-186.81-.24s83.622-.24,186.81-.24C336.92,465.119,420.56,465.226,420.56,465.359Z" transform="translate(-46.959 -465.119)"/></g></g><g transform="translate(40.314 47.68)"><g transform="translate(48.298 21.674)"><path class="e" d="M242.747,73.593l44.484-1.879A14.424,14.424,0,0,1,302.261,85.8l1.572,68.71a14.425,14.425,0,0,1-12.923,14.678h0a4.793,4.793,0,0,0-4.292,4.951l5.588,145.124a18,18,0,0,1-17.191,18.678l-169.937,7.544a4.793,4.793,0,0,1-5-4.646L92.555,88.918A4.793,4.793,0,0,1,97,83.995Z" transform="translate(-92.553 -71.701)"/></g><g class="f" transform="translate(55.676 22.013)"><path d="M100.533,336.1l.142,4.762,182.94-16.821-3.5-251.975S235.71,78.8,234.9,78.8,100.533,336.1,100.533,336.1Z" transform="translate(-100.533 -72.067)"/></g><g transform="translate(19.329 6.686)"><g transform="translate(0.198 0.118)"><path class="c" d="M217.24,58.855l53.09-3.238,5.481,261.167L88.954,335.735,61.435,75.939Z" transform="translate(-61.435 -55.617)"/></g><path class="d" d="M217.223,58.845s-.931.12-2.752.328l-8.077.912L175.36,63.537,61.439,76.109l.159-.2c7.389,69.607,16.988,160.028,27.578,259.79l-.263-.214,41.883-4.248,144.974-14.691-.2.232C273.221,202.59,271.3,108.933,270.2,55.61l.117.108-39.509,2.356-10.151.591c-2.278.129-3.438.18-3.438.18s1.157-.091,3.433-.239L230.8,57.96l39.5-2.462.116-.007,0,.116c1.144,53.322,3.151,146.977,5.6,261.164l0,.211-.21.02L130.846,331.717l-41.884,4.247-.238.024-.025-.238c-10.545-99.766-20.1-190.191-27.46-259.8l-.018-.179.178-.019L175.341,63.337l31.044-3.356,8.082-.86C216.289,58.929,217.223,58.845,217.223,58.845Z" transform="translate(-61.221 -55.49)"/></g><g transform="translate(10.243)"><g transform="translate(0 0.214)"><path class="g" d="M51.393,66.727l25.3,262.842,195.7-18.434L244.165,48.489Z" transform="translate(-51.393 -48.489)"/></g><g transform="translate(0)"><path class="d" d="M51.393,66.71,244.146,48.276l.193-.018.02.193C252.3,122.182,262.069,213,272.625,311.091l.026.243-.242.022-1.388.131L76.709,329.768l-.216.02-.02-.216C61.623,173.942,51.576,68.625,51.393,66.71,51.579,68.623,61.8,173.924,76.9,329.531l-.237-.2,194.309-18.327,1.387-.13-.217.265c-10.523-98.1-20.267-188.916-28.177-262.65l.214.174Z" transform="translate(-51.393 -48.258)"/></g></g><g transform="translate(160.326 189.019)"><path class="a" d="M213.721,281.476A28.845,28.845,0,1,1,242.5,310.388,28.878,28.878,0,0,1,213.721,281.476Zm57.16.134A28.315,28.315,0,1,0,242.5,309.859,28.347,28.347,0,0,0,270.881,281.61Z" transform="translate(-213.721 -252.699)"/><g transform="translate(3.289 3.686)"><path class="a" d="M217.278,281.784A25.158,25.158,0,1,1,242.376,307,25.187,25.187,0,0,1,217.278,281.784Zm46.6.11a21.446,21.446,0,1,0-21.5,21.4A21.47,21.47,0,0,0,263.882,281.894Z" transform="translate(-217.278 -256.686)"/></g><g transform="translate(9.48 20.809)"><path class="a" d="M223.974,283.55a18.417,18.417,0,0,1,1.994-8.344l3.311,1.674a14.746,14.746,0,0,0-1.594,6.679,14.9,14.9,0,0,0,22.663,12.755l1.937,3.166a18.615,18.615,0,0,1-28.311-15.93Z" transform="translate(-223.974 -275.206)"/></g><g transform="translate(19.502 10.586)"><path class="a" d="M234.814,266.246a18.615,18.615,0,0,1,24.341,26.431l-3.139-1.98a14.9,14.9,0,0,0-19.487-21.16Z" transform="translate(-234.814 -264.149)"/></g></g><g transform="translate(33.378 67.828)"><path class="d" d="M241.417,121.624c.013.133-36.917,3.728-82.474,8.029-45.573,4.3-82.515,7.683-82.527,7.55s36.909-3.726,82.482-8.029C204.455,124.873,241.405,121.491,241.417,121.624Z" transform="translate(-76.416 -121.62)"/></g><g transform="translate(32.676 65.757)"><path class="d" d="M151.826,119.388c.013.133-17.03,1.85-38.06,3.836s-38.1,3.488-38.11,3.356,17.027-1.849,38.064-3.836S151.813,119.256,151.826,119.388Z" transform="translate(-75.656 -119.38)"/></g><g transform="translate(34.098 78.538)"><path class="d" d="M242.2,133.208c.013.132-36.917,3.727-82.474,8.029-45.573,4.3-82.515,7.682-82.527,7.55s36.909-3.727,82.482-8.03C205.233,136.456,242.183,133.075,242.2,133.208Z" transform="translate(-77.194 -133.204)"/></g><g transform="translate(34.817 89.248)"><path class="d" d="M242.973,144.791c.013.132-36.917,3.727-82.474,8.029-45.573,4.3-82.515,7.682-82.527,7.55s36.909-3.727,82.482-8.03C206.011,148.039,242.961,144.658,242.973,144.791Z" transform="translate(-77.972 -144.787)"/></g><g transform="translate(35.536 99.957)"><path class="d" d="M243.751,156.374c.013.132-36.917,3.728-82.474,8.029-45.573,4.3-82.515,7.682-82.527,7.55s36.909-3.727,82.482-8.03C206.789,159.622,243.739,156.241,243.751,156.374Z" transform="translate(-78.75 -156.37)"/></g><g transform="translate(36.256 110.666)"><path class="d" d="M244.529,167.957c.013.132-36.917,3.728-82.474,8.029-45.573,4.3-82.515,7.682-82.527,7.55s36.909-3.726,82.482-8.029C207.567,171.2,244.517,167.824,244.529,167.957Z" transform="translate(-79.528 -167.953)"/></g><g transform="translate(36.975 121.375)"><path class="d" d="M245.307,179.54c.013.133-36.917,3.728-82.474,8.029-45.573,4.3-82.515,7.683-82.527,7.551s36.909-3.727,82.482-8.03C208.345,182.789,245.3,179.407,245.307,179.54Z" transform="translate(-80.306 -179.536)"/></g><g transform="translate(39.848 132.085)"><path class="d" d="M246.261,191.124c.013.132-36.434,3.682-81.4,7.927s-81.438,7.581-81.45,7.448,36.427-3.682,81.4-7.928S246.249,190.991,246.261,191.124Z" transform="translate(-83.414 -191.12)"/></g><g transform="translate(40.793 152.682)"><path class="d" d="M182.758,213.4c.011.132-21.991,2.222-49.137,4.665s-49.173,4.32-49.185,4.186,21.986-2.221,49.142-4.665S182.746,213.271,182.758,213.4Z" transform="translate(-84.436 -213.397)"/></g><g transform="translate(52.546 241.194)"><path d="M157,309.142c.011.132-13.379,1.378-29.905,2.781s-29.937,2.433-29.948,2.3,13.376-1.378,29.907-2.781S156.99,309.01,157,309.142Z" transform="translate(-97.148 -309.131)"/></g><g transform="translate(53.084 251.411)"><path d="M131.325,320.2c.011.132-7.5.878-16.777,1.666s-16.808,1.319-16.819,1.186,7.5-.878,16.778-1.666S131.314,320.068,131.325,320.2Z" transform="translate(-97.729 -320.181)"/></g><g transform="translate(45.09 176.043)"><path class="h" d="M128.612,238.679c.013.132-8.826,1.111-19.74,2.188s-19.777,1.84-19.789,1.708,8.824-1.111,19.742-2.188S128.6,238.547,128.612,238.679Z" transform="translate(-89.083 -238.664)"/></g><g class="f" transform="translate(30.887 218.205)"><path d="M74.34,302.881,92.3,299.409l10.046-15.144-28.628,9.4Z" transform="translate(-73.721 -284.265)"/></g><g transform="translate(0 212.925)"><path class="i" d="M40.314,283.1l47.966-4.541,11.549,5.28L90.612,294.2l-48.724,5.253Z" transform="translate(-40.314 -278.554)"/><g transform="translate(15.892 7.557)"><path class="g" d="M63.146,286.728l.617,6.151-1.424.142-.253-2.521-2.794.281.253,2.521-1.424.143-.618-6.152,1.424-.142.244,2.426,2.793-.281-.242-2.426Z" transform="translate(-57.503 -286.728)"/><path class="g" d="M70.1,290.384l-3.576.36a1.268,1.268,0,0,0,1.449.814,1.612,1.612,0,0,0,1.14-.577l.809.717a2.774,2.774,0,0,1-4.816-1.2,2.419,2.419,0,0,1,2.277-2.687,2.352,2.352,0,0,1,2.707,2.2C70.1,290.117,70.1,290.269,70.1,290.384Zm-3.674-.439,2.329-.233a1.187,1.187,0,0,0-2.329.233Z" transform="translate(-58.076 -286.808)"/><path class="g" d="M74.16,287.123l.127,1.267c-.116,0-.2,0-.309.013a1.166,1.166,0,0,0-1.124,1.444l.224,2.232-1.371.137-.473-4.727,1.308-.131.063.624A1.919,1.919,0,0,1,74.16,287.123Z" transform="translate(-58.539 -286.758)"/><path class="g" d="M80.113,289.38l-3.576.359a1.268,1.268,0,0,0,1.449.815,1.612,1.612,0,0,0,1.14-.577l.809.717a2.774,2.774,0,0,1-4.816-1.2A2.418,2.418,0,0,1,77.4,286.8a2.353,2.353,0,0,1,2.707,2.205C80.114,289.113,80.112,289.265,80.113,289.38Zm-3.674-.44,2.328-.233a1.187,1.187,0,0,0-2.328.233Z" transform="translate(-58.831 -286.733)"/></g></g><g transform="translate(68.443 174.874)"><path d="M191.341,237.4s.056.015.165.055a2.317,2.317,0,0,1,.467.22,6.682,6.682,0,0,1,1.543,1.305,22.117,22.117,0,0,1,3.887,6.7,28.08,28.08,0,0,1,2.016,12.068,18.251,18.251,0,0,1-.655,3.677,24.553,24.553,0,0,1-6.6,10.612,25.627,25.627,0,0,1-7.924,5.184,21.7,21.7,0,0,1-10.121,1.592,22.2,22.2,0,0,1-17.772-12.692,18.11,18.11,0,0,1-1.608-5.875,13.8,13.8,0,0,1,.646-6.2,9.966,9.966,0,0,1,3.693-5.175,7.17,7.17,0,0,1,3.077-1.15,7.366,7.366,0,0,1,3.291.386,9.714,9.714,0,0,1,5.071,4.207,15.6,15.6,0,0,1,2.012,6.408,27.994,27.994,0,0,1-1.975,13.456,26.479,26.479,0,0,1-8.13,10.89A24.409,24.409,0,0,1,150.189,288a22.944,22.944,0,0,1-12.561-2.045,21.457,21.457,0,0,1-8.934-8.3,20.825,20.825,0,0,1-3.023-11.209,15.2,15.2,0,0,1,1.078-5.517,10.938,10.938,0,0,1,3.16-4.438A6.538,6.538,0,0,1,134.923,255a7.506,7.506,0,0,1,4.421,2.461,9.41,9.41,0,0,1,2.218,4.339,12.214,12.214,0,0,1-.006,4.664,24.2,24.2,0,0,1-3.29,7.956,38.247,38.247,0,0,1-4.619,6.141,41.817,41.817,0,0,1-4.916,4.53,42.581,42.581,0,0,1-4.679,3.111,36.032,36.032,0,0,1-7.1,3.133c-1.693.54-2.608.726-2.608.726s.22-.079.656-.211,1.092-.295,1.922-.607a37.351,37.351,0,0,0,7.039-3.2,42.827,42.827,0,0,0,4.631-3.13,41.883,41.883,0,0,0,4.859-4.531A38.092,38.092,0,0,0,138,274.264a23.973,23.973,0,0,0,3.217-7.859,11.893,11.893,0,0,0-.007-4.53,9.064,9.064,0,0,0-2.144-4.162,7.129,7.129,0,0,0-4.2-2.328,6.14,6.14,0,0,0-4.712,1.412,10.528,10.528,0,0,0-3.029,4.283,14.77,14.77,0,0,0-1.036,5.372,20.4,20.4,0,0,0,2.981,10.971,21.021,21.021,0,0,0,8.754,8.114,22.482,22.482,0,0,0,12.308,1.991,23.94,23.94,0,0,0,12-4.833A26.006,26.006,0,0,0,170.111,272a27.537,27.537,0,0,0,1.944-13.221,15.122,15.122,0,0,0-1.943-6.214,9.239,9.239,0,0,0-4.819-4.007,6.881,6.881,0,0,0-3.082-.366,6.7,6.7,0,0,0-2.872,1.072,9.513,9.513,0,0,0-3.517,4.936,13.348,13.348,0,0,0-.632,6,17.692,17.692,0,0,0,1.563,5.737,21.8,21.8,0,0,0,17.4,12.479,21.354,21.354,0,0,0,9.946-1.538,25.314,25.314,0,0,0,7.828-5.086,24.307,24.307,0,0,0,6.556-10.447,17.967,17.967,0,0,0,.662-3.618,28.045,28.045,0,0,0-1.921-11.979,22.509,22.509,0,0,0-3.784-6.706,6.958,6.958,0,0,0-1.5-1.328C191.567,237.47,191.332,237.422,191.341,237.4Z" transform="translate(-114.342 -237.399)"/></g><text class="j" transform="matrix(0.995, -0.105, 0.105, 0.995, 42.115, 48.262)"><tspan x="0" y="0">Terms &amp; Conditions</tspan></text></g><g transform="translate(185.566 106.937)"><g transform="translate(67.231)"><g transform="translate(59.512)"><g transform="translate(0.015 0.184)"><path class="d" d="M334.559,143.283a2.392,2.392,0,0,1,.869-1.393,5.919,5.919,0,0,1,3.674-.909,15.616,15.616,0,0,0,1.505-4.878,3.114,3.114,0,0,1-1.733-.494,1.735,1.735,0,0,1-.285-.087c-1.234-.566-1.355-2.409-.578-3.523a7.042,7.042,0,0,1,3.376-2.168,11.712,11.712,0,0,0-2.614.948c-.889.277-2.142-.029-2.248-.955a2.019,2.019,0,0,1,.141-.834q.259-.821.521-1.642a1.833,1.833,0,0,1,.723-1.146,4.3,4.3,0,0,1,.948-.227c1.04-.28,1.578-1.543,2.616-1.834a4.771,4.771,0,0,1,2.323.344c.772.183,1.794.031,2.033-.725a7.417,7.417,0,0,1-2.644-2.235,2.542,2.542,0,0,1,.251-3.2,3.737,3.737,0,0,1,2.615-.535c1.017.045,2.282.276,2.55,1.257a2.646,2.646,0,0,1,3.247,2.076l2.619-.265c-.731-.787-1.771-1.266-2.4-2.135s-.515-2.434.536-2.66a7.234,7.234,0,0,0,1.168-.1c.263-.1.481-.342.765-.353a1.02,1.02,0,0,1,.565.222l5.533,3.61-1.5-3.477c-.46-1.069-.817-2.543.14-3.2.926-.64,2.278.284,2.473,1.392a1.8,1.8,0,0,1,2.187,1.655,1.823,1.823,0,0,1,2.142,2.783,5.175,5.175,0,0,1,2.632.786,1.586,1.586,0,0,1,2.563-1.092,2.761,2.761,0,0,1,.406-1.577.955.955,0,0,1,1.428-.159,1.854,1.854,0,0,1,3-1.814q.455-.552.912-1.1a2.438,2.438,0,0,1,2.351,1.22c.385.854-.259,2.084-1.192,2,.655-.011.508,1.036.124,1.569l-1.6,2.225a2.051,2.051,0,0,1,2.539-.225,1.586,1.586,0,0,1,2.293.018,1.285,1.285,0,0,1,2.308.39c.163-.429.751-.455,1.207-.4a2.984,2.984,0,0,1,1.829.628c.468.462.464,1.421-.153,1.649.56-.314,1.282.3,1.292.946a2.3,2.3,0,0,1-.92,1.625,5.365,5.365,0,0,0-1.318,1.388,2.713,2.713,0,0,1,1.85-.39,7.031,7.031,0,0,1,3.348.668c.2-.452.827-.472,1.31-.374a7.835,7.835,0,0,1,3.991,2.17c.509.518.965,1.294.618,1.932a1.944,1.944,0,0,1-.733.651l-3.551,2.2a9.67,9.67,0,0,1,4.855,3.44c.71.412,1.612.456,2.253.968s.6,1.866-.227,1.865a1.507,1.507,0,0,1,.436,1.747,1.436,1.436,0,0,1-.554.611,2.047,2.047,0,0,1-.389.44,2.783,2.783,0,0,1-.954.5,1.856,1.856,0,0,1-1.587.732,7.569,7.569,0,0,1,1.688,2,3.168,3.168,0,0,1,0,3.258,1.757,1.757,0,0,1-.126.138,1.548,1.548,0,0,1-.68.985,1.309,1.309,0,0,1,.126.865,3.465,3.465,0,0,1,.779,6.074c-.816.577-2.332.471-2.408-.526a2.7,2.7,0,0,1-2.049,1.491,2.613,2.613,0,0,1-1.367,3.6,2.785,2.785,0,0,1-.876,4.556,2.133,2.133,0,1,1-4.03,1.4,4.52,4.52,0,0,1-1.6,2,1.565,1.565,0,0,1-2.208-.577,2.929,2.929,0,0,1-4.3,1.394,1.895,1.895,0,0,1-3.768.333l-4.893-.047a17.431,17.431,0,0,1-3.234-.233,8.765,8.765,0,0,1-3.728-1.725,2.958,2.958,0,0,0-1.13-.687,3.049,3.049,0,0,0-1.5.23,7.916,7.916,0,0,1-7.52-1.778,3.968,3.968,0,0,0-.992-.791,3.573,3.573,0,0,0-1.444-.2,14.277,14.277,0,0,1-3.556-.512,3.78,3.78,0,0,1-2.508-1.646c-.468-.918.081-2.335,1.112-2.319a2.211,2.211,0,0,0-.546-1.858,1.331,1.331,0,0,0-1.807-.075.958.958,0,0,0,.44,1.562,1.975,1.975,0,0,1-2.853-1.652,2.645,2.645,0,0,1,2.652-2.469,6.082,6.082,0,0,1-.076-2.959,2.176,2.176,0,0,1-2.964.336,3.746,3.746,0,0,1-2.427,1.745,2.246,2.246,0,0,1-2.48-1.354,1.617,1.617,0,0,1,1.537-2.083,1.933,1.933,0,0,1,1.718-2.8,3.008,3.008,0,0,1,1.836-3.193,1.583,1.583,0,0,1-2.252-.869c-.623.982-2.139.742-3.143.153A2.114,2.114,0,0,1,334.559,143.283Z" transform="translate(-334.516 -112.549)"/></g><path class="k" d="M334.557,143.268a1.539,1.539,0,0,0-.056.4,1.734,1.734,0,0,0,.374,1.127,3.813,3.813,0,0,0,1.627,1.117,3.3,3.3,0,0,0,1.268.215,1.581,1.581,0,0,0,1.29-.681l-.106-.016a1.65,1.65,0,0,0,2.346.913l-.063-.126a3.094,3.094,0,0,0-1.893,3.272l.091-.1a1.866,1.866,0,0,0-1.682.9,1.9,1.9,0,0,0-.124,2.027l.092-.144a1.63,1.63,0,0,0-1.639,1.232,1.785,1.785,0,0,0,.827,2.029,2.582,2.582,0,0,0,2.358.218,4.177,4.177,0,0,0,1.911-1.628l-.169.027a2.3,2.3,0,0,0,3.132-.351l-.216-.1a6.23,6.23,0,0,0,.073,3.02l.122-.163a2.971,2.971,0,0,0-1.821.677,2.5,2.5,0,0,0-.958,1.762,2.078,2.078,0,0,0,.965,1.815,1.87,1.87,0,0,0,2.1.111l.312-.214-.374-.041a.776.776,0,0,1-.546-.919.851.851,0,0,1,.927-.676,1.313,1.313,0,0,1,1.117.679,2.278,2.278,0,0,1,.248,1.409l.15-.13a1.272,1.272,0,0,0-.974.453,1.882,1.882,0,0,0-.435.967,1.855,1.855,0,0,0,.135,1.063,2.515,2.515,0,0,0,.656.84,5.076,5.076,0,0,0,1.883.916,14.414,14.414,0,0,0,2.059.425c1.382.29,2.982-.273,3.886,1.011a7.972,7.972,0,0,0,3.949,2.031,8.169,8.169,0,0,0,2.289.136,11.683,11.683,0,0,0,2.249-.493,1.377,1.377,0,0,1,1,.113,8.045,8.045,0,0,1,.913.673,9.056,9.056,0,0,0,2.086,1.167,12.552,12.552,0,0,0,4.776.687l4.909.052-.181-.157a2.082,2.082,0,0,0,4.139-.366l-.3.158a3.123,3.123,0,0,0,4.6-1.488l-.363.006a1.421,1.421,0,0,0,1.044.868,2.033,2.033,0,0,0,1.379-.158,4.583,4.583,0,0,0,1.736-2.107l-.358-.027a2.33,2.33,0,1,0,4.4-1.528l-.128.254a2.78,2.78,0,0,0,1.777-2.116,2.818,2.818,0,0,0-.833-2.784l-.063.346a2.818,2.818,0,0,0,1.478-3.89l-.15.3a2.912,2.912,0,0,0,2.207-1.605l-.388-.071a1.06,1.06,0,0,0,.318.677,1.386,1.386,0,0,0,.641.333,2.314,2.314,0,0,0,1.363-.114,3.453,3.453,0,0,0,1.752-2.034,3.556,3.556,0,0,0-.141-2.728,3.757,3.757,0,0,0-2.028-1.892l.13.236a1.524,1.524,0,0,0-.144-1l-.078.271a1.762,1.762,0,0,0,.775-1.115l-.047.091a3.084,3.084,0,0,0,.4-3.092,6.746,6.746,0,0,0-1.971-2.6l-.157.363a2.071,2.071,0,0,0,1.772-.814l-.1.073a2.619,2.619,0,0,0,1.454-1.023l-.061.06a1.57,1.57,0,0,0,.766-1.278,1.712,1.712,0,0,0-.632-1.422l-.129.374a.8.8,0,0,0,.662-.335,1.216,1.216,0,0,0,.212-.666,1.526,1.526,0,0,0-.521-1.242,15.933,15.933,0,0,0-2.274-.983l.063.056a9.9,9.9,0,0,0-4.96-3.515l.048.38,1.626-1.007,1.233-.764a10.312,10.312,0,0,0,1.238-.825,1.246,1.246,0,0,0,.395-.749,1.563,1.563,0,0,0-.129-.813,3.55,3.55,0,0,0-.922-1.206,8.052,8.052,0,0,0-3.883-1.983,2.163,2.163,0,0,0-.788-.012.926.926,0,0,0-.709.518l.3-.1a5.985,5.985,0,0,0-2.691-.664c-.456-.021-.895-.047-1.364-.034a2.27,2.27,0,0,0-1.381.441l.319.257c.4-.787,1.365-1.2,1.935-2.081a1.565,1.565,0,0,0,.189-1.561,1.358,1.358,0,0,0-.585-.591.934.934,0,0,0-.879,0l.174.377a.941.941,0,0,0,.558-.6,1.391,1.391,0,0,0,.015-.77,1.343,1.343,0,0,0-.392-.661,1.98,1.98,0,0,0-.624-.381,5.159,5.159,0,0,0-1.343-.27,2.286,2.286,0,0,0-.718.033.858.858,0,0,0-.643.51l.4.05a1.489,1.489,0,0,0-2.7-.456l.342-.044a1.787,1.787,0,0,0-2.6-.019l.277-.029a2.254,2.254,0,0,0-2.8.239l.307.269,1.357-1.888a2.648,2.648,0,0,0,.565-1.09,1.4,1.4,0,0,0,0-.669.658.658,0,0,0-.221-.344.633.633,0,0,0-.4-.125l-.015.4a1.383,1.383,0,0,0,1.313-.806,1.711,1.711,0,0,0,.06-1.521,2.655,2.655,0,0,0-2.521-1.3l-.09,0-.058.069-.911,1.1.282-.027a2.054,2.054,0,0,0-3.323,2.01l.349-.165a.96.96,0,0,0-.944-.312,1.312,1.312,0,0,0-.811.5,2.973,2.973,0,0,0-.43,1.665l.335-.129a1.779,1.779,0,0,0-2.9,1.235l.3-.169a5.364,5.364,0,0,0-2.732-.814l.151.308a2.015,2.015,0,0,0-2.367-3.074l.261.177a1.982,1.982,0,0,0-2.429-1.836l.237.148a2.219,2.219,0,0,0-.743-1.253,1.9,1.9,0,0,0-1.368-.5,1.456,1.456,0,0,0-1.172.87,2.479,2.479,0,0,0-.111,1.407,11.69,11.69,0,0,0,.906,2.5l1.021,2.37.263-.222-3.417-2.225-1.673-1.088a4.318,4.318,0,0,0-.9-.517.8.8,0,0,0-.6.093c-.16.088-.288.186-.41.239a2.581,2.581,0,0,1-.9.074,1.276,1.276,0,0,0-.967.471,2.116,2.116,0,0,0-.2,1.992,3.678,3.678,0,0,0,1.268,1.481,11.931,11.931,0,0,1,1.412,1.164l.1-.276-2.619.268.177.139a2.8,2.8,0,0,0-3.452-2.2l.2.108a1.8,1.8,0,0,0-1.333-1.165,6.483,6.483,0,0,0-1.686-.215,4.783,4.783,0,0,0-1.671.186,2.06,2.06,0,0,0-1.255,1.113,3.048,3.048,0,0,0,.544,3.081,8.782,8.782,0,0,0,2.408,1.872l-.061-.161a1.078,1.078,0,0,1-.912.667,2.667,2.667,0,0,1-1.238-.1,8.811,8.811,0,0,0-1.269-.314,1.954,1.954,0,0,0-1.3.25c-.756.46-1.2,1.21-1.888,1.536a10.633,10.633,0,0,1-1.141.295,1.521,1.521,0,0,0-.774.953l-.686,2.159a1.336,1.336,0,0,0,.086,1.147,1.526,1.526,0,0,0,.944.614,2.484,2.484,0,0,0,1.085.017,5.027,5.027,0,0,0,.976-.367,5.2,5.2,0,0,1,1.81-.635l-.044-.2a12.306,12.306,0,0,0-2.146,1.029,3.987,3.987,0,0,0-1.505,1.607,2.936,2.936,0,0,0-.146,2.019,1.812,1.812,0,0,0,1.3,1.3l-.02-.009a3.153,3.153,0,0,0,1.776.5l-.075-.084a15.585,15.585,0,0,1-1.479,4.864l.046-.03a9.2,9.2,0,0,0-2.455.3,3.447,3.447,0,0,0-1.486.87,2.338,2.338,0,0,0-.526.865,1.442,1.442,0,0,0-.076.322,2.474,2.474,0,0,1,.641-1.149,3.422,3.422,0,0,1,1.47-.831,9.283,9.283,0,0,1,2.434-.269h.031l.015-.03a15.471,15.471,0,0,0,1.53-4.891l.012-.085H340.6a3.006,3.006,0,0,1-1.687-.487l-.013-.007-.008,0a1.645,1.645,0,0,1-1.18-1.192,2.761,2.761,0,0,1,.149-1.894,3.815,3.815,0,0,1,1.444-1.519,12.192,12.192,0,0,1,2.116-1l.606-.239-.65.039a5.36,5.36,0,0,0-1.888.644,4.8,4.8,0,0,1-.931.348,2.256,2.256,0,0,1-.985-.019,1.3,1.3,0,0,1-.8-.518,1.1,1.1,0,0,1-.055-.959l.689-2.139a1.283,1.283,0,0,1,.641-.809,9.21,9.21,0,0,0,1.154-.3c.779-.378,1.227-1.138,1.911-1.538a2.841,2.841,0,0,1,2.364.1,2.941,2.941,0,0,0,1.359.115,1.351,1.351,0,0,0,1.129-.852l.032-.1-.093-.056a8.581,8.581,0,0,1-2.326-1.814,2.763,2.763,0,0,1-.5-2.779,1.758,1.758,0,0,1,1.083-.95,4.5,4.5,0,0,1,1.564-.165,6.215,6.215,0,0,1,1.606.207,1.5,1.5,0,0,1,1.12.951l.041.156.156-.047a2.489,2.489,0,0,1,3.04,1.947l.025.154.152-.016,2.62-.262.332-.033-.227-.243a12.118,12.118,0,0,0-1.447-1.2,3.374,3.374,0,0,1-1.158-1.338,1.793,1.793,0,0,1,.146-1.66.93.93,0,0,1,.717-.34,2.728,2.728,0,0,0,1.022-.1c.344-.167.56-.389.784-.312a4.516,4.516,0,0,1,.8.472l1.67,1.092,3.414,2.231.5.325-.235-.547q-.5-1.176-1.017-2.371a11.516,11.516,0,0,1-.877-2.413,2.124,2.124,0,0,1,.087-1.2,1.081,1.081,0,0,1,.868-.65,1.791,1.791,0,0,1,1.708,1.443l.038.207.2-.059a1.613,1.613,0,0,1,1.945,1.475v.283l.262-.106a1.632,1.632,0,0,1,1.917,2.491l-.227.3.377.007a4.982,4.982,0,0,1,2.533.758l.313.2-.016-.365a1.4,1.4,0,0,1,2.228-.95l.313.316.022-.445a2.638,2.638,0,0,1,.354-1.45c.247-.355.888-.5,1.127-.175l.547.737-.2-.9a1.655,1.655,0,0,1,2.679-1.618l.153.129.129-.155.913-1.1-.147.073a2.261,2.261,0,0,1,2.142,1.07c.361.688-.19,1.82-.973,1.747l-.014.406c.128.007.177.041.22.175a1.022,1.022,0,0,1-.009.472,2.255,2.255,0,0,1-.5.938l-1.358,1.888.306.269a1.848,1.848,0,0,1,2.275-.21l.153.116.124-.144a1.383,1.383,0,0,1,1.982.016l.212.252.131-.3a1.086,1.086,0,0,1,1.917.324l.092,1.036.308-.987c.081-.263.541-.32.937-.277a4.774,4.774,0,0,1,1.229.243,1.143,1.143,0,0,1,.766.76c.1.356-.015.778-.314.877l.174.376c.285-.175.718.071.889.422a1.157,1.157,0,0,1-.167,1.145c-.462.756-1.438,1.16-1.956,2.115l-.492.908.812-.65c.609-.488,1.584-.33,2.454-.311a5.592,5.592,0,0,1,2.5.608l.214.124.085-.222c.112-.3.619-.343,1.034-.26a7.633,7.633,0,0,1,3.675,1.879,3.144,3.144,0,0,1,.819,1.06.909.909,0,0,1-.168,1.095,10.6,10.6,0,0,1-1.17.771l-1.232.764-1.627,1.006-.394.244.443.137a9.487,9.487,0,0,1,4.748,3.364l.027.036.037.02c.783.441,1.654.485,2.224.949a1.116,1.116,0,0,1,.362.895c-.012.341-.183.615-.453.6l-.665-.039.535.414a1.3,1.3,0,0,1,.471,1.072,1.143,1.143,0,0,1-.573.944l-.039.023-.023.037a2.195,2.195,0,0,1-1.231.857l-.065.02-.04.053a1.654,1.654,0,0,1-1.4.651l-.63-.059.472.423a6.352,6.352,0,0,1,1.858,2.428,2.678,2.678,0,0,1-.315,2.675l-.035.039-.012.052a1.346,1.346,0,0,1-.583.854l-.167.1.089.173a1.113,1.113,0,0,1,.108.729l-.038.173.168.064a3.339,3.339,0,0,1,1.8,1.681,3.139,3.139,0,0,1,.127,2.416,3.073,3.073,0,0,1-1.516,1.789,1.913,1.913,0,0,1-1.115.1.745.745,0,0,1-.647-.643l-.047-.8-.34.726a2.506,2.506,0,0,1-1.891,1.378l-.3.036.15.265a2.422,2.422,0,0,1-1.256,3.308l-.352.11.289.236a2.418,2.418,0,0,1,.7,2.388,2.386,2.386,0,0,1-1.506,1.823l-.2.061.068.194a1.936,1.936,0,1,1-3.658,1.269l-.146-.436-.212.41a4.238,4.238,0,0,1-1.566,1.943,1.37,1.37,0,0,1-1.884-.5l-.185-.552-.179.558a2.745,2.745,0,0,1-4.011,1.3l-.312-.23.011.387a1.708,1.708,0,0,1-3.4.3l-.021-.156h-.159l-4.909-.043a12.2,12.2,0,0,1-4.649-.656,8.661,8.661,0,0,1-2.005-1.117,8.31,8.31,0,0,0-.961-.7,1.73,1.73,0,0,0-1.238-.143,11.417,11.417,0,0,1-2.208.49,7.813,7.813,0,0,1-2.194-.126,7.646,7.646,0,0,1-3.788-1.938,4.2,4.2,0,0,0-.868-.707,2.489,2.489,0,0,0-1.1-.256,16.958,16.958,0,0,1-2.1-.126,13.976,13.976,0,0,1-2.014-.411,4.786,4.786,0,0,1-1.771-.85,1.732,1.732,0,0,1-.69-1.624,1.238,1.238,0,0,1,1.1-1.168l.135,0,.016-.134a2.573,2.573,0,0,0-.289-1.595,1.614,1.614,0,0,0-1.365-.82,1.14,1.14,0,0,0-1.216.923,1.052,1.052,0,0,0,.79,1.242l-.061-.255a1.6,1.6,0,0,1-1.783-.107,1.805,1.805,0,0,1-.851-1.573,2.552,2.552,0,0,1,2.512-2.2h.168l-.045-.162a6,6,0,0,1-.08-2.9l.119-.526-.336.423a2.065,2.065,0,0,1-2.794.322l-.1-.082-.072.109a3.957,3.957,0,0,1-1.8,1.548,2.365,2.365,0,0,1-2.164-.189,1.577,1.577,0,0,1-.749-1.794,1.437,1.437,0,0,1,1.425-1.1l.19.023-.1-.168a1.847,1.847,0,0,1,1.63-2.662l.107.011-.018-.108a2.944,2.944,0,0,1,1.779-3.113l-.063-.126a1.523,1.523,0,0,1-2.157-.827l-.034-.132-.073.117a1.472,1.472,0,0,1-1.2.641,3.234,3.234,0,0,1-1.232-.2,3.8,3.8,0,0,1-1.611-1.07,1.732,1.732,0,0,1-.391-1.09C334.531,143.4,334.569,143.27,334.557,143.268Z" transform="translate(-334.5 -112.35)"/><g transform="translate(12.324 18.501)"><path class="l" d="M380.365,148.8a15.6,15.6,0,0,0-15.3-16.435,16.058,16.058,0,0,0-16.27,14.674c-.641,7.262-1.122,14.583-.918,17.217.617,7.944,5.554,10.733,7.534,11.539a10.627,10.627,0,0,0,2.164.383h0a.053.053,0,0,1,.049.059l-1.208,9.243c-.429,6.032-1.753,26.544,4.383,27.021,6.156.479,15.695-19.82,16.239-25.864Z" transform="translate(-347.83 -132.361)"/></g><g transform="translate(15.281 34.075)"><g transform="translate(0.401 3.815)"><path class="d" d="M351.469,154.379a1.268,1.268,0,0,0,1.134,1.37,1.235,1.235,0,0,0,1.42-1.036,1.271,1.271,0,0,0-1.133-1.371A1.234,1.234,0,0,0,351.469,154.379Z" transform="translate(-351.461 -153.331)"/></g><path class="d" d="M351.044,150.348c.145.178,1.178-.455,2.561-.344,1.383.092,2.34.87,2.5.716.079-.068-.057-.378-.473-.729a3.565,3.565,0,0,0-1.988-.777,3.453,3.453,0,0,0-2.055.48C351.14,149.982,350.972,150.268,351.044,150.348Z" transform="translate(-351.028 -149.205)"/></g><g transform="translate(28.607 35.387)"><g transform="translate(0 3.531)"><path class="d" d="M365.448,155.491a1.27,1.27,0,0,0,1.134,1.37A1.234,1.234,0,0,0,368,155.826a1.269,1.269,0,0,0-1.133-1.371A1.235,1.235,0,0,0,365.448,155.491Z" transform="translate(-365.44 -154.443)"/></g><g transform="translate(0.249)"><path class="d" d="M365.726,151.767c.146.178,1.18-.455,2.562-.344,1.383.092,2.34.87,2.5.716.079-.068-.056-.378-.473-.729a3.564,3.564,0,0,0-1.988-.776,3.447,3.447,0,0,0-2.055.479C365.824,151.4,365.654,151.687,365.726,151.767Z" transform="translate(-365.71 -150.625)"/></g></g><g transform="translate(19.569 34.943)"><path class="d" d="M359.112,161.416a9.315,9.315,0,0,0-2.214-.573c-.349-.064-.679-.158-.718-.4a1.756,1.756,0,0,1,.322-1.011q.6-1.22,1.264-2.56a45.171,45.171,0,0,0,2.92-6.728,45.509,45.509,0,0,0-3.464,6.483q-.638,1.349-1.221,2.58a1.988,1.988,0,0,0-.3,1.347.876.876,0,0,0,.539.553,2.457,2.457,0,0,0,.593.129A9.2,9.2,0,0,0,359.112,161.416Z" transform="translate(-355.665 -150.144)"/></g><g transform="translate(21.801 59.747)"><path class="m" d="M358.4,179.55s5.305.846,12.313-2.578c-.423.209-2.448,8.017-12.638,5.068Z" transform="translate(-358.079 -176.972)"/></g><g transform="translate(23.165 48.757)"><path class="m" d="M359.718,165.864a2.532,2.532,0,0,1,2.31-.735,2.277,2.277,0,0,1,1.5.95,1.4,1.4,0,0,1-.024,1.628,1.706,1.706,0,0,1-1.851.31,5.235,5.235,0,0,1-1.682-1.174,1.505,1.505,0,0,1-.362-.433.449.449,0,0,1,.043-.506" transform="translate(-359.555 -165.085)"/></g><g transform="translate(22.299 47.471)"><path class="d" d="M363.327,163.695c-.224-.031-.349,1.444-1.722,2.391s-2.957.66-2.985.865c-.029.092.333.314,1.007.385a3.806,3.806,0,0,0,2.485-.639,3.215,3.215,0,0,0,1.347-2.012C363.567,164.073,363.43,163.695,363.327,163.695Z" transform="translate(-358.618 -163.695)"/></g><g transform="translate(28.912 31.303)"><path class="d" d="M365.775,147.036c.106.38,1.5.313,3.108.631,1.613.287,2.884.855,3.126.541.109-.151-.09-.516-.589-.915a5.312,5.312,0,0,0-2.269-.985,5.37,5.37,0,0,0-2.481.092C366.055,146.589,365.731,146.856,365.775,147.036Z" transform="translate(-365.771 -146.208)"/></g><g transform="translate(15.978 30.421)"><path class="d" d="M351.808,146.484c.218.328,1.2.081,2.344.156,1.15.034,2.1.372,2.349.067.111-.15-.016-.471-.416-.8a3.45,3.45,0,0,0-3.781-.179C351.873,146.018,351.713,146.325,351.808,146.484Z" transform="translate(-351.781 -145.253)"/></g><g transform="translate(4.376 7.903)"><g transform="translate(6.149 6.503)"><path class="d" d="M346.528,137.118a9.875,9.875,0,0,1,.2-1.318,4.013,4.013,0,0,1,1.172-1.648c1.68-1.649,3.453-3.352,5.568-3.9,1.292-.334,2.632-.209,3.927-.53a22.628,22.628,0,0,0,2.348-.853,19.237,19.237,0,0,1,9.972-.538,15.87,15.87,0,0,1,5.357,1.738,19.2,19.2,0,0,1,4.8,4.369,29.251,29.251,0,0,1,5.351,8.615,14.31,14.31,0,0,1,.77,8.135c-.637,2.711-2.554,5.142-4.9,5.518l-.817-1.113-1.305-1.65c.216.658,0,.609-.55.923a1.122,1.122,0,0,1-1.551-.577c-.471.534-1.4-.129-1.2-.861-.549.25-1.178-.514-.953-1.158-.63.182-.908-.833-1.172-1.518A10.39,10.39,0,0,0,373,149.7a6.848,6.848,0,0,1-.693-3.746,6.708,6.708,0,0,1-.852-3.683l-.094-2.442-.4-.6a1.32,1.32,0,0,1-.975,1.183,2.816,2.816,0,0,1-1.463-.145l-1.42-.4-.923.187a3.657,3.657,0,0,1-.46,2.332,2.271,2.271,0,0,1-.942,1.244.685.685,0,0,1-.892-.809.759.759,0,0,1-1.156-.281,2.493,2.493,0,0,1-.2-1.515,6.385,6.385,0,0,1,1.445-3.408l-2.7,2.146a1.18,1.18,0,0,1-.645.326.666.666,0,0,1-.766.675,1.73,1.73,0,0,1-.877-.705c-.558-.693-1.116-1.837-.512-2.516a.546.546,0,0,1-.177-.815l-3.024,1.934c.3-.142.575.325.483.689a1.518,1.518,0,0,1-.663.8,2.229,2.229,0,0,1,.217,1.378c.55-.419,1.25.5,1.024,1.22a1.615,1.615,0,0,1-1.6,1.052,1.124,1.124,0,0,1-1.2-.934c-.636.081-1.169-.827-.888-1.515-.476.265-.806-.58-.781-1.2a8.863,8.863,0,0,1,.714-3.133.164.164,0,0,1-.235.047.185.185,0,0,1-.052-.124q-.9,1.767-1.8,3.534a9.2,9.2,0,0,0-1.146,3.186c-.047.467-.153,1.1-.548,1.113a.584.584,0,0,1-.3-.106,5.881,5.881,0,0,1-2.323-3.2,4.472,4.472,0,0,1-.28-1.409A19.111,19.111,0,0,1,346.528,137.118Z" transform="translate(-345.883 -127.932)"/></g><g transform="translate(38.152 31.532)"><path class="l" d="M381.3,155.155c.139-.05,5.55-1.269,5.036,4.143s-5.841,3.778-5.835,3.622S381.3,155.155,381.3,155.155Z" transform="translate(-380.497 -155.003)"/></g><g transform="translate(39.993 33.368)"><path class="m" d="M382.494,161.176c.026-.015.088.075.24.164a.953.953,0,0,0,.7.081,2.346,2.346,0,0,0,1.278-1.991,3.119,3.119,0,0,0-.136-1.375,1.093,1.093,0,0,0-.64-.791.481.481,0,0,0-.581.205c-.087.144-.063.256-.092.263s-.108-.1-.043-.321a.6.6,0,0,1,.246-.319A.714.714,0,0,1,384,157a1.329,1.329,0,0,1,.9.933,3.212,3.212,0,0,1,.184,1.539,2.459,2.459,0,0,1-1.6,2.206,1.014,1.014,0,0,1-.848-.226C382.492,161.309,382.475,161.185,382.494,161.176Z" transform="translate(-382.488 -156.988)"/></g><g transform="translate(18.898 10.021)"><path class="k" d="M360.108,136.174a1.352,1.352,0,0,1-.3-.728.959.959,0,0,1,.313-.794,1.027,1.027,0,0,1,1.059-.178l.219.1-.079-.227a1.073,1.073,0,0,1,.388-1.175,1.052,1.052,0,0,1,1.342.163l.193-.152a.464.464,0,0,1-.063-.142.607.607,0,0,1,.13-.5.7.7,0,0,1,.464-.241,1.157,1.157,0,0,1,.54.071,1.477,1.477,0,0,0,.6.187c.263-.025.395-.207.535-.282a2.042,2.042,0,0,1,.441-.224,2.339,2.339,0,0,1,.887-.125,2.378,2.378,0,0,1,1.235.412c.258.179.371.32.388.305a1.068,1.068,0,0,0-.33-.382,2.325,2.325,0,0,0-1.281-.509,2.438,2.438,0,0,0-.964.1,2.218,2.218,0,0,0-.495.236c-.166.1-.3.238-.429.237a1.429,1.429,0,0,1-.5-.18,1.383,1.383,0,0,0-.654-.091.938.938,0,0,0-.625.326.847.847,0,0,0-.179.713.7.7,0,0,0,.1.227l.193-.153a1.248,1.248,0,0,0-2.112,1.245l.14-.131a1.2,1.2,0,0,0-1.257.244,1.121,1.121,0,0,0-.068,1.511C360.033,136.145,360.1,136.18,360.108,136.174Z" transform="translate(-359.673 -131.737)"/></g><g transform="translate(12.591 7.678)"><path class="k" d="M353.411,137.031a1.669,1.669,0,0,1-.4-.717,1.22,1.22,0,0,1,.134-.913,1.271,1.271,0,0,1,1.012-.611l.177-.007-.107-.143a1.518,1.518,0,0,1-.3-1.358.815.815,0,0,1,.533-.5.646.646,0,0,1,.71.156l.628.793-.429-.917a1.26,1.26,0,0,1,.023-1.063,1.163,1.163,0,0,1,.9-.645,1.229,1.229,0,0,1,.8.151l.272.163-.092-.3c-.129-.431.336-.878.762-.9a2.072,2.072,0,0,1,1.256.431l.223.145-.052-.259a.894.894,0,0,1,.367-.84,1.649,1.649,0,0,1,.862-.3,4.216,4.216,0,0,1,1.552.17,6.707,6.707,0,0,1,1.266.581,1.115,1.115,0,0,0-.287-.238,3.962,3.962,0,0,0-.938-.469,4.156,4.156,0,0,0-1.608-.227,1.825,1.825,0,0,0-.972.319,1.1,1.1,0,0,0-.46,1.045l.17-.113a2.262,2.262,0,0,0-1.4-.483,1.137,1.137,0,0,0-.746.364.872.872,0,0,0-.23.841l.18-.141a1.47,1.47,0,0,0-.964-.184,1.4,1.4,0,0,0-1.083.782,1.491,1.491,0,0,0-.018,1.27l.2-.125a.875.875,0,0,0-.965-.225,1.038,1.038,0,0,0-.667.65,1.7,1.7,0,0,0,.357,1.544l.069-.151a1.422,1.422,0,0,0-1.132.723,1.347,1.347,0,0,0,.218,1.571C353.337,137,353.408,137.037,353.411,137.031Z" transform="translate(-352.851 -129.202)"/></g><g transform="translate(0 8.201)"><path class="k" d="M339.247,137.082a.92.92,0,0,1,.372-.639,1.173,1.173,0,0,1,.832-.221,3.462,3.462,0,0,1,1.134.374l.13.061-.006-.145a1.054,1.054,0,0,1,.941-.949,3.058,3.058,0,0,1,1.7.424l.733.347-.607-.537a.865.865,0,0,1,.173-1.233,1.96,1.96,0,0,1,1.544-.228l.072.013.474.085-.375-.3a.927.927,0,0,1,.228-1.452,1.406,1.406,0,0,1,1.545.284l.465.437-.287-.57a2.1,2.1,0,0,1,.189-2.13,1.961,1.961,0,0,1,1.515-.793,2.223,2.223,0,0,1,1.132.246c.242.129.353.232.365.219s-.02-.033-.073-.085a1.457,1.457,0,0,0-.256-.2,2.169,2.169,0,0,0-1.171-.32,2.1,2.1,0,0,0-1.663.817,2.291,2.291,0,0,0-.239,2.346l.178-.133a1.628,1.628,0,0,0-1.812-.334,1.182,1.182,0,0,0-.6.842,1.041,1.041,0,0,0,.334,1.018l.1-.218-.077-.013a2.178,2.178,0,0,0-1.738.282,1.25,1.25,0,0,0-.435.77.9.9,0,0,0,.261.823l.126-.19a3.216,3.216,0,0,0-1.832-.42,1.235,1.235,0,0,0-1.08,1.161l.124-.084a3.521,3.521,0,0,0-1.2-.352,1.263,1.263,0,0,0-.9.285.882.882,0,0,0-.315.507A.373.373,0,0,0,339.247,137.082Z" transform="translate(-339.233 -129.768)"/></g><g transform="translate(7.915 3.685)"><path class="k" d="M347.793,124.887a.718.718,0,0,0,.312.143,4.139,4.139,0,0,0,.943.13,2.836,2.836,0,0,1,1.345.322.866.866,0,0,1,.425.634.63.63,0,0,1-.31.692l.157.133c.077-.309.482-.474.849-.651a4.087,4.087,0,0,1,1.184-.393,1.479,1.479,0,0,1,1.146.278.981.981,0,0,1,.424.943l-.064.3.245-.181a2.724,2.724,0,0,1,1.648-.519,3.067,3.067,0,0,1,1.347.313,3.91,3.91,0,0,1,.989.759.969.969,0,0,0-.185-.285,2.6,2.6,0,0,0-.739-.6,3.089,3.089,0,0,0-1.409-.382,2.869,2.869,0,0,0-1.79.528l.181.116a1.21,1.21,0,0,0-.5-1.183,1.71,1.71,0,0,0-1.325-.331,4.225,4.225,0,0,0-1.257.418,5.148,5.148,0,0,0-.558.3.892.892,0,0,0-.41.52l-.054.227.21-.094a.846.846,0,0,0,.433-.937,1.073,1.073,0,0,0-.534-.766,2.843,2.843,0,0,0-1.443-.3,5.407,5.407,0,0,1-.931-.063C347.909,124.918,347.8,124.873,347.793,124.887Z" transform="translate(-347.793 -124.884)"/></g><g transform="translate(20.416)"><path class="k" d="M361.314,120.941a2.593,2.593,0,0,1,.632.144,1.553,1.553,0,0,1,.578.439,1.34,1.34,0,0,1,.319.854v.133l.129-.032a.81.81,0,0,1,.85.579,2.458,2.458,0,0,1-.069,1.351l-.115.472.331-.367.052-.057a1.04,1.04,0,0,1,.868-.275,1.16,1.16,0,0,1,.768.415,1.851,1.851,0,0,1,.367,1.484,3.448,3.448,0,0,1-.363,1.032,1.769,1.769,0,0,0-.183.37c.012.008.116-.1.265-.322a3.016,3.016,0,0,0,.452-1.048,1.994,1.994,0,0,0-.364-1.661,1.366,1.366,0,0,0-1.988-.166l-.067.075.215.105a2.6,2.6,0,0,0,.05-1.489,1.016,1.016,0,0,0-1.119-.7l.129.1a1.489,1.489,0,0,0-.4-.964,1.592,1.592,0,0,0-.662-.441,1.273,1.273,0,0,0-.5-.072C361.372,120.913,361.313,120.931,361.314,120.941Z" transform="translate(-361.314 -120.898)"/></g><g transform="translate(30.446 2.022)"><path class="k" d="M372.163,129.434a.656.656,0,0,0,.327-.045,2.036,2.036,0,0,0,.781-.458,2.177,2.177,0,0,0,.663-1.177,1.111,1.111,0,0,1,.218-.651c.153-.16.46-.242.668-.509a1.229,1.229,0,0,0-.173-1.675l0,.179a3.939,3.939,0,0,0,1.167-1.361,1.6,1.6,0,0,0,.228-.652c-.027-.01-.12.225-.346.585a4.346,4.346,0,0,1-1.18,1.244l-.124.086.119.093a1.014,1.014,0,0,1,.119,1.346c-.142.2-.416.273-.645.492a1.284,1.284,0,0,0-.272.783,2.091,2.091,0,0,1-.561,1.092A3.1,3.1,0,0,1,372.163,129.434Z" transform="translate(-372.162 -123.085)"/></g><g transform="translate(33.404 7.605)"><path class="k" d="M375.362,132.307c0,.01.067.028.2.046a2.755,2.755,0,0,0,.584,0,3.265,3.265,0,0,0,1.893-.869l-.158-.017a2.107,2.107,0,0,0,1.371.882,2.169,2.169,0,0,0,.92-.03,1.338,1.338,0,0,0,.83-.542,2.848,2.848,0,0,0,.128-.344.484.484,0,0,1,.172-.214,1.515,1.515,0,0,1,.585-.2,1.959,1.959,0,0,0,.651-.2.7.7,0,0,0,.4-.571l-.164.094a2.161,2.161,0,0,0,1.488.163,2.342,2.342,0,0,0,1.032-.53,1.952,1.952,0,0,0,.459-.594.663.663,0,0,0,.082-.253,3.055,3.055,0,0,1-.627.744,2.3,2.3,0,0,1-.985.451,2.006,2.006,0,0,1-1.344-.178l-.158-.083-.006.178a.477.477,0,0,1-.289.376,1.757,1.757,0,0,1-.582.171,1.717,1.717,0,0,0-.683.239.729.729,0,0,0-.257.319,3.224,3.224,0,0,1-.116.318,1.132,1.132,0,0,1-.677.426,1.968,1.968,0,0,1-.816.032,1.916,1.916,0,0,1-1.241-.765l-.07-.1-.088.087a3.311,3.311,0,0,1-1.764.9C375.649,132.316,375.364,132.279,375.362,132.307Z" transform="translate(-375.362 -129.123)"/></g><g transform="translate(37.851 12.218)"><path class="k" d="M394.374,141.856s.017-.026.035-.081a1.4,1.4,0,0,0,.063-.251,2.6,2.6,0,0,0-.034-.981,5.759,5.759,0,0,0-.539-1.428,5.392,5.392,0,0,0-.476-.82,1.456,1.456,0,0,0-.4-.365.651.651,0,0,0-.6-.05l.145.114a1.632,1.632,0,0,0-2.529-1.643l.189.114a1.124,1.124,0,0,0-.375-.955,1.079,1.079,0,0,0-1.032-.217,1.111,1.111,0,0,0-.511.323l.214.1a.7.7,0,0,0-.208-.6.962.962,0,0,0-.533-.277,2.219,2.219,0,0,0-1.069.178l.145.059a1.753,1.753,0,0,0-.995-.83,2.454,2.454,0,0,0-1.2-.1,6.174,6.174,0,0,0-1.921.759l.119.121a.43.43,0,0,0-.013-.429.74.74,0,0,0-.282-.256,1.253,1.253,0,0,0-.644-.154,3.515,3.515,0,0,0-1,.211,3.26,3.26,0,0,0-.579.277.666.666,0,0,0-.179.134c.012.021.268-.153.79-.318a3.673,3.673,0,0,1,.971-.164,1.129,1.129,0,0,1,.559.153c.179.1.324.288.218.462l-.156.258.276-.137a6.178,6.178,0,0,1,1.87-.705,2.255,2.255,0,0,1,1.09.1,1.528,1.528,0,0,1,.859.722l.046.093.1-.034a2.019,2.019,0,0,1,.951-.163c.29.042.586.318.538.594l-.076.427.289-.326a.874.874,0,0,1,.4-.249.835.835,0,0,1,.8.165.886.886,0,0,1,.3.744l-.03.264.219-.151a1.442,1.442,0,0,1,1.623.018,1.461,1.461,0,0,1,.565,1.387l-.036.2.181-.087c.275-.132.574.108.762.344a5.4,5.4,0,0,1,.475.78,6.018,6.018,0,0,1,.571,1.377A3.3,3.3,0,0,1,394.374,141.856Z" transform="translate(-380.172 -134.113)"/></g><g transform="translate(38.664 16.931)"><path class="k" d="M392.458,149.284c.006,0,.054-.044.136-.144a3.929,3.929,0,0,0,.33-.467,1.76,1.76,0,0,0,.272-.878,1.284,1.284,0,0,0-.138-.576.922.922,0,0,0-.5-.458l.039.136a1.145,1.145,0,0,0-1.069-1.856l.1.183a.921.921,0,0,0,.056-1.091,1.362,1.362,0,0,0-1-.576,5.233,5.233,0,0,1-.546-.049.47.47,0,0,1-.313-.322,2.007,2.007,0,0,0-.27-.555,1.058,1.058,0,0,0-.549-.367,6.054,6.054,0,0,0-1.3-.143,1.415,1.415,0,0,1-1.028-.4,5.548,5.548,0,0,1-.3-.5,1.22,1.22,0,0,0-.461-.423,1.29,1.29,0,0,0-1.15-.036l.131.164a.976.976,0,0,0-.037-1.138,1.374,1.374,0,0,0-.876-.532,4.352,4.352,0,0,0-1.616.062,5.3,5.3,0,0,0-.99.3,1.229,1.229,0,0,0-.327.167,12.231,12.231,0,0,1,1.341-.344,4.45,4.45,0,0,1,1.555-.014,1.2,1.2,0,0,1,.752.471.777.777,0,0,1,.031.893l-.292.362.423-.2a1.08,1.08,0,0,1,.95.043,1.007,1.007,0,0,1,.372.348,4.8,4.8,0,0,0,.308.521,1.273,1.273,0,0,0,.553.373,2.861,2.861,0,0,0,.641.118,6.1,6.1,0,0,1,1.245.134.821.821,0,0,1,.43.285,1.819,1.819,0,0,1,.24.5.713.713,0,0,0,.474.46,4.373,4.373,0,0,0,.58.052,1.139,1.139,0,0,1,.835.461.7.7,0,0,1-.022.82l-.215.234.313-.051a.971.971,0,0,1,1.006.516.993.993,0,0,1-.106,1.014l-.077.1.117.04a.936.936,0,0,1,.557.873,1.719,1.719,0,0,1-.218.829C392.609,149.055,392.439,149.271,392.458,149.284Z" transform="translate(-381.051 -139.21)"/></g><g transform="translate(47.824 28.667)"><path class="k" d="M393.968,163.526a.546.546,0,0,0,.244-.056,1.7,1.7,0,0,0,.6-.392,1.751,1.751,0,0,0,.5-1,1.867,1.867,0,0,0-.385-1.408v.131a3.393,3.393,0,0,0,.741-1.162,1.387,1.387,0,0,0,.01-.787,1.009,1.009,0,0,0-.527-.656l.006.217a1.426,1.426,0,0,0,.72-1.224,1.592,1.592,0,0,0-.184-.819,1.335,1.335,0,0,0-.59-.559.464.464,0,0,1-.309-.479,1.947,1.947,0,0,0-.1-.73,2.481,2.481,0,0,0-.828-1.054c-.309-.266-.594-.517-.864-.738a4.116,4.116,0,0,0-1.433-.83,1.925,1.925,0,0,0-.448-.075c-.1,0-.157,0-.158.012,0,.024.217.022.576.154a4.389,4.389,0,0,1,1.351.872l.84.757a2.315,2.315,0,0,1,.749.975,1.755,1.755,0,0,1,.082.657.7.7,0,0,0,.1.414.941.941,0,0,0,.321.272,1.27,1.27,0,0,1,.064,2.18l-.22.112.226.105a.976.976,0,0,1,.4,1.158,3.278,3.278,0,0,1-.68,1.095l-.054.067.053.065a1.711,1.711,0,0,1,.378,1.257,1.663,1.663,0,0,1-.422.939A2.447,2.447,0,0,1,393.968,163.526Z" transform="translate(-390.958 -151.904)"/></g><g transform="translate(30.315 14.791)"><path class="k" d="M372.021,140.8a1.849,1.849,0,0,0,.749-.227,2.071,2.071,0,0,0,.706-.514,1.352,1.352,0,0,0,.329-1.042,1.031,1.031,0,0,0-.078-.264l-.066.165a1.176,1.176,0,0,0,.671-.756,1.069,1.069,0,0,0-.089-.807c-.234-.414-.547-.48-.546-.455-.023.032.236.153.4.526a.954.954,0,0,1,.029.671.987.987,0,0,1-.553.594l-.113.045.047.119a.8.8,0,0,1,.057.2,1.177,1.177,0,0,1-.263.862,2.128,2.128,0,0,1-.611.5A3.72,3.72,0,0,0,372.021,140.8Z" transform="translate(-372.02 -136.896)"/></g><g transform="translate(24.593 12.232)"><path class="k" d="M366.091,137.469a1.438,1.438,0,0,1-.1-.909,1.017,1.017,0,0,1,.642-.717,1.1,1.1,0,0,1,1.153.282l.141.157.058-.2a2.017,2.017,0,0,1,.34-.7.928.928,0,0,1,.648-.385c.4-.019.8.381.668.694l.227.067a1.876,1.876,0,0,1,.776-1.161,1.828,1.828,0,0,1,1.083-.312,2.871,2.871,0,0,1,1.009.272c.007-.009-.064-.084-.227-.181a1.848,1.848,0,0,0-.774-.241,1.926,1.926,0,0,0-1.2.292,2.045,2.045,0,0,0-.9,1.284l.227.067a.688.688,0,0,0-.182-.73.977.977,0,0,0-.715-.3,1.156,1.156,0,0,0-.831.48,2.2,2.2,0,0,0-.374.786l.2-.046a1.3,1.3,0,0,0-1.394-.312,1.16,1.16,0,0,0-.714.87,1.173,1.173,0,0,0,.08.729C366.011,137.414,366.083,137.476,366.091,137.469Z" transform="translate(-365.832 -134.128)"/></g></g></g><g transform="translate(0 296.231)"><g transform="translate(22.345)"><path class="l" d="M311.984,439.845l-3.112,15.334-10.253.965-4.318-5.085,3.952-18.309Z" transform="translate(-294.301 -432.75)"/></g><g transform="translate(0 16.605)"><g transform="translate(0.33)"><path class="h" d="M290.463,450.709l-.037,1.2s-19.624,7.576-19.936,11.425l38.526.955-.22-13.44A21.144,21.144,0,0,1,290.463,450.709Z" transform="translate(-270.49 -450.709)"/></g><g class="n" transform="translate(32.724 4.257)"><path class="g" d="M307.441,455.391a1.659,1.659,0,0,1,1.045,1.907,1.506,1.506,0,0,1-1.8,1.1,1.751,1.751,0,0,1-1.1-2.026,1.548,1.548,0,0,1,1.99-.929" transform="translate(-305.527 -455.314)"/></g><g transform="translate(0 10.346)"><path class="d" d="M308.989,465.131l-.053-3.232-36.906.267a3.514,3.514,0,0,0-1.884,3.17Z" transform="translate(-270.133 -461.899)"/></g><g transform="translate(20.128 1.14)"><path class="d" d="M291.9,452.11c0,.2.94.31,1.852.966.927.631,1.385,1.5,1.561,1.423.174-.034-.08-1.219-1.2-1.993S291.867,451.928,291.9,452.11Z" transform="translate(-291.903 -451.942)"/></g><g transform="translate(16.046 2.884)"><path class="d" d="M287.49,453.9c-.047.19.76.545,1.38,1.394.644.83.785,1.735.973,1.732.176.035.332-1.116-.459-2.157S287.5,453.715,287.49,453.9Z" transform="translate(-287.488 -453.828)"/></g><g transform="translate(12.208 4.532)"><path class="d" d="M284.767,459.046c.17.046.454-.932,0-2.023s-1.329-1.542-1.412-1.38c-.11.16.448.753.812,1.655C284.546,458.19,284.581,459.022,284.767,459.046Z" transform="translate(-283.337 -455.61)"/></g></g></g><g transform="translate(84.027 299.726)"><g transform="translate(0.751)"><path class="l" d="M376.68,436.53c.146.5,0,19.619,0,19.619l-5.752,3.573-7.512-4.715-1.588-18.477Z" transform="translate(-361.828 -436.53)"/></g><g transform="translate(0.016 16.807)"><path class="h" d="M362.817,454.708S373.05,462.313,378,455.73l1.294,3.19,5.819,22.731a3.094,3.094,0,0,1-1.637,3.649,2.715,2.715,0,0,1-2.977-.6c-4.209-4.193-19.618-19.7-19.468-21.8l.059-5.581a2.836,2.836,0,0,1,1.724-2.612Z" transform="translate(-361.033 -454.708)"/></g><g transform="translate(0 23.058)"><path class="d" d="M382.975,485.964l-21.95-24.495,0,1.22a3.249,3.249,0,0,0,1.04,2.69A237.742,237.742,0,0,0,380.51,486.02c.678.681,1.965.085,2.465-.056Z" transform="translate(-361.015 -461.469)"/></g><g class="n" transform="translate(0.751 19.15)"><path class="g" d="M364.3,457.519a1.836,1.836,0,0,1,.475,2.327,1.593,1.593,0,0,1-2.2.514,1.94,1.94,0,0,1-.491-2.468,1.646,1.646,0,0,1,2.344-.269" transform="translate(-361.827 -457.242)"/></g><g transform="translate(15.604 31.694)"><path class="d" d="M377.921,474.124c.155.079.769-1.431,2.4-2.249a8.234,8.234,0,0,1,3.16-.647c.023-.071-.325-.293-.968-.386a4.218,4.218,0,0,0-2.461.467,4.475,4.475,0,0,0-1.84,1.773C377.894,473.675,377.852,474.1,377.921,474.124Z" transform="translate(-377.893 -470.809)"/></g><g transform="translate(17.587 36.792)"><path class="d" d="M380.055,478.384c.13.124,1.009-.815,2.428-1.248,1.41-.465,2.638-.194,2.681-.374.079-.147-1.245-.752-2.856-.23C380.693,477.034,379.91,478.307,380.055,478.384Z" transform="translate(-380.038 -476.324)"/></g><g transform="translate(11.96 26.673)"><path class="d" d="M373.961,468.791c.129.136,1.474-1.316,3.624-2.19,2.138-.911,4.066-.821,4.071-1.012.044-.154-2-.545-4.294.424C375.059,466.957,373.829,468.71,373.961,468.791Z" transform="translate(-373.952 -465.379)"/></g><g transform="translate(11.479 21.941)"><path class="d" d="M373.435,461.485c.074.172,1.589-.5,3.564-.582,1.973-.112,3.541.407,3.6.228.076-.141-1.507-.975-3.628-.86C374.848,460.367,373.348,461.352,373.435,461.485Z" transform="translate(-373.431 -460.261)"/></g><g transform="translate(11.631 17.284)"><path class="d" d="M378.136,460.461a2.594,2.594,0,0,0-.154-1.077,7.691,7.691,0,0,0-1.313-2.642,3.227,3.227,0,0,0-1.63-1.308,1.109,1.109,0,0,0-1.207.5,2.009,2.009,0,0,0-.2,1.361,4.006,4.006,0,0,0,4.105,3.117,4.667,4.667,0,0,0,4.011-3.359,1.744,1.744,0,0,0-.171-1.386,1.078,1.078,0,0,0-1.249-.381,3.977,3.977,0,0,0-1.606,1.318,8.531,8.531,0,0,0-1.45,2.559,2.7,2.7,0,0,0-.24,1.059,13.6,13.6,0,0,1,2.007-3.319,3.7,3.7,0,0,1,1.427-1.112.576.576,0,0,1,.682.2,1.2,1.2,0,0,1,.061.918,4.159,4.159,0,0,1-3.51,2.87,3.471,3.471,0,0,1-3.521-2.593,1.46,1.46,0,0,1,.1-.956.6.6,0,0,1,.662-.289,2.91,2.91,0,0,1,1.4,1.082A11.382,11.382,0,0,1,378.136,460.461Z" transform="translate(-373.596 -455.224)"/></g></g><g transform="translate(20.128 140.614)"><g transform="translate(0 0)"><path class="e" d="M382.226,265.709a96.076,96.076,0,0,1,7.171,19.34c3.165,11.945,6.72,17.944,5.426,39.964-.66,11.236-9.952,41.734-12.093,52.467-1.762,8.833-7.272,50.345-10.065,61.315h-16l-1.63-122.871s-25.432,71.7-28.69,79.994S311.8,437.044,311.8,437.044l-19.9-5.293s12.157-58.779,15.183-73.407,11.246-55.928,14.739-68.362,6.8-25.546,6.8-25.546Z" transform="translate(-291.903 -264.436)"/></g><g transform="translate(88.368 23.024)"><path class="k" d="M387.487,289.34a1.767,1.767,0,0,0,.165.609,9.41,9.41,0,0,0,.72,1.55,13.2,13.2,0,0,0,3.706,4.138,12.52,12.52,0,0,0,5,2.179,8.5,8.5,0,0,0,1.638.161c.388,0,.6-.02.6-.053,0-.083-.852-.11-2.177-.43a13.986,13.986,0,0,1-4.814-2.238,14.7,14.7,0,0,1-3.693-3.932C387.886,290.137,387.561,289.307,387.487,289.34Z" transform="translate(-387.481 -289.339)"/></g><g transform="translate(28.29 25.333)"><path class="k" d="M322.5,298.456c0,.031.2.091.585.172a8.707,8.707,0,0,0,1.648.178,10.286,10.286,0,0,0,2.455-.246,11.316,11.316,0,0,0,2.841-1.084,13.965,13.965,0,0,0,4.178-3.666,8.014,8.014,0,0,0,1.238-1.973,22.917,22.917,0,0,0-1.476,1.759,15.707,15.707,0,0,1-4.147,3.469,11.453,11.453,0,0,1-5.093,1.412C323.364,298.521,322.513,298.371,322.5,298.456Z" transform="translate(-322.501 -291.836)"/></g><g transform="translate(62.112 25.017)"><path class="k" d="M359.849,291.494a4.366,4.366,0,0,0-.173.991c-.085.642-.18,1.573-.275,2.726-.19,2.306-.345,5.5-.316,9.036s.239,6.728.469,9.03c.115,1.151.225,2.08.321,2.719a4.35,4.35,0,0,0,.19.988,4.473,4.473,0,0,0-.018-1.007q-.075-1.116-.18-2.728c-.149-2.3-.307-5.486-.338-9.006s.076-6.7.186-9.01c.053-1.074.1-1.987.133-2.731A4.382,4.382,0,0,0,359.849,291.494Z" transform="translate(-359.082 -291.494)"/></g></g><g transform="translate(50.71 69.464)"><path class="o" d="M378.682,188.927l14.491,6.91-2.02,26.422s-1.708,2-4.486,16.161,6.506,41.714,6.506,41.714l-68.192,1.707s8-57.15,8.929-64.713l3.4-28.9,13.709-.75h3.953l3.407,24.631,17.159-23.886Z" transform="translate(-324.98 -187.482)"/></g><g transform="translate(37.995 112.535)"><path class="d" d="M314.618,243.683a3.911,3.911,0,0,0,.212-1.557,11.1,11.1,0,0,0-.631-3.742,10.743,10.743,0,0,0-1.84-3.275c-.618-.731-1.092-1.08-1.126-1.04a18.79,18.79,0,0,1,2.551,4.476A19.409,19.409,0,0,1,314.618,243.683Z" transform="translate(-311.228 -234.067)"/></g><g transform="translate(5.568 70.21)"><path class="p" d="M284.295,233.677l24.287-.212,9.186-27.129h0a105.7,105.7,0,0,1,4.8-9.566c4.868-8.948,11.049-8.478,11.049-8.478l7.456,11.6-7.915,17.761s-7.575,33.491-16.351,34.963c-14.574,2.444-40.656-7.63-40.656-7.63Z" transform="translate(-276.155 -188.288)"/></g><g class="q" transform="translate(56.292 121.251)"><path d="M331.066,246.156c-.023-.924-.252-2.113.545-2.508a2.691,2.691,0,0,1,2.065.155c20.124,7.134,31.769-1.147,51.893,5.987l4.1,20.669c-8.929.073-13.012-2.015-21.793-4.824-8.955-2.865-17.916-5.733-26.7-9.132a24.357,24.357,0,0,1-6.907-3.616A8.777,8.777,0,0,1,331.066,246.156Z" transform="translate(-331.018 -243.494)"/></g><g transform="translate(59.088 89.726)"><path class="d" d="M336.174,209.4a7.047,7.047,0,0,1-.469,1.37,23.026,23.026,0,0,0-.841,3.353c-.476,2.671-.57,4.885-.707,4.884a14.221,14.221,0,0,1,.233-4.97,14.678,14.678,0,0,1,1-3.393A3.3,3.3,0,0,1,336.174,209.4Z" transform="translate(-334.041 -209.397)"/></g></g><g transform="translate(0 77.406)"><g transform="translate(0 27.384)"><g transform="translate(252.106 11.44)"><path class="i" d="M0,0H5.224a6.114,6.114,0,0,1,6.114,6.114v0a6.114,6.114,0,0,1-6.114,6.114H0a0,0,0,0,1,0,0V0A0,0,0,0,1,0,0Z" transform="matrix(1, 0.026, -0.026, 1, 0.314, 0)"/></g><g transform="translate(8.51 1.168)"><path class="r" d="M206.856,231.971l49.724-5.019,186.838,4.807a3.3,3.3,0,0,1,3.208,3.378l-.451,17.536a3.3,3.3,0,0,1-3.378,3.208L255.25,251.055l-48.629-9.977Z" transform="translate(-206.621 -226.952)"/></g><g transform="translate(0 8.633)"><path class="s" d="M206.083,235.143l-4.57-.117-3.882,1.316c-.322.24-.24.548-.023.878l3.906,1.272,4.48.116Z" transform="translate(-197.416 -235.026)"/></g><g transform="translate(57.849 1.167)"><rect class="s" width="3.878" height="24.13" transform="translate(0.621 0) rotate(1.474)"/></g><g transform="translate(147.064)"><g transform="translate(0.242 0.237)"><path class="i" d="M458.589,232.752h0a4.3,4.3,0,0,1-4.406,4.184l-93.257-2.4a4.3,4.3,0,0,1-4.185-4.4h0a4.3,4.3,0,0,1,4.406-4.184l93.257,2.4A4.3,4.3,0,0,1,458.589,232.752Z" transform="translate(-356.74 -225.945)"/></g><path class="i" d="M458.57,232.732a4.847,4.847,0,0,0-.527-2.07,4.276,4.276,0,0,0-1.824-1.787,4.212,4.212,0,0,0-1.575-.446c-.588-.038-1.233-.031-1.906-.051l-22.878-.512-33.931-.822-20.035-.5-10.6-.269-2.7-.069a9.865,9.865,0,0,0-2.638.1,4.054,4.054,0,0,0-.207,7.765,9.765,9.765,0,0,0,2.629.241l2.7.069,10.6.276,20.039.53,33.931.925,22.874.666c.673.015,1.317.055,1.906.046a4.2,4.2,0,0,0,1.6-.364,4.276,4.276,0,0,0,1.913-1.691,4.856,4.856,0,0,0,.632-2.039,3.344,3.344,0,0,1-.03.552,4.106,4.106,0,0,1-.52,1.536,4.345,4.345,0,0,1-3.585,2.172c-.609.016-1.24-.017-1.917-.025l-22.878-.512-33.933-.821-20.04-.5-10.6-.269-2.7-.068-1.358-.035a4.93,4.93,0,0,1-1.409-.229,4.535,4.535,0,0,1,.232-8.685,4.936,4.936,0,0,1,1.418-.154l1.358.035,2.7.07,10.6.276,20.035.53,33.927.925,22.875.665c.678.027,1.308.028,1.916.074a4.348,4.348,0,0,1,3.471,2.353,4.1,4.1,0,0,1,.44,1.562A3.284,3.284,0,0,1,458.57,232.732Z" transform="translate(-356.478 -225.689)"/></g><g transform="translate(248.055 8.162)"><path class="s" d="M466.2,234.517l4.79,2.435-.357,13.859-4.923,2.763Z" transform="translate(-465.709 -234.517)"/></g></g><g transform="translate(144.658)"><g transform="translate(31.18)"><path class="p" d="M403.822,241.369,393.237,225.06h0l-.95-1.463,0,0-1.426-2.206,6.216-25.318s5.312,2.438,8.23,6.507a96.638,96.638,0,0,1,6.485,11.554s10.355,23.688,12.057,27.224,4.452,10.081,0,13.748-34.245,3.788-34.245,3.788L387.6,243.926Z" transform="translate(-387.6 -196.071)"/><g transform="translate(2.523 4.008)"><path class="d" d="M390.979,219.047c.079-.016-.153-1.11-.251-2.9a23.03,23.03,0,0,1,3.4-13.318c.941-1.522,1.669-2.372,1.607-2.423-.022-.02-.221.178-.56.554a14.84,14.84,0,0,0-1.31,1.7,20.91,20.91,0,0,0-3.447,13.511,14.834,14.834,0,0,0,.335,2.12A2.713,2.713,0,0,0,390.979,219.047Z" transform="translate(-390.328 -200.406)"/></g></g><g transform="translate(0 41.7)"><path class="l" d="M381.629,250.088a10.242,10.242,0,0,0-2.683-3.542c-1.951-1.695-6.233-3.008-6.788-4.63s-2.178-.364-1.8,1.659c.242,1.289,2.894,4.663,2.894,4.663s-3.113.781-5.186-.413-9.331-3.34-10.106-2.326c-.877,1.147,1.023,1.53,1.839,1.992.62.352,5.444,2.744,5.444,2.744s-9.6-.327-10.809.129c-1.315.5.031,1.658.637,1.683.381.015,2.026,1.484,3.191,2.569a4.357,4.357,0,0,0,2.909,1.167l2.231.033-6.777.711s-1.171,1.072.459,1.63c.727.25,19.509,1.947,21.1,1.894,3.614-.121,8.649-.37,8.649-.37l-.882-10.173Z" transform="translate(-353.877 -241.173)"/><g transform="translate(1.021 10.977)"><path class="m" d="M354.982,253.062a20.282,20.282,0,0,0,9.325,1.664c0-.131-2.116-.252-4.684-.717S355.024,252.938,354.982,253.062Z" transform="translate(-354.981 -253.046)"/></g></g></g><g transform="translate(68.538 39.831)"><g class="f" transform="translate(6.284 0.994)"><path d="M278.343,240.308c1.845-.4,3.627.776,5.148,1.9a23.222,23.222,0,0,1,2.724,2.223c2.339,2.339,3.571,5.548,5.54,8.207l-11.062-1.685Z" transform="translate(-278.343 -240.227)"/></g><path class="l" d="M294.764,253.012,289.931,252s-4.347-6.936-6.632-7.774l-1.286-.573s-1.678-3.676-3.958-3.208c-1.355-.888-2.57-.533-2.7.82,0,0-.672-3.08-3.191-1.81s3.482,11.926,3.482,11.926,2.1,5.461,4.722,3.637a7.16,7.16,0,0,0,4.362-.366s1.62,2.28,5.449.541Z" transform="translate(-271.546 -239.152)"/><g transform="translate(12.659 13.63)"><path class="m" d="M285.288,254.493c-.024,0-.079.18-.03.515a2.289,2.289,0,0,0,.67,1.243,3.158,3.158,0,0,0,1.9.891,6.51,6.51,0,0,0,2.523-.274,15.867,15.867,0,0,0,4.149-1.817,5.505,5.505,0,0,0,1.479-1.151,28.813,28.813,0,0,1-5.746,2.541,6.578,6.578,0,0,1-2.359.295,2.961,2.961,0,0,1-1.728-.714A2.826,2.826,0,0,1,285.288,254.493Z" transform="translate(-285.238 -253.894)"/></g><g transform="translate(3.526 1.454)"><path class="m" d="M279.914,251.051c.112-.077-1.338-2.169-2.581-5.025-1.263-2.849-1.822-5.331-1.955-5.3a5.277,5.277,0,0,0,.252,1.655,23.263,23.263,0,0,0,3.236,7.366A5.245,5.245,0,0,0,279.914,251.051Z" transform="translate(-275.359 -240.725)"/></g><g transform="translate(6.495 1.297)"><path class="m" d="M282.928,250.8c.114-.068-1.109-2.243-2.3-5.069s-1.916-5.215-2.042-5.18a26.809,26.809,0,0,0,4.343,10.25Z" transform="translate(-278.571 -240.555)"/></g><g transform="translate(7.097 14.013)"><path class="m" d="M279.264,254.31c-.12.006-.016.887.774,1.542s1.669.613,1.653.494c.013-.128-.712-.268-1.368-.833C279.651,254.965,279.387,254.275,279.264,254.31Z" transform="translate(-279.222 -254.309)"/></g><g transform="translate(10.606 4.698)"><path class="m" d="M286.272,249.558a75.242,75.242,0,0,0-3.241-5.323,13.025,13.025,0,0,0,3.241,5.323Z" transform="translate(-283.017 -244.233)"/></g></g></g></g></g></svg>