<svg xmlns="http://www.w3.org/2000/svg" width="42.624" height="33.555" viewBox="0 0 42.624 33.555"><defs><style>.a{fill:#fff;fill-rule:evenodd;}</style></defs><g transform="translate(-2.368 -14.575)"><path class="a" d="M26.383,26.675a3.6,3.6,0,0,1-1.3.923l3.789,5.233-1.35.995L22.1,26.344l1.516-.095a2.475,2.475,0,0,0,1.587-.758,2.229,2.229,0,0,0,.71-1.208H21.552v-1.7h4.191a2.182,2.182,0,0,0-.545-.734,2.616,2.616,0,0,0-1.7-.734H21.552V19.428h9.59V21.11H26.809a4.863,4.863,0,0,1,.71,1.468h3.623v1.7H27.614A3.875,3.875,0,0,1,26.383,26.675Zm15.842-6.7a2.2,2.2,0,0,1-.568-2.344H10.944a2.176,2.176,0,0,1-.568,2.392,2.166,2.166,0,0,1-2.344.521V32.951a2.232,2.232,0,0,1,2.368.568,2.162,2.162,0,0,1,.545,2.345H41.656a2.244,2.244,0,0,1,.568-2.368,2.193,2.193,0,0,1,2.368-.545V20.519A2.194,2.194,0,0,1,42.225,19.974ZM37.7,24.45a2.2,2.2,0,0,1,1.587.687,2.231,2.231,0,0,1,0,3.22,2.273,2.273,0,0,1-3.884-1.61,2.264,2.264,0,0,1,2.3-2.3Zm8.406,23.68-1.989-.522q-2.936-.781-6.015-1.35-2.652-.473-3.978-.686-1.895-.284-4.523-.616-1.728-.212-3.978-.449-1.255-.118-3.931-.355l-4.073-.284q-2.321-.143-4.026-.189-2.723-.118-6.109-.189H5V40.457l.118-.023q5.778.118,6.512.118,1.824.071,5.446.26,1.966.1,4.144.308,2.392.19,4.831.426,2.3.237,4.286.5,3.386.475,5.825.877.781.118,1.918.331,1.255.261,1.894.379l.118.023a2.356,2.356,0,0,1,1.137-1.421,2.283,2.283,0,0,1,1.823-.142V40.457h3.055Zm1.516-9.212H5V14.575H47.624Zm-32.7-9.9a2.192,2.192,0,0,1-1.61-.663,2.271,2.271,0,0,1-.663-1.634,2.242,2.242,0,0,1,.663-1.61,2.272,2.272,0,0,1,1.634-.663,2.154,2.154,0,0,1,1.61.687,2.192,2.192,0,0,1,.663,1.61,2.153,2.153,0,0,1-.687,1.61A2.192,2.192,0,0,1,14.922,29.02Z" transform="translate(-2.632)"/></g></svg>