<svg xmlns="http://www.w3.org/2000/svg" width="34.944" height="34.902" viewBox="0 0 34.944 34.902"><defs><style>.a{fill:#fff;fill-rule:evenodd;}</style></defs><path class="a" d="M40.455,15.4H36.076V7.8H14.267v7.641H9.889A2.2,2.2,0,0,0,7.7,17.63V35.061A2.2,2.2,0,0,0,9.889,37.25h4.378V42.7H36.076V37.209h4.378a2.2,2.2,0,0,0,2.189-2.189V17.589A2.231,2.231,0,0,0,40.455,15.4ZM17.53,11.063H32.813v4.378H17.53ZM32.813,39.4H17.53V31.757H32.813Zm6.526-5.452H36.076V28.494H14.267v5.452H11V18.663H39.381V33.946ZM36.076,20.852H32.813v3.263h3.263Z" transform="translate(-7.7 -7.8)"/></svg>