<svg xmlns="http://www.w3.org/2000/svg" width="22.061" height="22.061" viewBox="0 0 22.061 22.061"><defs><style>.a{fill:#fff;}</style></defs><g transform="translate(7.756 3.921)"><path class="a" d="M185.817,91h-5.17a.646.646,0,0,0,0,1.293h5.17a.646.646,0,0,0,0-1.293Z" transform="translate(-180 -91)"/></g><g transform="translate(7.756 6.506)"><path class="a" d="M185.817,151h-5.17a.646.646,0,0,0,0,1.293h5.17a.646.646,0,0,0,0-1.293Z" transform="translate(-180 -151)"/></g><g transform="translate(2.585 9.091)"><path class="a" d="M70.987,211H60.646a.646.646,0,0,0,0,1.293H70.987a.646.646,0,1,0,0-1.293Z" transform="translate(-60 -211)"/></g><g transform="translate(2.585 11.677)"><path class="a" d="M68.644,271h-8a.646.646,0,1,0,0,1.293h8a.646.646,0,1,0,0-1.293Z" transform="translate(-60 -271)"/></g><g transform="translate(0)"><path class="a" d="M16.847,11.677V1.939A1.974,1.974,0,0,0,14.865,0H5.817a.652.652,0,0,0-.459.191L.187,5.4A.652.652,0,0,0,0,5.86V20.122a1.941,1.941,0,0,0,1.939,1.939H16.847a5.192,5.192,0,1,0,0-10.384ZM5.17,2.216v3H2.2ZM1.939,20.768a.647.647,0,0,1-.646-.646V6.506H5.817a.646.646,0,0,0,.646-.646V1.293h8.4a.686.686,0,0,1,.689.646v9.9a5.229,5.229,0,0,0-3.221,2.424h-9.1a.646.646,0,1,0,0,1.293H11.8a5.123,5.123,0,0,0-.165,1.293h-8.4a.646.646,0,1,0,0,1.293H11.8a5.236,5.236,0,0,0,1.632,2.628Zm14.908,0a3.973,3.973,0,0,1-3.921-3.921,3.921,3.921,0,0,1,7.842,0A3.973,3.973,0,0,1,16.847,20.768Z" transform="translate(0)"/></g><g transform="translate(14.219 15.554)"><path class="a" d="M335.071,361.193a.646.646,0,0,0-.914-.008l-2.179,2.143-.883-.854a.646.646,0,1,0-.9.929l1.336,1.293a.646.646,0,0,0,.9,0l2.628-2.585A.646.646,0,0,0,335.071,361.193Z" transform="translate(-330 -361)"/></g></svg>