<svg xmlns="http://www.w3.org/2000/svg" width="23.737" height="23.737" viewBox="0 0 23.737 23.737"><defs><style>.a{fill:#83d8f4;}.b{fill:#91dcf5;}.c{fill:#0b7;}.d{fill:#00a468;}.e{fill:#ff5023;}.f{fill:#f1f2f2;}.g{fill:#ffcd00;}</style></defs><g transform="translate(0.001 0.001)"><path class="a" d="M66.812,50.145A16.765,16.765,0,0,1,50.145,66.811,11.865,11.865,0,1,0,66.812,50.145Zm0,0" transform="translate(-47.581 -47.581)"/><path class="b" d="M19.231,2.564A11.864,11.864,0,0,0,2.564,19.231,16.765,16.765,0,0,0,19.231,2.564Zm0,0" transform="translate(0 0)"/><path class="c" d="M291.251,62.494c-.9.409-1.4-.074-2.046.409a2.618,2.618,0,0,0-.409,3.274,3.373,3.373,0,0,0,2.4,1.215,16.707,16.707,0,0,0,1.678-6.706,3.371,3.371,0,0,1-1.622,1.807Zm0,0" transform="translate(-273.654 -57.584)"/><path class="d" d="M344.719,52.129a3.174,3.174,0,0,1-.143.438,16.707,16.707,0,0,1-1.678,6.706l.057.012c1.4.307,1.948-.344,3.274,0a4.994,4.994,0,0,1,1.637.818,3.805,3.805,0,0,1,1.209,1.8c.009-.189.018-.377.018-.568a11.843,11.843,0,0,0-4.375-9.2Zm0,0" transform="translate(-325.358 -49.463)"/><path class="d" d="M196.462,305.54a2.835,2.835,0,0,1,.409,3.274c-.5.7-1.183.462-1.637,1.228a2.159,2.159,0,0,0,0,2.046,1.83,1.83,0,0,0,.225.323,11.994,11.994,0,0,0,1.412.086,11.863,11.863,0,0,0,10.4-6.146,6.618,6.618,0,0,0-3.032-1.22,5.025,5.025,0,0,0-3.274.818c-1.207.884-1.445,2.136-2.046,2.046-.426-.061-.659-.749-.818-1.228a6,6,0,0,1-.171-2.439,16.723,16.723,0,0,1-1.564,1.111c.042.041.077.078.1.1Zm0,0" transform="translate(-185.004 -288.762)"/><path class="c" d="M31.537,14.978a2.832,2.832,0,0,0-2.046-.818c-1.76-.246-2.451.512-3.274,0a1.944,1.944,0,0,1-.818-2.046c.344-1.027,1.846-.679,3.683-2.046.593-.438,2.005-1.489,2.046-2.865.041-1.346-1.273-1.731-1.637-3.274A6.747,6.747,0,0,1,30.377.258,11.864,11.864,0,0,0,20.058,6.9v0a12.058,12.058,0,0,0,.02,4.4,8.192,8.192,0,0,0,1.637,4.5,3.974,3.974,0,0,0,2.455,1.637,7.137,7.137,0,0,0,3.274-.818,2.524,2.524,0,0,1,1.228-.409,2.333,2.333,0,0,1,1.539.717,16.722,16.722,0,0,0,1.564-1.111,1.359,1.359,0,0,0-.239-.834Zm0,0" transform="translate(-18.851 -0.246)"/><path class="e" d="M46.564,3.289c0,1.809-3.274,6.138-3.274,6.138a28.691,28.691,0,0,1-2.9-4.727,3.917,3.917,0,0,1-.372-1.412,3.274,3.274,0,1,1,6.548,0Zm0,0" transform="translate(-37.97 -0.016)"/><path class="f" d="M82.471,33.243a1.228,1.228,0,1,1-1.228-1.228A1.228,1.228,0,0,1,82.471,33.243Zm0,0" transform="translate(-75.924 -30.379)"/><path class="g" d="M286.564,219.29a5.541,5.541,0,0,1-.733,2.173,32.785,32.785,0,0,1-2.541,3.965s-1.072-1.42-1.993-2.975a15.643,15.643,0,0,1-.908-1.751,3.917,3.917,0,0,1-.372-1.412,3.274,3.274,0,0,1,6.548,0Zm0,0" transform="translate(-265.693 -204.967)"/><path class="f" d="M322.471,249.244a1.228,1.228,0,1,1-1.228-1.228A1.228,1.228,0,0,1,322.471,249.244Zm0,0" transform="translate(-303.647 -235.33)"/></g></svg>