<svg xmlns="http://www.w3.org/2000/svg" width="310.329" height="276.571" viewBox="0 0 310.329 276.571"><defs><style>.a{fill:#50bfa5;}.b{fill:#3c8f7c;}.c{fill:#355389;}.d{fill:#466eb6;}.e{fill:#f7cc7f;}.f{fill:#fae0b2;}.g{fill:#96d9c9;}.h{fill:#f48c7f;}.i{fill:#b75742;}.j{fill:#86b1f2;}.k{fill:#f47458;}.l{fill:#184655;}.m{fill:#f7a491;}.n{fill:#13375b;}.o{fill:#fff;}.p{fill:#9bc1f9;}</style></defs><g transform="translate(0)"><path class="a" d="M1528.9,654.321l2.975.913,2-4.625,4.515.8,2.061-3.216,1.628,1.043-2.756,4.3-4.278-.757-2.078,4.811-4.477-1.374Z" transform="translate(-1317.424 -601.581)"/><path class="a" d="M2427.81,1438.031l2.975.913,2-4.624,4.515.8,2.061-3.216,1.628,1.043-2.756,4.3-4.278-.757-2.079,4.811-4.477-1.374Z" transform="translate(-2407.12 -1218.957)"/><g transform="translate(192.854 149.146)"><g transform="translate(0 0)"><path class="a" d="M1459.764,1255.987s15.875-53.808,17.149-65.677-7.6-8.191-7.6-8.191,7.468-22.616,2.068-27.984-10.271,4.638-10.271,4.638-1.635-27.455-7.392-27.465c-10.724-.019-10.512,29.943-10.512,29.943s-2.737-11.73-8.479-8.514c-8.66,4.849,3.759,28.356,3.759,28.356s-11.034.008-14.91,5.572C1416.616,1196.646,1459.764,1255.987,1459.764,1255.987Z" transform="translate(-1422.812 -1131.307)"/></g></g><g transform="translate(224.615 187.531)"><g transform="translate(0 0)"><path class="a" d="M1140.667,1391.337s45.765-7.653,55.72-15.762.1-11.766.1-11.766,22.99-11.786,22.724-19.8-11.688-3.94-11.688-3.94,19.372-22.089,14.785-26.284c-8.542-7.814-30.937,15.148-30.937,15.148s6.65-10.92-.353-12.648c-10.562-2.606-18.356,24.32-18.356,24.32s1.981-10.634-5.3-9.217C1154.3,1333.931,1140.667,1391.337,1140.667,1391.337Z" transform="translate(-1140.667 -1312.164)"/></g><path class="b" d="M1170.517,1331.389c7.3-1.32,5.3,9.217,5.3,9.217s7.795-26.926,18.356-24.32c7,1.728.353,12.648.353,12.648s22.395-22.962,30.937-15.148l-81.489,77.564C1145.427,1383.941,1158.278,1333.6,1170.517,1331.389Z" transform="translate(-1143.822 -1312.164)"/></g><g transform="translate(211.595 235.178)"><path class="c" d="M1124.8,1574.889s24.1-24.51,36.239-27.063,9.954,6.083,9.954,6.083,24.081-21.059,29.661-15.956-.456,10.028-.456,10.028,20.058-3.554,22.93,3.028c4.412,10.114-28.576,15.619-28.576,15.619s13.824.958,10.618,7.3C1200.337,1583.493,1124.8,1574.889,1124.8,1574.889Z" transform="translate(-1124.802 -1537.051)"/><path class="d" d="M1225.043,1550.619c-2.871-6.582-22.929-3.028-22.929-3.028s6.036-4.926.456-10.028-28.912,13.093-28.912,13.093,5.5-10.516-6.636-7.963-40.306,31.806-40.306,31.806Z" transform="translate(-1126.716 -1536.659)"/></g><g transform="translate(150.812 7.502)"><path class="e" d="M1745.258,523.426a9.3,9.3,0,0,1,3.778,16.745,6.189,6.189,0,0,0-2.406,3.581l-1.228,4.953a2.7,2.7,0,0,1-3.056,2.013l-3.073-.506a2.7,2.7,0,0,1-2.25-2.886c.426-5.113.954-6.968-.708-9.249A9.3,9.3,0,0,1,1745.258,523.426Z" transform="translate(-1722.845 -510.697)"/><g transform="translate(15.703 18.762)"><path class="f" d="M1759.589,567.946c.528-4.381,1.27-9.006,1.522-10.318,4.65.257,2.883-4.645.737-2.652a4.061,4.061,0,0,0-1.091,2.182,12.019,12.019,0,0,1-4.431-1.291,5.7,5.7,0,0,0-.121-2.59c-.455-1.044-1.779-1.329-2.317-.311a1.625,1.625,0,0,0-.091,1.276,4.132,4.132,0,0,0,2.068,1.882c-.245,3.483-.583,6.992-1.01,10.449l.439.054c.42-3.4.755-6.853,1-10.28a12.467,12.467,0,0,0,4.375,1.248c-.318,1.677-1.022,6.186-1.517,10.3Zm3.73-11.351a2.6,2.6,0,0,1-2.116.595,3.6,3.6,0,0,1,.946-1.889C1763.3,554.227,1764.012,555.848,1763.319,556.595Zm-7.52-3.141a4.929,4.929,0,0,1,.1,2.181,3.5,3.5,0,0,1-1.686-1.544,1,1,0,0,1,.516-1.3C1754.783,552.779,1755.622,553.046,1755.8,553.454Z" transform="translate(-1753.707 -552.332)"/></g><path class="g" d="M1773.812,613.471c-.011.041-.026.081-.036.122l-1.228,4.953a2.7,2.7,0,0,1-3.056,2.013l-3.073-.506a2.7,2.7,0,0,1-2.25-2.886c.19-2.275.4-3.9.427-5.213Z" transform="translate(-1749.992 -580.538)"/><g transform="translate(26.765 3.292)"><path class="f" d="M1732.173,485.181l2.426-4.428a.885.885,0,0,0-1.552-.85l-2.426,4.428a.885.885,0,0,0,1.552.85Z" transform="translate(-1730.512 -479.443)"/></g><g transform="translate(32.767 17.513)"><path class="f" d="M1689.712,548.676l5.288-.462a.885.885,0,0,0-.154-1.763l-5.288.462a.885.885,0,1,0,.154,1.763Z" transform="translate(-1688.75 -546.447)"/></g><g transform="translate(33.339 31.088)"><path class="f" d="M1697.195,615.271a.885.885,0,0,0-.007-1.251,28.925,28.925,0,0,0-4.249-3.466.885.885,0,1,0-.983,1.471,27.131,27.131,0,0,1,3.988,3.253A.885.885,0,0,0,1697.195,615.271Z" transform="translate(-1691.562 -610.405)"/></g><g transform="translate(13.128 0)"><path class="f" d="M1803.151,472.722a.885.885,0,0,0,.627-1.083,33.659,33.659,0,0,1-1.091-6.871.885.885,0,1,0-1.767.1,35.411,35.411,0,0,0,1.148,7.232A.885.885,0,0,0,1803.151,472.722Z" transform="translate(-1800.919 -463.931)"/></g><g transform="translate(2.686 12.792)"><path class="f" d="M1836.723,527a.885.885,0,0,0-.592-1.1l-5.5-1.657a.885.885,0,0,0-.511,1.695l5.5,1.657A.885.885,0,0,0,1836.723,527Z" transform="translate(-1829.494 -524.2)"/></g><g transform="translate(0 26.311)"><path class="f" d="M1843.824,591.8a.881.881,0,0,0,.24-.033,27.769,27.769,0,0,0,5.505-2.207.885.885,0,0,0-.83-1.563,26.008,26.008,0,0,1-5.154,2.066.885.885,0,0,0,.239,1.737Z" transform="translate(-1842.94 -587.898)"/></g></g><path class="e" d="M2215.254,707.008l2.773-6.559,6.975-1.433a.978.978,0,0,0,.444-1.7l-5.381-4.665.793-7.077a.978.978,0,0,0-1.478-.947l-6.1,3.676-6.486-2.94a.979.979,0,0,0-1.358,1.113l1.611,6.936-4.8,5.26a.978.978,0,0,0,.639,1.634l7.094.611,3.519,6.191A.979.979,0,0,0,2215.254,707.008Z" transform="translate(-2144.079 -630.175)"/><path class="h" d="M2382.193,684.566l1.14,4.591,7.59-1.018,2.5,6.508,5.8.167-.084,2.938-7.764-.223-2.364-6.167-7.9,1.059-1.716-6.909Z" transform="translate(-2355.169 -630.236)"/><path class="i" d="M1468.887,1629.422h133.425a9.4,9.4,0,0,0,9.227-9.571v-5.691a9.4,9.4,0,0,0-9.227-9.571H1468.887a18.9,18.9,0,0,1,.245,24.543Z" transform="translate(-1374.239 -1354.994)"/><path class="f" d="M1739.153,1617.995h74a9.4,9.4,0,0,1,9.228,9.571h0a9.4,9.4,0,0,1-9.228,9.571h-74.01A18.987,18.987,0,0,0,1739.153,1617.995Z" transform="translate(-1642.445 -1365.554)"/><path class="j" d="M1537.8,1520.418a.553.553,0,0,1,.55-.785h70.6c5.534,0,10.019,4.037,10.019,9.017h0c0,4.98-4.486,9.017-10.019,9.017h-70.619a.555.555,0,0,1-.551-.789h0A17.276,17.276,0,0,0,1537.8,1520.418Z" transform="translate(-1396.279 -1288.069)"/><path class="e" d="M1698.027,1527.54h34.99c6.494,0,11.759,3.383,11.759,7.557s-5.265,7.556-11.759,7.556H1697.8A17.245,17.245,0,0,0,1698.027,1527.54Z" transform="translate(-1556.059 -1294.297)"/><g transform="translate(147.11 236.825)"><path class="i" d="M1845.654,1544.417h4.557c.98,0,1.774.329,1.774.735v.066h-6.331Z" transform="translate(-1841.76 -1544.417)"/><path class="k" d="M1853.729,1546.26c0-1.018,1.19-1.843,2.658-1.843h5.848c-1.113,0-2.016.626-2.016,1.4l.028,19.757-3.231-2.541-3.293,2.541Z" transform="translate(-1853.722 -1544.417)"/></g><g transform="translate(153.37 214.446)"><path class="f" d="M1634.377,1458.455h41.078c3.643,0,6.6-3.5,6.6-7.828h0c0-4.324-2.953-7.829-6.6-7.829h-41.078a13.773,13.773,0,0,1,.293,15.212Z" transform="translate(-1633.244 -1441.987)"/><path class="d" d="M1564.691,1447.616h0c0-4.323-3.023-7.828-6.751-7.828h-41.7a.381.381,0,0,1-.35-.409h0a.38.38,0,0,1,.35-.4h66.154c4.115,0,7.451,3.868,7.451,8.639h0c0,4.772-3.336,8.64-7.451,8.64h-66.154a.38.38,0,0,1-.35-.4h0a.382.382,0,0,1,.35-.409h41.7C1561.668,1455.445,1564.691,1451.94,1564.691,1447.616Z" transform="translate(-1515.888 -1438.977)"/><g transform="translate(4.412 4.658)"><path class="l" d="M1795.375,1460.925h4.557c.98,0,1.774.323,1.774.721v.065h-6.331Z" transform="translate(-1791.481 -1460.925)"/><path class="b" d="M1803.448,1462.732c0-1,1.19-1.807,2.658-1.807h5.848c-1.114,0-2.016.614-2.016,1.371l.028,19.375-3.231-2.492-3.293,2.492Z" transform="translate(-1803.441 -1460.925)"/></g></g><g transform="translate(80.555 53.879)"><g transform="translate(0 43.933)"><path class="l" d="M2148.372,891.124l-6.064-1.6,4.11,54.821,7.276.243-3.67-51.476A2.223,2.223,0,0,0,2148.372,891.124Z" transform="translate(-2139.875 -889.508)"/><path class="e" d="M2173.771,945.839a1.976,1.976,0,0,0,.416-.006,2.431,2.431,0,0,0,1.991-2.676l-4.036-51.548a2.211,2.211,0,0,0-2.37-2.16,2.432,2.432,0,0,0-1.991,2.676l4.036,51.548A2.264,2.264,0,0,0,2173.771,945.839Z" transform="translate(-2167.771 -889.435)"/><path class="e" d="M1973.991,1148.379c0,.038,0,.076-.008.114h0a3.588,3.588,0,0,1-3.629,3.5l-51.215-4.584a3.579,3.579,0,0,1-2.941-4.091c.008-.089.02-.176.033-.262Z" transform="translate(-1912.179 -1089.23)"/></g><path class="m" d="M1966.029,1422.715c3.354,1.859,13.6-1.4,13.6-1.7.147,2.8,11.479,30.222,11.479,30.222l-.009,8.437s-23.349,1.113-23.013-.95,1.591-.721,6.249-4.618c.414-.346,6.953-1.864,5.183-5.735C1975.959,1440.579,1968.389,1427.581,1966.029,1422.715Z" transform="translate(-1939.88 -1264.263)"/><path class="b" d="M1985.563,1572.071l-25.558.007c-.922-.094-1.138-.844-.812-1.3.671-.94,5.569-3.155,8.862-4.624,5.735.67,15.817-1.535,16.74-2.843C1987.22,1566.563,1986.077,1571.965,1985.563,1572.071Z" transform="translate(-1933.572 -1376.355)"/><path class="c" d="M1978.353,1231.153c.345-1.037-22.005-10.522-23.006-9.438-1.77,1.917,12.093,37.9,12.093,37.9l-15.927,4.866s-16.558-41.572-15.867-49.175,8.986-16.244,26.958-10.714S1978.353,1231.153,1978.353,1231.153Z" transform="translate(-1920.755 -1092.389)"/><path class="m" d="M2083.548,1447.767a84.552,84.552,0,0,1,12.578-.95c-.461,3.486-2.7,21.359-2.292,22.457a13.412,13.412,0,0,0,5.34,6.531s-17.355,15.659-18.4,13.85.773-1.567,1.907-7.533c.1-.53,2.61-8.858,2.766-13.349C2085.74,1460.207,2083.677,1452.524,2083.548,1447.767Z" transform="translate(-2072.228 -1284.586)"/><path class="d" d="M1698.64,1171.539c2.421-1.292,8.707-1.337,15.618-.889a158.579,158.579,0,0,1,39.592,7.771l8.578,2.841-.028-8.794s27.286-4.566,28.235,2.2c1.43,10.184-.344,30.859-9.436,35.473-28.238,14.334-67.81-22.835-67.953-17.972-.193,6.531-5.7,30.833-7.106,41.474-3.915.068-10.641.065-13.558-.6C1692.014,1212.191,1691.748,1175.216,1698.64,1171.539Z" transform="translate(-1681.751 -1066.83)"/><path class="b" d="M2098.841,1559.366l-19.509,15.584c-.773.512-1.415.068-1.452-.491-.076-1.152,2.308-5.97,3.924-9.193,4.861-3.117,11.271-11.245,11.156-12.841C2095.016,1554.162,2099.171,1558.958,2098.841,1559.366Z" transform="translate(-2071.366 -1367.78)"/><path class="n" d="M1561.695,702.148c.655-5.991,1.345-12,6.311-16.394,4.019-3.553,9.129-4.155,14.181-2.254,14.316,5.386,6.939,18.1,25.193,30.919,5.672,3.983,11.924,6.709,16.194,12.073,5.977,7.507,3.721,16.538-1.727,22.567-26.066,28.848-55.167-10.112-57.256-19.464C1563.037,722.637,1561.273,706,1561.695,702.148Z" transform="translate(-1490.061 -682.44)"/><path class="a" d="M1693.8,885.949a79.569,79.569,0,0,1,4.323-7.04c2.209-3.926,7.914-5.912,7.914-5.912s1.909.039,4.1.146a1.737,1.737,0,0,0,.413.728c.824.618,5.544-.18,8.593,1.89,10.219,8.76,7.392,51.217,6.589,64.627l-31.121.295s3.923-28.854-2.4-36.267C1687.8,899.253,1690.636,891.772,1693.8,885.949Z" transform="translate(-1616.868 -832.553)"/><path class="m" d="M1777.17,799.75s1.711,12.217,2.905,15.186-6.569,9.318-13.03,11.245,1.974-6.558,1.707-9.732-1.442-18.2-1.442-18.2Z" transform="translate(-1686.215 -773.67)"/><path class="k" d="M1776.73,802.558c-.189-2.486-.326-4.309-.326-4.309l9.86,1.5s.249,1.435.524,3.465C1782.79,805.534,1779.2,804.8,1776.73,802.558Z" transform="translate(-1695.309 -773.67)"/><path class="m" d="M1766.216,699.77a11.2,11.2,0,0,1,6.286,4.538c2.4,3.662,4.046,14.442-3.857,19.474s-14.05-2.086-14.152-9.029S1755.879,698.546,1766.216,699.77Z" transform="translate(-1678.353 -696.005)"/><path class="m" d="M1839.132,746.333c.675,1.675,2.012,2.715,2.988,2.322s1.22-2.069.546-3.745-2.012-2.715-2.988-2.322S1838.458,744.657,1839.132,746.333Z" transform="translate(-1764.801 -729.757)"/><path class="n" d="M1734.866,699.1s4.955,11.113,9.308,12.106,4.29,6.585,4.29,6.585-.1-12.913-4.177-15.875A17.16,17.16,0,0,0,1734.866,699.1Z" transform="translate(-1648.169 -695.564)"/><path class="m" d="M1741.551,757.223c-.573,1.8-.048,3.582,1.171,3.969s2.673-.762,3.246-2.566.049-3.582-1.172-3.969S1742.124,755.418,1741.551,757.223Z" transform="translate(-1647.276 -739.27)"/><path class="m" d="M1727.736,1017.7c1.868-.675,4.647-.759,4.6-1.006-.188-1-8.436,2.2-7.322.747.62-.81,6.794-3.682,8.295-3.208,1.456.46,11.016,3.143,11.016,3.143l26.128-6.123s6.6-14.987,7.239-27.862a35.911,35.911,0,0,1,13.9,4.714c-2.285,12.313-7.839,32.273-13.978,36.018-2.583,1.576-33.42-1.886-33.42-1.886s-6.8-.48-7.906-.907c-.842-.324-3.01-1.545-4.19-1.879-2.681-.759-7.458,1.147-7.473.622C1724.616,1019.692,1725.828,1018.393,1727.736,1017.7Z" transform="translate(-1689.127 -919.519)"/><path class="g" d="M1712.624,883.978c.251-3.962,1.752-7.787,5.968-9.019a8.535,8.535,0,0,1,7.632,1.672c2.484,2.029,3.177,5.283,3.166,8.363a119.559,119.559,0,0,1-1.781,21.131,45.213,45.213,0,0,0-15.721-4.948C1711.89,901.137,1712.291,889.214,1712.624,883.978Z" transform="translate(-1624.218 -833.861)"/></g><g transform="translate(241.358 70.904)"><path class="e" d="M1219.671,813.625l40.508-7.543a1.5,1.5,0,0,0,1.2-1.747l-5.075-27.25a1.5,1.5,0,0,0-1.747-1.2l-40.508,7.543a1.5,1.5,0,0,0-1.2,1.748l5.074,27.25A1.5,1.5,0,0,0,1219.671,813.625Z" transform="translate(-1211.114 -773.058)"/><path class="e" d="M1257.28,772.073l12.33-2.3a1.5,1.5,0,0,0,1.2-1.747l-.772-4.147a1.5,1.5,0,0,0-1.747-1.2l-12.33,2.3a1.5,1.5,0,0,0-1.2,1.747l.772,4.146A1.5,1.5,0,0,0,1257.28,772.073Z" transform="translate(-1229.441 -762.659)"/><path class="f" d="M1218.894,822.97a1.5,1.5,0,0,0,1.716,1.066l40.772-7.592a1.5,1.5,0,0,0,1.219-1.6l-2.134-24.427a1.5,1.5,0,0,0-1.767-1.343l-45.294,8.434a1.5,1.5,0,0,0-1.168,1.88Z" transform="translate(-1212.182 -783.445)"/></g><g transform="translate(62.276 14.26)"><path class="a" d="M2253.817,502.685l6.937,1.894,1.494-8.406-2.27-.4-1.052,5.921-4.5-1.229Z" transform="translate(-2253.817 -495.77)"/></g><g transform="translate(254.252 134.984)"><path class="c" d="M1260.9,1072.213a10.727,10.727,0,0,0-5.6,1.435,8.1,8.1,0,0,0-2.984,3.083l.322.223a7.282,7.282,0,0,1,3.731-2.295,8.98,8.98,0,0,1,4.163-.041Z" transform="translate(-1231.883 -1070.579)"/><path class="k" d="M1267.068,1070.842s10.584,1.766,9.6,10.034-12.153,14.7-22.118,9.587c-13.406-6.879-8.111-24.368,1.431-25.721S1267.068,1070.842,1267.068,1070.842Z" transform="translate(-1246.477 -1064.578)"/><path class="h" d="M1321.4,1071.965s-2.761-2.835-8.811-.256-6.488,14.606-1.092,13.907S1325.719,1073.7,1321.4,1071.965Z" transform="translate(-1305.304 -1069.343)"/></g><g transform="translate(195.75 0)"><path class="j" d="M1398.067,456.344l43.531,15.528a2.7,2.7,0,0,0,3.447-1.634l8.035-22.524a2.7,2.7,0,0,0-1.634-3.447l-43.531-15.528a2.7,2.7,0,0,0-3.447,1.634l-8.035,22.524A2.7,2.7,0,0,0,1398.067,456.344Z" transform="translate(-1396.275 -428.582)"/><path class="o" d="M1441.834,510.841a8.627,8.627,0,1,0,11.023-5.227A8.626,8.626,0,0,0,1441.834,510.841Z" transform="translate(-1411.189 -488.868)"/><path class="j" d="M1464.682,520.15a2.544,2.544,0,1,0,3.25-1.541A2.543,2.543,0,0,0,1464.682,520.15Z" transform="translate(-1427.148 -499.384)"/><path class="j" d="M0,0H8.129a0,0,0,0,1,0,0V0A3.926,3.926,0,0,1,4.2,3.926H3.926A3.926,3.926,0,0,1,0,0V0A0,0,0,0,1,0,0Z" transform="matrix(-0.942, -0.336, 0.336, -0.942, 41.045, 30.591)"/><g transform="translate(9.443 8.276)"><path class="o" d="M1540.27,476.563a1.1,1.1,0,0,0,.37-2.136l-19.029-6.788a1.1,1.1,0,0,0-.739,2.072L1539.9,476.5A1.1,1.1,0,0,0,1540.27,476.563Z" transform="translate(-1520.141 -467.574)"/></g><g transform="translate(8.472 14.506)"><path class="o" d="M1560.306,504.43a1.1,1.1,0,0,0,.37-2.137l-14.862-5.3a1.1,1.1,0,0,0-.739,2.073l14.862,5.3A1.1,1.1,0,0,0,1560.306,504.43Z" transform="translate(-1544.344 -496.928)"/></g></g><path class="k" d="M1451.809,1359.874h105.11a5.91,5.91,0,0,1,5.91,5.91v4.971a5.91,5.91,0,0,1-5.91,5.91h-105.11l.055-.057A12.036,12.036,0,0,0,1451.809,1359.874Z" transform="translate(-1321.904 -1162.217)"/><path class="f" d="M1673.534,1371.585h56.19a5.91,5.91,0,0,1,5.91,5.91h0a5.91,5.91,0,0,1-5.91,5.91h-56.189A12.052,12.052,0,0,0,1673.534,1371.585Z" transform="translate(-1541.768 -1171.442)"/><g transform="translate(0 164.037)"><g transform="translate(10.224)"><path class="f" d="M2374.471,1235.572l7.968-19.989a1.96,1.96,0,0,0-1.095-2.547l-28.67-11.427a1.96,1.96,0,0,0-2.547,1.095l-7.967,19.99a1.96,1.96,0,0,0,1.095,2.547l28.67,11.427A1.96,1.96,0,0,0,2374.471,1235.572Z" transform="translate(-2340.815 -1201.469)"/><path class="d" d="M2474.81,1238.161l7.159-17.962a.562.562,0,0,0-.314-.731h0a.563.563,0,0,0-.731.314l-7.159,17.962a.562.562,0,0,0,.314.731h0A.562.562,0,0,0,2474.81,1238.161Z" transform="translate(-2468.2 -1215.616)"/><path class="d" d="M2464.775,1238.946l5.878-14.748a.562.562,0,0,0-.314-.731h0a.562.562,0,0,0-.73.314l-5.878,14.748a.562.562,0,0,0,.314.73h0A.563.563,0,0,0,2464.775,1238.946Z" transform="translate(-2454.754 -1218.766)"/><path class="d" d="M2454.74,1246.16l7.16-17.962a.562.562,0,0,0-.314-.731h0a.562.562,0,0,0-.731.314l-7.159,17.962a.562.562,0,0,0,.314.731h0A.562.562,0,0,0,2454.74,1246.16Z" transform="translate(-2443.871 -1221.918)"/><path class="d" d="M2444.706,1246.061l5.526-13.864a.562.562,0,0,0-.314-.731h0a.562.562,0,0,0-.73.314l-5.526,13.864a.562.562,0,0,0,.314.731h0A.562.562,0,0,0,2444.706,1246.061Z" transform="translate(-2430.073 -1225.068)"/><g transform="translate(0 2.138)"><path class="c" d="M2491.031,1212.071l.144-.362a.252.252,0,0,1,.323-.151l2.721,1.084a.252.252,0,0,1,.131.331l-.144.362a.252.252,0,0,1-.323.151l-2.721-1.085A.252.252,0,0,1,2491.031,1212.071Z" transform="translate(-2484.229 -1211.542)"/><path class="c" d="M2493.937,1219.361l.145-.362a.252.252,0,0,1,.323-.151l2.721,1.085a.252.252,0,0,1,.13.332l-.144.362a.252.252,0,0,1-.323.15l-2.721-1.084A.253.253,0,0,1,2493.937,1219.361Z" transform="translate(-2487.751 -1217.285)"/><path class="c" d="M2496.842,1226.65l.144-.362a.252.252,0,0,1,.323-.151l2.721,1.085a.252.252,0,0,1,.131.331l-.144.362a.252.252,0,0,1-.323.151l-2.721-1.085A.252.252,0,0,1,2496.842,1226.65Z" transform="translate(-2491.273 -1223.027)"/><path class="c" d="M2499.748,1233.94l.144-.362a.252.252,0,0,1,.323-.151l2.721,1.085a.252.252,0,0,1,.13.331l-.144.362a.252.252,0,0,1-.323.151l-2.721-1.084A.252.252,0,0,1,2499.748,1233.94Z" transform="translate(-2494.795 -1228.769)"/><path class="c" d="M2502.653,1241.229l.144-.362a.252.252,0,0,1,.323-.151l2.721,1.084a.253.253,0,0,1,.131.332l-.144.362a.253.253,0,0,1-.323.151l-2.721-1.085A.252.252,0,0,1,2502.653,1241.229Z" transform="translate(-2498.317 -1234.512)"/><path class="c" d="M2505.559,1248.518l.144-.361a.252.252,0,0,1,.323-.151l2.721,1.085a.252.252,0,0,1,.131.332l-.144.361a.252.252,0,0,1-.323.151l-2.721-1.084A.252.252,0,0,1,2505.559,1248.518Z" transform="translate(-2501.839 -1240.254)"/><path class="c" d="M2508.464,1255.808l.144-.362a.252.252,0,0,1,.323-.151l2.721,1.085a.252.252,0,0,1,.131.332l-.144.362a.252.252,0,0,1-.323.151l-2.721-1.085A.252.252,0,0,1,2508.464,1255.808Z" transform="translate(-2505.361 -1245.997)"/><path class="c" d="M2511.369,1263.1l.144-.362a.252.252,0,0,1,.323-.151l2.721,1.085a.252.252,0,0,1,.131.331l-.144.362a.252.252,0,0,1-.323.151l-2.721-1.084A.252.252,0,0,1,2511.369,1263.1Z" transform="translate(-2508.882 -1251.739)"/><path class="c" d="M2514.276,1270.387l.144-.362a.253.253,0,0,1,.323-.151l2.721,1.084a.252.252,0,0,1,.131.332l-.144.361a.253.253,0,0,1-.323.151l-2.721-1.085A.252.252,0,0,1,2514.276,1270.387Z" transform="translate(-2512.406 -1257.482)"/><path class="c" d="M2517.18,1277.677l.145-.362a.252.252,0,0,1,.323-.151l2.721,1.085a.252.252,0,0,1,.131.331l-.144.362a.252.252,0,0,1-.323.15l-2.721-1.084A.253.253,0,0,1,2517.18,1277.677Z" transform="translate(-2515.928 -1263.224)"/><path class="c" d="M2520.085,1284.967l.144-.362a.252.252,0,0,1,.323-.15l2.721,1.084a.252.252,0,0,1,.131.331l-.144.362a.252.252,0,0,1-.323.151l-2.721-1.085A.252.252,0,0,1,2520.085,1284.967Z" transform="translate(-2519.449 -1268.966)"/><path class="c" d="M2522.992,1292.256l.144-.362a.252.252,0,0,1,.323-.151l2.721,1.085a.252.252,0,0,1,.131.331l-.144.362a.252.252,0,0,1-.323.151l-2.721-1.085A.252.252,0,0,1,2522.992,1292.256Z" transform="translate(-2522.972 -1274.709)"/></g></g><g transform="translate(0 17.903)"><path class="i" d="M2517.38,1286.012l11.379,16.2a.435.435,0,0,1,.059.118l1.16,3.56a.446.446,0,0,1-.692.494l-3.046-2.3a.44.44,0,0,1-.1-.1l-11.408-16.245a.446.446,0,0,1,.125-.632l1.915-1.223A.446.446,0,0,1,2517.38,1286.012Z" transform="translate(-2514.655 -1285.823)"/><path class="e" d="M2515.018,1365.369l.028.04,2.939,2.215.8-.536-1.1-3.375A13.683,13.683,0,0,0,2515.018,1365.369Z" transform="translate(-2503.517 -1347.182)"/></g></g><g transform="translate(85.1 3.945)"><path class="d" d="M2019.734,460.248c-1.638,1.307-4.487,5.514-8.122,8.467-2.127,1.727-3.765,1.288-6.479,1.616-12.879,1.557-9.389,4.189-10.934,4.448.438,1.01,4.451,9.539,5.2,11.263a3.142,3.142,0,0,0,3.62,2.062c2.663-.368,5.351-.642,7.973-1.211,6.722-1.458,10.462-4.82,15.279-8.9a3.15,3.15,0,0,0,.93-3.965A109.325,109.325,0,0,0,2019.734,460.248Z" transform="translate(-1986.831 -457.472)"/><path class="j" d="M1988.557,474.736c.058,2.807-.157,3.37,1.048,2.944a16.943,16.943,0,0,0,2.114-.944c.484-.25.5-.579.11-.973-.572-.574-1.159-1.133-1.731-1.69a2.484,2.484,0,0,0-1.09-2.984c-.21-.123-.057.138-1.85-3.99,5.931-.732,10.116-1.223,17.352-2.112a9.733,9.733,0,0,0,5.152-2.242q7.753-6.487,15.5-12.978a1.43,1.43,0,0,0,.233-2.11,1.619,1.619,0,0,0-1.6-.455c-1.652.207-17.844,2.219-19.487,2.411a10.646,10.646,0,0,0-5.733,2.465q-7.616,6.378-15.252,12.733c-.7.582-.886,1.117-.641,1.765a1.364,1.364,0,0,0,1.746.859c.642-.138.925.055,1.146.649,1,2.685,1.693,3.279,1.453,4.259A2.7,2.7,0,0,0,1988.557,474.736Z" transform="translate(-1982.585 -447.169)"/></g><g transform="translate(35.21 214.586)"><path class="d" d="M2313.428,1447.74l-2.951,2.814a78.442,78.442,0,0,0-16.79,23.266l-.452.958s-7.728.683-8.806-6.3h0a116.762,116.762,0,0,0,16.966-24.917l1.4-3.267Z" transform="translate(-2284.428 -1440.151)"/><path class="j" d="M2284.192,1439.766c-.379.544,1.693,2.645,4.63,4.692s5.636,3.292,6.016,2.748-1.707-2.67-4.643-4.717S2284.571,1439.222,2284.192,1439.766Z" transform="translate(-2265.823 -1439.636)"/><path class="c" d="M2295.421,1440.3l.009-.011s5.882,4.979,8.307,5.487l-.749,1.019a31.058,31.058,0,0,1-2.926-1.823C2297.161,1442.948,2295.1,1440.872,2295.421,1440.3Z" transform="translate(-2277.064 -1440.15)"/><g transform="translate(8.965 14.605)"><path class="i" d="M2342.6,1508.449c-.011.858.318,4.562,6.481,6.109q-.609.828-1.2,1.672c-3.9-1.153-5.656-3.156-6.445-4.681-.125-.241-.275-.565-.375-.815Q2341.843,1509.6,2342.6,1508.449Z" transform="translate(-2341.062 -1508.449)"/><path class="i" d="M2301.31,1530.867l9.07-.324-2.149,1.824,1.284,2.331-8.585-2.189Z" transform="translate(-2293.847 -1525.854)"/><path class="i" d="M2333.808,1542.01l3.223,5.614-2.267-.863-.873,1.783-1.515-5.9Z" transform="translate(-2327.173 -1534.887)"/><path class="k" d="M2341.426,1527.1a2.98,2.98,0,1,0-2.674-3.176A2.936,2.936,0,0,0,2341.426,1527.1Z" transform="translate(-2336.021 -1518.451)"/></g></g><g transform="translate(10.626 80.041)"><path class="p" d="M2370.552,836.121l19.1-17.045c1.241-1.108.724-3.387-.988-4.356l-15.245-8.632a2.383,2.383,0,0,0-2.783.13l-19.1,17.045c-1.241,1.108-.724,3.387.988,4.357l15.245,8.632A2.383,2.383,0,0,0,2370.552,836.121Z" transform="translate(-2350.852 -805.706)"/><g transform="translate(3.833 2.518)"><path class="o" d="M2449.052,831.907l1.592-13.1a1.174,1.174,0,0,0-.815-1.2.758.758,0,0,0-1.037.619l-1.466,12.051-14.485,3.5a.8.8,0,0,0-.486,1.138,1.122,1.122,0,0,0,1.227.723Z" transform="translate(-2432.28 -817.569)"/></g></g><path class="e" d="M1266.716,602.494l-1.974,3.906-4.461-.144-1.9,4.535-4.7-1.619-2.379,5.033-4.515-.956-3.08,4.469,1.691,1.166,2.3-3.341,4.765,1.009,2.286-4.838,4.783,1.646,2.1-5,4.356.141,1.83-3.62,2.841.691.485-2Z" transform="translate(-986.047 -565.583)"/><path class="a" d="M2405.065,1054.756l-4.055,1.648-3.268-3.039-4.414,2.169-2.483-4.311-5.1,2.232-2.776-3.687-5.258,1.346.509,1.99,3.932-1.006,2.929,3.891,4.9-2.146,2.524,4.383,4.871-2.393,3.192,2.968,3.758-1.527,1.688,2.387,1.677-1.186Z" transform="translate(-2363.283 -917.927)"/></g></svg>