<svg xmlns="http://www.w3.org/2000/svg" xmlns:xlink="http://www.w3.org/1999/xlink" width="789" height="287" viewBox="0 0 789 287"><defs><style>.a{fill:#fff;}.b,.c{fill:#230224;}.c{stroke:#707070;}.d,.e{opacity:0.34;}.d{clip-path:url(#a);}.e{clip-path:url(#b);}.f{stroke:none;}.g{fill:none;}</style><clipPath id="a"><path class="a" d="M-790.05,18167-934,18316v-149Z" transform="translate(1222 -16447)"/></clipPath><clipPath id="b"><path class="b" d="M-145,18277h-96l14,79h82Z" transform="translate(1222 -16439)"/></clipPath></defs><g transform="translate(-288 -1720)"><g class="c" transform="translate(289 1724)"><rect class="f" width="788" height="266" rx="30"/><rect class="g" x="0.5" y="0.5" width="787" height="265" rx="29.5"/></g><g class="d"><rect class="a" width="18.606" height="87" transform="matrix(0.839, -0.545, 0.545, 0.839, 263.276, 1780.285)"/><rect class="a" width="10.606" height="122" transform="matrix(0.839, -0.545, 0.545, 0.839, 276.276, 1747.285)"/><rect class="a" width="10.606" height="128.979" transform="matrix(0.839, -0.545, 0.545, 0.839, 282.556, 1726.932)"/><rect class="a" width="10.606" height="117.962" transform="matrix(0.839, -0.545, 0.545, 0.839, 301.556, 1718.568)"/><rect class="a" width="10.606" height="106.902" transform="matrix(0.839, -0.545, 0.545, 0.839, 320.579, 1711.352)"/><rect class="a" width="10.606" height="90" transform="matrix(0.839, -0.545, 0.545, 0.839, 338.455, 1708.018)"/><rect class="a" width="10.606" height="67" transform="matrix(0.839, -0.545, 0.545, 0.839, 363.299, 1708.307)"/><rect class="a" width="10.606" height="49" transform="matrix(0.839, -0.545, 0.545, 0.839, 385.992, 1708.307)"/><rect class="a" width="10.606" height="22" transform="matrix(0.839, -0.545, 0.545, 0.839, 411.073, 1712.516)"/></g><g class="e" transform="translate(0 90)"><rect class="a" width="12" height="84" transform="matrix(0.819, -0.574, 0.574, 0.819, 994.583, 1837.59)"/><rect class="a" width="7" height="89.568" transform="matrix(0.829, -0.559, 0.559, 0.829, 1013.907, 1832.861)"/><rect class="a" width="7" height="89.568" transform="matrix(0.829, -0.559, 0.559, 0.829, 1019.907, 1823.861)"/><rect class="a" width="7" height="62.143" transform="matrix(0.829, -0.559, 0.559, 0.829, 1041.243, 1832.598)"/><rect class="a" width="7" height="39.143" transform="matrix(0.829, -0.559, 0.559, 0.829, 1054.243, 1832.598)"/><rect class="a" width="7" height="23.143" transform="matrix(0.829, -0.559, 0.559, 0.829, 1063.19, 1827.68)"/></g></g></svg>