<svg xmlns="http://www.w3.org/2000/svg" width="558.723" height="298.55" viewBox="0 0 558.723 298.55"><defs><style>.a{fill:#81b4da;}.b{fill:#d2e7f3;}.c{fill:#470548;}.d{fill:#f7a491;}.e{fill:#355389;}.f{fill:#f48c7f;}.g{fill:#eab054;}.h{fill:#f7cc7f;}.i,.v{fill:#f47458;}.j{fill:#fff;}.k{fill:#d66350;}.l{fill:#184655;}.m{fill:#89a6e5;}.n{fill:#9bc1f9;}.o{fill:#0e2e35;}.p{fill:#466eb6;}.q{fill:#13375b;}.r{fill:#50bfa5;}.s{fill:#f8a492;}.t{fill:#94dcf0;}.u{fill:#c5eff9;}.v{opacity:0.5;mix-blend-mode:multiply;isolation:isolate;}.w{fill:#fae0b2;}</style></defs><g transform="translate(-165.835 -340.274)"><g transform="translate(165.835 489.406)"><g transform="translate(0)"><g transform="translate(0 4.461)"><path class="a" d="M250.549,1100.762s-42.431,21.6-55.624,20.906-7.228-9.712-7.228-9.712-26.254,4.168-30.9-2.651,7-10.442,7-10.442-29.184-6.516-27.921-12.785c2.352-11.678,34.9-6.2,34.9-6.2s-12.154-5.034-7.386-10.722c7.191-8.577,30.015,9.058,30.015,9.058s-8.1-7.631-1.192-10.876C204.607,1061.519,250.549,1100.762,250.549,1100.762Z" transform="translate(-135.835 -1066.751)"/></g><path class="b" d="M190.24,1046.083c-5.487,2.465-1.79,11.769-1.79,11.769s-17.725-13.911-24.916-5.333c-4.768,5.688,7.386,10.722,7.386,10.722s-32.545-5.479-34.9,6.2L250.352,1083.8C244.99,1079.293,201.11,1041.2,190.24,1046.083Z" transform="translate(-135.983 -1045.652)"/></g><g transform="translate(36.673 35.668)"><g transform="translate(0.026 1.441)"><path class="a" d="M386.979,1223.578s-17.435,30.572-25.945,35.5-8.455-3.121-8.455-3.121-14.682,13.268-20.35,10.9.075-9.256.075-9.256-20.8,7.695-22.564,3.271c-3.278-8.24,19.248-18.047,19.248-18.047s-9.627,1.8-8.963-3.687c1-8.272,22.4-6.547,22.4-6.547s-4.013-2.113-1.022-6.945C346.771,1216.983,386.979,1223.578,386.979,1223.578Z" transform="translate(-309.414 -1221.177)"/></g><path class="b" d="M338.838,1218.143c-2.991,4.832,3.492,9.078,3.492,9.078s-24.225-3.577-25.225,4.695c-.663,5.485,9.972,6.358,9.972,6.358s-20.711,8.987-17.433,17.227l77.147-37.5C381.614,1217.368,343.851,1210.046,338.838,1218.143Z" transform="translate(-309.292 -1214.36)"/></g></g><g transform="translate(622.567 500.878)"><g transform="translate(0 0)"><g transform="translate(2.28)"><path class="a" d="M2643.775,1237.607s51.689-33.182,59.511-48.325-6.107-14.375-6.107-14.375,21.743-26.521,17.174-36.134-16.186.99-16.186.99,11.754-36.742,3.95-39.419c-14.536-4.987-29.634,34.823-29.634,34.823s2.31-16.814-7.129-15.208c-14.235,2.422-9.463,39.324-9.463,39.324s-3.221-13.992-11.336-8.411C2630,1160.886,2643.775,1237.607,2643.775,1237.607Z" transform="translate(-2637.878 -1099.913)"/></g><path class="b" d="M2632.287,1145.506c6.32-4.5,14.272,5.673,14.272,5.673s-3.945-28.8,10.29-31.22c9.439-1.605,7.129,15.208,7.129,15.208s15.1-39.81,29.634-34.823l-58.474,136.669C2633.608,1228.1,2619.769,1154.429,2632.287,1145.506Z" transform="translate(-2627.092 -1099.913)"/></g><g transform="translate(7.857 70.208)"><g transform="translate(0.157 4.277)"><path class="a" d="M2665,1515.423s45.367,1.8,56.575-4.142,2.36-11.384,2.36-11.384,24.55-7,25.833-14.822-10.182-6.241-10.182-6.241,22.634-17.511,18.995-22.459c-6.778-9.216-32.9,8.735-32.9,8.735s8.544-9.306,2.089-12.327c-9.736-4.557-22.468,20.044-22.468,20.044s.429-5.836-6.9-5.863C2685.247,1466.916,2665,1515.423,2665,1515.423Z" transform="translate(-2664.998 -1452.22)"/></g><path class="b" d="M2697.167,1446.849c7.331.027,7.548,10.023,7.548,10.023s12.634-28.955,22.37-24.4c6.456,3.021.146,15.256.146,15.256s23.984-16.526,30.762-7.31l-93.739,58.811C2667.1,1493.132,2684.88,1446.8,2697.167,1446.849Z" transform="translate(-2664.254 -1431.988)"/></g></g><path class="c" d="M852.99,657.055c12.317-57.862,29.584-177.039,8.979-193.765C834.6,441.073,812.611,478.1,791.109,448.7c-9.378-12.824-10.206-18.572-29.59-29.027-27.229-14.685-47.75-.311-76.13-26.3-57-52.186-205.38-37.859-203.64,58.268.93,51.385-40.34,35.4-39.566,82,.234,14.066,22.643,29.4-5.375,64.252-13.728,17.074-13.3,40.108-9.291,59.164Z" transform="translate(-209.082 -18.34)"/><path class="d" d="M2039.422,1440.842c-.571-1.215,5.451-2.867,5.646-4.176s-7.879-.571-8.284-1.661c-.746-2.007,8.792-1.351,8.507-2.3s-10.087-2.106-9.223-3.87,10.039,2.265,10.184,1.115-8.869-2.978-8.968-5.456c-.053-1.325,15.011,5.077,16.59,4.189s-2.493-6.717-1.273-7.771,6.508,11.138,7.462,11.494,21.624,6.605,28.655,7.641c.594-2.38,5.879-15.478,6.388-17.723,4.126,2.336,9.385-.475,13.61,1.606-2.126,7.5-6.9,32.2-8.809,33.309-5.811,3.386-36.375-12.76-41.428-15.617s-7.639-1.495-10.934-2.223S2039.992,1442.057,2039.422,1440.842Z" transform="translate(-1503.427 -852.12)"/><path class="e" d="M1285.23,1062.211c1.591-15.026-6.973-28.9-21.073-33a31.7,31.7,0,0,0-11.4-21.582c-12.657-10.142-34.639-14.149-41.644,1.124-10.553,7.33-17.991,21.643-13.419,33.533-9.723,12.094-3.592,31.574,13.16,39.37,1,12.363,8.9,23.952,20.444,28.109,2.771,1,7.086,2.343,7.664,2.838-.754-.568,10.536,22.668,36.9,8.841C1302.754,1107.332,1304.994,1075.057,1285.23,1062.211Z" transform="translate(-838.688 -519.164)"/><path class="f" d="M1548.824,1494.344c.812-1.257-5.612-4.144-5.633-5.637s8.811.726,9.421-.42c1.124-2.111-9.536-3.029-9.081-4.034s11.484-.606,10.789-2.723-11.454.791-11.445-.518,10.265-1.789,10.743-4.538c.255-1.469-17.379,3.069-19,1.806s3.759-7.064,2.564-8.452-8.872,12.334-9.981,12.566-25.023,6.736-32.962,6.676c-.3-2.759-3.628-17.839-3.857-20.433-4.917,1.893-9.942,1.262-14.929,2.854,1.241,8.737,7.353,31.053,9.3,32.624,5.932,4.784,36.824-9.877,42.845-12.192s8.682-.347,12.439-.589S1548.011,1495.6,1548.824,1494.344Z" transform="translate(-1061.383 -889.803)"/><path class="g" d="M1423.175,1311.371c13.552,4.595,19.91,37.047,19.91,37.047s-21.262,5.936-26.709,2.822c0,0-6.184-27.408-8.4-26.45Z" transform="translate(-1008.171 -765.786)"/><path class="h" d="M1257.825,1387.727h49.658c.479-5.815,2.612-49.347,2.792-52.358.481-21.072-2.294-38.193-7.5-40.39a158.236,158.236,0,0,0-15.149-4.88h0c-5.643-.04-22.974,2.829-30.79,4.5-1.414.3-2.744,7.161-2.744,7.161l1.7,24.866C1263.2,1361.331,1259.008,1382.827,1257.825,1387.727Z" transform="translate(-886.819 -749.012)"/><path class="d" d="M1340.856,1203.146s2.413,12.482,1.93,17.406,1.84,20.792,12.262,20.844,1.979-20.174,1-25-1.214-19.761-1.214-19.761Z" transform="translate(-955.241 -675.309)"/><path class="i" d="M1355.047,1204.13c-.162-4.086-.216-7.494-.216-7.494l-13.975,6.51s.493,2.552.989,5.8C1347.963,1210.18,1352.4,1207.916,1355.047,1204.13Z" transform="translate(-955.241 -675.309)"/><path class="d" d="M1315.749,1055.022a17.312,17.312,0,0,0-9.963,6.661c-3.91,5.524-7.053,22.087,4.877,30.3s21.822-2.442,22.365-13.162S1331.787,1053.7,1315.749,1055.022Z" transform="translate(-924.809 -563.568)"/><path class="d" d="M1438.89,1130.24c-1.135,2.55-3.259,4.083-4.745,3.421s-1.77-3.265-.636-5.815,3.259-4.083,4.745-3.421S1440.025,1127.689,1438.89,1130.24Z" transform="translate(-1027.757 -618.243)"/><path class="e" d="M1292.4,1053.907s-8.272,16.893-15.052,18.184-6.993,9.934-6.993,9.934.868-19.944,7.334-24.293S1292.4,1053.907,1292.4,1053.907Z" transform="translate(-899.642 -562.74)"/><path class="d" d="M1288.66,1141.525c.785,2.82-.124,5.536-2.03,6.067s-4.087-1.326-4.872-4.146.124-5.536,2.03-6.066S1287.875,1138.7,1288.66,1141.525Z" transform="translate(-908.414 -628.509)"/><path class="h" d="M1235.142,1310.816c-11.571,7.25-14.619,40.105-14.619,40.105s21.961,2.246,26.8-1.746c0,0-1.831-28.112.515-27.543Z" transform="translate(-860.348 -765.349)"/><path class="j" d="M1379.878,1196.636l-9.445,1.044a4.2,4.2,0,0,0,4.789,3.292C1380.3,1200.56,1379.878,1196.636,1379.878,1196.636Z" transform="translate(-978.564 -675.309)"/><path class="k" d="M947.482,1340s-18.722-11.342-24.843-20.1,3.346-3.53,12.276-6.746c3.382-1.218.749-21.425,7.863-15.4,11.672,9.886,22.3,30.61,22.3,30.61Z" transform="translate(-623.906 -754.169)"/><path class="d" d="M872.984,1134.719s-.05.564-.143,1.523c-.45,4.6-2.39,19.916-4.223,24.239-2.215,5.223,10.874,20.136,21.977,17.216,3.3-.87-4.1-14.389-3.935-15.9.323-2.9.758-6.855,1.2-10.91.251-2.287.5-4.607.744-6.787.678-6.195,1.23-11.261,1.23-11.261Z" transform="translate(-582.649 -624.998)"/><path class="i" d="M823.208,1368.931c-.32-18.151-.958-49.239-1.658-54.476-1-7.474-11.879-37.479-14.458-40.576s-26.073-7.218-26.073-7.218-19.97-3.1-28.657,8.051c-5.074,6.516-4.205,64.9-3.434,94.219Z" transform="translate(-487.994 -730.216)"/><g transform="translate(319.004 528.649)"><path class="l" d="M1053.558,1232.092a9.78,9.78,0,0,1,11.846,3.219c5.233,6.485,2.751,6.091,5.307,9.341s8.134,1.9,8.737,7.313-1.83,6.542-1.83,6.542a9.279,9.279,0,0,1,.712,8.574c-2.045,4.615-7.932,9.05-13.274,9.037,0,0-7.439,5.227-15.613,4.061s-5.405-1.474-8.655-1.111-12.535-3.112-11.815-9.774c0,0-6.064-5.764-1.448-11.539s5.01-11.162,7.241-18.479S1049.758,1230.809,1053.558,1232.092Z" transform="translate(-1025.792 -1231.269)"/></g><path class="i" d="M888.153,1139.853c.094-.959.143-1.523.143-1.523l16.852-1.883s-.552,5.067-1.23,11.262c-.237,2.167-.49,4.473-.739,6.749a15.89,15.89,0,0,1-8.413-3.336,21.343,21.343,0,0,1-6.893-8.537C887.989,1141.5,888.083,1140.567,888.153,1139.853Z" transform="translate(-598.028 -627.845)"/><path class="m" d="M1095.13,1442.8l-8.148,4.16,2.152,15.553,9.112.542Z" transform="translate(-755.041 -869.425)"/><path class="d" d="M1149.948,1386.988s1.122,9.586.3,10.567-1.955,2.586-.429,4.764,7.162.215,9.733-1.329a12.745,12.745,0,0,0,3.928-3.97l-2.663-15.106Z" transform="translate(-803.997 -821.414)"/><path class="n" d="M1124.448,1508.14a44.721,44.721,0,0,0-1.7-17.023c-3.862-12.165-5.277-19.549-5.668-24.062-4.768-18.924-9.812-24.153-9.812-24.153-4.222-.032-11.917.467-11.917.467s-8.135-.543-13.223-.574c-2.883-.017-13.208,50.452-11.429,65.344Z" transform="translate(-742.038 -869.425)"/><path class="i" d="M1165.63,1390.514l-1.516-8.6-10.867,5.075a17.069,17.069,0,0,1,.262,2.636C1153.564,1390.456,1159.409,1393.742,1165.63,1390.514Z" transform="translate(-807.296 -821.414)"/><path class="d" d="M841.329,1505.862l18.832-3.828s4.534,15.582,5.4,17.264c0,0,35.4-.406,49.393-2.1l5.115,10.139c-2.706.4-4.979.524-6.292.777-2.577.5-43.544,8.951-43.544,8.951s-16.507,2.654-18.4.262S841.329,1505.862,841.329,1505.862Z" transform="translate(-561.324 -916.139)"/><path class="k" d="M767.607,1343.329s-21.008-38.679-22.312-49.96,9.032-24.491,18.946-22.8,26.665,60.48,26.665,60.48Z" transform="translate(-485.506 -733.496)"/><path class="d" d="M1099.677,1329.2s-.9-5.606-4.24-4.125.247,9.693,3.086,9.093S1099.677,1329.2,1099.677,1329.2Z" transform="translate(-760.648 -776.395)"/><path class="d" d="M1116.71,1252.5s5.4-.724,8.642,3.18,7.591,15.607,3.942,24.423-9.715,7.421-12.216,6.847-7.465-1.91-10.738-9.406S1102.866,1252.394,1116.71,1252.5Z" transform="translate(-768.853 -719.316)"/><g transform="translate(276.336 460.425)"><g transform="translate(0 0)"><path class="d" d="M885.634,966.873c-.488-.276-8.651,26.184-2.972,34.786s18.757,13.29,24.572,8.231c6.432-5.6,11.017-34.732,1.534-44.189S885.634,966.873,885.634,966.873Z" transform="translate(-868.677 -950.532)"/><path class="o" d="M862.387,908.579a30.3,30.3,0,0,0-17.176,6.329c-3.851-.184-9.332,1.047-16.1,8.939-8.318,9.7-5.5,22.463,1.11,29.594s6.753,13.092,6.753,13.092,2.563-7.769,2.731-10.6a16.346,16.346,0,0,0-.4-5.168c-1.171-4.222,5.008-5.866,7.162-8.857,1.659-2.3,2.677-8.034,5.323-11.857l2.862-2.777s6.083-3.292,11.153-1.231S873.421,908.184,862.387,908.579Z" transform="translate(-823.976 -908.573)"/><path class="d" d="M898.634,1064.354c-.5,3.312-2.448,5.765-4.36,5.479s-3.06-3.2-2.564-6.513,2.448-5.765,4.36-5.479S899.13,1061.042,898.634,1064.354Z" transform="translate(-877.298 -1026.265)"/></g><path class="j" d="M972,1133.692l10.522,1.2s-.7,3.969-5.341,3.575C971.518,1137.986,972,1133.692,972,1133.692Z" transform="translate(-940.695 -1086.097)"/></g><g transform="translate(326.255 613.367)"><rect class="p" width="7.324" height="16.636" transform="translate(2.851 8.156) rotate(-53.654)"/><path class="q" d="M1065.564,1631.975l-.542.192.032.319-.361.128.032.319-.361.128.032.319-.361.128.032.319-.361.128.032.319-.361.128.032.319-.361.128.032.319-.361.128.032.319-.361.128.032.319-.361.128.032.319-.361.128.032.319-.361.128.032.319-.361.128.032.319-.361.128.032.319-.361.128.032.319-.361.128.052.516-.016.022h.019l0,.015.044-.016,1.742-.024,1.009.743,4.341-5.9-1.009-.743-.684-1.5-.016.022Z" transform="translate(-1060.086 -1631.975)"/><path class="q" d="M1143.919,1690.224l-1.687-.245-.945-.7-4.341,5.9.945.7.545,1.707v.047l.015,0,.006.018.016-.022.521-.1.007-.388.322-.059.007-.389.322-.059.007-.389.322-.058.007-.389.322-.059.007-.389.322-.059.007-.389.322-.058.007-.388.322-.059.007-.388.322-.059.007-.389.322-.059.007-.389.322-.058.007-.389.322-.058.007-.389.322-.059.007-.389.322-.058.007-.388.322-.059.007-.388.322-.059.01-.584-.037.006Z" transform="translate(-1120.696 -1677.168)"/><rect class="r" width="4.229" height="12.917" transform="translate(5.248 8.001) rotate(-53.653)"/><path class="e" d="M1073.568,1648.549l2.4-.155,2.506-3.407-.564-2.337Z" transform="translate(-1070.718 -1640.394)"/><path class="e" d="M1134.717,1695.183l-.6-2.359,2.507-3.406,2.432-.133Z" transform="translate(-1118.467 -1677.168)"/></g><path class="j" d="M1164.832,1366.8l8.341-1.37a3.7,3.7,0,0,1-3.323,3.908C1165.4,1370.207,1164.832,1366.8,1164.832,1366.8Z" transform="translate(-816.432 -808.42)"/><path class="s" d="M1215.468,1521.171c-1.822,1.046-5.386,3.023-5.549,2.593-.142-.372,2.348-1.723,5.1-3.813l-.937-2.564c-.7.438-1.429.778-2.047,1.175a27.747,27.747,0,0,1-3.165,1.955c-.011-.137-.544-.173.338-.981s2.951-2.033,4.445-3.324c-.323-.881-.648-1.769-.969-2.642-.167.161-.27.265-.27.265s-4.64,2.9-5.07,2.217c-.179-.283,2.305-2.314,4.506-4.747-.384-1.043-.749-2.031-1.081-2.923-.372.36-.73.7-.949.889-.724.623-3.036,2.312-3.036,2.312s-8.328,5.485-8.682,4.8-.6-2.777-.2-3.305,1.626-1.086,2.021-1.614a1.736,1.736,0,0,0-.148-2.151c-.609-.571-3.494,1.192-3.494,1.192a10.393,10.393,0,0,0-3.223,3.173,44.478,44.478,0,0,0-3.482,8.519l4.9,10.168c1.875-.377,5.8-1.178,8.515-1.811,3.684-.86,6.753-3.374,7.749-3.781a31.009,31.009,0,0,0,5.482-3.523Z" transform="translate(-835.945 -921.144)"/><path class="f" d="M1125.685,1523.788s3.2,9.617,3.352,10.79c0,0-17.213,11.031-25.019,15.138-.1.038-.2.077-.306.113-.174.059-.352.2-.541.066-.85-.588-3.93-2.338-5.286-3.039a2.9,2.9,0,0,0-1.2-.318l-2.671-.118,1.318,1.312a1.1,1.1,0,0,1,.031,1.509l-.008.009a5.086,5.086,0,0,1-1.458.985,6.008,6.008,0,0,0-1.831,1.593,1.488,1.488,0,0,0,.118,2,5.089,5.089,0,0,1,1,1.176c.32.781,5.043,6.159,6.4,5.785a20.676,20.676,0,0,0,4.368-3.005,6.51,6.51,0,0,1,2.313-1.442,4.145,4.145,0,0,0,.52-.231v0c5.963-2.543,26.159-10.748,26.159-10.748s9.426-4.5,9.551-6.4-5.772-19.9-5.772-19.9Z" transform="translate(-758.786 -929.573)"/><path class="m" d="M1238.553,1466.537s-15.313,5.56-19.258,5.289c0,0-5.143-19.249-5.423-20.454-1.264-5.451,1.343-8.665,3.653-9.961C1228.134,1435.456,1238.553,1466.537,1238.553,1466.537Z" transform="translate(-854.843 -867.736)"/><path class="q" d="M2287.865,1005.9c6.575-2.817,13.934-5.673,20.675-3.28,4.245,1.508,7.512,4.884,10.615,8.15,3.4,3.581,7.016,7.656,7.1,12.594a18.065,18.065,0,0,1-1.164,5.882,34.04,34.04,0,0,1-5.12,10.49c-3.9,5-9.9,7.958-16,9.663-5.4,1.509-6.744.977-12.348.734-3.783-.163-9.78-6.176-12.237-9.059-3.9-4.58-3.564-24.43.554-29.435a21.577,21.577,0,0,1,4.382-3.8,35.251,35.251,0,0,1,3.479-2.1Z" transform="translate(-1693.181 -521.603)"/><path class="t" d="M2327.466,1383.313c-1.208-6.34-4.231-22.879-4.236-29.6-.007-8.4,8.352-59.072,1.468-64.771s-26.362-4.281-26.362-4.281-14.287,6.379-16.161,9.025-8.652,27.355-8.959,33.4c-.27,5.3,1.558,46.242,2.012,56.233Z" transform="translate(-1690.457 -744.598)"/><path class="d" d="M2367.233,1186.785s.079.447.222,1.208c.684,3.649,3.319,15.752,5.1,19.08,2.152,4.021-7.364,16.846-16.522,15.281-2.726-.466,2.2-12.3,1.959-13.5-.463-2.295-.987-4.911-1.629-8.122-.362-1.811-.729-3.647-1.073-5.373-.98-4.9-1.779-8.916-1.779-8.916Z" transform="translate(-1753.798 -667.273)"/><path class="i" d="M2367.456,1187.992c-.143-.76-.222-1.208-.222-1.208l-13.723-.339s.8,4.011,1.779,8.916c.343,1.716.707,3.542,1.067,5.342a12.91,12.91,0,0,0,6.552-3.248,17.127,17.127,0,0,0,4.964-7.3C2367.7,1189.3,2367.562,1188.558,2367.456,1187.992Z" transform="translate(-1753.798 -667.273)"/><path class="d" d="M2324.976,1037.071s6.468-.739,10.523,4.447,8.424,21.224-1.647,29.944-20.023-1.151-21.5-11.615S2310.3,1036.693,2324.976,1037.071Z" transform="translate(-1720.776 -549.45)"/><path class="q" d="M2371.309,1028.494s8.642,15.251,14.824,15.956,6.994,8.809,6.994,8.809-2.211-18.674-8.331-22.274S2371.309,1028.494,2371.309,1028.494Z" transform="translate(-1767.834 -542.588)"/><path class="d" d="M2430.98,1107.231c-.573,2.695.511,5.209,2.422,5.616s3.925-1.448,4.5-4.144-.511-5.21-2.422-5.616S2431.554,1104.535,2430.98,1107.231Z" transform="translate(-1814.769 -601.494)"/><path class="u" d="M2373.311,1284l4.526,2.3-9.423,8.332,1.557.744-15.5,8.781Z" transform="translate(-1754.555 -744.205)"/><path class="u" d="M2352.7,1292.442l-5.325,2.839,2.18,2.107-2.753.834,1.62,12.593Z" transform="translate(-1748.511 -750.859)"/><path class="q" d="M2360.525,1345.307a6.017,6.017,0,0,1-4.335-.91l-1.72,7.388Z" transform="translate(-1754.555 -791.83)"/><g transform="translate(575.917 571.699)"><path class="l" d="M2282.127,1440.7l-39.315,5.751a2.162,2.162,0,0,0-1.827,2.453l7.673,52.451a2.163,2.163,0,0,0,2.453,1.827l39.315-5.752a2.162,2.162,0,0,0,1.827-2.453l-7.673-52.451A2.163,2.163,0,0,0,2282.127,1440.7Z" transform="translate(-2240.962 -1439.45)"/><path class="q" d="M2296.95,1442.03a.439.439,0,0,1,.37-.5l16.4-2.4a.439.439,0,0,1,.5.37l.25,1.7-17.267,2.526Z" transform="translate(-2285.11 -1438.233)"/><path class="q" d="M2325.521,1437.884a2.614,2.614,0,1,0,2.208-2.965A2.614,2.614,0,0,0,2325.521,1437.884Zm.928-.136a1.676,1.676,0,1,1,1.9,1.417A1.677,1.677,0,0,1,2326.449,1437.748Z" transform="translate(-2307.622 -1434.891)"/><path class="e" d="M2297.157,1449.348a.441.441,0,0,0-.207.438l.25,1.7,17.267-2.526a2.161,2.161,0,0,1-1.825,2.451l-12.991,1.9a2.162,2.162,0,0,1-2.451-1.825l-.25-1.7A.441.441,0,0,1,2297.157,1449.348Z" transform="translate(-2285.11 -1445.989)"/></g><path class="d" d="M2321.587,1527.545,2307.342,1529s.233,12.091-.011,13.48c0,0-24.361,6.752-34.542,8.584,0,0-4.635-2.627-6.51-3.463a45.468,45.468,0,0,0-8.031-1.892c-1.115-.146-.735,1.076.223,1.5s3.434,1.594,4.136,3.023a7.745,7.745,0,0,1-3.075-.255c-1.063-.474-2.53-1.477-2.553-2s-.265-1.775-.614-1.707c-.089.017-.208.429-.327.86-.113.409-.234.829-.333,1.242-.179.741-.385,1.824-.465,2.311-.183,1.11.5,4.173.592,5.261.174,1.986.741,2.868,1.789,3.375a25.972,25.972,0,0,0,6.123,1.238c4.846.5,9.3-.894,11.242-1.112s32.961-3.295,32.961-3.295,12.332-1.775,13.149-3.9S2321.587,1527.545,2321.587,1527.545Z" transform="translate(-1676.28 -936.257)"/><path class="a" d="M2464.376,1300.382s4.5,2.132,8.448,11.34c3.756,8.75,4.86,52.419,4.86,52.419l-14.9-2.483-7.573-20.361a37.341,37.341,0,0,1,3.86-37.136C2461.167,1301.29,2463.1,1299.556,2464.376,1300.382Z" transform="translate(-1831.444 -756.958)"/><path class="j" d="M2357.577,1168.215l-9.941,1.1a4.416,4.416,0,0,0,5.041,3.464C2358.026,1172.346,2357.577,1168.215,2357.577,1168.215Z" transform="translate(-1749.166 -652.897)"/><g transform="translate(417.336 340.311)"><g transform="translate(0 0)"><path class="r" d="M1509.011,366.693h-10v-8.121h-8.12v-10h8.12v-8.12h10v8.12h8.121v10h-8.121Zm-8.66-1.342h7.318v-8.12h8.12v-7.318h-8.12v-8.12h-7.318v8.12h-8.12v7.318h8.12Z" transform="translate(-1490.888 -340.449)"/></g></g><g transform="translate(649.333 492.037)"><g transform="translate(0 0)"><path class="r" d="M2606.334,1084.34h-10v-8.121h-8.121v-10h8.121v-8.12h10v8.12h8.121v10h-8.121Zm-8.66-1.343h7.318v-8.121h8.12v-7.318h-8.12v-8.12h-7.318v8.12h-8.121v7.318h8.121Z" transform="translate(-2588.211 -1058.096)"/></g></g><g transform="translate(496.93 518.921)"><g transform="translate(0 0)"><path class="r" d="M1881.852,1206.242h-8v-6.494h-6.494v-8h6.494v-6.494h8v6.494h6.494v8h-6.494Zm-6.926-1.074h5.852v-6.494h6.494v-5.852h-6.494v-6.494h-5.852v6.494h-6.494v5.852h6.494Z" transform="translate(-1867.359 -1185.255)"/></g></g><g transform="translate(448.64 424.951)"><path class="i" d="M1647.2,752.731h-4.553v-3.7h-3.7v-4.552h3.7v-3.7h4.553v3.7h3.7v4.552h-3.7Zm-3.942-.611h3.33v-3.7h3.7v-3.33h-3.7v-3.7h-3.33v3.7h-3.7v3.33h3.7Z" transform="translate(-1638.956 -740.788)"/></g><g transform="translate(221.738 587.329)"><path class="i" d="M581.141,1529.78l-7.99.515-.418-6.486-6.486.417-.515-7.989,6.486-.418-.418-6.486,7.99-.515.418,6.486,6.486-.418.515,7.99-6.486.417Zm-6.987-.627,5.845-.376-.418-6.486,6.486-.418-.376-5.845-6.487.418-.418-6.486-5.845.376.418,6.486-6.486.417.377,5.846,6.486-.418Z" transform="translate(-565.733 -1508.817)"/></g><g transform="translate(656.049 555.618)"><g transform="translate(0 0)"><path class="h" d="M2623.773,1366.425a3.8,3.8,0,1,1,3.8-3.8A3.8,3.8,0,0,1,2623.773,1366.425Zm0-6.633a2.835,2.835,0,1,0,2.834,2.835A2.838,2.838,0,0,0,2623.773,1359.793Z" transform="translate(-2619.975 -1358.829)"/></g></g><g transform="translate(355.73 340.274)"><path class="i" d="M1205.062,351.4a5.562,5.562,0,1,1,5.561-5.562A5.568,5.568,0,0,1,1205.062,351.4Zm0-9.713a4.151,4.151,0,1,0,4.151,4.151A4.156,4.156,0,0,0,1205.062,341.685Z" transform="translate(-1199.5 -340.274)"/></g><g transform="translate(233.062 513.915)"><g transform="translate(0)"><path class="a" d="M622.991,1168.97a3.7,3.7,0,1,1,3.7-3.7A3.7,3.7,0,0,1,622.991,1168.97Zm0-6.455a2.759,2.759,0,1,0,2.759,2.758A2.762,2.762,0,0,0,622.991,1162.515Z" transform="translate(-619.295 -1161.577)"/></g></g><g transform="translate(283.233 401.564)"><g transform="translate(0 0)"><path class="v" d="M859.093,635.158a2.493,2.493,0,1,1,2.493-2.493A2.5,2.5,0,0,1,859.093,635.158Zm0-4.354a1.861,1.861,0,1,0,1.861,1.861A1.863,1.863,0,0,0,859.093,630.8Z" transform="translate(-856.6 -630.171)"/></g></g><g transform="translate(402.382 459.897)"><g transform="translate(0 0)"><path class="h" d="M1424.309,914.381a4.151,4.151,0,1,1,4.151-4.151A4.156,4.156,0,0,1,1424.309,914.381Zm0-7.249a3.1,3.1,0,1,0,3.1,3.1A3.1,3.1,0,0,0,1424.309,907.132Z" transform="translate(-1420.158 -906.079)"/></g></g><g transform="translate(522.401 611.999)"><path class="i" d="M1993.4,1636.629a5.562,5.562,0,1,1,5.561-5.562A5.568,5.568,0,0,1,1993.4,1636.629Zm0-9.713a4.151,4.151,0,1,0,4.151,4.151A4.156,4.156,0,0,0,1993.4,1626.916Z" transform="translate(-1987.837 -1625.505)"/></g><g transform="translate(469.064 350.198)"><g transform="translate(17.611 33.991)"><path class="h" d="M1924.866,547.987h-97.405a8.616,8.616,0,0,0-8.6,8.63v56.942a8.616,8.616,0,0,0,8.6,8.63h68.156c4.382,6.135,12.326,17.122,13.027,17.122.656,0-.608-10.377-1.5-17.122h17.721a8.616,8.616,0,0,0,8.6-8.63V556.617A8.616,8.616,0,0,0,1924.866,547.987Z" transform="translate(-1818.86 -547.987)"/></g><g transform="translate(14.522 63.413)"><circle class="w" cx="32.72" cy="32.72" r="32.72" transform="matrix(0.995, -0.099, 0.099, 0.995, 0, 6.448)"/><g transform="translate(1.85 1.85)"><path class="h" d="M1822.938,753.831a33.935,33.935,0,1,1,24,9.939A33.712,33.712,0,0,1,1822.938,753.831Zm-7.51-24a31.505,31.505,0,1,0,31.505-31.505A31.541,31.541,0,0,0,1815.428,729.835Z" transform="translate(-1812.998 -695.9)"/></g><g transform="translate(16.134 23.249)"><path class="k" d="M1883.672,798.766c8.55-5.951,12.581,6.093,12.581,6.093s4.032-12.044,12.582-6.093c8.111,5.645-.886,21.973-12.582,27.643C1884.559,820.739,1875.561,804.411,1883.672,798.766Z" transform="translate(-1880.56 -797.115)"/><g transform="translate(7.725 4.522)"><path class="j" d="M1935.217,839.432l1.848-11.343h5.122l.879,6.279,3.593-13.074,3.357,8.3h5.05v-.8h-4.513l-4.037-9.987-3.2,11.628-.441-3.149h-6.49l-1.2,7.379-2.847-16.168-2.375,9.651H1917.1v.8h13.488l1.623-6.593Z" transform="translate(-1917.1 -818.505)"/></g></g></g><g transform="translate(83.187 13.584)"><circle class="w" cx="37.4" cy="37.4" r="37.4" transform="translate(1.389 1.389)"/><path class="h" d="M2167.813,529.038a38.789,38.789,0,1,1,27.427-11.361A38.534,38.534,0,0,1,2167.813,529.038Zm0-74.8a36.011,36.011,0,1,0,36.011,36.011A36.051,36.051,0,0,0,2167.813,454.238Z" transform="translate(-2129.025 -451.461)"/><path class="k" d="M2216.729,608.469c-3.291-6.807-6.107-13.281-6-20.6.082-5.5,3.371-9.123,8.8-9.511,12.274-.878,24.559-.338,36.839-.1,2.269.043,1.9,1.477,1.419,2.769-1.364,3.675-3.985,6.559-6.2,9.716-3.646,5.208-9.028,6.12-14.724,6.485a55.721,55.721,0,0,0-6.12.344,18.242,18.242,0,0,0-12.23,8.134C2217.991,606.465,2217.508,607.26,2216.729,608.469Z" transform="translate(-2193.454 -551.146)"/><path class="k" d="M2290.127,680.54c-7.044,6.362-14.912,10.938-24.509,11.96-1.507.161-1.6-.417-.967-1.572,3.039-5.544,7.558-9.046,13.948-9.54C2282.421,681.092,2286.269,681.135,2290.127,680.54Z" transform="translate(-2235.685 -632.108)"/><path class="j" d="M2298.253,530.189l-5.311,15.66,4.3-.8-4.865,11.131,12.848-13.867-5.262-.594,7.585-9.647Z" transform="translate(-2257.844 -513.544)"/></g><g transform="translate(0 0)"><circle class="w" cx="24.036" cy="24.036" r="24.036" transform="translate(0 33.991) rotate(-45)"/><g transform="translate(9.063 9.063)"><path class="h" d="M1785.73,472.635a24.927,24.927,0,1,1,17.627,7.3A24.763,24.763,0,0,1,1785.73,472.635Zm-5.516-17.627a23.143,23.143,0,1,0,23.144-23.143A23.17,23.17,0,0,0,1780.214,455.008Z" transform="translate(-1778.429 -430.08)"/></g><g transform="translate(18.082 18.085)"><circle class="j" cx="15.259" cy="15.259" r="15.259" transform="translate(0 30.486) rotate(-87.403)"/><path class="k" d="M1831.025,496.523a13.833,13.833,0,1,0,13.833-13.833A13.833,13.833,0,0,0,1831.025,496.523Z" transform="translate(-1828.924 -480.589)"/><path class="j" d="M1860.47,504.352l2.784-.029.081,7.871,7.871.018L1871.2,515l-7.836-.018.081,7.835-2.784.029-.081-7.871-7.871-.018.006-2.784,7.836.018Z" transform="translate(-1846.022 -497.648)"/></g></g></g><g transform="translate(303.882 393.156)"><g transform="translate(0 0)"><path class="a" d="M959.89,590.4H1049.8a5.633,5.633,0,0,1,5.623,5.642v37.231a5.633,5.633,0,0,1-5.623,5.643H979.014c-2.865,4.011-8.059,11.194-8.517,11.194-.429,0,.4-6.785.98-11.194H959.89a5.633,5.633,0,0,1-5.623-5.643V596.042A5.633,5.633,0,0,1,959.89,590.4Z" transform="translate(-954.267 -590.4)"/><rect class="j" width="56.022" height="2.458" rx="1.229" transform="translate(67.199 15.758) rotate(180)"/><rect class="j" width="80.862" height="2.458" rx="1.229" transform="translate(91.86 34.958) rotate(180)"/><rect class="j" width="39.961" height="2.458" rx="1.229" transform="translate(91.86 25.358) rotate(180)"/><rect class="j" width="36.663" height="2.458" rx="1.229" transform="translate(47.661 25.358) rotate(180)"/></g><g transform="translate(72.763 13.3)"><rect class="j" width="19.097" height="2.458" rx="1.229" transform="translate(19.097 2.458) rotate(180)"/></g></g></g></svg>