<svg xmlns="http://www.w3.org/2000/svg" width="591.444" height="526" viewBox="0 0 591.444 526"><defs><style>.a{fill:#d4c3d4;}.b{fill:#a8d29f;}.c{fill:#82b378;}.d{fill:#f1a34f;}.e{fill:#ffb973;}.f{fill:#d86713;}.g{fill:#4a75cb;}.h{fill:#699dee;}.i{fill:#c95c12;}.j{fill:#ed975d;}.k{fill:#230124;}.l{fill:#233862;}.m{fill:#060006;}.n{fill:#ffb27d;}.o{fill:#2c3a64;}.p{fill:#4a82d3;}.q{fill:#a9453d;}.r{fill:#07345a;}.s{fill:#1d8efc;}.t{fill:#e58638;}.u{fill:#ee9849;}.v{fill:#2b478b;}.w{fill:#4271bc;}</style></defs><g transform="translate(0)"><g transform="translate(0)"><g transform="translate(0)"><path class="a" d="M272.667,846.282S206.4,600.874,337.01,600.874c69.012,0,40.582-67.332,87.5-145.257s211.006-140.18,245.93,10.293-51.386,264.721,32.015,245.123C802.68,687.482,842.271,846.282,842.271,846.282Z" transform="translate(-250.827 -320.282)"/><path class="b" d="M1451.2,1210.023c-7.458-5.449-22.7-1.771-33.942,2.165a51.359,51.359,0,0,0-6.182-7.172c24.228-15.607,57.69-48.891,39.955-51.709-15.417-2.449-36.225,27.51-47.344,45.748-11.548-7.768-29.241-13.479-56.256-11.5-70.11,5.14-124.88-40.084-165.254-25-32.1,11.993-61.518,18.711-89.89,16.416,1.221-20.726,1.486-61.419-14.789-65.641-16.522-4.286-.315,41.928,8.692,65q-3.17-.405-6.326-.968c-5.833-11.5-15.444-26.551-26-27.066-9.939-.484,2.328,13.046,14.4,24.51-34.7-7.284-75.852,20.919-76.535,54.266h433.152a40.13,40.13,0,0,0-4.166-11.285C1437.454,1217.463,1459.3,1215.942,1451.2,1210.023Z" transform="translate(-891.38 -850.383)"/><g transform="translate(0 220.036)"><path class="c" d="M606.7,1188.521s-17.325,12.883-20.7,12.1,12.661-13.907,12.661-13.907c-6.036-2.9-24.8-1.083-24.8-1.083s-6.249,20.153-9.331,18.564,6.444-17.562,6.444-17.562c-6.722-.405-14.967,4.586-14.967,4.586-11.287,8.914.742,22.948.742,22.948a34.306,34.306,0,0,1-9.444,13.255s-10.18,7.529-10.887,20.981l1.847.165s2.929-12.529,8.252-18.455c.207-.214.508-.523.879-.9.867-.8,1.475-1.406,1.883-1.854,2.649-2.546,6.31-5.788,8.074-6.1a3.4,3.4,0,0,1-.075-.887c.024.284.049.576.075.887.6,7.093,14.365,13.287,22.83,14.561s5.849-2.206,2.932-7.366-12.148-7.468-14.253-9.844,2.248-2.381,7.349-.052,5.8,8.541,13.981,12.46,20.493-9.659,20.493-9.659c-6.521-.331-15.832-7.413-15.5-9.579s15.807,3.738,18.451,4.022,8.662-3.006,9.593-13.659S606.7,1188.521,606.7,1188.521Z" transform="translate(-444.506 -1116.423)"/><g transform="translate(0 30.545)"><path class="b" d="M308.253,1110.942s19.135-10.716,10.205-25.258c0,0-7.144-8.93-14.8-11.226,0,0,4.082,21.687,0,22.2s-2.807-24.493-2.807-24.493-20.156-9.695-28.065-8.93c0,0,12.5,21.176,8.42,20.666s-18.115-21.942-18.115-21.942-20.666-3.827-23.983,8.42,2.041,18.37,5.1,19.135,22.707.51,22.2,3.061-13.777,6.634-21.176,4.338c0,0,8.164,20.155,18.88,19.135s14.033-7.654,20.666-8.165,11.481,1.276,8.164,3.062-14.543.585-19.9,5.14-9.695,7.361.255,9.4,27.81.765,31.382-6.888Z" transform="translate(-238.065 -1061.39)"/><path class="c" d="M336.908,1158.344a40.7,40.7,0,0,1-5.1-18.625c-6.123-19.391-59.7-36.74-59.7-36.74,68.121,27.555,56.13,44.394,56.13,44.394,1.836,1.071,4.588,6.177,6.5,10.1.272.666.7,1.589,1.343,2.842h0c.259.566.467,1.03.61,1.353,3.507,8.776,1.649,23.931,1.649,23.931l2.126.571C345.171,1170.891,336.908,1158.344,336.908,1158.344Z" transform="translate(-261.618 -1090.167)"/></g><g transform="translate(84.048)"><path class="b" d="M527.469,1027.559s-25.224-14.125-13.453-33.3c0,0,9.417-11.771,19.506-14.8,0,0-5.381,28.587,0,29.26s3.7-32.286,3.7-32.286,26.569-12.78,36.995-11.771c0,0-16.48,27.914-11.1,27.241S587,962.987,587,962.987s27.242-5.045,31.614,11.1-2.691,24.214-6.726,25.224-29.932.673-29.26,4.036,18.161,8.744,27.914,5.717c0,0-10.762,26.569-24.887,25.224s-18.5-10.09-27.242-10.762-15.134,1.682-10.762,4.036,19.17.771,26.232,6.776,12.78,9.7-.337,12.394-36.658,1.009-41.366-9.08Z" transform="translate(-510.887 -962.24)"/><path class="c" d="M613.49,1017.064s-70.626,22.869-78.7,48.429c0,0,.336,11.435-6.727,24.551,0,0-10.892,16.54-4.682,36.673l2.8-.753s-2.449-19.977,2.174-31.545c.189-.426.462-1.037.8-1.783h0c.844-1.651,1.412-2.868,1.771-3.746,2.518-5.164,6.147-11.9,8.566-13.307C539.5,1075.583,523.694,1053.386,613.49,1017.064Z" transform="translate(-518.21 -1000.174)"/></g><path class="d" d="M450.981,1403.748a49.409,49.409,0,0,0,49.409-49.409H401.572A49.409,49.409,0,0,0,450.981,1403.748Z" transform="translate(-351.201 -1233.545)"/><path class="e" d="M476.664,1403.37a49.444,49.444,0,0,1-55.546-49.031h12.275A49.418,49.418,0,0,0,476.664,1403.37Z" transform="translate(-364.725 -1233.545)"/><path class="d" d="M493.444,1503.694H405.452a6.1,6.1,0,0,0-6.1,6.1H499.539A6.1,6.1,0,0,0,493.444,1503.694Z" transform="translate(-349.667 -1336.889)"/><path class="f" d="M497.107,1354.338H397.056a.758.758,0,1,0,0,1.516H497.107a.758.758,0,0,0,0-1.516Z" transform="translate(-347.551 -1233.545)"/></g><g transform="translate(126.498 352.919)"><rect class="g" width="114.163" height="173.079" transform="translate(35.201 0.001)"/><rect class="h" width="114.162" height="173.081"/></g><g transform="translate(265.051 259.875)"><g transform="translate(0 0)"><rect class="f" width="85.007" height="266.125" transform="translate(111.218 266.125) rotate(180)"/><rect class="d" width="85.007" height="266.125" transform="translate(85.007 266.125) rotate(180)"/></g><path class="i" d="M1692.823,1103.168l26.211,17.841v-17.841Z" transform="translate(-1607.816 -1103.168)"/></g><g transform="translate(260.723 45.584)"><path class="j" d="M1766.619,493.08c-1.314-.2-5.274,3.462-5.274,3.462h0c-8.456.977-20.819,3.222-25.269,4.079-3.156.608-11.639-2.285-19.928-5.606-9.857-3.951-19.435-8.51-19.435-8.51-5.469-.279-11.68,9.7-.589,16.044,1.693.969,8.056,2.622,15.381,4.131h0c10.106,2.082,22.045,3.89,26.109,3.255,4.721-.739,18.083-5.627,26.032-9.37h0l.02-.01.089-.042a9.728,9.728,0,0,1,3.721-1.013c1.489.089,4.806-2.637,4.907-3.364S1767.934,493.279,1766.619,493.08Z" transform="translate(-1607.822 -446.534)"/><path class="k" d="M1712.812,737.147l-4.655.946s-21.306-23.939-24.593-34.012c-1.76-5.383-13.007-7.709-24.762-10.748-10.231-2.645-20.847-5.832-25.916-12.051-10.9-13.361,6.843-29.778,6.843-29.778s18.862,11.21,35.134,22.792c11.374,8.094,21.482,16.368,23.005,21.123C1701.566,706.982,1709.411,728.963,1712.812,737.147Z" transform="translate(-1564.339 -564.893)"/><path class="l" d="M1897.16,958.311h2.619c.877-.138,1.525-.392,2.425-.509a2.429,2.429,0,0,1,2.12.509.322.322,0,0,1,.025.027h11.125c.28-.4.011-1.325-.252-2.007a1.583,1.583,0,0,0-1.042-.952,12,12,0,0,1-5.635-2.574c-1.2-1.083-5.786-3.981-5.786-3.981l-.024-.006c-.1,0-.58.149-2.667,1.912-1.079.909-2.917-1.284-2.917-1.284a2.617,2.617,0,0,0-.6.818,2.762,2.762,0,0,0-.239,1.708,11.068,11.068,0,0,1-.8,4.125c-.259.764-.478,1.3-.478,1.3S1894.907,958.03,1897.16,958.311Z" transform="translate(-1754.918 -778.16)"/><path class="k" d="M1674.862,674.294,1658.8,693.332c-10.231-2.645-20.847-5.832-25.916-12.051-10.9-13.361,6.843-29.778,6.843-29.778S1658.59,662.713,1674.862,674.294Z" transform="translate(-1564.339 -564.893)"/><path class="m" d="M1607.42,678.6s-1.295,4.083-3.4,10.226c-2.665,7.767-6.636,18.827-10.942,29.084-.946,2.254-1.91,4.47-2.878,6.6-3.581,7.893-7.248,14.659-10.475,18.1-5.8,6.181-19.9,45.918-19.9,45.918l-3.513-.972s-4.9-33.932,12.453-53.24a1.227,1.227,0,0,0,.351-.721.009.009,0,0,0,0-.007c.231-2.858,1.057-15.657,2.854-28.627.442-3.182.941-6.372,1.5-9.429.035-.2.072-.389.107-.582,2.64-14.134,5.168-20.421,8.43-23.583L1606,678.194Z" transform="translate(-1511.492 -579.14)"/><path class="l" d="M1551.139,1078.987h2.619c.877-.138,1.525-.392,2.425-.51a2.429,2.429,0,0,1,2.12.51c.017.017.024.026.024.026h11.125c.28-.4.011-1.325-.252-2.007a1.583,1.583,0,0,0-1.042-.952,12,12,0,0,1-5.635-2.574c-1.2-1.083-5.786-3.982-5.786-3.982l-.024-.006c-.1,0-.58.15-2.667,1.911-1.079.909-2.917-1.284-2.917-1.284a2.624,2.624,0,0,0-.6.818,2.766,2.766,0,0,0-.239,1.708,11.073,11.073,0,0,1-.8,4.125c-.259.764-.478,1.3-.478,1.3S1548.886,1078.7,1551.139,1078.987Z" transform="translate(-1506.714 -864.722)"/><path class="n" d="M1448.959,529.74s-4.014,9.819-8.642,19.378c-3.893,8.036-8.218,15.886-10.961,17.561-3.867,2.362-14.52,9.026-21.43,14,0,0-5.393-.041-6.23.991s-2.771,5.671-2.207,6.14,4.851.252,5.893-.816a9.717,9.717,0,0,1,3.434-1.757l.094-.029.021-.006h0c8.4-2.583,21.569-7.965,25.557-10.6,3.433-2.266,11.043-11.641,17.114-19.984h0c4.4-6.048,7.992-11.554,8.592-13.41C1464.126,529.049,1452.816,525.852,1448.959,529.74Z" transform="translate(-1399.389 -476.429)"/><path class="o" d="M1590.819,359.928a20.248,20.248,0,0,0-1.438-1.858,4.508,4.508,0,0,0,1.772-.266c1.409-.582,2.051-5.055,1.839-6.382s-2.168-5.163-4.582-5.546-4.907,2.3-4.907,2.3c.446-1.935,4.529-3.051,4.529-3.051-8.411,1.551-7.982,7.16-7.924,7.678-7.7-2.743-12.219,11.756-12.219,11.756l19.943,11.753s.052-3.2,1.956-3C1592.756,373.637,1595.225,366.35,1590.819,359.928Z" transform="translate(-1520.256 -345.124)"/><path class="n" d="M1616.588,464.636c-4.576,2.157-10.648-.95-10.616-.982.392-.392.255-1.567-.105-3.1a22.609,22.609,0,0,0-2.778-6.406c-.327-.556-.654-1.111-1.046-1.7l.523-.2,8.89-3.563s1.438,2.582,2.942,4.935c1.275,1.961,2.615,3.726,3.2,3.661C1617.634,457.249,1623.517,461.3,1616.588,464.636Z" transform="translate(-1544.755 -419.409)"/><path class="j" d="M1614.111,451.807c-.229,3.17-1.307,8.89-5.589,10.982a22.609,22.609,0,0,0-2.778-6.406Z" transform="translate(-1547.41 -421.649)"/><path class="n" d="M1578.875,424.019s11.575-4.562,8.623-11.727-3.446-12.578-10.961-9.968-7.815,5.931-7.411,8.562S1575.788,425.021,1578.875,424.019Z" transform="translate(-1521.061 -385.676)"/><path class="o" d="M1579.574,408.763c5.344-.754,6.9-2.915,6.9-2.915a14.8,14.8,0,0,1-7.814-6.232s-6.007-2.026-10.458,1.361a3,3,0,0,0-.563,1.255c-1.02-.334-2.555-.247-3.44,2.636-1.33,4.332,3.4,9.062,3.4,9.062,1.147-.324-.147-4.185-.328-6.245a9.752,9.752,0,0,1,1.126-4.378c.567.735,6.2,7.82,13.088,8.1a29.036,29.036,0,0,1-6.946-3.73A8.884,8.884,0,0,0,1579.574,408.763Z" transform="translate(-1517.443 -383.78)"/><path class="h" d="M1603.928,498.176c-.1-.345-.2-.7-.314-1.072a27.155,27.155,0,0,0,2.921-8.753,17.57,17.57,0,0,0-.555-8.564s-8.029-4.257-11.573-4.8a.2.2,0,0,0-.044-.013c-.042-.006-.09-.01-.142-.013-3.578-.494-11.326,1.088-11.326,1.088a5.606,5.606,0,0,1-2.722,6.631c-4.216,2.652-8.719-.679-8.719-.679-.136.091-.28.192-.429.3h0s-11.094,7.32-12.09,8.992-5.262,9.955-5.262,9.955,1.353,6.953,16.339,7.534a34.631,34.631,0,0,1,2.482,8.333c1.19,9.438-.191,16.883,1.2,22.392s26.392,2.367,30.92,1.308,3.51-5.9,3.858-10.593C1608.905,524.317,1605.4,503.383,1603.928,498.176Z" transform="translate(-1510.058 -438.189)"/><path class="p" d="M1721.6,517.093a27.161,27.161,0,0,1-2.941,8.792c-.392-1.732-1.994-8.073-4.576-10.95A22.154,22.154,0,0,1,1721.6,517.093Z" transform="translate(-1625.122 -466.931)"/></g><g transform="translate(152.395 103.794)"><path class="j" d="M1380.4,721.219s4.659-5.645,5.661-6.312,5.4-1.837,5.655-1.6.263.577-.282,1.058-2.626,1.7-2.329,1.833,6.575-2.989,7.48-1.937-.513,5.39-2.932,7.471-9.64,2.967-10.095,3.258C1379.707,727.449,1380.4,721.219,1380.4,721.219Z" transform="translate(-1247.957 -667.412)"/><path class="n" d="M1090.393,657.354s6.692,7.94,15.215,4.619c0,0,1.834-4.435,1.859-7.7,0-.4.008-.792.014-1.163.046-3.681.17-5.746.17-5.746l-.009,0c-.388-.162-13.028-5.351-13.018-4.921C1094.841,652.393,1090.393,657.354,1090.393,657.354Z" transform="translate(-1039.967 -616.582)"/><path class="j" d="M1109.83,650.664c1.219,2.26,5.4,6.68,11.588,8.294.046-3.681.17-5.746.17-5.746l-.009,0C1121.229,653.116,1109.467,650,1109.83,650.664Z" transform="translate(-1053.903 -622.434)"/><path class="n" d="M1114.332,599.11s-14.216,3.343-16.161-5.542-5.09-14.437,3.9-16.947,11.505.494,12.876,3.3S1117.98,598.012,1114.332,599.11Z" transform="translate(-1044 -568.715)"/><path class="q" d="M1080.274,578.313c-.194.124-3.253,1.064-9.046-10.476a10.052,10.052,0,0,1,.591-9.193c2.12-3.463,9.636-6.185,15.88-7.37s7.744,2.329,9.215,5.861c1.543,3.707,6,6.759,6,6.759-5.385,3.008-11.871-1.294-14.117-.587s-3.041,4.249-3.209,5.384-.428,2.078-3.253,1.064-1.277,4-.825,4.964C1081.511,574.718,1081.895,577.274,1080.274,578.313Z" transform="translate(-1025.617 -551.039)"/><g transform="translate(0 109.14)"><path class="o" d="M930.049,1377.639h-8.608c-1.8,0-3.809-1.831-4.311-5.183s-4.211-5.183-5.014-7.927,3.31-6.608,3.31-6.608l.687-.9.715-.933,6.818,1.625s.168,1.646.273,3.741c.073,1.513.113,3.263.028,4.8-.2,3.659,1.011,7.6,4.219,8.311S930.049,1377.639,930.049,1377.639Z" transform="translate(-912.012 -1237.654)"/><path class="o" d="M1125.928,1400.149h-22.817a2.017,2.017,0,0,1-.484-.145c-1.523-.785-1.046-6.79-.863-8.646.035-.344.06-.545.06-.545s8.023-6.607,9.128-1.548c.035.158.075.313.118.465v0c1.393,4.734,7.619,6.883,11.215,7.483C1125.032,1397.677,1125.745,1399.325,1125.928,1400.149Z" transform="translate(-1047.967 -1260.08)"/><path class="k" d="M1085.137,960.508s-1.218,15.2-2.651,33.476c-1.946,24.825-4.287,55.317-4.519,61.093-.4,10.031-2.007,26.076-2.007,26.076s-3.809,3.812-11.433,2.205a262.468,262.468,0,0,1-8.734-47.139c-.03-.4-.06-.8-.09-1.2-1.8-24.67-4.612-76.621-4.612-76.621Z" transform="translate(-1011.776 -952.384)"/><path class="k" d="M1085.137,960.508s-1.218,15.2-2.651,33.476l-26.692,42.235c-.03-.4-.06-.8-.09-1.2-1.8-24.67-4.612-76.621-4.612-76.621Z" transform="translate(-1011.776 -952.384)"/><path class="m" d="M988.47,947.045s-21.963,55.058-36.4,80.932-18.954,33.095-18.954,33.095-8.274-3.31-9.026-5.566c0,0,5.523-49.951,15.194-62.128,5.465-6.88,11.884-27.529,12.185-34.75s1.956-21.512,1.956-21.512Z" transform="translate(-920.672 -937.117)"/></g><g transform="translate(6.75 41.651)"><path class="j" d="M946.651,932.91s-.569,6.876-.985,7.932-3.193,4.329-3.515,4.282-.514-.3-.351-.971,1.12-2.725.817-2.672-3.481,5.85-4.747,5.524-2.5-4.448-1.751-7.36,5.865-7.483,6.061-7.952C943.835,927.715,946.651,932.91,946.651,932.91Z" transform="translate(-935.89 -864.662)"/><path class="r" d="M957.948,768.371c2.431.78,2.821.6,2.821.6s11.832-21.542,13.03-23.513S998.921,721.3,998.921,721.3l-6.148-22.925s-27.209,35.235-30.148,40.291c-4.856,8.355-7.7,27.759-7.7,27.759A7.114,7.114,0,0,0,957.948,768.371Z" transform="translate(-949.543 -698.379)"/></g><path class="s" d="M1068.61,717.3c-.085,4.708-.359,10-.728,15.376q-.034.478-.068.956c-.236,3.33-.492,6.668-.786,9.923-.118,1.305-.243,2.6-.374,3.862l-.02.171c-.01.474-.068.989-.12,1.458-1.2,12.191-2.457,21.823-2.69,21.971a1.369,1.369,0,0,1-.936.239c-3.2-.4-12.736.324-20.546-1.376-6.59-1.39-12.265-4.025-18.277-7.579-.8-.471-2.617-1.721-2.47-2.655.146-1.026.414-2.51.756-4.374a236.747,236.747,0,0,0,3.927-30.694q.2-3.648.59-7.2a109.212,109.212,0,0,1,3.185-17.183c2.678-9.641,6.612-17.025,11.549-19.913.645-.362,4.115,1.847,7.3,3.892a14.071,14.071,0,0,0,9.057,2.146l2.653,2.934c3.212,3.734,6.632,8.706,7.566,15.773q.106.783.181,1.666A103.621,103.621,0,0,1,1068.61,717.3Z" transform="translate(-990.611 -643.72)"/><path class="s" d="M1132.431,770.676c-.085,4.708-.359,10-.728,15.376q-.034.478-.068.956c-18.262-11.431-21.076-32.349-21.076-32.349,8.984.394,16.122,2.46,21.623,5.414A103.652,103.652,0,0,1,1132.431,770.676Z" transform="translate(-1054.433 -697.099)"/><g transform="translate(54.501 46.35)"><path class="r" d="M1185.519,723.023c-.941-2.547-2.405-2.381-2.405-2.381s-27.153,6.767-29.589,7.057-29.24-10.466-29.24-10.466-10.55-4.734-15.492-.412c-4.294,3.757-4.49,8.516-3.485,12.512a11.948,11.948,0,0,0,10.1,8.9c10.935,1.393,32.752,4.014,37.325,3.378,10.178-1.417,33.237-14.729,33.237-14.729A8.546,8.546,0,0,0,1185.519,723.023Z" transform="translate(-1104.806 -715.002)"/></g></g><g transform="translate(369.13)"><g transform="translate(65.853 97.331)"><path class="o" d="M2302.779,915.229s3.772,3.5,3.036,5.981-4.141,4.14-4.6,7.177-2.3,4.692-3.956,4.692h-7.9s-1.219-2.137,1.726-2.781,4.054-4.212,3.87-7.524a59.263,59.263,0,0,1,.276-7.729l6.256-1.472Z" transform="translate(-2234.334 -804.625)"/><path class="o" d="M2116.764,952.522a14.544,14.544,0,0,1-3.573.413h-17.856c.06-.531.476-2.424,3.4-2.9,3.3-.536,9.013-2.453,10.286-6.673.043-.135.079-.274.111-.413,1.011-4.508,8.372,1.379,8.372,1.379s.021.18.053.488C2117.725,946.478,2118.16,951.825,2116.764,952.522Z" transform="translate(-2095.335 -824.482)"/><path class="m" d="M2110.44,549.637s1.118,13.948,2.432,30.714c1.786,22.775,3.934,50.751,4.146,56.05.367,9.2,1.841,23.923,1.841,23.923s3.495,3.5,10.489,2.023a240.83,240.83,0,0,0,8.013-43.248c.028-.364.055-.731.083-1.1,1.656-22.635,4.232-70.3,4.232-70.3Z" transform="translate(-2106.17 -542.184)"/><path class="m" d="M2110.44,549.637s1.118,13.948,2.432,30.714l24.49,38.749c.028-.364.055-.731.083-1.1,1.656-22.635,4.232-70.3,4.232-70.3Z" transform="translate(-2106.17 -542.184)"/><path class="k" d="M2128.5,537.285s20.15,50.513,33.4,74.251,17.39,30.364,17.39,30.364,7.591-3.037,8.281-5.107c0,0-5.067-45.828-13.94-57-5.014-6.313-10.9-25.257-11.179-31.882s-1.794-19.736-1.794-19.736Z" transform="translate(-2119.125 -528.176)"/></g><g transform="translate(0 38.762)"><path class="n" d="M1875.461,460.467a60.572,60.572,0,0,0-6.386-1.187,13.17,13.17,0,0,0-4.18,1.67c-.043.26.109.473.665.511s2.386-.2,2.27.024-5.387,1.258-5.445,2.319,2.83,3.033,5.27,3.165,7.238-2.7,7.649-2.739C1878.792,463.925,1875.461,460.467,1875.461,460.467Z" transform="translate(-1862.384 -420.186)"/><path class="t" d="M1898.795,362.66c-.783-2.5-.6-2.894-.6-2.894s22.155-11.98,24.184-13.195,24.924-25.58,24.924-25.58l23.452,6.455s-36.291,27.646-41.492,30.622c-8.595,4.92-28.5,7.7-28.5,7.7A7.287,7.287,0,0,1,1898.795,362.66Z" transform="translate(-1888.058 -320.991)"/></g><path class="n" d="M2048.721,251.419s-8.221,14.466-16.258,16.354a21.962,21.962,0,0,1,2.291-8.183c-.8-.945-1.5-1.813-2.114-2.59a48.533,48.533,0,0,1-2.985-4.179l2.728-7.332,1.85-4.974a23.906,23.906,0,0,0,2.892,4.167A19.671,19.671,0,0,0,2048.721,251.419Z" transform="translate(-1982.37 -224.502)"/><path class="j" d="M2037.126,255.248s.981,7.249-4.485,12.319a48.534,48.534,0,0,1-2.985-4.179l2.728-7.332A15.578,15.578,0,0,1,2037.126,255.248Z" transform="translate(-1982.37 -235.069)"/><path class="n" d="M1995.615,227.71s12.284-4.789,9.184-12.393-3.6-13.343-11.576-10.607-8.306,6.255-7.888,9.045S1992.339,228.759,1995.615,227.71Z" transform="translate(-1950.495 -198.322)"/><path class="u" d="M2096,348.2c-4.957,7.124-42.005,16.644-41.566,11.712a53.6,53.6,0,0,0-.005-9.727q-.139-1.585-.394-3.361a77.5,77.5,0,0,0-8.164-24.455q-.562-1.085-1.167-2.189a75.381,75.381,0,0,1-5.137-11.542c-2.567-7.418-3.6-14.515-2.306-19.155a.617.617,0,0,1,.02-.065c7.744-3.581,10.745-17.469,10.745-17.469s26.422,4.743,41.222,39.963C2089.253,311.911,2100.316,342,2096,348.2Z" transform="translate(-1987.428 -247.05)"/><path class="t" d="M2077.7,425.9q-.139-1.585-.394-3.361a77.5,77.5,0,0,0-8.164-24.455c.856-5.19,2.038-9.506,3.335-11.449,5.27-7.9,8.339-9.132,8.339-9.132S2088.719,410.829,2077.7,425.9Z" transform="translate(-2010.693 -322.765)"/><g transform="translate(10.118 31.823)"><path class="n" d="M1913.414,520.655s-7.309.384-8.442.792-4.692,3.248-4.653,3.591.307.554,1.018.4,2.926-1.1,2.859-.781-6.315,3.5-6.009,4.857,4.637,2.8,7.749,2.091,8.122-5.98,8.626-6.173C1918.833,523.807,1913.414,520.655,1913.414,520.655Z" transform="translate(-1898.177 -457.273)"/><path class="u" d="M1945.231,362.6c-1.464-2.366-.409-3.445-.409-3.445s22.579-17.679,24.349-19.465,9.968-30.224,9.968-30.224,2.822-11.509,9.43-12.779c5.742-1.1,9.711,1.738,12.308,5.068a12.245,12.245,0,0,1,.83,13.771c-5.765,9.715-17.4,29-20.791,32.292-7.558,7.332-32.848,17.578-32.848,17.578A8.759,8.759,0,0,1,1945.231,362.6Z" transform="translate(-1931.372 -296.443)"/></g><path class="v" d="M1994.944,186.742c.086-.17.336-.352.946-.538a2.554,2.554,0,0,0-1.237-.046,3.25,3.25,0,0,0-2.756-2.286,1.938,1.938,0,0,1,1.235,1.138c-2.155-1.366-6.149-1.762-16.12,1.559-13.141,4.377-6.575,12-4.584,12.617s5.658-3.313,8.956-3.849,5.082,4.058,6.339,4.439.542-.664,1.859-1.711,2.072,1.416,2.044,3.145,2.538,3.369,2.538,3.369l1.505-2.762c1.505-2.761,1.1-12.787-.343-14.591C1995.2,187.066,1995.074,186.9,1994.944,186.742Z" transform="translate(-1938.877 -183.872)"/></g><path class="w" d="M1236.642,1431.284v14.872l-35.2-14.872Z" transform="translate(-974.446 -1078.654)"/><rect class="g" width="116.417" height="300.216" transform="translate(379.672 225.784)"/><rect class="h" width="116.418" height="300.215" transform="translate(370.12 225.785)"/><path class="w" d="M2300.565,982.575v22.865l-35.894-22.865Z" transform="translate(-1804.477 -756.791)"/></g></g></g></svg>