<svg xmlns="http://www.w3.org/2000/svg" width="24.404" height="30.784" viewBox="0 0 24.404 30.784"><defs><style>.a{fill:#fff;}</style></defs><g transform="translate(-53.056)"><g transform="translate(53.056)"><path class="a" d="M284.806,373h-3.547a1.2,1.2,0,0,0,0,2.405h3.547a1.2,1.2,0,0,0,0-2.405Z" transform="translate(-266.408 -350.573)"/><path class="a" d="M284.806,252h-3.547a1.2,1.2,0,1,0,0,2.405h3.547a1.2,1.2,0,1,0,0-2.405Z" transform="translate(-266.408 -236.848)"/><path class="a" d="M76.258,21.164a1.2,1.2,0,0,0,1.2-1.2V4.81A4.815,4.815,0,0,0,72.65,0H57.866a4.815,4.815,0,0,0-4.81,4.81V25.974a4.815,4.815,0,0,0,4.81,4.81H72.65a4.816,4.816,0,0,0,4.81-4.81,1.2,1.2,0,1,0-2.405,0,2.408,2.408,0,0,1-2.405,2.405H57.866a2.408,2.408,0,0,1-2.405-2.405V4.81a2.408,2.408,0,0,1,2.405-2.405H72.65A2.408,2.408,0,0,1,75.055,4.81V19.962A1.2,1.2,0,0,0,76.258,21.164Z" transform="translate(-53.056)"/><path class="a" d="M140.436,75.276a1.2,1.2,0,0,0-1.693.161l-2.6,3.144-1.025-1.053a1.2,1.2,0,1,0-1.723,1.678l1.29,1.325.033.032a2.1,2.1,0,0,0,1.445.577c.046,0,.092,0,.138,0a2.1,2.1,0,0,0,1.487-.77l2.806-3.4A1.2,1.2,0,0,0,140.436,75.276Z" transform="translate(-128.246 -70.491)"/><path class="a" d="M140.436,319.152a1.2,1.2,0,0,0-1.693.161l-2.6,3.145-1.027-1.048a1.2,1.2,0,0,0-1.718,1.683l1.29,1.317.03.03a2.1,2.1,0,0,0,1.445.577q.069,0,.138,0a2.1,2.1,0,0,0,1.487-.77l2.806-3.4A1.2,1.2,0,0,0,140.436,319.152Z" transform="translate(-128.246 -299.704)"/><path class="a" d="M284.806,129h-3.547a1.2,1.2,0,1,0,0,2.405h3.547a1.2,1.2,0,1,0,0-2.405Z" transform="translate(-266.408 -121.244)"/><path class="a" d="M140.436,198.152a1.2,1.2,0,0,0-1.693.161l-2.6,3.145-1.027-1.048a1.2,1.2,0,0,0-1.718,1.683l1.29,1.317.03.03a2.1,2.1,0,0,0,1.445.577q.069,0,.138,0a2.1,2.1,0,0,0,1.487-.77l2.806-3.4A1.2,1.2,0,0,0,140.436,198.152Z" transform="translate(-128.246 -185.979)"/></g></g></svg>