<svg xmlns="http://www.w3.org/2000/svg" width="32.248" height="35.238" viewBox="0 0 32.248 35.238"><defs><style>.a{fill:#fff;}</style></defs><g transform="translate(-21.638 0)"><path class="a" d="M137.275,180.7a1.037,1.037,0,0,0,1.268-.736l1.1-4.133,3.615-.348,1.381,4.543a1.037,1.037,0,1,0,1.984-.6l-1.26-4.143.257-.025a1.037,1.037,0,1,0-.2-2.064l-.674.065-2.445-8.039a1.038,1.038,0,0,0-1.994.035l-2.3,8.653-1.86.179a1.037,1.037,0,0,0,.2,2.064l1.093-.105-.9,3.388A1.037,1.037,0,0,0,137.275,180.7Zm4.1-11.4,1.264,4.156-2.431.234Z" transform="translate(-105.725 -153.124)"/><path class="a" d="M289.74,108.089a1.037,1.037,0,0,0,1.037-1.037v-2.227c1.214.07,1.16.068,1.21.068a1.037,1.037,0,0,0,.059-2.072l-1.269-.073v-1.276a1.037,1.037,0,1,0-2.074,0v1.156l-1.149-.066a1.037,1.037,0,0,0-.12,2.07l1.269.073v2.347A1.037,1.037,0,0,0,289.74,108.089Z" transform="translate(-246.522 -93.496)"/><path class="a" d="M49.082,4.883A1.037,1.037,0,0,0,47.571,6.3c4.741,5.039,5.66,14.246,2.049,20.523-3.119,5.422-8.9,7.466-16.27,5.754-7.543-1.752-10.482-9.649-9.417-16.19C25.14,8.978,31.818.821,46.665,2.23a1.037,1.037,0,0,0,.2-2.064C32.249-1.221,23.482,6.258,21.887,16.057c-1.34,8.234,2.8,16.641,10.995,18.543,7.718,1.792,14.723-.111,18.536-6.74,4.016-6.981,3.06-17.242-2.336-22.978Z" transform="translate(0 0)"/></g></svg>