<svg xmlns="http://www.w3.org/2000/svg" width="52.862" height="47.584" viewBox="0 0 52.862 47.584"><defs><style>.a{fill:#1dc547;}</style></defs><g transform="translate(-4.703 -7.843)"><path class="a" d="M38.9,23.332V22.145a.423.423,0,1,1,.847,0v1.091h.651a.423.423,0,1,1,0,.847h-.747A.751.751,0,0,1,38.9,23.332Zm4.767-1.9a.824.824,0,1,0-.824-.824A.824.824,0,0,0,43.663,21.434Zm-3.807,5.432c1,0,2.072-.244,2.072-.927a.423.423,0,0,0-.827-.129,3.8,3.8,0,0,1-2.49,0,.423.423,0,0,0-.827.129C37.784,26.623,38.854,26.867,39.856,26.867ZM57.367,46.691a2.823,2.823,0,0,1-1.844,1.675l-5.549,1.6a2.827,2.827,0,0,1-.782.111c-.023,0-.045,0-.067-.005v.757a1.686,1.686,0,0,1-.832,1.45.981.981,0,0,1-.6.532l-7.208,2.243h0l-1.052.327a.987.987,0,0,1-1.236-.649l-.688-2.212H32.617a.564.564,0,0,1-.564-.564V38.434l-3.971,3.709a2.681,2.681,0,0,1-3.482.152l-5.84-4.57a2.652,2.652,0,0,1-.552-.607c-.043.005-.084.019-.128.022-.066,0-.132.007-.2.007a2.55,2.55,0,0,1-1.674-.621l-3.029-2.607a.986.986,0,0,1-.311-.5H5.831A1.13,1.13,0,0,1,4.7,32.289V10.759A1.13,1.13,0,0,1,5.831,9.63H34.316A7.262,7.262,0,0,1,39.745,7.9a.544.544,0,0,1,.194.043c3.064-.353,5.412.221,7.012,1.686h3.606a1.13,1.13,0,0,1,1.129,1.129v21.53a1.127,1.127,0,0,1-.972,1.113l6.451,10.808A2.821,2.821,0,0,1,57.367,46.691ZM33.655,18.838c.348,5.831,1.934,9.617,6.956,9.872,4.818-.247,6.456-3.793,6.874-9.294a11.367,11.367,0,0,1-4.422-4.71l-.056,0C40.913,17.4,35.95,18.474,33.655,18.838Zm6.956,10.718a8.727,8.727,0,0,1-2.9-.607v2.078a9.82,9.82,0,0,0,5.758,0V28.958A8.649,8.649,0,0,1,40.611,29.556Zm-20,3.726a1.718,1.718,0,0,0-.594-1.182l-2.235-1.925a.165.165,0,0,0-.1-.034.144.144,0,0,0-.1.049.146.146,0,0,0,.015.2l.485.418a.423.423,0,0,1-.129.718.5.5,0,0,1-.467-.06l-1.856-1.6a.144.144,0,1,0-.188.219l1.669,1.437a.423.423,0,0,1,.045.6.473.473,0,0,1-.3.161.442.442,0,0,1-.321-.085l-2-1.721h0a.159.159,0,0,0-.1-.034.144.144,0,0,0-.083.252l2,1.722a.424.424,0,0,1,.045.6.474.474,0,0,1-.3.161.441.441,0,0,1-.321-.085l-1.669-1.437a.144.144,0,0,0-.188.219l1.855,1.6a.423.423,0,0,1,.135.42.462.462,0,0,1-.287.326.425.425,0,0,1-.411-.059l-1.278-1.1a.144.144,0,0,0-.188.219l3.028,2.606A1.735,1.735,0,0,0,19.2,35.7l1-1.165A1.717,1.717,0,0,0,20.612,33.282Zm8.957.136H21.931c.044.03.091.051.134.084L26.1,36.658Zm3.736-2.652,3.558-.065V28.526a6.3,6.3,0,0,1-.885-.627H32.916a.536.536,0,0,1-.53-.456c-.238-1.576-.4-3.008-.51-4.323a3.012,3.012,0,0,1-.3-.581,2.7,2.7,0,0,1-.155-1.514,1.659,1.659,0,0,1,.308-.68,25.859,25.859,0,0,1,.573-6.668,8.1,8.1,0,0,1,1.094-2.916H5.831v21.53h7.341a.976.976,0,0,1,.325-1.38,1,1,0,0,1-.05-.247.988.988,0,0,1,.914-1.061.936.936,0,0,1,.252.013.991.991,0,0,1,1.566-.384l.65.56a1.025,1.025,0,0,1,.108-.152.993.993,0,0,1,1.4-.1l2.235,1.925a2.55,2.55,0,0,1,.634.83h9.573l.879-.821A2.66,2.66,0,0,1,33.305,30.765ZM32.95,20.79a.639.639,0,0,0-.267-.077.359.359,0,0,0-.13.023.619.619,0,0,0-.309.464,1.868,1.868,0,0,0,.116,1.031c.238.612.693.984,1.016.991A19.464,19.464,0,0,1,32.95,20.79Zm7.374,33.279L37.5,45a.144.144,0,0,0-.069-.083.139.139,0,0,0-.064-.016.135.135,0,0,0-.042.007l-1.053.327a.142.142,0,0,0-.093.177L39,54.482a.142.142,0,0,0,.177.093l1.052-.327A.142.142,0,0,0,40.325,54.069Zm7.21-2.244-.342-1.1-3.21.764a.992.992,0,0,1-1.193-.735,1.013,1.013,0,0,1-.027-.2.958.958,0,0,1-.564-.147.992.992,0,0,1-.467-.939,1.02,1.02,0,0,1-.229-.1.99.99,0,0,1-.166-1.559.979.979,0,0,1-.127-.3.992.992,0,0,1,.734-1.193l3.6-.876-.834-2.68a.14.14,0,0,0-.069-.083.144.144,0,0,0-.066-.016.149.149,0,0,0-.042.006l-6.28,1.955a.992.992,0,0,1,.055.131l2.823,9.071a.974.974,0,0,1,.028.139L47.442,52A.142.142,0,0,0,47.535,51.826Zm1.421-4.167-.355-1.5a1.627,1.627,0,0,0-.243-.542l-6.217,1.511a.147.147,0,0,0-.109.174.144.144,0,0,0,.065.089.146.146,0,0,0,.109.018l2.143-.51a.417.417,0,0,1,.321.052.422.422,0,0,1,.19.264.461.461,0,0,1-.3.548l-2.567.611a.143.143,0,0,0-.042.262.149.149,0,0,0,.109.018l2.567-.611a.417.417,0,0,1,.321.052.422.422,0,0,1,.19.264.46.46,0,0,1-.3.548l-2.143.509a.146.146,0,0,0-.107.174.144.144,0,0,0,.065.089.147.147,0,0,0,.109.018l2.382-.567a.422.422,0,0,1,.412.128.462.462,0,0,1,.106.427.426.426,0,0,1-.29.3l-1.64.391a.146.146,0,0,0-.107.173.149.149,0,0,0,.174.107l3.888-.925a1.735,1.735,0,0,0,1.282-2.082Zm1.488-3.7-1.318-2.209v2.589Zm.115-11.669V10.759H47.931A9.908,9.908,0,0,1,49.314,16.3a31.009,31.009,0,0,1,.141,4.039,1.658,1.658,0,0,1,.308.681,2.7,2.7,0,0,1-.155,1.514,3.012,3.012,0,0,1-.313.594c-.113,1.313-.283,2.742-.531,4.314a.536.536,0,0,1-.53.453H45.216a6.269,6.269,0,0,1-.9.639V30.7l3.21.009a2.81,2.81,0,0,1,2.4,1.366l.127.213h.508ZM48.818,22.23a1.867,1.867,0,0,0,.116-1.03.619.619,0,0,0-.309-.464.366.366,0,0,0-.133-.024.6.6,0,0,0-.262.071,19.584,19.584,0,0,1-.425,2.439C48.127,23.212,48.581,22.841,48.818,22.23ZM36.873,20.61a.824.824,0,1,0-.824.824A.824.824,0,0,0,36.873,20.61Z"/></g></svg>