<svg xmlns="http://www.w3.org/2000/svg" width="494.457" height="310" viewBox="0 0 494.457 310"><defs><style>.a{fill:#f7cc7f;}.b{fill:#213854;}.c{fill:#001333;}.d{fill:#eafcfc;}.e,.g{fill:#b75742;}.f{fill:#f8c48b;}.g{opacity:0.3;}.af,.g,.w,.y{mix-blend-mode:multiply;}.ad,.af,.g,.w,.y{isolation:isolate;}.h{fill:#355389;}.i{fill:#f38b80;}.j{fill:#f47458;}.k{fill:#f7a491;}.l{fill:#bed9ea;}.m,.w{fill:#d3e5f4;}.n{fill:#f4f4f4;}.ad,.o,.r{fill:#fff;}.p{fill:#f48c7f;}.q{fill:#162e55;}.r{opacity:0.8;}.af,.s{fill:#50bfa5;}.t{fill:#fae0b2;}.u{fill:#96d9c9;}.v{fill:#466eb6;}.x{fill:#7792b2;}.y{fill:#daeef7;}.z{fill:#3c8f7c;}.aa{fill:#13375b;}.ab{fill:#0e2e35;}.ac{fill:#c5ddf9;opacity:0.6;}.ad{mix-blend-mode:soft-light;}.ae{fill:#184655;}.af{opacity:0.5;}.ag{fill:#d3d9f4;}.ah{fill:#c2ccf2;}.ai{fill:#ed9485;}.aj{fill:#f2e9da;}.ak{fill:#e0d5c3;}.al{fill:#e8ba70;}.am{fill:#88b5e2;}.an{fill:#2c4b70;}.ao{fill:#fef8f8;}.ap{fill:#eddfca;}.aq{fill:#db3f2a;}.ar{fill:#a34b3d;}.as{fill:#e0973f;}.at{fill:#dd513a;}.au{fill:#86b1f2;}</style></defs><g transform="translate(-389 -3971.194)"><g transform="translate(389 3971.194)"><path class="a" d="M2386.429,1233.169l-.544,121.631,75.009.335Zm37.289,74.722-30.933-.138.231-51.713Zm-30.952,3.927,33.365.149,21.051,35.552-54.575-.244Z" transform="translate(-1975.681 -1046.341)"/><g transform="translate(105.594 80.877)"><path class="b" d="M763.262,652.136h274.552A12.182,12.182,0,0,1,1050,664.318V828.61c0,4.72-3.12,8.546-6.968,8.546H925.194v33.718h69.812a9.441,9.441,0,0,1,9.441,9.441H798.135a9.441,9.441,0,0,1,9.441-9.441h69.812V837.156H758.048c-3.849,0-6.968-3.826-6.968-8.546V664.318A12.182,12.182,0,0,1,763.262,652.136Z" transform="translate(-744.575 -652.136)"/><path class="c" d="M982.9,1672.911h69.812V1633.04h47.806v39.871h69.812a9.441,9.441,0,0,1,9.441,9.442H973.456A9.442,9.442,0,0,1,982.9,1672.911Z" transform="translate(-926.401 -1454.173)"/><path class="c" d="M715.408,805.919v-141.6a12.182,12.182,0,0,1,12.182-12.182h274.552a12.182,12.182,0,0,1,12.182,12.182v141.6Z" transform="translate(-715.408 -652.136)"/><path class="c" d="M1014.324,1495.479v22.691c0,4.72-3.12,8.546-6.968,8.546H722.377c-3.849,0-6.969-3.826-6.969-8.546v-22.691Z" transform="translate(-715.408 -1341.696)"/><path class="d" d="M753.779,827.342V692.268a6.53,6.53,0,0,1,6.642-6.411h271.638a6.53,6.53,0,0,1,6.642,6.411V827.342Z" transform="translate(-746.782 -679.708)"/></g><g transform="translate(265.496 113.982)"><path class="e" d="M1784.182,1047.276s-4.284,1.868-6.639,16.79c0,0,3.556,2.382,3.628.868S1784.182,1047.276,1784.182,1047.276Z" transform="translate(-1743.766 -1008.328)"/><path class="f" d="M1864.9,837.821a6.485,6.485,0,1,0,8.4-3.693A6.485,6.485,0,0,0,1864.9,837.821Z" transform="translate(-1814.834 -833.685)"/><path class="g" d="M1873.986,860.266a6.485,6.485,0,0,1-8.631-9.011c.2.057.407.118.61.187A12,12,0,0,1,1873.986,860.266Z" transform="translate(-1814.834 -848.051)"/><path class="f" d="M1776.868,865.172a12.163,12.163,0,0,0,12.408,9.493,11.529,11.529,0,0,0,11.011-10.614,11.912,11.912,0,0,0-12.623-12.589A11.34,11.34,0,0,0,1776.868,865.172Z" transform="translate(-1743.013 -848.208)"/><path class="h" d="M1802.967,1347.658a31.477,31.477,0,0,0-.453-4.5c-1.607-8.1-8.357-17.9-8.357-17.9l-24.106-3.039.908,5.131-1.436.258s-2.469,11.377-1.737,20.044Z" transform="translate(-1735.677 -1233.14)"/><path class="i" d="M1657.442,1146.618s14.893,4.67,19.127,5.294c.365-1.465,3.618-9.526,3.931-10.908,2.54,1.438,5.777-.293,8.377.988-1.309,4.615-4.247,19.816-5.422,20.5-3.576,2.084-26.327-10.446-26.574-10.562A12.338,12.338,0,0,0,1657.442,1146.618Z" transform="translate(-1645.106 -1084.965)"/><path class="e" d="M1767.3,1167.8s-2.163,4.952-1.91,4.915,2.2,0,2.2,0v-4.116Z" transform="translate(-1733.815 -1106.871)"/><path class="j" d="M1792.777,1032.282s5.779.656,9.235,4.416-5.587,33.982-6.215,38.767,6.01,18.029,6.01,18.029-22.565,4.485-28.431.611c0,0-.516-36.985.113-40.4s5.866-17.319,7.122-18.686S1792.777,1032.282,1792.777,1032.282Z" transform="translate(-1740.196 -996.068)"/><path class="k" d="M1829.68,967.517s.045.257.126.694c.39,2.1,1.89,9.05,2.9,10.962,1.225,2.31-4.193,9.679-9.406,8.779-1.552-.268,1.312-6.77,1.174-7.459-.264-1.319-.621-3.117-.986-4.962-.206-1.04-.415-2.1-.611-3.087-.558-2.818-1.013-5.122-1.013-5.122Z" transform="translate(-1780.007 -942.954)"/><path class="j" d="M1829.806,968.211c-.081-.437-.126-.694-.126-.694l-7.813-.194s.455,2.3,1.013,5.122l.608,3.069a7.323,7.323,0,0,0,3.73-1.866,9.835,9.835,0,0,0,2.826-4.194C1829.947,968.961,1829.867,968.536,1829.806,968.211Z" transform="translate(-1780.007 -942.954)"/><path class="k" d="M1803,866.535a9.221,9.221,0,0,1,5.495,3.421c2.308,2.98,4.8,12.194-.938,17.2s-11.4-.661-12.24-6.673S1794.645,866.318,1803,866.535Z" transform="translate(-1758.026 -860.541)"/><path class="k" d="M1787.009,921.03c.361,1.449,1.311,2.429,2.121,2.187s1.173-1.612.811-3.062-1.312-2.429-2.121-2.187S1786.647,919.581,1787.009,921.03Z" transform="translate(-1751.391 -902.569)"/><path class="f" d="M1819.533,866.01s7.488,8.6,11.008,9,3.982,5.061,3.982,5.061-1.258-10.729-4.743-12.8S1819.533,866.01,1819.533,866.01Z" transform="translate(-1778.099 -859.99)"/><path class="k" d="M1873.259,916.427c-.286,1.556.289,2.983,1.286,3.187s2.036-.891,2.322-2.448-.289-2.983-1.286-3.187S1873.545,914.871,1873.259,916.427Z" transform="translate(-1821.968 -899.318)"/><g transform="translate(25.685 62.173)"><path class="l" d="M1755.915,1174.639l-22.747,4.149,5.4,29.6h0l22.747-4.149h0l-5.4-29.6Z" transform="translate(-1733.168 -1174.639)"/><path class="m" d="M1763.476,1180.063l-22.88,3.341,4.347,29.774h0l22.88-3.341h0l-4.347-29.774Z" transform="translate(-1739.241 -1179.073)"/><path class="n" d="M1773.923,1186.179l-22.94,2.9,3.771,29.853h0l22.94-2.9h0l-3.771-29.852Z" transform="translate(-1747.734 -1184.074)"/></g><path class="o" d="M1816.164,958.734l5.435-.34a2.38,2.38,0,0,1-2.382,2.291C1816.308,960.951,1816.164,958.734,1816.164,958.734Z" transform="translate(-1775.344 -935.654)"/><path class="k" d="M1783.494,1207.154l-10.294,1s2.261,8.234,2.11,9.089c0,0-14.992,4.156-21.258,5.284,0,0-2.853-1.617-4.007-2.131a27.986,27.986,0,0,0-4.943-1.165c-.686-.09-.452.662.137.925a5.7,5.7,0,0,1,2.546,1.86,4.763,4.763,0,0,1-1.892-.156c-.655-.292-1.557-.91-1.571-1.23s-.163-1.092-.378-1.051c-.055.01-.128.265-.2.529s-.144.51-.205.764c-.11.456-.237,1.123-.286,1.422a20.693,20.693,0,0,0,.364,3.238c.107,1.222.456,1.765,1.1,2.077a15.946,15.946,0,0,0,3.768.762c2.983.308,5.724-.55,6.919-.685s20.287-2.028,20.287-2.028,7.589-1.092,8.093-2.4S1783.494,1207.154,1783.494,1207.154Z" transform="translate(-1715.711 -1139.052)"/><path class="j" d="M1891.271,1049.936s2.767,1.312,5.2,6.979c2.311,5.386,2.434,32.169,2.434,32.169l-9.042-1.507-4.233-12.46a22.983,22.983,0,0,1,2.375-22.856C1889.3,1050.495,1890.486,1049.428,1891.271,1049.936Z" transform="translate(-1830.514 -1010.399)"/><path class="p" d="M1628.832,1139.2v5.351c-1.119-.291-7.046-2.445-8.6-2.789l2.14-6.059h0a1.256,1.256,0,0,0,.023-1.243,3.926,3.926,0,0,0-.4-.625c-.271-.292-.558-.655-.829-.947s.259-1.335.64-1.643,1.232,1.293,1.63,1.706a58.508,58.508,0,0,1,4.038,5.656Z" transform="translate(-1615.139 -1076.952)"/><path class="m" d="M1600.41,978.493l1.848-.288-9.085-54.778-.438.068-.425.066Z" transform="translate(-1592.31 -907.063)"/><g transform="translate(3.316 56.943)"><path class="k" d="M1610.622,1152.215a5.7,5.7,0,0,1-.126-1.138,3.121,3.121,0,0,1,.186-1.17,1.909,1.909,0,0,0,.033-.736,1.2,1.2,0,0,1,.027-.3v-.007a2.663,2.663,0,0,1,.337-.8,2.806,2.806,0,0,0,.332-.932,2.013,2.013,0,0,1,.433-.9c.219-.252.429-.346.6-.218.792.591,4.149,2.126,3.738,3.733a31.492,31.492,0,0,0-.909,3.4c-.006.78-1.031,1.163-1.73,1.189A2.49,2.49,0,0,1,1610.622,1152.215Z" transform="translate(-1610.496 -1145.959)"/></g><path class="m" d="M1827.668,1040.647c-1.54-.266,1.266-6.667,1.175-7.439l8.051-1.439.18.1C1838.3,1034.178,1832.881,1041.546,1827.668,1040.647Z" transform="translate(-1784.372 -995.649)"/><path class="n" d="M1841.234,1018.214c-.073-.279-.883-3.144-.883-3.144l-5.792,3.54-2.266-1.708,1.108,5.354,1.079-1.591,1.421,1.793Z" transform="translate(-1788.532 -981.995)"/><path class="m" d="M1922.426,1249.578l-9.342-1.557a14.849,14.849,0,0,1-.666-2.369l10.18.946Z" transform="translate(-1854.035 -1170.53)"/></g><g transform="translate(332.395 37.945)"><path class="a" d="M1964.133,416.7h79.194a4.962,4.962,0,0,1,4.953,4.97v56.474a4.962,4.962,0,0,1-4.953,4.97h-62.349c-2.523,3.533-7.1,9.86-7.5,9.86-.378,0,.35-5.976.863-9.86h-10.206a4.962,4.962,0,0,1-4.953-4.97V421.672A4.961,4.961,0,0,1,1964.133,416.7Z" transform="translate(-1959.18 -416.702)"/><g transform="translate(15.06 8.066)"><g transform="translate(11.774 1.857)"><path class="q" d="M2107.361,503.966l-1.026-.389,8.511-22.45,25.292,8.056,12.284-18.063.907.617-12.745,18.74-25.081-7.989Z" transform="translate(-2106.335 -471.121)"/></g><path class="j" d="M2060.8,622.813a9.728,9.728,0,1,1-12.159-6.437A9.728,9.728,0,0,1,2060.8,622.813Z" transform="translate(-2041.769 -587.678)"/><path class="j" d="M2272.125,548.191a6.291,6.291,0,1,1-7.862-4.162A6.291,6.291,0,0,1,2272.125,548.191Z" transform="translate(-2220.058 -528.648)"/><path class="j" d="M2353.922,462.466a2.165,2.165,0,1,1-2.706-1.433A2.165,2.165,0,0,1,2353.922,462.466Z" transform="translate(-2293.539 -460.937)"/><path class="j" d="M2136.447,504.861a5.2,5.2,0,1,1-6.5-3.443A5.2,5.2,0,0,1,2136.447,504.861Z" transform="translate(-2110.861 -493.847)"/></g><rect class="r" width="41.046" height="1.976" transform="translate(41.162 41.679)"/><rect class="r" width="29.723" height="1.976" transform="translate(41.162 47.252)"/><rect class="r" width="29.723" height="1.976" transform="translate(5.896 7.152)"/><rect class="r" width="21.644" height="1.976" transform="translate(5.896 12.695)"/><rect class="r" width="41.046" height="1.976" transform="translate(41.162 52.825)"/></g><g transform="translate(231.401 68.071)"><path class="s" d="M1469.382,581.908H1409.1a3.777,3.777,0,0,0-3.77,3.783v42.987a3.777,3.777,0,0,0,3.77,3.783h47.459c1.921,2.69,5.4,7.506,5.711,7.506.288,0-.266-4.549-.657-7.506h7.768a3.777,3.777,0,0,0,3.77-3.783V585.691A3.777,3.777,0,0,0,1469.382,581.908Z" transform="translate(-1405.331 -581.908)"/><path class="r" d="M1521.279,634.035a27.985,27.985,0,0,0-2.749-.889,28.05,28.05,0,0,0,.606-2.822c.664-4.211-.043-7.15-1.991-8.274s-4.846-.268-8.161,2.413a28.014,28.014,0,0,0-2.142,1.935,27.993,27.993,0,0,0-2.143-1.935c-3.315-2.681-6.213-3.538-8.161-2.413s-2.655,4.063-1.991,8.274a28.051,28.051,0,0,0,.607,2.822,28,28,0,0,0-2.749.889c-3.979,1.53-6.17,3.612-6.17,5.861s2.191,4.33,6.17,5.861a27.987,27.987,0,0,0,2.749.889,28.056,28.056,0,0,0-.607,2.822c-.664,4.211.043,7.15,1.991,8.275a3.74,3.74,0,0,0,1.9.482c1.746,0,3.9-.984,6.262-2.9a28,28,0,0,0,2.143-1.935,28.025,28.025,0,0,0,2.142,1.935c2.364,1.911,4.515,2.9,6.262,2.9a3.742,3.742,0,0,0,1.9-.482c1.948-1.125,2.655-4.063,1.991-8.275a28.055,28.055,0,0,0-.606-2.822,27.969,27.969,0,0,0,2.749-.889c3.979-1.531,6.171-3.612,6.171-5.861S1525.258,635.565,1521.279,634.035Zm-11.807-8.97c2.2-1.783,4.222-2.718,5.782-2.718a2.965,2.965,0,0,1,1.5.373c1.627.939,2.214,3.667,1.613,7.483a27.335,27.335,0,0,1-.591,2.75,42.46,42.46,0,0,0-6.34-1.022,42.449,42.449,0,0,0-4.057-4.981A27.217,27.217,0,0,1,1509.472,625.065Zm3.771,18.526c-.709,1.229-1.457,2.409-2.229,3.529-1.356.11-2.752.166-4.171.166s-2.815-.057-4.171-.166c-.773-1.12-1.52-2.3-2.23-3.529s-1.357-2.466-1.94-3.7c.583-1.229,1.231-2.466,1.94-3.7s1.457-2.409,2.23-3.529c1.356-.11,2.752-.166,4.171-.166s2.815.057,4.171.166c.773,1.12,1.52,2.3,2.229,3.529s1.357,2.466,1.94,3.7C1514.6,641.125,1513.952,642.362,1513.243,643.591Zm2.36-2.785a40.976,40.976,0,0,1,1.97,5.287,40.977,40.977,0,0,1-5.56.936q.985-1.466,1.9-3.05C1514.522,642.924,1515.085,641.864,1515.6,640.806Zm-5.168,7.134a40.986,40.986,0,0,1-3.593,4.349,40.986,40.986,0,0,1-3.593-4.349c1.175.08,2.375.121,3.593.121S1509.26,648.02,1510.435,647.94Zm-8.763-.911a40.967,40.967,0,0,1-5.56-.936,40.922,40.922,0,0,1,1.97-5.287c.518,1.057,1.081,2.118,1.689,3.173S1501.016,646.052,1501.672,647.029Zm-3.59-8.043a40.931,40.931,0,0,1-1.97-5.287,40.957,40.957,0,0,1,5.56-.936q-.985,1.465-1.9,3.05C1499.163,636.868,1498.6,637.928,1498.082,638.986Zm5.168-7.134a40.975,40.975,0,0,1,3.593-4.349,40.96,40.96,0,0,1,3.593,4.349c-1.175-.08-2.375-.121-3.593-.121S1504.424,631.772,1503.25,631.852Zm10.664,3.961q-.912-1.581-1.9-3.05a40.967,40.967,0,0,1,5.56.936,40.985,40.985,0,0,1-1.97,5.287C1515.085,637.928,1514.522,636.868,1513.914,635.813Zm-18.6-5.61c-.6-3.817-.014-6.544,1.613-7.483a2.964,2.964,0,0,1,1.5-.373c1.56,0,3.578.935,5.783,2.718a27.239,27.239,0,0,1,2.087,1.885,42.487,42.487,0,0,0-4.057,4.981,42.484,42.484,0,0,0-6.339,1.022A27.252,27.252,0,0,1,1495.313,630.2Zm-2.63,14.831c-3.606-1.387-5.674-3.26-5.674-5.138s2.068-3.752,5.674-5.138a27.314,27.314,0,0,1,2.678-.866,42.407,42.407,0,0,0,2.285,6,42.423,42.423,0,0,0-2.285,6A27.266,27.266,0,0,1,1492.684,645.034Zm11.529,9.693c-3,2.429-5.66,3.284-7.287,2.345s-2.215-3.667-1.613-7.483a27.265,27.265,0,0,1,.591-2.75,42.467,42.467,0,0,0,6.339,1.022,42.458,42.458,0,0,0,4.057,4.981A27.316,27.316,0,0,1,1504.213,654.727Zm14.159-5.138c.6,3.816.014,6.544-1.613,7.483s-4.283.085-7.287-2.345a27.294,27.294,0,0,1-2.087-1.885,42.433,42.433,0,0,0,4.057-4.981,42.469,42.469,0,0,0,6.34-1.022A27.334,27.334,0,0,1,1518.372,649.589Zm2.63-4.554a27.29,27.29,0,0,1-2.678.866,42.469,42.469,0,0,0-2.285-6,42.453,42.453,0,0,0,2.285-6,27.338,27.338,0,0,1,2.678.866c3.606,1.387,5.674,3.26,5.674,5.138S1524.607,643.647,1521,645.034Z" transform="translate(-1471.482 -614.335)"/><path class="h" d="M1586.5,705.678a3.659,3.659,0,1,1-3.658-3.658A3.658,3.658,0,0,1,1586.5,705.678Z" transform="translate(-1547.481 -680.118)"/><path class="j" d="M1511.53,685.128a2,2,0,1,1-2-2A2,2,0,0,1,1511.53,685.128Z" transform="translate(-1488.893 -664.67)"/><rect class="r" width="24.828" height="1.281" transform="translate(3.738 3.757)"/><rect class="r" width="16.653" height="1.281" transform="translate(3.738 7.371)"/><rect class="r" width="10.208" height="1.281" transform="translate(3.738 10.986)"/><rect class="r" width="16.653" height="1.281" transform="translate(4.634 40.098)"/><rect class="r" width="10.208" height="1.281" transform="translate(4.634 43.712)"/></g><g transform="translate(199.439 0)"><g transform="translate(14.467 14.442)"><path class="a" d="M1318.273,289.381c-12.4,6.147-11.653,25.227,1.193,30a10.221,10.221,0,0,1,5.4,4.87l4.1,7.746a4.306,4.306,0,0,0,5.758,1.918l4.7-2.329a4.885,4.885,0,0,0,2.352-5.939c-2.892-8.4-4.537-11.269-2.864-15.907C1343.806,296.174,1330.676,283.232,1318.273,289.381Z" transform="translate(-1309.388 -287.808)"/><g transform="translate(6.608 8.456)"><path class="t" d="M1366.225,359.041l-1.615.719c-.1-.264-3.012-7.657-5.995-16.6a21.225,21.225,0,0,1-5.535,3.557c3.13,6.926,6.832,16.581,6.844,16.61l-1.617.714c-.012-.03-3.733-9.745-6.879-16.687-3.254,1.024-4.693-.341-5.172-1a3.281,3.281,0,0,1-.094-3.728c1.167-1.648,4.056-1.361,6.111,2.425a19.546,19.546,0,0,0,5.711-3.8,9.846,9.846,0,0,1-.841-4.345,2.982,2.982,0,0,1,2.624-2.736c1.951-.065,3.94,2.727,1.592,6.043a14.339,14.339,0,0,1-1.338,1.58C1363.184,351.353,1366.021,358.493,1366.225,359.041Zm-6.859-19.221c2.107-2.424,1.153-3.687.573-3.785C1358.568,336.945,1358.679,337.744,1359.366,339.82Zm-11.929,4.906c.279,1.346,1.894,1.306,3.154.952C1349.034,343.011,1347.079,343,1347.437,344.726Z" transform="translate(-1345.627 -334.179)"/></g><path class="u" d="M1393.649,455.313c.035.064.076.124.11.189l4.1,7.746a4.306,4.306,0,0,0,5.758,1.918l4.7-2.329a4.886,4.886,0,0,0,2.352-5.939c-1.286-3.737-2.325-6.378-2.936-8.568Z" transform="translate(-1378.284 -419.059)"/></g><g transform="translate(44.085 9.556)"><path class="t" d="M1480.167,262.976l-3.847,3.483c-1,.908-2.325,2.564-3.782,2.557a.73.73,0,0,1-.723-.726c.158-1.5,1.824-2.565,2.877-3.508l3.867-3.462c1.1-.986,2.714.654,1.608,1.656Z" transform="translate(-1471.812 -261.016)"/></g><g transform="translate(33.521 0)"><path class="t" d="M1418.391,210.011c-2.316,9.222-2.154,9-2.8,9.7a.988.988,0,0,1-1.631-.457c-.213-.872-.174-.63,2.236-9.832a1.135,1.135,0,0,1,2.192.588Z" transform="translate(-1413.881 -208.61)"/></g><g transform="translate(13.368 2.462)"><path class="t" d="M1308.631,231.56l-2.926-4.347c-.867-1.288-2.155-2.664-2.337-4.248-.08-.7.793-1.038,1.317-.752,1.365.748,2.191,2.616,3.029,3.874l2.905,4.359c.814,1.222-1.173,2.325-1.988,1.114Z" transform="translate(-1303.363 -222.111)"/></g><g transform="translate(0.44 33.464)"><path class="t" d="M1241.237,394.288A75.227,75.227,0,0,1,1233.77,397c-1.368.385-1.841-1.638-.547-2.1,2.495-.9,5-1.725,7.473-2.7,1.292-.508,1.81,1.577.542,2.084Z" transform="translate(-1232.462 -392.126)"/></g><g transform="translate(0 19.89)"><path class="t" d="M1239.533,321.238c-1.582-.187-3.155-.423-4.728-.674-1.436-.229-3.3-.226-4.46-1.148-.614-.489-.166-1.43.455-1.624.778-.242,1.008-.053,4.413.508,1.537.253,3.078.476,4.612.745,1.232.216.965,2.341-.291,2.193Z" transform="translate(-1230.052 -317.689)"/></g></g><g transform="translate(132.137 100.631)"><path class="a" d="M954.04,909.86,964.073,885.9l-16.155-21.473-25.982,3.021-10.219,24.018-25.672,2.985-10.523,24.733,15.877,21.1,25.779-3.148,15.558,20.678,26.681-3.258,10.1-24.127Zm-31.451-41.542,24.9-2.9L963,886.032l-9.612,22.956-.022-.029-25.883,3.009-14.988-19.921ZM876.6,919.05l10.1-23.729,24.9-2.9,15.4,20.463L917.075,936.2l-25.251,3.083Zm82.158,34.64-25.6,3.126-15.012-19.953,9.913-23.675,25.008-3.054,15.372,20.432Z" transform="translate(-872.868 -845.468)"/><circle class="j" cx="3.149" cy="3.149" r="3.149" transform="translate(71.859 16.805)"/><path class="j" d="M924.95,1019.467a3.149,3.149,0,1,1-3.149-3.149A3.149,3.149,0,0,1,924.95,1019.467Z" transform="translate(-908.134 -969.664)"/><path class="j" d="M1344.26,970.022a3.149,3.149,0,1,1-3.149-3.149A3.149,3.149,0,0,1,1344.26,970.022Z" transform="translate(-1250.983 -929.235)"/><path class="j" d="M1374.118,1211.767a3.149,3.149,0,1,1-3.149-3.149A3.149,3.149,0,0,1,1374.118,1211.767Z" transform="translate(-1275.396 -1126.898)"/><circle class="j" cx="3.149" cy="3.149" r="3.149" transform="translate(56.881 108.293) rotate(-1.683)"/><circle class="j" cx="3.149" cy="3.149" r="3.149" transform="translate(51.366 63.923) rotate(-1.683)"/><circle class="s" cx="1.934" cy="1.934" r="1.934" transform="translate(80.68 30.696) rotate(-45)"/><path class="s" d="M1069.248,1007.646a1.934,1.934,0,1,1-1.934-1.934A1.934,1.934,0,0,1,1069.248,1007.646Z" transform="translate(-1028.106 -960.992)"/><circle class="s" cx="1.822" cy="1.822" r="1.822" transform="translate(78.296 65.797) rotate(-76.717)"/><path class="s" d="M866.277,1152.4a2.653,2.653,0,1,1-2.653-2.653A2.653,2.653,0,0,1,866.277,1152.4Z" transform="translate(-860.971 -1078.764)"/><g transform="translate(72.404 0)"><path class="s" d="M1258.032,772.352V760.468h1.292v5.08h5.97v-5.08h1.3v11.884h-1.3V766.7h-5.97v5.657Z" transform="translate(-1258.032 -760.468)"/></g><g transform="translate(101.831 79.088)"><path class="s" d="M1419.411,1206.069v-11.884h1.292v5.079h5.97v-5.079h1.3v11.884h-1.3v-5.657h-5.97v5.657Z" transform="translate(-1419.411 -1194.185)"/></g><g transform="translate(82.759 7.4)"><path class="s" d="M1314.818,810.017v-.829a6.154,6.154,0,0,1,.767-1.268,8.845,8.845,0,0,1,1.178-1.226q.316-.28,1.011-.785a7.8,7.8,0,0,0,.97-.791,3.594,3.594,0,0,0,.621-.844,1.8,1.8,0,0,0,.2-.809,1.61,1.61,0,0,0-.451-1.205,1.692,1.692,0,0,0-1.238-.441,1.928,1.928,0,0,0-1.345.489,2.526,2.526,0,0,0-.731,1.4l-.853-.179a3.2,3.2,0,0,1,1.015-1.853,2.918,2.918,0,0,1,1.939-.63,2.717,2.717,0,0,1,1.906.642,2.241,2.241,0,0,1,.7,1.739,2.943,2.943,0,0,1-.114.844,2.331,2.331,0,0,1-.352.707,9,9,0,0,1-1.885,1.707q-.316.227-.471.346a8.91,8.91,0,0,0-1.241,1.107,3.977,3.977,0,0,0-.716,1.059h4.78v.817Z" transform="translate(-1314.818 -801.049)"/></g></g><path class="j" d="M1647.528,328.409l-6.8-2.733-19.564,23.184a3.843,3.843,0,0,0,1.438,6.045h0a3.759,3.759,0,0,0,4.295-1.113l4.556-5.494,7.135,2.867-.409,7.194a3.793,3.793,0,0,0,2.35,3.75l.129.052a3.814,3.814,0,0,0,5.187-3.388Zm-11.6,14.23,3.59-4.265-.314,5.581Z" transform="translate(-1349.655 -304.329)"/><g transform="translate(170.125 283.671)"><rect class="n" width="71.12" height="24.909" transform="translate(72.714 24.909) rotate(180)"/><rect class="m" width="71.12" height="0.419" transform="translate(72.714 4.98) rotate(180)"/><rect class="m" width="71.12" height="0.419" transform="translate(72.714 9.089) rotate(180)"/><rect class="m" width="71.12" height="0.419" transform="translate(72.714 13.199) rotate(180)"/><rect class="m" width="71.12" height="0.419" transform="translate(72.714 17.308) rotate(180)"/><path class="m" d="M1106.952,1812.218s-33.463,2.873-37.657,6.479c0,0,.21-4.277,1.594-6.9l10.483.4Z" transform="translate(-1069.295 -1803.129)"/><path class="j" d="M1339.279,1814.075l-3.651,5.784-4.086-5.784Z" transform="translate(-1283.721 -1804.99)"/><path class="v" d="M1245.9,1836.636l-3.651,5.784-4.086-5.784Z" transform="translate(-1207.372 -1823.437)"/><rect class="m" width="71.12" height="0.419" transform="translate(72.714 21.397) rotate(180)"/><path class="s" d="M1142.238,1859.24l-3.651,5.784-4.086-5.784Z" transform="translate(-1122.611 -1841.92)"/><path class="w" d="M1375.221,1764.254v24.909h16.928v-24.909Z" transform="translate(-1319.436 -1764.254)"/></g><g transform="translate(1.056 204.034)"><path class="a" d="M444.22,1422.733a6.9,6.9,0,1,0,6.668-6.668A6.9,6.9,0,0,0,444.22,1422.733Z" transform="translate(-389.13 -1399.918)"/><g transform="translate(0)"><rect class="e" width="2.542" height="8.159" rx="1.271" transform="translate(44.971 102.387) rotate(180)"/><g transform="translate(28.454)"><path class="s" d="M300.063,1334.523c2.125-2.783,4.508-4.321,7.084-4.57a10.5,10.5,0,0,1,7.169,2.409l1.583-1.784a12.876,12.876,0,0,0-8.982-3c-3.262.316-6.206,2.165-8.75,5.5Z" transform="translate(-298.167 -1327.531)"/></g><path class="e" d="M379.431,1332.222l9.777,9.777a2.05,2.05,0,0,1,0,2.9l-3.439,3.438a2.05,2.05,0,0,1-2.9,0l-9.777-9.777a2.05,2.05,0,0,1,0-2.9l3.439-3.439A2.05,2.05,0,0,1,379.431,1332.222Z" transform="translate(-330.485 -1330.876)"/><path class="j" d="M415.268,1363.925l-23.188,23.188a16.4,16.4,0,0,1,23.188-23.188Z" transform="translate(-342.574 -1353.362)"/><g transform="translate(2.677 3.801)"><path class="e" d="M156.8,1395.741l23.253-47.368,7.258,3.563L164.062,1399.3Zm24.391-44.037-21.06,42.9,2.789,1.369,21.06-42.9Z" transform="translate(-156.804 -1348.373)"/></g><g transform="translate(1.069 51.566)"><path class="e" d="M147.989,1612.93l7.651-2.613,17.051,49.937-7.651,2.613Zm6.1.547-2.941,1,15.443,45.226,2.941-1Z" transform="translate(-147.989 -1610.317)"/></g><path class="u" d="M408.479,1406.494l.091.091a1.186,1.186,0,0,0,1.677,0l24.493-24.493a1.186,1.186,0,0,0,0-1.677l-.091-.091a1.185,1.185,0,0,0-1.676,0l-24.493,24.493A1.186,1.186,0,0,0,408.479,1406.494Z" transform="translate(-359.625 -1370.413)"/><path class="j" d="M142.132,1595.753a5.9,5.9,0,1,0,5.581-5.58A5.9,5.9,0,0,0,142.132,1595.753Z" transform="translate(-142.124 -1542.273)"/><path class="s" d="M225.2,1857.772H186.526a8.076,8.076,0,0,0-8.076,8.076h54.827A8.076,8.076,0,0,0,225.2,1857.772Z" transform="translate(-171.826 -1761.083)"/></g></g><g transform="translate(333.537 245.741)"><g transform="translate(0 38.318)"><path class="v" d="M1977.473,1767.164h-3.951a3.858,3.858,0,0,1,2.335-.781h98.977a9.286,9.286,0,0,1,9.376,9.192v5.838a9.286,9.286,0,0,1-9.376,9.193l-97.87-.033Z" transform="translate(-1972.048 -1766.383)"/><path class="x" d="M2027.057,1766.5a8.88,8.88,0,0,1,8.967,8.791v6.6a8.88,8.88,0,0,1-8.967,8.791h-61.616v-1.476h.255l15.664-1.454,3.166-12.176s-6.111-6.728-6.509-6.9-12.321-.7-12.321-.7l-.255,0V1766.5Z" transform="translate(-1965.441 -1766.48)"/><path class="n" d="M1970.53,1785.166c0-7.119-3.753-10.57-3.753-10.57h60.111a8.156,8.156,0,0,1,8.236,8.074v5.079a8.156,8.156,0,0,1-8.236,8.074h-60.111S1970.53,1794.13,1970.53,1785.166Z" transform="translate(-1966.533 -1773.098)"/><path class="y" d="M2035.124,1782.67v5.079a7.956,7.956,0,0,1-.24,1.936,17.614,17.614,0,0,0-13.31-11.052c-17.269-3.516-54.8-4.037-54.8-4.037h60.111A8.156,8.156,0,0,1,2035.124,1782.67Z" transform="translate(-1966.533 -1773.098)"/></g><path class="s" d="M2124.542,1661.719h3.952a4.549,4.549,0,0,0-2.335-.62h-99.016c-5.18,0-9.38,3.266-9.38,7.294v4.633c0,4.028,4.2,7.294,9.38,7.294l97.909-.026Z" transform="translate(-2008.222 -1641.98)"/><path class="z" d="M2254.84,1661.193c-4.954,0-8.97,3.123-8.97,6.975v5.235c0,3.852,4.016,6.975,8.97,6.975h61.64v-1.171h-.255l-15.67-1.154-3.167-9.662s6.113-5.339,6.512-5.477,12.326-.555,12.326-.555l.255,0v-1.165Z" transform="translate(-2194.734 -1642.057)"/><path class="n" d="M2321.422,1676a10.647,10.647,0,0,1,3.754-8.387h-60.134c-4.551,0-8.239,2.869-8.239,6.407v4.03c0,3.538,3.688,6.406,8.239,6.406h60.134S2321.422,1683.115,2321.422,1676Z" transform="translate(-2203.673 -1647.307)"/><path class="y" d="M2256.8,1674.022v4.03a5.079,5.079,0,0,0,.24,1.536c2.028-3.858,5.916-7.575,13.315-8.77,17.276-2.79,54.818-3.2,54.818-3.2h-60.134C2260.491,1667.615,2256.8,1670.484,2256.8,1674.022Z" transform="translate(-2203.673 -1647.307)"/><g transform="translate(53.13 28.087)"><path class="j" d="M2526.713,1713.088l-3.807,6.032-4.261-6.032Z" transform="translate(-2470.898 -1712.575)"/><path class="y" d="M2256.857,1710.79h64.569v-.483c0-.067-64.624,0-64.624,0Z" transform="translate(-2256.803 -1710.278)"/></g><g transform="translate(4.028 50.429)"><path class="s" d="M2035.842,1835.611l3.807,6.031,4.26-6.031Z" transform="translate(-2027.033 -1835.099)"/><path class="y" d="M2052.1,1833.314h-64.57v-.483c0-.066,64.624,0,64.624,0Z" transform="translate(-1987.533 -1832.801)"/></g><g transform="translate(16.872)"><path class="j" d="M2067.469,1556.867h-3.122a3.047,3.047,0,0,1,1.845-.618h78.194a7.336,7.336,0,0,1,7.408,7.262v4.613a7.336,7.336,0,0,1-7.408,7.262l-77.319-.026Z" transform="translate(-2063.184 -1556.249)"/><path class="e" d="M2106.643,1556.343a7.016,7.016,0,0,1,7.084,6.945v5.213a7.015,7.015,0,0,1-7.084,6.945h-48.677v-1.166h.2l12.375-1.149,2.5-9.62s-4.827-5.316-5.142-5.453-9.734-.553-9.734-.553l-.2,0v-1.16Z" transform="translate(-2057.965 -1556.326)"/><path class="n" d="M2061.985,1571.088c0-5.624-2.965-8.351-2.965-8.351h47.488a6.443,6.443,0,0,1,6.507,6.379v4.013a6.443,6.443,0,0,1-6.507,6.379H2059.02S2061.985,1578.17,2061.985,1571.088Z" transform="translate(-2058.828 -1561.554)"/><path class="y" d="M2113.015,1569.116v4.013a6.261,6.261,0,0,1-.189,1.53,13.915,13.915,0,0,0-10.515-8.732c-13.643-2.778-43.291-3.189-43.291-3.189h47.488A6.443,6.443,0,0,1,2113.015,1569.116Z" transform="translate(-2058.828 -1561.554)"/><g transform="translate(3.134 8.626)"><path class="aa" d="M2259.244,1606.361l3.357,5.965,3.016-5.965Z" transform="translate(-2225.675 -1605.849)"/><path class="y" d="M2126.2,1604.064h-51.054v-.483c0-.066,51.054,0,51.054,0Z" transform="translate(-2075.151 -1603.551)"/></g></g></g><g transform="translate(358.21 72.707)"><path class="ab" d="M2457.328,1011.992q1.263-.9,2.4-1.879l10.835,15.278c.666.939.095,2.487-1.275,3.459s-3.02,1-3.686.059l-10.834-15.277Q2456.062,1012.886,2457.328,1011.992Z" transform="translate(-2390.209 -936.666)"/><ellipse class="ac" cx="33.797" cy="34.007" rx="33.797" ry="34.007" transform="matrix(0.816, -0.578, 0.578, 0.816, 0, 39.089)"/><path class="ad" d="M2233.119,765.728a33.769,33.769,0,0,1-23.059,6.5l-29.378-43.235c.019-.068.037-.136.057-.2a34,34,0,0,1,14.318-19.076Z" transform="translate(-2166.106 -691.044)"/><path class="ad" d="M2316.124,680.924l27.168,39.983c-.2,1.023-.452,2.045-.753,3.065a34.064,34.064,0,0,1-6.564,12.261l-36.691-54A33.489,33.489,0,0,1,2316.124,680.924Z" transform="translate(-2263.08 -667.075)"/><path class="ae" d="M2156.94,716.715a38.209,38.209,0,1,0,8.929-53.463A38.328,38.328,0,0,0,2156.94,716.715Zm3.6-2.552a33.8,33.8,0,1,1,47.241,8.19A33.9,33.9,0,0,1,2160.539,714.164Z" transform="translate(-2140.869 -647.325)"/><path class="af" d="M2169.251,725.815a35.891,35.891,0,1,0,8.387-50.218A36,36,0,0,0,2169.251,725.815Zm1.707-1.21a33.8,33.8,0,1,1,47.241,8.19A33.9,33.9,0,0,1,2170.958,724.6Z" transform="translate(-2151.289 -657.766)"/><path class="ae" d="M2541,1137.808l2.437-1.751a5.43,5.43,0,0,0,1.239-7.577l-31.329-43.84a5.429,5.429,0,0,0-7.577-1.239l-2.436,1.751a5.429,5.429,0,0,0-1.239,7.577l31.328,43.84A5.429,5.429,0,0,0,2541,1137.808Z" transform="translate(-2428.076 -995.755)"/></g><g transform="translate(66.609 202.243)"><g transform="translate(15.966)"><path class="f" d="M616.233,1320.994s-10.029-1.85-14.538,8.758-1.358,9.146-3.53,14.436-10.1,5.595-8.858,13.033,4.9,8.015,4.9,8.015a12.844,12.844,0,0,0,2.291,11.679c4.463,5.371,13.968,9.049,21.067,7.014,0,0,11.868,4.147,22.3-.491s6.632-4,11.091-4.749,15.495-8.875,12.022-17.469c0,0,5.888-9.961-2.433-15.9s-10.879-12.963-16.61-21.859S620.8,1317.852,616.233,1320.994Z" transform="translate(-589.175 -1317.706)"/></g><path class="ag" d="M544.295,1650.886s-6.906-.981-17.653,9.374-25.239,23-18.97,33.09l26.395-.634s15.958-18.779,16.185-19.756S544.295,1650.886,544.295,1650.886Z" transform="translate(-505.327 -1590.111)"/><path class="ag" d="M868.153,1650.817s9.289-.968,20.036,9.388,25.239,23,18.969,33.09l-26.394-.633s-15.958-18.779-16.185-19.756S868.153,1650.817,868.153,1650.817Z" transform="translate(-798.385 -1590.055)"/><path class="h" d="M692.386,1691.3l-2.463-20.089c-2.925-24.365-10.749-26.877-12.918-27.1l-.566-.013h0c-4.258-.114-9.824-.42-15.238-.768v-.06l-.471.03-.471-.03v.06c-5.414.348-10.98.654-15.238.768h0l-.566.013c-2.169.222-9.992,2.734-12.918,27.1l-2.463,20.395Z" transform="translate(-605.828 -1583.902)"/><path class="ah" d="M1006.732,1816.327s3.107-2.414.841-8.518-18.5-10.2-22.052-1.754Z" transform="translate(-897.281 -1713.087)"/><path class="ah" d="M503.285,1816.327s-3.107-2.414-.841-8.518,18.5-10.2,22.052-1.754Z" transform="translate(-501.617 -1713.087)"/><g transform="translate(1.465 91.271)"><g transform="translate(42.911 7.645)"><path class="ai" d="M768.926,1865.074c.339-.522-.511-1.408-1.148-2.072-.706-.736-4.983-2.585-5.711-2.807s-6.96.656-9.346,1.438a8.448,8.448,0,0,1-3.958.461c-.626-.128-1.566-.3-2.3-.45l-1.5,5.639c5.6-.071,11.458.272,11.989.258,1.683-.043,4.766-1.8,5.481-2.063a5.026,5.026,0,0,1,3.138.4c.974.457,3.809,1.542,4.284,1.289S768.926,1865.074,768.926,1865.074Z" transform="translate(-744.97 -1860.16)"/></g><path class="ai" d="M556.679,1827.855s-31.481-11.481-38.558-9.358-9.906,8.788-7.783,13.035,43.862,1.389,43.862,1.389Z" transform="translate(-509.648 -1818.235)"/></g><path class="k" d="M764.687,1568.232c-.022.206.914,7.714,1.412,11.684a3.131,3.131,0,0,1-2.116,3.357c-3.782,1.269-11.121,2.824-15.558-2.136a2.065,2.065,0,0,1-.5-1.663l2.437-17.429Z" transform="translate(-702.994 -1517.489)"/><path class="j" d="M769.626,1572.022a3.126,3.126,0,0,0,1.062-.619c-.215-1.779-.367-3.087-.358-3.171l-14.324-6.188-1.2,8.573C759.283,1574.671,766.046,1573.223,769.626,1572.022Z" transform="translate(-708.638 -1517.489)"/><g transform="translate(30.245 4.954)"><path class="k" d="M675.014,1475.856c.944,2.921.108,5.806-1.866,6.444s-4.339-1.213-5.283-4.134-.108-5.806,1.866-6.444S674.071,1472.935,675.014,1475.856Z" transform="translate(-667.477 -1448.488)"/><path class="k" d="M884,1460.174c-.509,3.027.737,5.76,2.783,6.1s4.117-1.831,4.626-4.858-.737-5.76-2.783-6.1S884.505,1457.147,884,1460.174Z" transform="translate(-844.421 -1435.148)"/><ellipse class="k" cx="18.653" cy="23.74" rx="18.653" ry="23.74" transform="matrix(0.997, -0.073, 0.073, 0.997, 3.489, 2.719)"/></g><path class="n" d="M742.938,1646.384a15.989,15.989,0,0,0,9.228,7.122s-4.742,1.774-7.452.6S739.942,1650.676,742.938,1646.384Z" transform="translate(-697.726 -1586.45)"/><path class="n" d="M805.082,1646.384a15.859,15.859,0,0,1-9.124,7.122s4.689,1.774,7.368.6S808.044,1650.676,805.082,1646.384Z" transform="translate(-742.285 -1586.45)"/><path class="k" d="M845.042,1827.855s31.482-11.481,38.559-9.358,9.741,9.084,7.618,13.33-45.748,1.868-45.748,1.868Z" transform="translate(-782.419 -1726.964)"/><path class="o" d="M776.912,1538.508l10.225-1.23a4.6,4.6,0,0,1-4.235,4.744C777.438,1542.846,776.912,1538.508,776.912,1538.508Z" transform="translate(-726.712 -1497.239)"/><g transform="translate(54.657 82.798)"><path class="aj" d="M804.75,1865.884l-3.395,3.907.327-5.166,1.637-1.135Z" transform="translate(-801.355 -1846.765)"/><path class="ak" d="M803.319,1863.49l.368.616-2.332,5.685.327-5.166Z" transform="translate(-801.355 -1846.765)"/><path class="al" d="M802.77,1789.631l-.085,1.337.95-.982,7.473-18.215-1.091.2Z" transform="translate(-802.443 -1771.771)"/><path class="a" d="M807.893,1789.986l.187,1.448,1.151-.9,7.473-18.215-1.338-.549Z" transform="translate(-806.7 -1771.771)"/><path class="t" d="M815.167,1793l-.014,1.366.879-1.011,7.247-17.664-.639-.906Z" transform="translate(-812.637 -1774.231)"/><rect class="v" width="1.45" height="1.446" transform="matrix(0.38, -0.925, 0.925, 0.38, 8.115, 1.341)"/><path class="am" d="M853.191,1776.122l.55-1.341.639.906-.324.79Z" transform="translate(-843.739 -1774.231)"/><path class="an" d="M841.112,1772.757l.324-.79,1.091-.2-.55,1.341Z" transform="translate(-833.862 -1771.771)"/><rect class="ao" width="0.935" height="1.709" transform="translate(9.669 3.826) rotate(-157.687)"/><rect class="ap" width="0.935" height="1.709" transform="translate(7.466 2.922) rotate(-157.7)"/><rect class="aj" width="1.446" height="1.709" transform="matrix(-0.925, -0.38, 0.38, -0.925, 8.804, 3.471)"/><path class="aq" d="M802.507,1888.857l-1.152,1.326.111-1.753.4.5Z" transform="translate(-801.355 -1867.157)"/></g><path class="k" d="M775.648,1857.883c.1.411.562,1.035,1.129.96,0,0,.282.026.324.119a6.08,6.08,0,0,0,.059,1.022h16.527l.14-.04v-7.456a12.019,12.019,0,0,1-2.306.2,13.632,13.632,0,0,0-3.444-1.406c-1.133-.135-3.046-.871-3.6-.773s-3.293,1.526-3.684,1.6a2.855,2.855,0,0,0-1.033.62c-.238.177-2.949.625-3.451,1.016a2.359,2.359,0,0,0-.078,2.4s.042.144-.2.363A1.884,1.884,0,0,0,775.648,1857.883Z" transform="translate(-725.661 -1753.343)"/></g><g transform="translate(126.619 16.057)"><path class="ar" d="M955.821,410.036c.315.013,1.18.3,2.444,2.691,1.614,3.051,3.974,12.267,3.974,12.267l-7.043,2.623-.9-1.924-1.49-14.809S955.733,410.032,955.821,410.036Z" transform="translate(-930.537 -389.363)"/><path class="e" d="M862.3,402.751a43.023,43.023,0,0,1,9.309,1.329s1.7,14.6-1.53,25.7c-.723,2.484.6,10.3.6,10.3l-20.868-.275s2.472-18.887,1.541-21.938-.954-13.683-.954-13.683.143-.022,4.689-.808A47.215,47.215,0,0,1,862.3,402.751Z" transform="translate(-846.327 -383.406)"/><path class="k" d="M878.378,756.068s.461,5.328,1.31,6.8-.045,3.984-.089,4.328-1.787.836-4.557.541-2.725-.934-2.5-1.967,1.7-2.361,1.787-3.344a25.692,25.692,0,0,0-.849-4.525Z" transform="translate(-864.836 -672.296)"/><path class="as" d="M866.729,581.852s14.405-.8,17.622,1.148-2.286,11.509-2.286,11.509-10.024-.462-29.657.671c-4.649.268-5.05-12.123-4.18-13.148S866.729,581.852,866.729,581.852Z" transform="translate(-844.732 -529.581)"/><path class="at" d="M873.936,800.1c-2.852-.3-2.5-1.705-2.269-2.769a9.419,9.419,0,0,1,1.45-2.193,4.756,4.756,0,0,0,1.908.927c1.286.38,3.049-.372,4.173-.843a13.777,13.777,0,0,1,.381,3.679C879.533,799.257,876.788,800.405,873.936,800.1Z" transform="translate(-864.074 -704.242)"/><path class="a" d="M844.472,592.8c.576,4.355,3.425,26.035,3.425,26.035l-6.612.82s-8.131-28.3-7.714-32.626,3.46-4.692,3.46-4.692S842.948,581.271,844.472,592.8Z" transform="translate(-833.036 -530.223)"/><path class="k" d="M837.2,419.381c1.951-.732,2.906,16.848,3.169,24.084a85,85,0,0,0,10.977-.11c.705-.053,2.331-.649,3.033-.74a7.027,7.027,0,0,1,1.724-.082,32.572,32.572,0,0,1,4.039,1.818c.382.4,1.415,1.411,1.241,1.848s-1.987-1.217-1.987-1.217l-.886-.5c1.1,1.077,3.206,2.5,2.9,3.012s-2.193-.936-3.544-1.917c1.16,1.047,2.6,2.922,2.268,3.214-.3.263-1.937-1.907-3.688-2.532-.649-.232-1.3.41-1.807.487a3.672,3.672,0,0,1-1.323.074l-1.9-.538c-.646.058-.662.441-1.315.579-.757.161-2,.331-2.964.567-5.554,1.357-7.406,1.987-9.106,1.986C832.883,449.413,832.584,421.11,837.2,419.381Z" transform="translate(-833.352 -396.985)"/><path class="ar" d="M830.848,428.519c-.365-7.412-.312-16.547,3.843-18.106,1.639-.615,4.529,3.083,4.01,18.257A31.216,31.216,0,0,1,830.848,428.519Z" transform="translate(-830.707 -389.619)"/><path class="k" d="M985.4,783.655a3.6,3.6,0,0,0-.2,3.1c.751,1.414,4.693,3.494,5.1,4.261a1.857,1.857,0,0,1,.25,1.309l-11.706-2.87.9-3.529,1.095-2.438Z" transform="translate(-951.828 -694.716)"/><path class="at" d="M983.748,798.444s-3.29.57-4.6-.471-1.217-1.232-1.7-1.053c-.309.115-.78,1.521-1.077,2.51a.962.962,0,0,0,.692,1.21l12.189,3.012c.926.178,1.539-.4.916-1.143a11.044,11.044,0,0,0-1.258-1.17A42.334,42.334,0,0,0,983.748,798.444Z" transform="translate(-949.78 -705.651)"/><path class="a" d="M988.353,586.595c.931-1.96,3.049-4.511,6.775-2.974,3.554,1.466,4.508,5.068,3.387,8.756s-8.5,25.371-8.761,28.352l-5.894.039s1.071-17.168,1.334-21.318A40.193,40.193,0,0,1,988.353,586.595Z" transform="translate(-955.933 -530.909)"/><path class="ae" d="M888.923,492.526h-19.7a1.285,1.285,0,0,0-1.189.8l-6.067,14.847H851.1a.551.551,0,0,0-.55.551h0a.551.551,0,0,0,.55.551h30.914A2.158,2.158,0,0,0,883.986,508l6.109-13.654A1.289,1.289,0,0,0,888.923,492.526Z" transform="translate(-846.934 -456.811)"/><path class="o" d="M993.225,533.49a1.085,1.085,0,1,1-.813-1.419A1.159,1.159,0,0,1,993.225,533.49Z" transform="translate(-961.844 -489.129)"/><g transform="translate(9.69 0)"><path class="ab" d="M894.811,298.174a15.107,15.107,0,0,1-1.743-.7,8.742,8.742,0,0,0-1.987-.749,4.79,4.79,0,0,0-4.032,1.075c-1.3,1.41-3.609.255-3.144,7.638.526,8.358,5.174,7.44,5.286,7.3s4.145-5.347,4.145-5.347,1.409,3.084,1.409,2.97S901.944,300.576,894.811,298.174Z" transform="translate(-883.845 -296.664)"/><path class="k" d="M903.238,367.115l.4,2.986s.9,4.3-.257,5.132-4.916-5.255-4.916-5.255l.4-7.567Z" transform="translate(-895.799 -350.423)"/><path class="j" d="M899.939,364.864a8.568,8.568,0,0,0,4.844,4.783l-.34-2.532-4.376-4.7Z" transform="translate(-897.004 -350.423)"/><path class="k" d="M900.7,317.026a3.982,3.982,0,0,1,4.586,4.027,30.3,30.3,0,0,1-.335,3.83c-.533,3.447-2.885,6.483-4.44,6.212s-5.468-3.245-4.779-8.15C896.153,319.916,898.125,317.441,900.7,317.026Z" transform="translate(-893.495 -313.272)"/><path class="k" d="M891.862,345.831a1.159,1.159,0,1,1-.881-1.567A1.282,1.282,0,0,1,891.862,345.831Z" transform="translate(-888.551 -335.572)"/><path class="ab" d="M894.514,316.833s1.88.467,2.578-.742,3.193-3.819,6.365-2.737-2.791-2.631-3.045-2.631-3.3-.021-3.3-.021-2.347,1.931-2.432,2.143-.761,2.525-.761,2.525Z" transform="translate(-892.083 -308.142)"/></g><path class="o" d="M915.983,372l3.422.654a1.523,1.523,0,0,1-1.839,1.045C915.721,373.4,915.983,372,915.983,372Z" transform="translate(-900.423 -358.261)"/></g><rect class="e" width="494.457" height="1.718" transform="translate(0 308.282)"/><path class="a" d="M389.092,1053.793H332.152a4.562,4.562,0,0,0-4.562,4.563v30.1a4.562,4.562,0,0,0,4.562,4.563h41.423c2.324,3.244,6.539,9.052,6.91,9.052.348,0-.322-5.486-.795-9.052h9.4a4.562,4.562,0,0,0,4.563-4.562v-30.1A4.563,4.563,0,0,0,389.092,1053.793Z" transform="translate(-292.715 -899.674)"/><g transform="translate(339.391 190.755)"><path class="a" d="M2230.986,1261.6c1.046-2.516,2.109-5.036,4.821-6.31a6.068,6.068,0,0,1,6.439.823c5.526,4.156.71,8.734,7,16.614,1.954,2.449,4.32,4.425,5.491,7.295,1.64,4.016-1.218,9.9-4.347,11.819-14.973,9.2-21.918-13.644-21.636-17.967A69.635,69.635,0,0,1,2230.986,1261.6Z" transform="translate(-2186.588 -1254.706)"/><path class="k" d="M2154.756,1417.1c.631-.1,2.165-1.2,2.706-1.3.419-.077,1.326-.215,1.713-.273.474-1.768,2.879-11.409,3.148-14.235.292-3.061,2.457-16.306,2.457-16.306l5.606,1.019s-2.328,10.189-2.972,15.129c-.553,4.243-5.209,13.784-5.8,14.791,0,.024,0,.048,0,.074-.09,1.5-.812,1-.812,1l-1.172.3s-4.149.4-4.419.5S2154.125,1417.2,2154.756,1417.1Z" transform="translate(-2125.897 -1361.23)"/><path class="z" d="M2209.708,1342.528c-3.963,1.344-6.216,12.117-6.216,12.117s6.217,1.736,7.81.825c0,0,1.808-8.015,2.456-7.734Z" transform="translate(-2165.938 -1326.514)"/><path class="k" d="M2021.818,1663.163a42.355,42.355,0,0,0-1.9,6.651c-.027.179.226,1.048.2,1.234-2.434,3.32-5.932,4.047-8.931,4.258,1.528-1.492,3.772-2.906,3.88-3.378a58.706,58.706,0,0,0,1.549-8.743C2018.485,1664.049,2019.751,1663.365,2021.818,1663.163Z" transform="translate(-2008.703 -1588.681)"/><path class="h" d="M2076.354,1466.96l5.355,15.084s-8.606,1.62-11.824,2.21-21.2,1.375-21.65,1.695c-.338.237-4.052,12.248-5.711,18.871a15.581,15.581,0,0,1-6.817-.674c.926-9.476,4.271-24.489,5.341-26.124C2042.793,1475.36,2076.354,1466.96,2076.354,1466.96Z" transform="translate(-2028.749 -1428.256)"/><path class="k" d="M2107.271,1699.425a42.383,42.383,0,0,0-.619,6.889c.007.181.418.987.43,1.175-1.769,3.717-5.069,5.086-7.975,5.856,1.222-1.752,3.161-3.561,3.178-4.045a58.665,58.665,0,0,0-.117-8.878C2104.163,1700.92,2105.277,1700.011,2107.271,1699.425Z" transform="translate(-2080.587 -1618.331)"/><path class="au" d="M2143.025,1471.254l2.077,3.548a10.168,10.168,0,0,1-5.1,14.616l-.093.036c-3.05,1.183-20.562,5.323-20.949,5.722-.288.3-1.685,12.79-2.073,19.607a15.582,15.582,0,0,1-6.823.615c-.866-9.482-.395-24.856.351-26.662C2111.632,1485.794,2143.025,1471.254,2143.025,1471.254Z" transform="translate(-2089.167 -1431.767)"/><path class="aa" d="M2097.458,1737.5c.466-.515,2.178,2.319,2.606,2.924a1.351,1.351,0,0,1,.286,1.3c-.152.281-9.178,5.591-11.379,5.969a1.107,1.107,0,0,1-.659-.176c-.86-.762,3.1-6.385,4.878-7.124A8.538,8.538,0,0,0,2097.458,1737.5Z" transform="translate(-2071.662 -1649.412)"/><path class="aa" d="M2008.475,1700.024c.554-.419,1.7,2.686,2.011,3.36a1.352,1.352,0,0,1,.038,1.33c-.2.247-10.063,3.772-12.3,3.731a1.11,1.11,0,0,1-.614-.3c-.7-.91,4.241-5.691,6.126-6.084A8.535,8.535,0,0,0,2008.475,1700.024Z" transform="translate(-1997.546 -1618.789)"/><path class="s" d="M2223.463,1341.336h0a1.491,1.491,0,0,1-.4-.083,6.9,6.9,0,0,0-3.6.2c-1.523.642-3.883,6.646-3.742,12.807.057.942.114,1.785.162,2.373.385,4.655,1.72,13.388,1.792,13.435,1.816,1.169,12.777-3.364,13.53-4.359s1.2-13.094,1.564-13.7l.72-10.522C2232.221,1341.115,2225.412,1341.322,2223.463,1341.336Z" transform="translate(-2175.935 -1325.352)"/><path class="k" d="M2257.183,1312.573a28.064,28.064,0,0,0-.565,5.09c.141,1.44-.538,6.08-3.586,6.1s-.578-5.9-.291-7.31a53.913,53.913,0,0,0,.355-5.778Z" transform="translate(-2205.212 -1300.465)"/><path class="j" d="M2259.793,1312.861c.048-1.195.063-2.191.063-2.191l4.087,1.9s-.144.747-.29,1.7A3.569,3.569,0,0,1,2259.793,1312.861Z" transform="translate(-2211.973 -1300.465)"/><path class="k" d="M2258.488,1263.7a5.062,5.062,0,0,1,2.151,2.767c.576,1.894-.079,6.78-4.147,7.958s-5.83-2.69-4.992-5.715S2254.159,1261.858,2258.488,1263.7Z" transform="translate(-2205.024 -1261.668)"/><path class="k" d="M2249.568,1279.932c.08.812.528,1.433,1,1.387s.792-.743.713-1.555-.528-1.433-1-1.387S2249.489,1279.12,2249.568,1279.932Z" transform="translate(-2203.602 -1274.059)"/><path class="a" d="M2288.126,1264.512s.738,5.451,2.5,6.434,1.024,3.4,1.024,3.4,1.6-5.615.205-7.418A7.754,7.754,0,0,0,2288.126,1264.512Z" transform="translate(-2235.139 -1262.724)"/><path class="k" d="M2294.51,1300.374c-.478.71-.476,1.548,0,1.87s1.256.009,1.735-.7.476-1.547,0-1.871S2294.988,1299.664,2294.51,1300.374Z" transform="translate(-2240.067 -1291.37)"/><path class="o" d="M2263.505,1305.751l2.867.721a1.3,1.3,0,0,1-1.615.809C2263.209,1306.939,2263.505,1305.751,2263.505,1305.751Z" transform="translate(-2214.989 -1296.443)"/><path class="k" d="M2321.309,1414.185c-.051-.13-.165-.133-.282-.137a28.819,28.819,0,0,1-3.393-.254,2.449,2.449,0,0,1-.545-.139,1.422,1.422,0,0,0-.938-.035,1.9,1.9,0,0,1-.521.056c-.57,0-2.2-.556-3.033-.7a.491.491,0,0,1-.39-.365c-.822-3.253-2.586-10.55-2.815-12.95-.292-3.069-2.411-16.9-2.411-16.9l-5.67,1.581s2.333,10.213,2.979,15.165c.5,3.824,4.32,11.938,5.517,14.272a2.392,2.392,0,0,0,2.2,1.822.7.7,0,0,1,.449.24,3.178,3.178,0,0,0,.715.622,1.682,1.682,0,0,1,.489.486c.24.352.456.719.669,1.088.142.245.29.322.5.264a.446.446,0,0,0,.328-.5,2.248,2.248,0,0,0-.339-1.117.608.608,0,0,1,.045-.809,2.557,2.557,0,0,1,.426-.473.733.733,0,0,1,.58-.211,9.35,9.35,0,0,0,1.236.231l.343.07.187.04c.029.008.632.074.839.074.166,0,.435.011.663.022a3.685,3.685,0,0,0,.659-.1.8.8,0,0,0,.53-.212c.062-.055.121-.117.09-.211a.211.211,0,0,0-.184-.139,8.027,8.027,0,0,1-.833-.14c.209,0,.864-.015,1.073-.021a.983.983,0,0,0,.72-.317C2321.271,1414.4,2321.36,1414.316,2321.309,1414.185Z" transform="translate(-2245.918 -1359.404)"/><path class="s" d="M2290.431,1343.04c2.8-.509,5.107,12.012,5.107,12.012s-6.217,1.736-7.81.825c0,0-1.808-8.015-2.456-7.734Z" transform="translate(-2232.805 -1326.92)"/></g><path class="j" d="M2074.24,1438.518h15.642a1.02,1.02,0,0,1,.943.635l4.816,11.787h8.624a.437.437,0,0,1,.437.438h0a.437.437,0,0,1-.437.438h-24.543a1.713,1.713,0,0,1-1.563-1.015l-4.849-10.84A1.023,1.023,0,0,1,2074.24,1438.518Z" transform="translate(-1720.029 -1214.245)"/><path class="o" d="M2124.9,1471.039a.861.861,0,1,0,.645-1.126A.921.921,0,0,0,2124.9,1471.039Z" transform="translate(-1762.272 -1239.903)"/><rect class="r" width="57.637" height="3.083" transform="translate(40.103 163.049)"/><rect class="r" width="42.238" height="3.083" transform="translate(47.802 171.585)"/><rect class="r" width="48.235" height="3.083" transform="translate(44.803 180.175)"/></g></g></svg>