<svg xmlns="http://www.w3.org/2000/svg" width="394.332" height="332.504" viewBox="0 0 394.332 332.504"><defs><style>.a{fill:#599dad;}.b{fill:#86d1cd;}.c{fill:#6bb7bf;}.d{fill:#739af0;}.e{fill:#ddebfd;}.f{fill:#a8c3f7;}.g{fill:#f99746;}.h{fill:#ed7d2b;}.i{fill:#d39e7a;}.j{fill:#e0b594;}.k{fill:#163560;}.l{fill:#233862;}.m{fill:#f2c7aa;}.n{fill:#af7d5b;}.o{fill:#e2b291;}.p{fill:#ed975d;}.q{fill:#82b378;}.r{fill:#2b478b;}.s{fill:#ffb27d;}.t{fill:#a8d29f;}.u{fill:#1c468a;}.v{fill:#912f2f;}.w{fill:#c65447;}.x{fill:#4a75cb;}.y{fill:#699dee;}.z{fill:#ed985f;}.aa{fill:#2c3a64;}</style></defs><g transform="translate(-406.152 -256.328)"><g transform="translate(706.595 324.928)"><path class="a" d="M1919.907,592.022s-12.31-13.316-1.572-22.471c0,0,7.9-5.2,14.505-5.047,0,0-8.751,16.011-5.672,17.456s8.465-18.544,8.465-18.544,18.327-2.475,24.352.148c0,0-15.242,13.459-11.9,14.1s19.851-12.627,19.851-12.627,17.23,2.271,16.709,12.749-6.3,13.925-8.9,13.744-17.987-5.4-18.238-3.263,9.14,8.737,15.545,8.821c0,0-11.571,13.764-19.737,10.224s-9.079-9.6-14.166-11.7-9.354-1.93-7.2.322,11.287,4.176,14.337,9.127,5.743,8.266-2.6,7.329-22.065-6.5-22.918-13.435Z" transform="translate(-1901.234 -562.358)"/><g transform="translate(0 16.026)"><path class="a" d="M1963.158,633.849s-46.567-.046-56.337,13.638a33.656,33.656,0,0,1-8.772,13.343l-.978,3.01s7.739-8.8,10.6-9.421C1907.675,654.419,1902.547,638.114,1963.158,633.849Z" transform="translate(-1888.149 -633.849)"/><path class="a" d="M1867.166,749.841s-9.7,7.756-9.9,20.971l1.818.094s2.675-13.757,8.237-19.306S1867.166,749.841,1867.166,749.841Z" transform="translate(-1857.264 -722.86)"/></g></g><g transform="translate(674.716 256.328)"><path class="b" d="M1737.778,338.724s-27.667-6.242-21.95-27.558c0,0,5.57-13.7,14.214-19.365,0,0,2.922,28.389,8.171,27.519s-5.536-31.4-5.536-31.4,21.42-19.439,31.507-21.4c0,0-7.7,30.856-2.831,28.72s14.382-33.871,14.382-33.871,24.212-12.351,32.832,1.611,4.231,23.526.717,25.6-27.964,8.991-26.392,11.966,19.523,3.153,27.851-2.417c0,0-2.7,27.994-16.364,30.673s-20.215-4.324-28.627-2.515-13.764,5.807-8.995,6.8,18.245-4.627,26.564-.952,14.73,5.558,3.145,11.751-34.2,11.185-41.442,3.011Z" transform="translate(-1715.051 -256.328)"/><g transform="translate(21.877 14.872)"><path class="c" d="M1876.934,322.671s-60.04,41.231-60.494,67.525c0,0,3.51,10.661.53,24.969l1.408,4.744s2.17-18.2,5.308-21.539C1823.686,398.37,1802.621,381.908,1876.934,322.671Z" transform="translate(-1815.589 -322.671)"/><path class="c" d="M1814.026,721.956s-5.626,18.6,5.836,35.8l2.426-1.49s-8.751-20.1-6.506-32.178S1814.026,721.956,1814.026,721.956Z" transform="translate(-1812.645 -629.462)"/></g></g><g transform="translate(467.95 415.085)"><path class="b" d="M868.455,1046.947s27.668-6.242,21.949-27.558c0,0-5.57-13.7-14.214-19.365,0,0-2.921,28.389-8.17,27.519s5.536-31.4,5.536-31.4-21.42-19.439-31.508-21.4c0,0,7.7,30.855,2.831,28.72S830.5,969.592,830.5,969.592s-24.212-12.352-32.833,1.61-4.231,23.526-.717,25.6,27.964,8.991,26.392,11.966-19.522,3.153-27.85-2.417c0,0,2.7,27.994,16.364,30.673s20.215-4.324,28.627-2.515,13.764,5.808,8.995,6.8-18.245-4.627-26.564-.952-14.73,5.558-3.145,11.751,34.2,11.186,41.442,3.011Z" transform="translate(-792.658 -964.55)"/><g transform="translate(15.302 14.872)"><path class="c" d="M860.922,1030.9s60.04,41.231,60.494,67.524c0,0-3.509,10.661-.53,24.969l-1.408,4.745s-2.17-18.2-5.308-21.539C914.171,1106.594,935.235,1090.131,860.922,1030.9Z" transform="translate(-860.922 -1030.895)"/><path class="c" d="M1099.833,1430.178s5.625,18.6-5.836,35.8l-2.426-1.491s8.751-20.1,6.505-32.178S1099.833,1430.178,1099.833,1430.178Z" transform="translate(-1039.868 -1337.685)"/></g></g><g transform="translate(525.829 283.96)"><rect class="d" width="201.361" height="282.769" transform="translate(0 21.879)"/><g transform="translate(7.076 29.71)"><rect class="e" width="187.209" height="269.701"/><rect class="f" width="152.835" height="8.741" transform="translate(19.28 33.093)"/><rect class="f" width="152.835" height="4.01" transform="translate(19.28 86.441)"/><rect class="f" width="152.835" height="4.01" transform="translate(19.28 95.875)"/><rect class="f" width="152.835" height="4.01" transform="translate(19.28 105.31)"/><rect class="f" width="152.835" height="4.01" transform="translate(19.28 114.744)"/><rect class="f" width="152.835" height="4.01" transform="translate(19.28 124.178)"/><rect class="f" width="152.835" height="4.01" transform="translate(19.28 133.612)"/><g transform="translate(40.448 176.611)"><path class="f" d="M1286.45,1311.8a11.793,11.793,0,1,1-11.793-11.792A11.793,11.793,0,0,1,1286.45,1311.8Z" transform="translate(-1262.865 -1300.005)"/><path class="f" d="M1586.294,1327.049a.6.6,0,0,1-.1-.009.59.59,0,0,1-.482-.68c.11-.647,2.793-15.9,11.255-21.1a.916.916,0,0,1,1.153-.029c.743.635.177,2.255-2.37,8.365-1.015,2.435-2.218,5.321-2.715,7.076.9-1.181,2.25-3.2,3.321-4.813,3.347-5.024,4-5.843,4.652-5.843a.715.715,0,0,1,.6.309c.356.51.087,1.363-.839,3.867a28.377,28.377,0,0,0-1.054,3.219,17.269,17.269,0,0,0,1.612-1.907c1.159-1.509,1.748-2.23,2.44-2.122a.847.847,0,0,1,.667.594,3.423,3.423,0,0,1,.137.646,2.029,2.029,0,0,0,.921,1.7c1.469.828,5.7.78,17.528-4.15a.59.59,0,1,1,.454,1.089c-9.985,4.162-16.056,5.5-18.56,4.089a3.136,3.136,0,0,1-1.506-2.534c-.336.354-.8.963-1.145,1.408-1.279,1.667-2.121,2.669-2.979,2.6a.807.807,0,0,1-.625-.378c-.41-.646-.009-1.916,1-4.659.161-.439.348-.943.51-1.411-.818,1.119-1.93,2.789-2.832,4.141-3.749,5.628-4.427,6.444-5.183,6.238a.733.733,0,0,1-.527-.723c-.075-1.316,1.152-4.372,3.034-8.885a63.767,63.767,0,0,0,2.517-6.616c-7.7,5.17-10.279,19.879-10.3,20.03A.59.59,0,0,1,1586.294,1327.049Zm13.058-9.4Z" transform="translate(-1513.335 -1303.919)"/></g></g><path class="g" d="M1437.712,396.892h-23.743a12.775,12.775,0,1,0-23.9,0h-23.743a3.459,3.459,0,0,0-3.459,3.459v9.591a3.459,3.459,0,0,0,3.459,3.459h71.386a3.459,3.459,0,0,0,3.459-3.459v-9.591A3.459,3.459,0,0,0,1437.712,396.892Zm-35.693.2a4.717,4.717,0,1,1,4.717-4.717A4.717,4.717,0,0,1,1402.019,397.089Z" transform="translate(-1292.926 -379.596)"/><path class="h" d="M1378.3,485.238h71.386a3.459,3.459,0,0,0,3.459-3.459v-9.591Z" transform="translate(-1304.899 -451.432)"/></g><g transform="translate(406.152 387.918)"><g transform="translate(1.393 129.818)"><path class="i" d="M524.164,1492.24c4.759-4.862,13.142-8.208,22.826-8.6v-14.33H530.284c-.371,0-.7-.323-.911-.822a3.3,3.3,0,0,1-.234-1.255v-.725c0-1.142.516-2.076,1.146-2.076H546.99V1424.4a1.928,1.928,0,0,1,1.922-1.922h0a1.928,1.928,0,0,1,1.922,1.922v40.028h16.706c.63,0,1.146.934,1.146,2.076v.725a3.252,3.252,0,0,1-.249,1.289c-.21.479-.534.787-.9.787H550.834v14.33c9.684.394,18.067,3.74,22.826,8.6q.519.529.977,1.081H523.187C523.491,1492.953,523.818,1492.593,524.164,1492.24Z" transform="translate(-523.187 -1422.481)"/><path class="j" d="M629.374,1695.246a22.074,22.074,0,0,1,15.925,8.53q.385.53.723,1.081h4.76q-.34-.552-.723-1.081c-3.751-5.181-10.546-8.64-18.305-8.64Q630.546,1695.136,629.374,1695.246Z" transform="translate(-605.571 -1634.017)"/></g><path class="k" d="M864.323,1685.488s.582,9.388,2.4,9.523c.242.018,9.213.018,9.213.018l11.451-.067a3.715,3.715,0,0,0-3.422-3.343c-3.347-.583-8.95-2.936-10.978-7.36C870.852,1679.6,864.323,1685.488,864.323,1685.488Z" transform="translate(-786.46 -1494.371)"/><path class="l" d="M637.228,1307.27a69.808,69.808,0,0,0,5.474,7.833c6.023,7.6,12.58,13.874,13.723,19.8a26.811,26.811,0,0,0,1.059,3.793c.477,1.358,1.067,2.785,1.747,4.261a131.29,131.29,0,0,0,10.195,17.428c6.6,9.776,12,16.336,12,16.336s1.73,1.349,6.678,1.347c1.377,0,6.013-.754,6.013-.754-.456-1.14-5.927-14.119-12.565-30.615-2.7-6.7-5.562-13.819-8.328-20.688q-.552-1.376-1.1-2.736c-.845-2.1-1.677-4.171-2.49-6.186-6.233-15.489-11.2-27.823-11.2-27.823s-24.912-9.437-27.5-3.322C628.8,1290.986,630.537,1295.926,637.228,1307.27Z" transform="translate(-604.721 -1185.133)"/><rect class="i" width="37.729" height="104.414" transform="translate(74.9 96.244)"/><rect class="m" width="26.989" height="104.414" transform="translate(138.049 200.658) rotate(180)"/><rect class="n" width="38.981" height="2.105" transform="translate(72.341 94.139)"/><rect class="o" width="29.519" height="2.105" transform="translate(111.322 94.139)"/><path class="p" d="M830.05,1200.632s5.406,3.074,6.92,3.073,7.454-1.148,9.11-.3a19.366,19.366,0,0,1,5.216,5.363c1.012,2-4.071,1.116-6.474-.587a1.513,1.513,0,0,0-1.2-.248c-1.244.271-3.829.741-5.078.279-1.678-.621-10.519-1.311-10.519-1.311Z" transform="translate(-758.299 -1120.545)"/><path class="q" d="M653.567,994.607s5.6,39.832,14.884,43.4c4.579,1.76,24.816,5.751,30.8,6.151,0,0,1.467-1.189,1.109-6.031,0,0-21.2-7.784-24.214-12.017-4.483-6.3,2.783-25.738-2.842-31.655S658.207,985.995,653.567,994.607Z" transform="translate(-622.948 -956.389)"/><path class="k" d="M721.885,1576.293s-7.913,5.085-7.146,6.737c.1.22,4.475,8.052,4.475,8.052l5.641,9.967a3.715,3.715,0,0,0,1.25-4.618c-1.122-3.207-1.8-9.246,1.075-13.173C730.2,1579.126,721.885,1576.293,721.885,1576.293Z" transform="translate(-670.367 -1411.996)"/><path class="r" d="M660.569,1363.277s-5.57-5.174-6.442-8.374c0,0,20.378-24.417,24.8-29.889.2-.25.151-.527-.117-.829-3.337-3.763-40.416-11.413-45.262-18.953a23.372,23.372,0,0,1-3.131-7.219,17.071,17.071,0,0,1-.23-7.778l37.031-1.071s30.832,19.2,34.324,32.288S660.569,1363.277,660.569,1363.277Z" transform="translate(-604.555 -1189.231)"/><path class="l" d="M680.734,1330.026c-3.337-3.764-40.416-11.413-45.262-18.953a23.37,23.37,0,0,1-3.132-7.219v-4.686l15.739-2.476s4.464,13.734,17.682,18.884C678.142,1320.4,680.487,1328.959,680.734,1330.026Z" transform="translate(-606.479 -1195.071)"/><path class="s" d="M682.4,942.835c-7.492,1.936-19.91-5-19.91-5a18.383,18.383,0,0,0,6.609-10.36c.091-.359.172-.726.245-1.1l3.847-.815,5.722,5.126a49.238,49.238,0,0,1-.846,5.787q-.186.958-.431,2.054A17.643,17.643,0,0,1,682.4,942.835Z" transform="translate(-629.869 -907.126)"/><path class="t" d="M626.409,1006.123c1.073,14.432-.338,36.381.878,40.183,1.051,3.28,13.021,1.33,17.8.235,1.768-.4,3.91-.984,6.123-1.668,6.171-1.911,12.894-4.639,13.616-6.664a1.737,1.737,0,0,0,.067-.233,1.85,1.85,0,0,0-.013-.849c-.24-1.032-1.167-2.149-1.276-4.706-.122-2.854-.1-6.215-.211-9.83-.006-.407-.011-.851-.056-1.256l0-.148c0-.078,0-.154-.006-.231-.1-4.031-.315-8.268-.559-12.471-.155-2.639-.335-5.253-.542-7.758A103.723,103.723,0,0,0,660,984.876a25.448,25.448,0,0,0-8.176-12.621l-2.277-1.954a13.164,13.164,0,0,1-8.263-1.1c-2.941-1.4-3.956-2.4-4.469-2.02C630.027,972.422,625.141,988.48,626.409,1006.123Z" transform="translate(-601.722 -939.363)"/><path class="q" d="M676.963,1121.258c6.171-1.911,12.894-4.639,13.616-6.665a1.73,1.73,0,0,0,.067-.234q-.005-.424-.013-.849c-.24-1.032-1.167-2.149-1.276-4.705-.122-2.854-.1-6.215-.211-9.83-.006-.407-.011-.851-.056-1.256l0-.148c0-.078,0-.154-.006-.232l-24.947-31.783S647.366,1100.478,676.963,1121.258Z" transform="translate(-627.476 -1015.749)"/><path class="p" d="M701.786,930.677a49.271,49.271,0,0,1-.846,5.787c-5.588-1.806-8.122-6.853-8.968-8.994.091-.359.172-.726.245-1.1l3.847-.815Z" transform="translate(-652.744 -907.126)"/><path class="s" d="M701.342,887.815s-12.185-2.034-10.8-9.6.742-12.929,8.581-11.951,8.818,4.142,8.971,6.781S704.548,888.149,701.342,887.815Z" transform="translate(-651.548 -861.039)"/><path class="u" d="M858.125,1162.48l30.432,0,8.269-26.736,1.079.334-8.742,28.264H858.112Z" transform="translate(-781.642 -1070.198)"/><path class="s" d="M822.178,1238.944s9.973,2.63,13.713,2.354,6.85-2.054,7.321-2.983,1.459-2.576-1.087-2.272-6.023.845-6.13.356,2.076-.443,2.076-.443.66-.96-.171-.995-3.255-.692-4.155-.242-1.732,2.113-2.39,2.043-8.345-3.463-8.345-3.463Z" transform="translate(-753.763 -1145.89)"/><path class="t" d="M664.6,1006.649s1.179,40.207,10.009,44.776c4.357,2.255,24.031,8.451,29.936,9.51,0,0,1.589-1.02,1.768-5.872,0,0-20.215-10.074-22.742-14.614-3.761-6.755,5.6-25.274.665-31.775S670.162,998.6,664.6,1006.649Z" transform="translate(-631.509 -966.447)"/><path class="l" d="M683.082,863.7a5.765,5.765,0,0,1,1.463-4.085s-.558-2.6.472-3.033,1.245,1.76,1.717,1.416a10.519,10.519,0,0,0,3.476-4.378c.9-2.4,9.15.508,10.111.941s4.051-1.155,4.652-2.443a18.1,18.1,0,0,1-2.489-2.4c-.773-1.03-6.18-7.983-13.734-6.009s-8.584,5.579-8.155,8.669S679.988,862.665,683.082,863.7Z" transform="translate(-643.854 -843.358)"/><path class="v" d="M570.233,1328.726h0a84.865,84.865,0,0,1-33.321-6.815l-6.836-2.918a9.406,9.406,0,0,0-13.1,8.651v13.047a2.315,2.315,0,0,0,2.308,2.308h50.949a2.315,2.315,0,0,0,2.308-2.308v-9.657A2.315,2.315,0,0,0,570.233,1328.726Z" transform="translate(-516.975 -1211.779)"/></g><g transform="translate(616.292 488.311)"><path class="w" d="M1496.694,1317.815a122.382,122.382,0,0,1-29.071,1.621c-8-.628-12.682-3.1-13.166-5.917-.439-2.555,2.525-5.483,8.571-8.467h0c-5.794,2.86-8.6,6.081-8.2,8.4.442,2.578,5.112,4.4,12.813,5.008,7.9.62,18.138-.051,28.843-1.888s20.585-4.621,27.822-7.838c7.058-3.137,10.852-6.415,10.41-8.993-.469-2.73-5.507-5.358-13.15-6.858-8.69-1.706-18.943-1.133-29.044.6-18.964,3.255-26.391,6.809-32.688,10.745h0c6.324-3.953,13.492-8.435,32.524-11.7a83.233,83.233,0,0,1,29.266-.041c7.8,1.532,12.962,4.287,13.46,7.191.484,2.819-3.29,6.168-10.627,9.429A119.279,119.279,0,0,1,1496.694,1317.815Z" transform="translate(-1454.415 -1291.216)"/></g><g transform="translate(684.606 380.443)"><path class="s" d="M2174.256,1248.7s-.622,6.047-1.3,7.191-3.588,4.8-4.826,5.516.756-4.816.5-5.893-1.019,1.965-1.564,2.036-.405-2.666-.425-3.662,2.655-3.456,3.6-5.577S2174.256,1248.7,2174.256,1248.7Z" transform="translate(-2075.299 -1149.403)"/><path class="s" d="M1834.1,967.95l-1.39-2.622s.69-4.673-5.165-7.629a2.857,2.857,0,0,0-3.348.874c-1.113,1.608,2.12,1.317,1.947,4.067a5.057,5.057,0,0,0,2.949,5.26l1.5,1.74Z" transform="translate(-1809.442 -924.424)"/><path class="x" d="M1905.052,973.084s-5.028,24.679-32.7,32.742c-8.637,2.518-28.26-25.919-28.26-25.919s.69-2.621,5.012-2.019c0,0,19.106,12.649,21.512,14.023,2.135,1.219,16.171-15.673,22.569-18.4A16.332,16.332,0,0,1,1905.052,973.084Z" transform="translate(-1825.057 -935.827)"/><g transform="translate(0 32.403)"><rect class="w" width="5.168" height="25.997" transform="translate(5.582 5.108) rotate(-81.268)"/><path class="s" d="M1759.171,956.2l5.582,3.472.784-5.108Z" transform="translate(-1759.171 -954.565)"/><path class="s" d="M1902.21,974.324l-.247,1.615a1.82,1.82,0,0,1-2.075,1.522l-1.189-.182.784-5.108,1.293.2A1.714,1.714,0,0,1,1902.21,974.324Z" transform="translate(-1867.422 -968.224)"/></g><g transform="translate(50.74 93.114)"><path class="l" d="M2220.359,1663.164s3.433,3.133,2.763,5.359-3.767,3.71-4.186,6.43-2.093,4.2-3.6,4.2h-7.184s-1.11-1.915,1.569-2.492,3.689-3.774,3.522-6.741a52.345,52.345,0,0,1,.251-6.925l5.693-1.319Z" transform="translate(-2158.07 -1563.882)"/><path class="l" d="M2005.7,1694.893s.616,7.129-.891,7.871l-19.286-.04s0-2.226,3.1-2.721,8.54-2.308,9.46-6.347S2005.7,1694.893,2005.7,1694.893Z" transform="translate(-1985.523 -1587.509)"/><path class="r" d="M2002.9,1249.195s1.018,12.5,2.213,27.519c1.625,20.405,3.579,45.471,3.772,50.219.334,8.245,1.675,21.435,1.675,21.435s3.18,3.133,9.544,1.813a212.87,212.87,0,0,0,7.292-38.749c.025-.326.05-.656.075-.984,1.507-20.28,3.851-62.983,3.851-62.983Z" transform="translate(-1999.001 -1242.517)"/><path class="l" d="M2002.9,1249.195s1.018,12.5,2.213,27.519l22.284,34.718c.025-.326.05-.656.075-.984,1.507-20.28,3.851-62.983,3.851-62.983Z" transform="translate(-1999.001 -1242.517)"/><path class="r" d="M2023.619,1233.559s18.336,45.258,30.391,66.527,15.823,27.2,15.823,27.2,6.907-2.721,7.535-4.575c0,0-4.61-41.061-12.684-51.07-4.562-5.656-9.921-22.629-10.172-28.565s-1.633-17.683-1.633-17.683Z" transform="translate(-2015.079 -1225.398)"/></g><path class="s" d="M2063.546,898.637s-12.406,5.986-19.558,3.765a16.88,16.88,0,0,1,4.841-3.873c-.248-1.436-.44-2.682-.55-3.738a34.526,34.526,0,0,1-.3-3.819l4.786-3.765,4.539-3.6C2056.944,893.735,2063.546,898.637,2063.546,898.637Z" transform="translate(-1980.143 -867.108)"/><path class="y" d="M2034.634,1004.829c.027.758-1.6,1.625-2.31,1.95a50.679,50.679,0,0,1-15.872,4.5c-6.629.677-14.469-.813-17.164-.759a1.122,1.122,0,0,1-.743-.3c-.192-.135-.33-8.126-.192-18.174,0-.406,0-.813.027-1.219v-.135c.055-3.927.192-8.044.385-12.161.385-9.047,1.1-17.768,2.311-22.589a24.491,24.491,0,0,1,7.757-12.188l2.476-2.167a11.9,11.9,0,0,0,7.7-.92c2.861-1.382,5.941-2.871,6.437-2.492,3.741,2.736,6.272,8.884,7.62,16.739a87.046,87.046,0,0,1,1.128,14.9c0,1.95-.055,3.955-.166,5.932a187.06,187.06,0,0,0,.385,25.433C2034.524,1002.743,2034.607,1003.962,2034.634,1004.829Z" transform="translate(-1944.694 -909.397)"/><path class="x" d="M2084.562,1062.478c-43.442-.087-8.012-47.139-8.012-47.139l7.038-2.286a136.6,136.6,0,0,1,.816,15.916c0,2.084-.04,4.225-.12,6.337C2083.807,1046.765,2084.283,1056.72,2084.562,1062.478Z" transform="translate(-1994.841 -967.539)"/><path class="z" d="M2071.189,899.946s-3.136,5.715-9.105,7.313a34.566,34.566,0,0,1-.3-3.819l4.786-3.765Z" transform="translate(-1993.948 -879.576)"/><path class="s" d="M2044.053,849.008s11.835,1.936,12.946-5.339,3.386-11.926-4.123-13.469-9.4,1.015-10.375,3.354S2041,848.318,2044.053,849.008Z" transform="translate(-1978.401 -825.31)"/><path class="aa" d="M2048.063,814.031c.107-.123.355-.223.906-.253a2.235,2.235,0,0,0-1.03-.29,2.775,2.775,0,0,0-1.843-2.454,1.655,1.655,0,0,1,.8,1.194c-1.529-1.57-4.8-2.713-13.874-2-11.953.943-8.014,8.6-6.466,9.509s5.443-1.589,8.326-1.36,3.432,4.4,4.41,4.967.594-.439,1.917-1.037,1.449,1.595,1.067,3.021,1.436,3.307,1.436,3.307l1.837-1.979c1.838-1.979,3.57-10.361,2.734-12.148C2048.211,814.352,2048.138,814.192,2048.063,814.031Z" transform="translate(-1965.164 -810.013)"/><path class="y" d="M2099.775,938.111s7.488,3.546,11.079,9c5.568,8.455,12.024,39.272,12.143,42.125s-4.711,23-4.711,23-4.9-.323-6.163-2.8c0,0,.979-20.7.359-22.031s-20.427-27.767-18.2-33.408S2099.775,938.111,2099.775,938.111Z" transform="translate(-2019.027 -909.396)"/><path class="s" d="M1850.23,975.389s.407-1.608-.709-2.331-2.142-2.689-2.612-2.423c-.974.552.534,2.267.257,4.407C1847.07,975.791,1848.814,977.755,1850.23,975.389Z" transform="translate(-1826.984 -934.61)"/></g></g></svg>