<svg xmlns="http://www.w3.org/2000/svg" width="421.191" height="319.71" viewBox="0 0 421.191 319.71"><defs><style>.a{fill:#e1ecfd;opacity:0.4;}.b{fill:#202020;}.c{fill:#d39e7a;}.d{fill:#fff;}.e{fill:#184655;}.f{fill:#eac3a0;}.g{fill:#976e27;}.h{fill:#cb9d4c;}.i{fill:#f7cc7f;}.j{fill:#bb8f40;}.k{fill:#fcecdb;}.l{fill:#699dee;}.m{fill:#548ee2;}.n{fill:#f4d2b8;}.o{fill:#b5453c;}.p{fill:#568cdb;}.q{fill:#f99746;}.r{fill:#f9ddbf;}.s{fill:#fff0e3;}.t{fill:#ffb27d;}.u{fill:#f3a36c;}.v{fill:#07345a;}.w{fill:#adc8fe;}.x{fill:#8eb3ef;}.y{fill:#1d8efc;}.z{fill:#230124;}.aa{fill:#ed7d2b;}.ab{fill:#233862;}.ac{fill:#e8945b;}.ad{fill:#d7e6ff;}.ae{opacity:0.6;}.af{fill:#2e3552;}.ag{fill:#efcbab;}.ah{fill:#82b378;}.ai{fill:#a8d29f;}</style></defs><g transform="translate(-135 -162.225)"><path class="a" d="M584.808,481.249s27.813-44.707,13.677-166.162c-25.234-216.8-357-177.306-327.959-40.563,18.261,85.97-93.1,69.53-50.4,206.85Z" transform="translate(-60.798 0)"/><rect class="b" width="217.492" height="145.274" transform="translate(233.409 207.607)"/><g transform="translate(229.47 204.433)"><path d="M1112.923,533.068H887.461V381.446h225.462Zm-221.477-3.174h217.492V384.62H891.446Z" transform="translate(-887.461 -381.446)"/></g><path class="c" d="M2.237,0h227.9a2.237,2.237,0,0,1,2.237,2.237v0a2.237,2.237,0,0,1-2.237,2.237H2.237A2.237,2.237,0,0,1,0,2.237v0A2.237,2.237,0,0,1,2.237,0Z" transform="translate(226.167 351.459)"/><path class="d" d="M1.481,0H8.03A1.481,1.481,0,0,1,9.511,1.481v0A1.481,1.481,0,0,1,8.03,2.963H1.481A1.481,1.481,0,0,1,0,1.481v0A1.481,1.481,0,0,1,1.481,0Z" transform="translate(386.351 348.496)"/><rect class="d" width="5.509" height="2.963" rx="1.481" transform="translate(354.873 348.496)"/><rect class="d" width="9.593" height="2.963" rx="1.481" transform="translate(345.484 348.496)"/><g transform="translate(449.239 231.823)"><path d="M13.25,0h9.167A13.249,13.249,0,0,1,35.665,13.249v8.1A13.25,13.25,0,0,1,22.416,34.6H13.249A13.249,13.249,0,0,1,0,21.352v-8.1A13.25,13.25,0,0,1,13.25,0Z"/><path class="e" d="M12.1,0h8.372a12.1,12.1,0,0,1,12.1,12.1v7.4a12.1,12.1,0,0,1-12.1,12.1H12.1A12.1,12.1,0,0,1,0,19.5V12.1A12.1,12.1,0,0,1,12.1,0Z" transform="translate(1.545 1.499)"/><g transform="translate(4.211 3.918)"><g transform="translate(12.883)"><path class="f" d="M2298,544.793a.739.739,0,1,1,.739.739A.739.739,0,0,1,2298,544.793Z" transform="translate(-2297.998 -544.054)"/><path class="f" d="M2328.57,551.721a.739.739,0,1,1,.287,1A.739.739,0,0,1,2328.57,551.721Z" transform="translate(-2322.608 -549.938)"/><path class="f" d="M2354.067,573.894a.739.739,0,1,1-.221,1.021A.739.739,0,0,1,2354.067,573.894Z" transform="translate(-2342.998 -568.053)"/><path class="f" d="M2365.527,607.007a.739.739,0,1,1-.739.739A.739.739,0,0,1,2365.527,607.007Z" transform="translate(-2351.929 -594.886)"/><path class="f" d="M2356.627,643.954a.739.739,0,1,1-1.045,0A.739.739,0,0,1,2356.627,643.954Z" transform="translate(-2344.321 -624.545)"/><path class="f" d="M2332.532,668.112a.739.739,0,1,1-1.045,0A.739.739,0,0,1,2332.532,668.112Z" transform="translate(-2324.865 -644.052)"/><path class="f" d="M2298,678.374a.739.739,0,1,1,.739.739A.739.739,0,0,1,2298,678.374Z" transform="translate(-2297.998 -651.916)"/></g><g transform="translate(0 1.403)"><path class="f" d="M2268.781,551.721a.739.739,0,1,0-.287,1A.739.739,0,0,0,2268.781,551.721Z" transform="translate(-2260.405 -551.341)"/><path class="f" d="M2243.283,573.894a.739.739,0,1,0,.22,1.021A.739.739,0,0,0,2243.283,573.894Z" transform="translate(-2240.014 -569.456)"/><path class="f" d="M2231.824,607.007a.739.739,0,1,0,.739.739A.739.739,0,0,0,2231.824,607.007Z" transform="translate(-2231.085 -596.289)"/><path class="f" d="M2240.724,643.954a.739.739,0,1,0,1.045,0A.739.739,0,0,0,2240.724,643.954Z" transform="translate(-2238.694 -625.948)"/><path class="f" d="M2264.82,668.112a.739.739,0,1,0,1.045,0A.739.739,0,0,0,2264.82,668.112Z" transform="translate(-2258.15 -645.455)"/></g></g><g transform="translate(17.633 7.548)"><path class="f" d="M2300.8,607.746a.739.739,0,1,1,.739.739A.739.739,0,0,1,2300.8,607.746Z" transform="translate(-2300.801 -598.517)"/><g transform="translate(0.638)"><rect class="f" width="0.202" height="9.229"/></g><g transform="translate(0.459 5.138)"><rect class="f" width="6.22" height="0.605" transform="translate(0 3.841) rotate(-38.128)"/></g></g></g><path class="g" d="M478.838,1387.553v2.055c0,.72-.233,1.307-.517,1.307H403.337c-.284,0-.517-.587-.517-1.307v-2.055c0-.718.233-1.307.517-1.307h74.984C478.605,1386.246,478.838,1386.835,478.838,1387.553Z" transform="translate(-216.255 -988.353)"/><path class="h" d="M544.009,1387.553v2.055c0,.72-.214,1.307-.474,1.307H484.006c-.261,0-.475-.587-.475-1.307v-2.055c0-.718.214-1.307.475-1.307h59.529C543.8,1386.246,544.009,1386.835,544.009,1387.553Z" transform="translate(-281.426 -988.353)"/><rect class="h" width="53.234" height="77.591" transform="translate(190.371 402.562)"/><rect class="i" width="53.234" height="77.591" transform="translate(205.289 402.562)"/><g transform="translate(208.15 404.754)"><path class="j" d="M562.443,1493H514.93v-71.115h47.513Zm-47-.513H561.93v-70.089H515.443Z" transform="translate(-514.93 -1421.881)"/><g transform="translate(0.256 23.525)"><rect class="j" width="47" height="0.513"/></g><g transform="translate(0.256 47.509)"><rect class="j" width="47" height="0.513"/></g><path class="j" d="M623.527,1439.247h-8.721a.771.771,0,0,1-.769-.769h0a.772.772,0,0,1,.769-.77h8.721a.772.772,0,0,1,.77.77h0A.772.772,0,0,1,623.527,1439.247Z" transform="translate(-594.955 -1434.661)"/><path class="j" d="M623.527,1561.061h-8.721a.772.772,0,0,1-.769-.77h0a.772.772,0,0,1,.769-.77h8.721a.772.772,0,0,1,.77.77h0A.772.772,0,0,1,623.527,1561.061Z" transform="translate(-594.955 -1533.021)"/><path class="j" d="M623.527,1688.045h-8.721a.772.772,0,0,1-.769-.769h0a.772.772,0,0,1,.769-.77h8.721a.772.772,0,0,1,.77.77h0A.772.772,0,0,1,623.527,1688.045Z" transform="translate(-594.955 -1635.556)"/></g><g transform="translate(465.82 414.067)"><path class="h" d="M2289.939,1535.449h.092a.969.969,0,0,0,.969-.992l-1.469-63.7-4.33-.505,3.692,64.213A1.047,1.047,0,0,0,2289.939,1535.449Z" transform="translate(-2285.201 -1470.249)"/></g><g transform="translate(469.788 414.067)"><path class="h" d="M2420.974,1535.449h.092a.969.969,0,0,0,.969-.992l-1.47-63.7-4.33-.505,3.692,64.213A1.047,1.047,0,0,0,2420.974,1535.449Z" transform="translate(-2416.236 -1470.249)"/></g><g transform="translate(433.286 414.067)"><path class="h" d="M2074.806,1535.449h-.092a.969.969,0,0,1-.969-.992l1.47-63.7,4.329-.505-3.692,64.213A1.047,1.047,0,0,1,2074.806,1535.449Z" transform="translate(-2073.744 -1470.249)"/></g><path class="i" d="M2207.193,1210.955V1167.3a13.908,13.908,0,0,0-13.908-13.908h-31.45a13.908,13.908,0,0,0-13.908,13.908v45.32Z" transform="translate(-1729.799 -800.334)"/><path class="h" d="M6.891,0H64.9a0,0,0,0,1,0,0V6.891a0,0,0,0,1,0,0H0a0,0,0,0,1,0,0v0A6.891,6.891,0,0,1,6.891,0Z" transform="translate(477.394 417.513) rotate(180)"/><path class="h" d="M3.446,0H48.67a3.446,3.446,0,0,1,3.446,3.446v0A3.446,3.446,0,0,1,48.67,6.891H3.446A3.446,3.446,0,0,1,0,3.446v0A3.446,3.446,0,0,1,3.446,0Z" transform="translate(476.729 417.513) rotate(180)"/><g transform="translate(358.482 385.426)"><g transform="translate(142.936 3.885)"><path class="h" d="M2586.783,1432.961h.122a1.323,1.323,0,0,0,1.282-1.389l-1.944-89.193-5.726-.707,4.882,89.906A1.422,1.422,0,0,0,2586.783,1432.961Z" transform="translate(-2580.518 -1341.673)"/></g><g transform="translate(8.163 3.885)"><path class="h" d="M1881.933,1432.961h-.122a1.323,1.323,0,0,1-1.282-1.389l1.944-89.193,5.726-.707-4.882,89.906A1.422,1.422,0,0,1,1881.933,1432.961Z" transform="translate(-1880.529 -1341.673)"/></g><rect class="h" width="162.205" height="6.233" rx="3.116"/></g><g transform="translate(403.543 376.504)"><path class="k" d="M0,0H13.8A2.484,2.484,0,0,1,16.28,2.484v0a2.54,2.54,0,0,1-2.54,2.54H0a0,0,0,0,1,0,0V0A0,0,0,0,1,0,0Z" transform="translate(0.755 0)"/><path class="l" d="M1937.636,1277.223v.756a2.2,2.2,0,0,1-2.2,2.2h-26.657a.319.319,0,0,1-.319-.319v-.113a.319.319,0,0,1,.319-.319h16.25a2.055,2.055,0,0,0,.466-1.3v-.961a2,2,0,0,0-.443-1.257h-16.274a.32.32,0,0,1-.319-.32v-.113a.319.319,0,0,1,.319-.319h26.792a2.065,2.065,0,0,1,2.067,2.067Z" transform="translate(-1908.458 -1275.156)"/><path class="m" d="M1937.557,1276.654h-12.128a2.011,2.011,0,0,0-.377-.746h-16.274a.32.32,0,0,1-.319-.32v-.113a.319.319,0,0,1,.319-.319h26.792A2.067,2.067,0,0,1,1937.557,1276.654Z" transform="translate(-1908.458 -1275.156)"/><path class="n" d="M1912.382,1288.2l1.974.084-1.974.051Z" transform="translate(-1911.626 -1285.692)"/><path class="n" d="M1912.382,1292.3l4.7.084-4.7.051Z" transform="translate(-1911.626 -1288.998)"/><g transform="translate(2.133 5.014)"><path class="o" d="M1921.55,1305.105h15.144V1301.2h-15.267a1.893,1.893,0,0,0-1.893,1.893h0A2.015,2.015,0,0,0,1921.55,1305.105Z" transform="translate(-1919.534 -1301.197)"/><path class="k" d="M0,0H17.227A1.976,1.976,0,0,1,19.2,1.976v0a1.932,1.932,0,0,1-1.932,1.932H0a0,0,0,0,1,0,0V0A0,0,0,0,1,0,0Z" transform="translate(33.525 3.908) rotate(-180)"/><path class="o" d="M1986.718,1319.044h20.953a.292.292,0,0,0,.292-.292h0a.292.292,0,0,0-.292-.292h-20.953a.292.292,0,0,0-.292.292h0A.292.292,0,0,0,1986.718,1319.044Z" transform="translate(-1973.547 -1315.135)"/><path class="o" d="M1986.718,1301.781h20.953a.292.292,0,0,0,.292-.292h0a.292.292,0,0,0-.292-.292h-20.953a.292.292,0,0,0-.292.292h0A.292.292,0,0,0,1986.718,1301.781Z" transform="translate(-1973.547 -1301.197)"/><path class="n" d="M2083.9,1311.346l-2.328.066,2.328.039Z" transform="translate(-2050.37 -1309.392)"/><path class="n" d="M2070.43,1306.675l-5.539.066,5.539.04Z" transform="translate(-2036.905 -1305.62)"/><g transform="translate(28.044 1.107)"><path class="l" d="M2065.188,1306.948a.913.913,0,0,1,.316.444.65.65,0,0,1,.025.154c.013.367,0,1.2,0,1.2l.7-.415.7.415v-1.125a.893.893,0,0,0-.171-.555.265.265,0,0,0-.194-.115Z" transform="translate(-2065.188 -1306.948)"/><path class="p" d="M2065.188,1306.948a.913.913,0,0,1,.316.444l1.4.016s-.055-.4-.345-.46Z" transform="translate(-2065.188 -1306.948)"/></g></g></g><g transform="translate(402.09 372.749)"><g transform="translate(0)"><path class="q" d="M0,0H7.469A1.819,1.819,0,0,1,9.287,1.819v0A1.937,1.937,0,0,1,7.351,3.755H0a0,0,0,0,1,0,0V0A0,0,0,0,1,0,0Z" transform="translate(24.531)"/><path class="k" d="M0,0H25.441A1.856,1.856,0,0,1,27.3,1.856v0a1.9,1.9,0,0,1-1.9,1.9H0a0,0,0,0,1,0,0V0A0,0,0,0,1,0,0Z" transform="translate(1.266)"/><path class="q" d="M.281,0H30.335a.281.281,0,0,1,.281.281v0a.281.281,0,0,1-.281.281H.281A.281.281,0,0,1,0,.281v0A.281.281,0,0,1,.281,0Z" transform="translate(0 3.193)"/><rect class="q" width="30.615" height="0.562" rx="0.281"/></g></g><g transform="translate(474.431 318.728)"><g transform="translate(15.127)"><g transform="translate(2.682 1.51)"><path class="f" d="M2542.564,1045.557h-1.075v-18.512l11-28.064-19.638-15.217.658-.85,20.274,15.71-11.218,28.624Z" transform="translate(-2532.85 -982.915)"/></g><path class="f" d="M2519.383,979.372h0a1.1,1.1,0,0,1-.26-1.529l1.636-2.307a1.1,1.1,0,0,1,1.528-.26h0a1.1,1.1,0,0,1,.26,1.529l-1.635,2.307A1.1,1.1,0,0,1,2519.383,979.372Z" transform="translate(-2518.921 -975.074)"/><circle class="f" cx="1.423" cy="1.423" r="1.423" transform="translate(21.298 15.83)"/></g><g transform="translate(0 0.723)"><path class="q" d="M2458.38,998.37c-.052.057-.1.115-.156.168l-.01.012c-.05.056-.1.109-.152.161-1.469,1.274-6.337-1.01-11.047-5.222s-7.522-8.8-6.419-10.4c.046-.057.093-.113.144-.169l.011-.012c.047-.058.1-.116.15-.173a11.725,11.725,0,1,1,17.48,15.632Z" transform="translate(-2440.356 -978.83)"/><path class="r" d="M2458.223,1014.037l-.011.011c-.016.021-.032.041-.048.059a.943.943,0,0,1-.1.1c-1.468,1.274-6.337-1.008-11.046-5.222s-7.522-8.794-6.42-10.4a1.313,1.313,0,0,1,.091-.116.338.338,0,0,1,.054-.054l.011-.013c1-.946,3.714-.1,6.886,1.951a34.64,34.64,0,0,1,4.2,3.236,36.719,36.719,0,0,1,3,3C2457.688,1009.844,2459.129,1012.839,2458.223,1014.037Z" transform="translate(-2440.354 -994.327)"/><path class="s" d="M2482.444,1016.4a4.834,4.834,0,0,1-7.2-6.24,34.635,34.635,0,0,1,4.2,3.236A36.666,36.666,0,0,1,2482.444,1016.4Z" transform="translate(-2467.966 -1004.131)"/></g><g transform="translate(21.387 46.952)"><path class="f" d="M2.96,0H7.738a3.079,3.079,0,0,1,3.079,3.079v0a0,0,0,0,1,0,0H0a0,0,0,0,1,0,0V2.96A2.96,2.96,0,0,1,2.96,0Z" transform="translate(0 16.667)"/><rect class="f" width="2.272" height="17.201" transform="translate(4.457)"/></g></g><g transform="translate(258.761 240.064)"><path class="t" d="M1200.839,1095.578c-4.532,28.207-8.267,58.605-6.65,74.61,1.332,4.481,5.449,5.974,9.088,6.556l-2.5,2.728-7.043.4-9.4-3.7a37.925,37.925,0,0,0,.975-5.095c.5-3.763-1.245-12.364-1.245-12.364s-4.584-29.705-1.976-36.376a27.235,27.235,0,0,0,1.529-6.42v0c.768-6,.338-13.212-.168-20.224-.547-7.616-1.185-14.993-.464-20.318a384.893,384.893,0,0,0,3.324-45.324h18.443s5.226,14.846,2.79,27.575C1205.476,1068.447,1203.061,1081.749,1200.839,1095.578Z" transform="translate(-1146.308 -940.8)"/><path class="u" d="M1192.7,1368.111c.769-6,.338-13.213-.168-20.224l13.617-5.507,3.77,5.394C1209.338,1348.482,1199.206,1360.435,1192.7,1368.111Z" transform="translate(-1155.384 -1192.997)"/><path class="t" d="M1468.6,913.808a34.906,34.906,0,0,1,3.584-3.3c1.5-1.093,5.693-2.185,6.119-.352.19.816-1.285,2.619-2.347,3.262s-1.227,1.46-2.356,2.61-3.889,1.208-3.889,1.208Z" transform="translate(-1378.3 -843.197)"/><path class="v" d="M1100.786,618.869c-.879-1.695,19.17-7.8,19.488,8.928,0,0,37.557-.923,19.624-21.857-6.208-7.247-5.569-13.239-5.383-18.817s-3.867-21.791-17.768-20.158a10.351,10.351,0,0,0-8.184.876C1098.231,573.2,1075.085,625.037,1100.786,618.869Z" transform="translate(-1071.857 -566.506)"/><path class="w" d="M1285.141,817.207a36.647,36.647,0,0,0,3.739,5.655c2.9,3.638,7.384,7.842,13.008,8.671a13.959,13.959,0,0,0,7.728-1.255l.009,0c6.83-3.032,11.966-10,11.966-10a5.615,5.615,0,0,0-.766-5.51s-13.792,3.1-15.106,2.445-8.976-22.731-10.8-25.5-8.043-4.214-8.043-4.214Z" transform="translate(-1230.166 -744.941)"/><path class="x" d="M1302.742,940.558c2.905,3.638,7.384,7.842,13.008,8.671a13.956,13.956,0,0,0,7.728-1.255c-.267.035-7.089.878-9.807-3.986-2.774-4.963-5.773-12.844-9.893-10.217C1302,934.906,1302.078,937.723,1302.742,940.558Z" transform="translate(-1244.027 -862.638)"/><path class="t" d="M1015.694,1709.723h-6.355c-1.847,0-3.952-1.414-4.465-4.75s-4.311-5.155-5.132-7.883c-.564-1.875.768-3.214,2.031-4.244.577-.474,1.141-.881,1.5-1.244,1.293-1.3,2.512-6.94,2.512-6.94l6.7,3.526a15.627,15.627,0,0,0-1.336,11.407c.851,2.822,1.613,5.424,3.5,7.046a6.292,6.292,0,0,0,1.537.975C1019.115,1708.941,1015.694,1709.723,1015.694,1709.723Z" transform="translate(-999.609 -1469.377)"/><path class="y" d="M1107.767,797.848a94.127,94.127,0,0,0,0,10.929c.234,3.952,4.231,9.245,4.8,10.554,1.423,3.284,3.028,3.818,3.028,3.818l12.415,3.043,4.365,1.068,13.766-4.111s6.27-17.5,3.752-27.352a75.722,75.722,0,0,0-6.364-16.693s-15.827-4.116-28.088-.536Z" transform="translate(-1086.816 -736.557)"/><path class="t" d="M1055.072,1026.76s-10.4,13.953-11.368,23.384,8.226,35.538,6.16,44.733c-1.533,6.824-9.7,12.238-11.961,29.443-.784,5.976-3.612,17.93-6.221,29.111l5.761,5.655c13.724-31.277,27.915-50.968,28.752-57.883.593-4.894,3.376-30.641,14.631-49.646,2.7-4.563-1.658-22.708-1.658-22.708Z" transform="translate(-1025.507 -938.145)"/><path class="z" d="M1134.864,1061.536c-1.529,18.631-3.328,34.323-3.328,34.323a45.933,45.933,0,0,1-20.98,6.6l0,0h0a40.683,40.683,0,0,1-18.62-3.221s-2.529-44.992-.921-52.159,8.742-17.028,8.742-17.028l32.077,1.239S1136.393,1042.9,1134.864,1061.536Z" transform="translate(-1072.98 -940.802)"/><path class="aa" d="M1176.954,1013.032s-2.737,2.165-8.173,2.274c-6.494.131-22.585-1.656-22.585-1.656a13.312,13.312,0,0,0-.686,4.107s19.653,4.957,31.04.724A7.2,7.2,0,0,0,1176.954,1013.032Z" transform="translate(-1117.418 -927.06)"/><g transform="translate(49.958 87.135)"><path class="d" d="M1259.082,1022.426a2.986,2.986,0,1,1,2.963,3.354A3.18,3.18,0,0,1,1259.082,1022.426Zm.982,0a2.013,2.013,0,1,0,1.981-2.372A2.205,2.205,0,0,0,1260.064,1022.426Z" transform="translate(-1259.082 -1019.072)"/></g><rect class="ab" width="26.698" height="36.546" transform="matrix(-0.754, -0.657, 0.657, -0.754, 27.756, 107.344)"/><path class="t" d="M1166.8,1033.3s7.377.863,7.354,2.614-1.838,5.349-2.75,5.509-6-4.865-6-4.865Z" transform="translate(-1133.476 -943.428)"/><path class="w" d="M1056.832,782.645s-9.85.69-13.625,9.869-10.939,24.588-10.939,27.181,4,10.584,25.492,15.179c0,0,2.223-2.338,2.088-4.187,0,0-13.415-11.523-13.379-12.869.068-2.547,2.2-5.91,13.977-17.692C1063.648,796.922,1056.832,782.645,1056.832,782.645Z" transform="translate(-1025.98 -741.03)"/><g transform="translate(85.728 9.06)"><path class="r" d="M1448.013,701.4l29.516-86.755c.136-.4.317-.773-.076-.916l-.358-.13c-.4-.146-.521.113-.667.516l-31.463,85.508a1.655,1.655,0,0,0,.882,2.078l.729.324A1.063,1.063,0,0,0,1448.013,701.4Z" transform="translate(-1444.865 -613.56)"/></g><path class="t" d="M1479.906,925.9a14.1,14.1,0,0,0,2.76-.415c1.116-.292,2.549-.812,2.549-.812.844.613-2.084,2.287-2.832,3.431-.61.933-1.3,1.2-2.986,1.565Z" transform="translate(-1387.021 -855.71)"/><path class="ab" d="M1203.664,1793.714c4.1-.509,3.02.539,8.772.574s7.719-1.882,7.991-2.706c.242-.731-2.533-1.323-5.5-2.021l-.106.075a15.839,15.839,0,0,1-8.356,1.558c-3.863-.356-7.815-1.937-10.48-2.2a10.066,10.066,0,0,0-.251,2.671C1195.94,1794.224,1199.56,1794.223,1203.664,1793.714Z" transform="translate(-1157.956 -1553.617)"/><path class="ab" d="M1015.694,1744.047h-6.355c-1.847,0-3.952-1.414-4.465-4.75s-4.311-5.155-5.132-7.883c-.564-1.875.768-3.214,2.031-4.244a33.035,33.035,0,0,1,3.685,8.474c1.727,5.626,5.868,5.787,9.189,5.32a6.292,6.292,0,0,0,1.537.975C1019.115,1743.265,1015.694,1744.047,1015.694,1744.047Z" transform="translate(-999.609 -1503.7)"/><path class="t" d="M1167.8,722.274a5.937,5.937,0,0,0,4.335-3.771,30.253,30.253,0,0,0,1.471-10.036l.623.123,10.48,2.075s-.239,3.3-.246,6.405c0,.026,0,.052,0,.077a6.028,6.028,0,0,0,4.35,5.828c1.324.382-6.312,10.436-7.186,10.238C1179.808,732.8,1167.164,722.415,1167.8,722.274Z" transform="translate(-1135.396 -681.135)"/><path class="ac" d="M1211.768,711.181s-.238,3.3-.246,6.405c-5.864-.165-8.964-5.515-10.235-8.48Z" transform="translate(-1162.458 -681.65)"/><path class="t" d="M1207.008,636.973s-13.875.229-13.885-8.414-1.807-14.435,7.052-14.946,10.584,2.785,11.289,5.669S1210.617,636.69,1207.008,636.973Z" transform="translate(-1155.739 -604.5)"/><path class="ab" d="M1187.783,605.367s-3.8,10.14-9.63,11.639-8.36-.063-8.36-.063a16.51,16.51,0,0,0,5.4-9.754S1184.917,600.541,1187.783,605.367Z" transform="translate(-1137.027 -596.467)"/><path class="ab" d="M1258.335,610.076a8.607,8.607,0,0,1,3.977,3.108,13.969,13.969,0,0,1,1.876,7.935s2.862-6.892-.354-10.791C1260.422,606.193,1258.335,610.076,1258.335,610.076Z" transform="translate(-1208.521 -600.352)"/><path class="d" d="M1251.814,705.786s.24,1.019,2.774.861c0,0,2.127-.132,2.062-1.251A6.844,6.844,0,0,0,1251.814,705.786Z" transform="translate(-1203.255 -678.444)"/><path class="ad" d="M1177.042,777.773s-9.385-10.025-9.737-14.123a13.659,13.659,0,0,0-5.208,3.4s2.255,5.651,4.948,7.514a17.108,17.108,0,0,0,3.5-.911,29.86,29.86,0,0,1-1.757,2.6S1173.045,778.664,1177.042,777.773Z" transform="translate(-1130.812 -725.693)"/><path class="ad" d="M1243,765.641s3.7,6.765-3.289,13.739c0,0,4.387-.839,6.641-3.933a6.376,6.376,0,0,0-1.293-2.045,2.237,2.237,0,0,1,2.145.245s.5-3.628,0-4.733S1244.092,765.605,1243,765.641Z" transform="translate(-1193.487 -727.3)"/><path class="ab" d="M1236.085,834.068a.7.7,0,1,1,.7.7A.7.7,0,0,1,1236.085,834.068Z" transform="translate(-1190.555 -781.988)"/><path class="ab" d="M1255.45,885.541a.7.7,0,1,1,.7.7A.7.7,0,0,1,1255.45,885.541Z" transform="translate(-1206.192 -823.551)"/><path class="ab" d="M1259.082,945.906a.7.7,0,1,1,.7.7A.7.7,0,0,1,1259.082,945.906Z" transform="translate(-1209.124 -872.293)"/><path class="z" d="M1219.078,1193.58c-1.529,18.631-3.329,34.323-3.329,34.323a45.931,45.931,0,0,1-20.98,6.6,34.006,34.006,0,0,0,12.383-8.834C1212.409,1219.516,1219.078,1193.58,1219.078,1193.58Z" transform="translate(-1157.195 -1072.846)"/></g><g class="ae" transform="translate(365.17 222.586)"><path class="d" d="M1720.458,476.1h1.139l3.078,7.046h-1.3l-.71-1.689h-3.308l-.72,1.689h-1.259Zm1.759,4.268-1.209-2.8-1.2,2.8Z" transform="translate(-1708.185 -476.025)"/><path class="d" d="M1793.427,476.354h3.138a2.526,2.526,0,0,1,1.829.62,1.581,1.581,0,0,1,.47,1.179,1.666,1.666,0,0,1-1,1.559,1.721,1.721,0,0,1,1.389,1.719c0,1.249-1.029,1.919-2.588,1.919h-3.238Zm2.888,2.948c.79,0,1.319-.31,1.319-.969,0-.55-.44-.89-1.229-.89h-1.769V479.3Zm.36,2.958c.839,0,1.349-.33,1.349-.979,0-.59-.47-.94-1.439-.94h-1.949v1.919Z" transform="translate(-1769.591 -476.234)"/><path class="d" d="M1861.22,479.349a3.54,3.54,0,0,1,3.608-3.618,3.646,3.646,0,0,1,2.738,1.09l-.79.909a2.783,2.783,0,0,0-1.959-.87,2.5,2.5,0,0,0,0,4.977,2.743,2.743,0,0,0,2.009-.909l.789.8a3.609,3.609,0,0,1-2.839,1.24A3.524,3.524,0,0,1,1861.22,479.349Z" transform="translate(-1824.331 -475.731)"/><path class="d" d="M1687.869,557.921h2.609a3.5,3.5,0,1,1,0,7h-2.609Zm2.609,5.877a2.379,2.379,0,1,0,0-4.758H1689.1V563.8Z" transform="translate(-1684.356 -542.096)"/><path class="d" d="M1760.387,557.921h5.187v1.1h-3.958v1.819h3.508v1.1h-3.508v1.879h4.008v1.1h-5.237Z" transform="translate(-1742.912 -542.096)"/><path class="d" d="M1827.09,557.921h5.207v1.119h-3.978v1.909h3.528v1.119h-3.528v2.849h-1.229Z" transform="translate(-1796.772 -542.096)"/><path class="d" d="M1891.457,560.917a3.564,3.564,0,0,1,3.608-3.618,3.778,3.778,0,0,1,2.688.949l-.78.93a2.739,2.739,0,0,0-1.958-.75,2.372,2.372,0,0,0-2.269,2.489,2.337,2.337,0,0,0,2.379,2.5,2.855,2.855,0,0,0,1.689-.53v-1.309h-1.789v-1.069H1898v2.938a4.462,4.462,0,0,1-2.918,1.089A3.477,3.477,0,0,1,1891.457,560.917Z" transform="translate(-1848.746 -541.594)"/><path class="d" d="M1669.624,639.489h1.229V642.4h3.338v-2.908h1.229v7h-1.229v-2.948h-3.338v2.948h-1.229Z" transform="translate(-1669.624 -607.96)"/><path class="d" d="M1741.362,639.489h1.229v7h-1.229Z" transform="translate(-1727.55 -607.96)"/><path class="d" d="M1785.8,645.456l.809-.83a1.74,1.74,0,0,0,1.409.82c.66,0,1.109-.44,1.109-1.369v-4.588h1.259v4.618a2.537,2.537,0,0,1-.65,1.859,2.336,2.336,0,0,1-1.7.62A2.635,2.635,0,0,1,1785.8,645.456Z" transform="translate(-1763.429 -607.96)"/><path class="d" d="M1850.319,639.489h1.229v3.518l3.328-3.518h1.51l-2.909,3.008,3.039,3.988h-1.489l-2.389-3.148-1.089,1.119v2.029h-1.229Z" transform="translate(-1815.529 -607.96)"/><path class="d" d="M1919.877,639.489h1.229v5.877h3.678v1.119h-4.907Z" transform="translate(-1871.694 -607.96)"/><path class="d" d="M1680.5,721.056h1.309l2.129,3.308,2.129-3.308h1.31v7h-1.23v-5.018l-2.209,3.3h-.04l-2.189-3.278v5H1680.5Z" transform="translate(-1678.405 -673.822)"/><path class="d" d="M1757.479,721.056h1.139l3.748,4.838v-4.838h1.209v7h-1.03l-3.858-4.977v4.977h-1.209Z" transform="translate(-1740.564 -673.822)"/><path class="d" d="M1828.8,724.052a3.658,3.658,0,1,1,3.648,3.618A3.585,3.585,0,0,1,1828.8,724.052Zm6.027,0a2.4,2.4,0,0,0-2.378-2.489,2.369,2.369,0,0,0-2.359,2.489,2.4,2.4,0,0,0,2.379,2.489A2.369,2.369,0,0,0,1834.83,724.052Z" transform="translate(-1798.155 -673.32)"/><path class="d" d="M1906.459,721.056h2.759a2.357,2.357,0,0,1,2.659,2.359c0,1.569-1.259,2.389-2.8,2.389h-1.389v2.249h-1.229Zm2.659,3.638c.929,0,1.509-.52,1.509-1.269,0-.819-.59-1.249-1.509-1.249h-1.429v2.519Z" transform="translate(-1860.86 -673.822)"/><path class="d" d="M1692.842,808.577a3.616,3.616,0,0,1-2.129.66,3.624,3.624,0,1,1,2.958-1.469l.8.68-.79.879Zm-.91-.81-1.2-1.019.79-.9,1.209,1.1a2.523,2.523,0,0,0-2.019-3.818,2.369,2.369,0,0,0-2.359,2.489,2.4,2.4,0,0,0,2.379,2.489A2.223,2.223,0,0,0,1691.932,807.768Z" transform="translate(-1683.707 -739.182)"/><path class="d" d="M1764.721,802.623h3.118c1.639,0,2.6.88,2.6,2.229a2.1,2.1,0,0,1-1.669,2.119l1.889,2.648h-1.45l-1.739-2.439h-1.519v2.439h-1.229Zm3.028,3.468c.88,0,1.439-.46,1.439-1.189,0-.75-.54-1.159-1.449-1.159h-1.789v2.349Z" transform="translate(-1746.411 -739.685)"/><path class="d" d="M1831.736,808.182l.74-.88a3.222,3.222,0,0,0,2.209.91c.76,0,1.239-.35,1.239-.9,0-.5-.28-.77-1.579-1.08-1.489-.35-2.328-.789-2.328-2.1a2.14,2.14,0,0,1,2.388-2.029,3.877,3.877,0,0,1,2.539.88l-.66.93a3.175,3.175,0,0,0-1.9-.72c-.719,0-1.139.37-1.139.849,0,.54.32.78,1.659,1.1,1.479.36,2.249.889,2.249,2.069,0,1.309-1.03,2.089-2.5,2.089A4.309,4.309,0,0,1,1831.736,808.182Z" transform="translate(-1800.524 -739.266)"/><path class="d" d="M1898.945,803.763h-2.219v-1.14h5.677v1.14h-2.219v5.857h-1.239Z" transform="translate(-1853.001 -739.685)"/><path class="d" d="M1710.241,888.219v-4.028h1.229v3.978c0,1.3.67,2,1.769,2s1.759-.659,1.759-1.949v-4.028h1.229v3.968a2.794,2.794,0,0,1-3.008,3.138A2.758,2.758,0,0,1,1710.241,888.219Z" transform="translate(-1702.421 -805.548)"/><path class="d" d="M1778.917,884.191h1.359l2.109,5.377,2.1-5.377h1.329l-2.908,7.046h-1.08Z" transform="translate(-1757.874 -805.548)"/><path class="d" d="M1850.086,884.107h1.329l1.669,5.187,1.719-5.207h1.04l1.719,5.207,1.669-5.187h1.289l-2.439,7.046h-1.06l-1.719-5.027-1.719,5.027h-1.059Z" transform="translate(-1815.341 -805.464)"/><path class="d" d="M1722.966,969.2l-2.449-3.438h1.449l1.739,2.509,1.749-2.509h1.409l-2.439,3.418,2.539,3.578h-1.449l-1.839-2.649-1.849,2.649h-1.409Z" transform="translate(-1710.637 -871.41)"/><path class="d" d="M1791.975,970l-2.778-4.238h1.449l1.959,3.1,1.979-3.1h1.409l-2.778,4.208v2.788h-1.24Z" transform="translate(-1766.174 -871.41)"/><path class="d" d="M1860.727,971.845l4.128-5h-4v-1.089h5.6v.91l-4.128,5h4.128v1.089h-5.727Z" transform="translate(-1823.933 -871.41)"/></g><path class="af" d="M.749,0H420.442a.749.749,0,0,1,.749.749v0a.749.749,0,0,1-.749.749H.749A.749.749,0,0,1,0,.749v0A.749.749,0,0,1,.749,0Z" transform="translate(556.191 481.935) rotate(180)"/><g transform="translate(471.644 359.468)"><g transform="translate(0.297 3.014)"><rect class="o" width="1.258" height="14.83" transform="translate(0 2.678) rotate(-9.131)"/><path class="r" d="M2427.633,1202.329l-.207,2.678,1.242-.2Z" transform="translate(-2427.425 -1202.329)"/></g><g transform="translate(11.054 4.277)"><rect class="o" width="1.258" height="14.83" transform="translate(2.708 2.452) rotate(10.523)"/><path class="ag" d="M2498.457,1208.886l-1.1,2.452,1.237.23Z" transform="translate(-2494.653 -1208.886)"/></g><g transform="translate(9.485)"><rect class="o" width="1.258" height="14.83" transform="translate(2.708 2.452) rotate(10.523)"/><path class="ag" d="M2490.311,1186.674l-1.1,2.452,1.237.23Z" transform="translate(-2486.506 -1186.674)"/></g><g transform="translate(0 11.674)"><rect class="aa" width="9.911" height="14.284" transform="translate(4.956)"/><rect class="q" width="9.911" height="14.284"/></g></g><g transform="translate(187.998 327.727)"><g transform="translate(5.845 27.888)"><path class="ah" d="M467.641,1178.479s4.887-5.7.3-9.322c0,0-3.349-2.028-6.081-1.863,0,0,3.87,6.489,2.618,7.135s-3.791-7.542-3.791-7.542-7.622-.739-10.074.44c0,0,6.516,5.332,5.144,5.649s-8.41-4.916-8.41-4.916-7.094,1.207-6.716,5.535,2.823,5.664,3.9,5.549,7.359-2.514,7.5-1.634-3.646,3.757-6.3,3.892c0,0,5,5.516,8.325,3.924s3.608-4.115,5.68-5.062,3.841-.944,2.985.021-4.605,1.9-5.79,4-2.248,3.51,1.191,2.992,9.029-3.034,9.274-5.915Z" transform="translate(-440.617 -1166.658)"/><g transform="translate(3.5 7.02)"><path class="ah" d="M458.8,1203.152s19.268-.743,23.523,4.768a13.938,13.938,0,0,0,3.837,5.385l.452,1.23s-3.339-3.52-4.534-3.733C482.075,1210.8,483.943,1203.974,458.8,1203.152Z" transform="translate(-458.797 -1203.118)"/><path class="ah" d="M596.337,1253.99a12.1,12.1,0,0,1,4.423,8.524l-.751.067s-1.321-5.651-3.708-7.861S596.337,1253.99,596.337,1253.99Z" transform="translate(-568.978 -1243.804)"/></g></g><g transform="translate(44.843 12.409)"><path class="ai" d="M648.281,1106.393s-7.774-4.353-4.146-10.261c0,0,2.9-3.628,6.012-4.56,0,0-1.658,8.81,0,9.017s1.14-9.95,1.14-9.95,8.188-3.939,11.4-3.628c0,0-5.079,8.6-3.42,8.4s7.359-8.914,7.359-8.914,8.4-1.555,9.743,3.421-.829,7.462-2.073,7.774-9.225.207-9.017,1.244,5.6,2.695,8.6,1.762c0,0-3.317,8.188-7.67,7.774s-5.7-3.109-8.4-3.317-4.664.518-3.317,1.244,5.908.238,8.085,2.088,3.939,2.991-.1,3.82-11.3.311-12.749-2.8Z" transform="translate(-643.17 -1086.263)"/><g transform="translate(1.005 5.205)"><path class="ah" d="M685.273,1113.3s-21.766,7.048-24.254,14.925a16.535,16.535,0,0,1-2.073,7.566v1.555s2.28-5.286,3.524-6.011C662.47,1131.332,657.6,1124.491,685.273,1113.3Z" transform="translate(-656.913 -1113.297)"/><path class="ah" d="M650.422,1226.057a14.355,14.355,0,0,0-1.443,11.3l.863-.232s-.838-6.834.918-10.271S650.422,1226.057,650.422,1226.057Z" transform="translate(-648.389 -1203.566)"/></g></g><g transform="translate(0)"><path class="ai" d="M447.848,1048.349s10.247-5.738,5.465-13.526c0,0-3.826-4.782-7.925-6.012,0,0,2.186,11.614,0,11.887s-1.5-13.116-1.5-13.116-10.794-5.192-15.029-4.782c0,0,6.695,11.34,4.509,11.067s-9.7-11.75-9.7-11.75-11.067-2.05-12.843,4.509,1.093,9.837,2.733,10.247,12.16.273,11.887,1.64-7.378,3.552-11.34,2.323c0,0,4.372,10.794,10.11,10.247s7.515-4.1,11.067-4.372,6.148.683,4.372,1.64-7.788.313-10.657,2.753-5.192,3.942.137,5.035,14.892.41,16.805-3.689Z" transform="translate(-410.262 -1021.813)"/><g transform="translate(5.616 6.861)"><path class="ah" d="M439.428,1057.449s28.692,9.291,31.971,19.674a21.8,21.8,0,0,0,2.732,9.974v2.049s-3.006-6.968-4.645-7.924C469.486,1081.223,475.908,1072.205,439.428,1057.449Z" transform="translate(-439.428 -1057.449)"/><path class="ah" d="M613.923,1206.088a18.923,18.923,0,0,1,1.9,14.9l-1.138-.306s1.1-9.008-1.21-13.54S613.923,1206.088,613.923,1206.088Z" transform="translate(-579.219 -1176.44)"/></g></g><path class="aa" d="M503.022,1276.686a20.072,20.072,0,1,0,40.144,0Z" transform="translate(-485.162 -1227.614)"/><path class="q" d="M571.644,1276.686c0,7.521,1.8,15.18,7.923,18.618,1.018.571,4.425-.047,5.542.342a20.08,20.08,0,0,0,13.467-18.959Z" transform="translate(-540.572 -1227.614)"/><path class="aa" d="M501.581,1375.859h40.7a2.477,2.477,0,0,0-2.477-2.477H504.057A2.476,2.476,0,0,0,501.581,1375.859Z" transform="translate(-483.999 -1305.693)"/><path class="q" d="M600.623,1375.859h21.63a2.477,2.477,0,0,0-2.477-2.477H603.1A2.477,2.477,0,0,0,600.623,1375.859Z" transform="translate(-563.972 -1305.693)"/><rect class="o" width="41.261" height="0.616" transform="translate(58.664 49.688) rotate(180)"/></g></g></svg>