<svg xmlns="http://www.w3.org/2000/svg" width="30.505" height="30.117" viewBox="0 0 30.505 30.117"><defs><style>.a{fill:#fff;}</style></defs><path class="a" d="M13.734,22.984a.75.75,0,1,1,0-1.5H14.5v-.769a.75.75,0,0,1,1.5,0v.769h.769a.75.75,0,1,1,0,1.5H16v.769a.75.75,0,0,1-1.5,0v-.769ZM30.5,31.954a.75.75,0,0,1-.75.75H.75a.75.75,0,0,1,0-1.5H3.625V20.49a.75.75,0,0,1,.75-.75H11.74a4.306,4.306,0,0,1,7.024,0h4.2V18.034H18.812a.75.75,0,0,1-.75-.75V10.749a.75.75,0,0,1,.75-.75h9.814a.75.75,0,0,1,.75.75v6.535a.75.75,0,0,1-.75.75H24.468V19.74h1.661a.75.75,0,0,1,.75.75V31.2h2.876A.75.75,0,0,1,30.5,31.954ZM27.876,16.535V11.5H19.561v5.036Zm-15.433,5.7a2.81,2.81,0,1,0,2.809-2.81A2.813,2.813,0,0,0,12.443,22.234Zm12.937-.995H19.445a4.309,4.309,0,1,1-8.387,0H5.125V31.2H25.38V21.239ZM.71,22.3a.749.749,0,0,0,1.007-.332l2.23-4.419c.706-1.4,1.5-1.968,2.747-1.968H8.4c1.246,0,2.042.57,2.748,1.968a.75.75,0,1,0,1.339-.676A4.4,4.4,0,0,0,8.4,14.086h-1.7a4.4,4.4,0,0,0-4.086,2.792L.379,21.3A.75.75,0,0,0,.71,22.3ZM1.2,10.491a6.49,6.49,0,1,1,12.669,0,.75.75,0,0,1-.732.587H10.768a3.8,3.8,0,0,1-6.459,0H1.936A.75.75,0,0,1,1.2,10.491Zm8.121.034A3.808,3.808,0,0,1,6.434,7.059a2.3,2.3,0,0,0-1.2,2.018v0a2.3,2.3,0,0,0,4.087,1.444Zm.514-1.448A2.3,2.3,0,0,0,7.927,6.809c0,.008,0,.016,0,.024A2.3,2.3,0,0,0,9.839,9.1c0-.007,0-.014,0-.02Zm-7.291,0a5.014,5.014,0,0,0,.025.5h1.2a3.861,3.861,0,0,1-.033-.5h0V9.077a3.806,3.806,0,0,1,3.47-3.786l.024,0q.152-.012.307-.012a3.8,3.8,0,0,1,3.8,3.8v.005h0a3.833,3.833,0,0,1-.033.5h1.2q.025-.25.025-.5a4.99,4.99,0,1,0-9.98,0Z" transform="translate(0 -2.587)"/></svg>