<svg xmlns="http://www.w3.org/2000/svg" width="29.726" height="29.726" viewBox="0 0 29.726 29.726"><defs><style>.a{fill:#fff;}</style></defs><path class="a" d="M20.93,0H.871A.871.871,0,0,0,0,.871V28.8a.871.871,0,0,0,.871.871H20.93A.871.871,0,0,0,21.8,28.8V.871A.871.871,0,0,0,20.93,0ZM20.06,27.925H1.742V1.742H20.06Z"/><path class="a" d="M65.053,87.5h3.836a.871.871,0,0,0,.871-.871V82.8a.871.871,0,0,0-.871-.871H65.053a.871.871,0,0,0-.871.871v3.826A.871.871,0,0,0,65.053,87.5Zm.871-3.826h2.094v2.084H65.924Z" transform="translate(-60.456 -77.171)"/><path class="a" d="M65.053,213.108h3.836a.871.871,0,0,0,.871-.871v-3.826a.871.871,0,0,0-.871-.871H65.053a.871.871,0,0,0-.871.871v3.826A.871.871,0,0,0,65.053,213.108Zm.871-3.826h2.094v2.084H65.924Z" transform="translate(-60.456 -195.491)"/><path class="a" d="M65.053,338.721h3.836a.871.871,0,0,0,.871-.871v-3.826a.871.871,0,0,0-.871-.871H65.053a.871.871,0,0,0-.871.871v3.826A.871.871,0,0,0,65.053,338.721Zm.871-3.826h2.094v2.084H65.924Z" transform="translate(-60.456 -313.811)"/><path class="a" d="M191.147,83.67h5.286a.871.871,0,0,0,0-1.742h-5.286a.871.871,0,0,0,0,1.742Z" transform="translate(-179.229 -77.171)"/><path class="a" d="M191.147,149.572h5.286a.871.871,0,0,0,0-1.742h-5.286a.871.871,0,0,0,0,1.742Z" transform="translate(-179.229 -139.247)"/><path class="a" d="M191.147,209.282h5.286a.871.871,0,0,0,0-1.742h-5.286a.871.871,0,0,0,0,1.742Z" transform="translate(-179.229 -195.491)"/><path class="a" d="M191.147,275.183h5.286a.871.871,0,0,0,0-1.742h-5.286a.871.871,0,0,0,0,1.742Z" transform="translate(-179.229 -257.566)"/><path class="a" d="M191.147,334.894h5.286a.871.871,0,0,0,0-1.742h-5.286a.871.871,0,0,0,0,1.742Z" transform="translate(-179.229 -313.81)"/><path class="a" d="M191.147,400.8h5.286a.871.871,0,1,0,0-1.742h-5.286a.871.871,0,1,0,0,1.742Z" transform="translate(-179.229 -375.886)"/><path class="a" d="M414.108,1.019a2.927,2.927,0,0,0-2.924,2.924V25.608a.871.871,0,0,0,.088.382l2.056,4.207a.871.871,0,0,0,1.565,0l2.056-4.207a.871.871,0,0,0,.088-.382V3.943a2.928,2.928,0,0,0-2.929-2.924Zm-1.182,5.056h2.37V22.242h-2.37Zm1.187-3.315A1.184,1.184,0,0,1,415.3,3.943v.391h-2.37V3.943a1.185,1.185,0,0,1,1.187-1.182ZM415.3,25.407l-1.185,2.425-1.185-2.425V23.984h2.37Z" transform="translate(-387.311 -0.96)"/></svg>