<svg xmlns="http://www.w3.org/2000/svg" width="98.634" height="74.505" viewBox="0 0 98.634 74.505"><defs><style>.a{fill:#191919;}.b{fill:#ff4e00;}.c{fill:#fff;font-size:13px;font-family:Roboto-Medium, Roboto;font-weight:500;letter-spacing:0.008em;}</style></defs><g transform="translate(-915.788 -1154.325)"><path class="a" d="M2314.194,1167.453s1.834,8.929,10.907,11.1c2.365.241,4.344.386,4.344.386s5.849.062,8.867-4.914-3.262-6.444-4.078-5.791-3.752,1.223-3.507,12.561.245,11.256,1.468,14.192c.082-.082,1.142-.816,1.142-.816s.326-.734.9.326,2.121,5.139,2.121,5.139.326,1.468-.734,1.142a56.306,56.306,0,0,1-5.465-3.018s-1.258-.9-.711-1.142l2.016-.9s-3.052-3.915-2.016-15.579,2.1-12,3.565-12.69,5.791-1.339,6.77,2.413-1.224,7.38-5.547,9.074-9.543,2.1-16.231-2.548c-2.365-2.528-4-4.731-4.486-7.749S2314.194,1167.453,2314.194,1167.453Z" transform="matrix(0.602, -0.799, 0.799, 0.602, -1408.38, 2353.716)"/><g transform="translate(1009.046 1183.249)"><path class="b" d="M61.993,20.615a12.231,12.231,0,0,0-6.411-3.678,20.592,20.592,0,0,0-39.135-4.589,14.48,14.48,0,1,0-1.968,28.825h5.48a9.918,9.918,0,0,0,17.19,0H52.973a12.257,12.257,0,0,0,9.019-20.559Z" transform="translate(-55.921 -28.924) rotate(20)"/><text class="c" transform="matrix(0.921, 0.391, -0.391, 0.921, -56.84, 2.423)"><tspan x="0" y="0">Phase 1</tspan></text></g></g></svg>