<svg xmlns="http://www.w3.org/2000/svg" xmlns:xlink="http://www.w3.org/1999/xlink" width="563.384" height="474.845" viewBox="0 0 563.384 474.845"><defs><style>.a{fill:#c8c8c8;}.a,.f{mix-blend-mode:multiply;isolation:isolate;}.b{fill:#1d8efc;}.c,.e,.h,.v{fill:none;stroke-miterlimit:10;}.c,.e,.h{stroke:#fff9f7;}.c{stroke-width:0.65px;}.d{fill:#ffae2c;}.e{stroke-width:0.674px;}.g{fill:#00875b;}.h{stroke-width:0.439px;}.i{fill:#959595;}.j{fill:url(#a);}.k,.l,.o,.r{fill:#fff;}.l{opacity:0.17;}.m{fill:#333;}.n{fill:url(#b);}.o,.r{font-size:5px;}.o,.s,.w{font-family:Montserrat-Light, Montserrat;font-weight:300;letter-spacing:0.075em;}.p{fill:#453ae9;font-size:9px;font-family:Montserrat-SemiBold, Montserrat;font-weight:600;}.p,.r{letter-spacing:0.2em;}.q{fill:url(#g);}.r{font-family:Montserrat-Regular, Montserrat;}.s,.u{fill:#ff8586;}.s{font-size:4px;}.t{fill:#000;}.v{stroke:#453ae9;stroke-width:0.603px;}.w{font-size:2.642px;}.x{fill:#ffb2b6;}.y{fill:#230124;}.z{fill:#452b2c;}</style><linearGradient id="a" x1="-0.105" y1="0.472" x2="1.078" y2="0.472" gradientUnits="objectBoundingBox"><stop offset="0.011" stop-color="#4d4d4d"/><stop offset="1" stop-color="#333"/></linearGradient><linearGradient id="b" x1="0.004" y1="0.5" x2="0.996" y2="0.5" gradientUnits="objectBoundingBox"><stop offset="0" stop-color="#ffada6"/><stop offset="0.239" stop-color="#ffb2aa"/><stop offset="0.532" stop-color="#ffc1b8"/><stop offset="0.852" stop-color="#ffdacf"/><stop offset="0.989" stop-color="#ffe7db"/></linearGradient><linearGradient id="g" x1="0.293" y1="-0.403" x2="0.608" y2="0.973" gradientUnits="objectBoundingBox"><stop offset="0" stop-color="#453ae9"/><stop offset="0.212" stop-color="#443fe8"/><stop offset="0.473" stop-color="#434ee8"/><stop offset="0.758" stop-color="#4167e7"/><stop offset="1" stop-color="#3f82e6"/></linearGradient></defs><g transform="translate(-64.218 -106.942)"><path class="a" d="M501.207,399.695c-3.208-11.226-77.923.689-172.6,12.816s-170.906,26.052-170.259,31.1,60.621,7.682,155.3-4.445S502.606,404.589,501.207,399.695Z" transform="translate(51.322 110.302)"/><path class="a" d="M385.833,441.226c-.962-9.229-24.028-6.3-53.247-4.962s-52.756,5.737-52.57,9.818,18.673,11.454,47.892,10.113S386.252,445.251,385.833,441.226Z" transform="translate(97.88 125.431)"/><g transform="translate(64.218 405.21)"><path class="b" d="M246.029,433.037c.776,9.883-11.2,16.795-20.928,14.884s-17.225-9.428-24.12-16.55-14.5-14.573-24.265-16.281c-16.075-2.814-31.155,10.923-47.43,9.739-16.138-1.174-27.253-16.059-36.651-29.23s-22.172-27.343-38.3-26.014c-5.893.487-11.493,3.1-17.4,3.273S24.15,369.3,24.218,363.383c.066-5.788,6.319-9.225,11.675-11.419l47.2-19.339c17.553-7.193,37.573-14.386,54.855-6.57,15.081,6.821,24.184,23.689,39.827,29.1,20.549,7.1,44.379-8.232,64.352.357,15.042,6.468,21.937,24.9,20.165,41.177s-10.279,30.937-18.6,45.041" transform="translate(-24.218 -322.665)"/><path class="c" d="M25.553,355.812c22.442-12.4,60.381-10.859,84.242-1.472,14.951,5.88,28.465,15.928,44.326,18.485,13.738,2.215,27.723-1.464,41.637-1.2,22.57.429,46.125,16.582,59.426,34.823" transform="translate(-23.707 -313.39)"/><path class="c" d="M131.784,382.255s-10.888-49.81-33.095-59.177" transform="translate(4.278 -322.507)"/><path class="c" d="M69.139,347.3S66.753,359.479,46,360.157" transform="translate(-15.883 -313.237)"/><path class="c" d="M170.163,377.8s2.754-23.7-15.694-30.48" transform="translate(25.622 -313.231)"/><path class="c" d="M191.919,377.527S177.353,401.6,147.7,404.013" transform="translate(23.033 -301.672)"/><path class="c" d="M86.791,322.9s18.474,12.431,28.376,55.069" transform="translate(-0.274 -322.575)"/><path class="c" d="M131.812,365.651s-22.172,29.207-47.956,29.89" transform="translate(-1.397 -306.217)"/><path class="c" d="M63.414,367.058s27.336-1.311,35.239-13.206" transform="translate(-9.219 -310.731)"/><path class="c" d="M38.994,341.244s5.179-2.738,13.655,7.324" transform="translate(-18.564 -315.686)"/><path class="c" d="M60.489,332.581s8.737,4.583,12.951,20.523" transform="translate(-10.339 -318.871)"/><path class="c" d="M134.512,398.084s40.126-2.834,36.716-30.973" transform="translate(17.986 -305.658)"/><path class="c" d="M135.279,346.159s11.805,10.544,5.341,24.719" transform="translate(18.279 -313.675)"/><path class="c" d="M178.647,345.64s13.69,25.9,7.542,47.315" transform="translate(34.874 -313.874)"/></g><g transform="translate(442.73 269.108)"><path class="d" d="M334.645,393.834c-9.41-4.126-9.871-18.451-3.367-26.406S348.32,356.3,358.2,353.476s20.412-6.126,26.749-14.215c10.433-13.315,5.254-33.817,14.3-48.113,8.966-14.176,28.007-17.055,44.641-19.2s35.835-6.892,42.508-22.281c2.438-5.625,2.789-12.019,5.521-17.507s9.506-9.94,14.877-6.987c5.258,2.892,5.341,10.287,4.727,16.256l-5.409,52.6c-2.012,19.559-5.228,41.377-20.824,53.349-13.611,10.447-33.479,10.516-46.071,22.171-16.541,15.309-14.18,44.588-31.8,58.641-13.269,10.584-33.486,7.873-47.5-1.708s-23.249-24.525-32.073-39.025" transform="translate(-326.908 -224.229)"/><path class="e" d="M499.118,225.528c.358,26.576-19.606,60.5-39.855,77.714-12.687,10.789-28.48,18.226-38.573,31.472-8.744,11.475-12.221,26.056-19.267,38.642-11.43,20.42-37.714,34.048-60.892,37.283" transform="translate(-321.695 -223.732)"/><path class="e" d="M396.3,308.481s50.849,14.41,70.271-1.305" transform="translate(-300.355 -192.49)"/><path class="e" d="M443.827,270.058s-9.961-8.134-.429-27.433" transform="translate(-283.912 -217.19)"/><path class="e" d="M371.988,345.894s20.317,14.11,35.535.564" transform="translate(-309.658 -177.674)"/><path class="e" d="M359.811,369.341s-14.877-25.087-2.584-53.367" transform="translate(-317.168 -189.123)"/><path class="e" d="M470.877,296.664s-20.4,10.8-64.21-1" transform="translate(-296.388 -196.893)"/><path class="e" d="M400.816,320.673s-15.851-34.548-3.866-58.449" transform="translate(-301.821 -209.69)"/><path class="e" d="M429.553,255.213s-12.173,25.626-5.166,38.667" transform="translate(-290.439 -212.373)"/><path class="e" d="M463.5,243.777s-.032,6.074-13.373,8.9" transform="translate(-279.756 -216.749)"/><path class="e" d="M464.065,267.614s-8.46,5.745-25.089,1.8" transform="translate(-284.025 -207.628)"/><path class="e" d="M370.335,307.426s-17.034,38.06,10.35,48.705" transform="translate(-312.294 -192.394)"/><path class="e" d="M415.109,331.325s-15.41,5.633-25.2-7.208" transform="translate(-302.802 -186.007)"/><path class="e" d="M400.387,373.717s-30.368-.156-46.934-16.247" transform="translate(-316.75 -173.245)"/></g><g class="f" transform="translate(117.784 344.46)"><path class="g" d="M193.466,403.858c-2.854,6.233-11.851,6.068-16.654,1.4s-6.5-11.9-7.985-18.685-3.262-14.019-8.153-18.577c-8.054-7.5-21.058-4.679-29.766-11.273-8.635-6.54-9.9-19.523-10.774-30.854s-3.3-24.484-12.765-29.511c-3.457-1.838-7.457-2.287-10.821-4.318s-5.963-6.764-3.959-10.3c1.962-3.462,6.6-3.273,10.327-2.66l32.831,5.408c12.207,2.012,25.8,4.913,32.863,15.866,6.165,9.56,5.644,23.01,12.595,31.92,9.13,11.7,27.556,11.078,35.869,23.47,6.261,9.331,3.986,22.926-2.42,32.091s-16.04,14.921-25.383,20.413" transform="translate(-91.89 -278.727)"/><path class="h" d="M92.733,282.131c16.676.64,37.381,15.28,47.6,29.557,6.4,8.946,10.62,19.881,18.639,27.154,6.946,6.3,15.992,9.135,23.685,14.323,12.48,8.415,20.279,26.659,21.649,42.453" transform="translate(-91.567 -277.425)"/><path class="h" d="M111.74,309.684s15.016,8.054,28.144,2.681" transform="translate(-84.294 -266.882)"/><path class="h" d="M170.651,333.539s-39.6,7.282-53.866-2.053" transform="translate(-82.364 -258.539)"/><path class="h" d="M120.3,292.1s-5.384,6.471-17.215-.621" transform="translate(-87.606 -273.847)"/><path class="h" d="M165.848,349.12s9.425-13.282,1.363-24.033" transform="translate(-63.59 -260.988)"/><path class="h" d="M180.167,352.4s-16.153,9.236-33.539-.023" transform="translate(-70.945 -250.545)"/><path class="h" d="M137.786,285.92s6.2,14.165-2.449,43.429" transform="translate(-75.265 -275.975)"/><path class="h" d="M104.307,279.641s3.808.223,5.2,9.347" transform="translate(-87.139 -278.378)"/><path class="h" d="M119.179,282.247s3.361,5.918.416,17.042" transform="translate(-81.448 -277.38)"/><path class="h" d="M141.638,344.783s23.382,12.794,30.836-5.388" transform="translate(-72.854 -255.513)"/><path class="h" d="M157.937,317.454s3.094,10.617-5.236,16.821" transform="translate(-68.621 -263.909)"/><path class="h" d="M184.1,332.814s-.961,20.549-11.523,31.228" transform="translate(-61.014 -258.031)"/></g><g class="f" transform="translate(446.008 244.724)"><path class="g" d="M337.369,343.638c-6.837-.514-9.8-9.008-7.094-15.133s8.911-10.223,14.756-13.972,12.017-7.923,14.594-14.092c4.243-10.157-2.917-21.372.247-31.827,3.137-10.367,14.876-16.057,25.2-20.809s21.817-11.592,23.251-22.209c.523-3.88-.442-7.787.3-11.647s4.275-7.939,8.288-7.287c3.93.64,5.362,5.056,6.078,8.763q3.159,16.335,6.319,32.668c2.349,12.148,4.343,25.9-3.48,36.326-6.826,9.1-19.622,13.276-25.568,22.886-7.809,12.624-.828,29.69-9.568,41.784-6.58,9.11-20.119,11.693-30.938,8.864s-19.559-9.867-27.95-16.724" transform="translate(-329.278 -206.593)"/><path class="h" d="M410.366,207.384c5.185,15.862-1.362,40.359-11.2,54.9-6.169,9.11-14.963,16.857-19,26.9-3.5,8.7-3.021,18.168-5.217,27.183-3.563,14.623-17.967,28.268-32.306,35.032" transform="translate(-324.167 -206.29)"/><path class="h" d="M372.445,234.768s-2.345,16.878,7.249,27.327" transform="translate(-312.858 -195.812)"/><path class="h" d="M370.569,298.3S350,263.685,353.807,247.064" transform="translate(-320.072 -191.107)"/><path class="h" d="M391.976,236.7s-7.938-2.8-5.391-16.361" transform="translate(-307.543 -201.334)"/><path class="h" d="M360.4,298.843s15.728,4.232,23.014-7.058" transform="translate(-317.371 -173.995)"/><path class="h" d="M356.14,313.767s-14.268-11.946-11.614-31.465" transform="translate(-323.57 -177.623)"/><path class="h" d="M414.97,250.317s-11.134,10.725-41.58,12.769" transform="translate(-312.399 -189.862)"/><path class="h" d="M399.9,217.375s1.112,3.649-6.962,8.12" transform="translate(-304.919 -202.467)"/><path class="h" d="M405.072,232.227s-4.384,5.206-15.84,6.3" transform="translate(-306.337 -196.784)"/><path class="h" d="M351.313,274.469s-3.887,26.368,15.752,27.051" transform="translate(-320.967 -180.621)"/><path class="h" d="M385.479,279.433s-8.883,6.586-17.591.925" transform="translate(-314.505 -178.721)"/><path class="h" d="M383.892,307.671s-19.607,6.227-33.286.028" transform="translate(-321.117 -167.916)"/></g><g transform="translate(169.397 106.942)"><path class="i" d="M180.774,539.885,129.331,156.9a12.445,12.445,0,0,1,10.677-13.991l266.967-35.859a12.445,12.445,0,0,1,13.99,10.677l51.443,382.981A12.443,12.443,0,0,1,461.73,514.7L194.763,550.561A12.444,12.444,0,0,1,180.774,539.885Z" transform="translate(-129.219 -106.942)"/><rect class="j" width="407.033" height="289.061" rx="9" transform="matrix(0.133, 0.991, -0.991, 0.133, 287.801, 0.921)"/><rect class="k" width="349.107" height="228.138" transform="translate(261.466 33.681) rotate(82.35)"/><path class="l" d="M284.994,533.755l-80.433,10.039L259.38,121.348l80.433-10.039Z" transform="translate(-100.389 -105.271)"/><path class="m" d="M232.8,137.928a4.1,4.1,0,1,1,3.953-4.65A4.327,4.327,0,0,1,232.8,137.928Z" transform="translate(-91.526 -98.199)"/><g transform="translate(94.237 136.116)"><path class="n" d="M5.086,0H135.076a5.086,5.086,0,0,1,5.086,5.086V9.708a5.087,5.087,0,0,1-5.087,5.087H5.087A5.087,5.087,0,0,1,0,9.708V5.086A5.086,5.086,0,0,1,5.086,0Z" transform="translate(0 19.328) rotate(-7.926)"/><path class="n" d="M5.086,0H135.074a5.087,5.087,0,0,1,5.087,5.087V9.709a5.086,5.086,0,0,1-5.086,5.086H5.087A5.087,5.087,0,0,1,0,9.708V5.086A5.086,5.086,0,0,1,5.086,0Z" transform="translate(3.651 45.55) rotate(-7.926)"/><path class="n" d="M5.086,0H135.075a5.087,5.087,0,0,1,5.087,5.087V9.709a5.086,5.086,0,0,1-5.086,5.086H5.086A5.086,5.086,0,0,1,0,9.708V5.086A5.086,5.086,0,0,1,5.086,0Z" transform="translate(7.302 71.772) rotate(-7.926)"/><path class="n" d="M5.087,0H135.074a5.087,5.087,0,0,1,5.087,5.087V9.709a5.086,5.086,0,0,1-5.086,5.086H5.086A5.086,5.086,0,0,1,0,9.709V5.087A5.087,5.087,0,0,1,5.087,0Z" transform="translate(10.953 97.994) rotate(-7.926)"/><path class="n" d="M5.086,0H135.075a5.087,5.087,0,0,1,5.087,5.087V9.709a5.086,5.086,0,0,1-5.086,5.086H5.087A5.087,5.087,0,0,1,0,9.708V5.086A5.086,5.086,0,0,1,5.086,0Z" transform="matrix(0.99, -0.138, 0.138, 0.99, 14.496, 123.445)"/><g transform="translate(6.483 19.835)"><text class="o" transform="translate(0.69 7.622) rotate(-7.926)"><tspan x="0" y="0">Name</tspan></text><text class="o" transform="translate(4.296 33.522) rotate(-7.926)"><tspan x="0" y="0">Email adress</tspan></text><text class="o" transform="translate(7.902 59.425) rotate(-7.926)"><tspan x="0" y="0">Country</tspan></text><text class="o" transform="translate(11.587 85.888) rotate(-7.926)"><tspan x="0" y="0">Phone</tspan></text><text class="o" transform="translate(15.114 111.226) rotate(-7.926)"><tspan x="0" y="0">Password</tspan></text></g></g><text class="p" transform="translate(146.968 94.906) rotate(-7.82)"><tspan x="-32.503" y="0">Apply Now</tspan></text><rect class="q" width="86.696" height="17.993" transform="matrix(0.99, -0.142, 0.142, 0.99, 142.177, 330.88)"/><text class="r" transform="translate(156.644 339.465) rotate(-8.147)"><tspan x="0" y="0">CREATE ACCOUNT</tspan></text><text class="s" transform="translate(149.749 365.287) rotate(-8.147)"><tspan class="t" x="0" y="0">Already have an account? </tspan><tspan class="u" y="0">Sing in</tspan></text><rect class="v" width="4.567" height="4.567" transform="translate(100.763 306.07) rotate(-8.148)"/><text class="w" transform="translate(114.42 303.327) rotate(-8.147)"><tspan x="0" y="3">Lorem ipsum dolor sit amet, consectetuer adipiscing elit, sed diam nonummy nibh euismod tincidunt </tspan><tspan x="0" y="6.171">ut laoreet dolore magna aliquam erat </tspan></text></g><g transform="translate(352.064 318.084)"><path class="x" d="M276.92,284.389s-8.088-15.1-15.1-17.795c0,0-2.7-5.123,4.583-2.427a6.414,6.414,0,0,1-2.424-3.21.622.622,0,0,1,.635-.824c3.26.191,14.424,2.239,18.775,21.02l-6.2,4.583" transform="translate(-261.333 -259.466)"/><g transform="translate(11.061 16.614)"><rect class="k" width="8.041" height="4.344" transform="translate(103.853 232.17) rotate(180)"/><rect class="k" width="8.041" height="4.344" transform="translate(53.28 232.17) rotate(180)"/><path class="k" d="M350.193,439v6.008H331.148S327.974,435.066,350.193,439Z" transform="translate(-245.74 -207.99)"/><path class="k" d="M313.535,439v6.008H294.49S291.316,435.066,313.535,439Z" transform="translate(-259.767 -207.99)"/><path class="y" d="M357.824,341.1l-2.525,78.91a31.1,31.1,0,0,0,.357,5.814l7.405,47.52h-14.4L338.61,423.724a31.128,31.128,0,0,1-.56-4.245l-2.963-47.108a.606.606,0,0,0-1.171-.177l-15.407,40.59a12.706,12.706,0,0,0-.774,3.376l-5.083,57.179h-12.44l-.64-62.136a12.628,12.628,0,0,1,.264-2.707l14.125-68.055Z" transform="translate(-257.762 -245.351)"/><path class="b" d="M326.841,317.821l-28.066-3.509a9.91,9.91,0,0,1-7.4-3.547l-22.046-29.882,13.154-9.217,16.752,23.278a9.958,9.958,0,0,0,7.634,4.13l60.167-3.9,6.913,86.876-53.315-6.339Z" transform="translate(-269.333 -271.667)"/><path class="b" d="M343.773,296.964l22.9,32.478a9.148,9.148,0,0,1-2.187,12.733l-22.345,15.838L333.3,344.264l17.4-9.477a.826.826,0,0,0,.213-1.286l-14.339-15.588L337.881,295l2.619-2.619Z" transform="translate(-244.857 -263.741)"/></g><path class="x" d="M317.094,271.074a32.251,32.251,0,0,0-5.07,6.222l1.614,1.383-2.3,6.222,10.832,2.765,7.6-18.666Z" transform="translate(-242.201 -256.073)"/><path class="z" d="M333.45,262.81c-4.1-1.319-8.653.671-11.49,5.022s-3.849,10.888-2.548,16.5c-2.7-.86-5.7.5-7.523,3.417a14.657,14.657,0,0,0-1.449,10.9c-2.341.61-4.78,1.279-6.66,3.328s-2.973,5.934-1.786,8.83c1.333,3.253,4.536,3.558,7.212,3.47l51.419-1.69a7.106,7.106,0,0,0,3.946-.925c2.3-1.565,3.311-6.038,2.066-9.175s-4.487-4.293-6.649-2.37c2.785-2.44,3.852-8.066,2.3-12.124s-5.485-5.923-8.474-4.019c2.865-4.73,2.3-12.351-.534-17.117a14.406,14.406,0,0,0-11.826-7.181c-4.423-.225-8.787,1.283-13.081,2.782q-.031,3.045-.065,6.092" transform="translate(-245.963 -259.651)"/></g></g></svg>