<svg xmlns="http://www.w3.org/2000/svg" width="38.145" height="31.877" viewBox="0 0 38.145 31.877"><defs><style>.a{fill:#f95750;}.b{fill:#e84642;}.c{fill:#ffa6d4;}.d{fill:#f690d2;}.e{fill:#e286c6;}.f{fill:#eef2f5;}.g{fill:#deeaf3;}.h{fill:#ffdd91;}.i{fill:#f9cd80;}.j{fill:#b1e6a0;}.k{fill:#96d5a9;}.l{fill:#efbf73;}.m{fill:#83cc96;}</style></defs><g transform="translate(0 -42.061)"><g transform="translate(0 42.061)"><g transform="translate(0 10.529)"><path class="a" d="M21.525,186.065l1.97-2.082a2.131,2.131,0,0,0-1.34-.6C20.756,183.384,20.647,185.4,21.525,186.065Z" transform="translate(-19.402 -183.384)"/><path class="b" d="M30.474,191.421A3.111,3.111,0,0,0,28.5,193.5a1.035,1.035,0,0,0,.63.215l2.356-1.084A5.545,5.545,0,0,0,30.474,191.421Z" transform="translate(-26.38 -190.822)"/><path class="a" d="M84.188,186.065l-1.97-2.082a2.131,2.131,0,0,1,1.34-.6C84.957,183.384,85.066,185.4,84.188,186.065Z" transform="translate(-76.093 -183.384)"/><path class="b" d="M69.6,191.421a3.111,3.111,0,0,1,1.97,2.082,1.035,1.035,0,0,1-.63.215l-2.356-1.084A5.545,5.545,0,0,1,69.6,191.421Z" transform="translate(-63.474 -190.822)"/><path class="c" d="M7.331,212.982a3.105,3.105,0,1,0-4.433.01c-1.384.373-2.9,1.233-2.9,3.207v4.135a1.245,1.245,0,1,0,2.49,0v4.205c0,1.562.592,1.992,1.321,1.992a7.337,7.337,0,0,0,1.321-1.053,7.339,7.339,0,0,0,1.321,1.053c.73,0,1.321-.513,1.321-1.992v-4.205a1.245,1.245,0,1,0,2.49,0V216.2C10.264,214.208,8.724,213.351,7.331,212.982Z" transform="translate(0 -205.896)"/><g transform="translate(2.49 18.643)"><path class="d" d="M37.38,434.944a1.319,1.319,0,0,1-1.028-.491.38.38,0,0,0-.586,0,1.321,1.321,0,0,1-2.349-.83v1.35a1.349,1.349,0,0,0,1.347,1.356,1.321,1.321,0,0,0,1.3-1.321,1.321,1.321,0,0,0,1.3,1.321,1.349,1.349,0,0,0,1.347-1.356v-1.35a1.321,1.321,0,0,1-1.321,1.321Z" transform="translate(-33.416 -433.623)"/></g><path class="e" d="M61.722,384.469a.577.577,0,0,1-.577-.577V378.97a.577.577,0,0,1,1.154,0v4.922A.577.577,0,0,1,61.722,384.469Z" transform="translate(-56.59 -363.865)"/><path class="f" d="M36.059,352.409c1.407,0,2.643-2.373,2.643-2.373v-.318H33.416v.318S34.659,352.409,36.059,352.409Z" transform="translate(-30.926 -337.325)"/><path class="g" d="M36.059,355.693c-1.077,0-2.643-1.7-2.643-1.7v1.384s1.565,1.7,2.643,1.7,2.643-1.7,2.643-1.7V353.99S37.136,355.693,36.059,355.693Z" transform="translate(-30.926 -341.28)"/><g transform="translate(1.913 10.127)"><path class="e" d="M26.251,324.2a.577.577,0,0,1-.577-.577v-3.734a.577.577,0,1,1,1.154,0v3.734A.577.577,0,0,1,26.251,324.2Z" transform="translate(-25.674 -319.314)"/><path class="e" d="M97.192,324.2a.577.577,0,0,1-.577-.577v-3.734a.577.577,0,1,1,1.154,0v3.734A.577.577,0,0,1,97.192,324.2Z" transform="translate(-91.33 -319.314)"/></g></g><path class="h" d="M174.9,131.217l-.716-6.563a4.392,4.392,0,0,0-2.909-3.667,3.456,3.456,0,1,0-4.938,0,4.392,4.392,0,0,0-2.909,3.667l-.716,6.563a1.26,1.26,0,0,0,1.14,1.4,1.239,1.239,0,0,0,1.32-1.1l-.371,3.4a.373.373,0,0,0,.37.413h.715v3.4c0,1.7.654,2.13,1.46,2.13a7.872,7.872,0,0,0,1.46-.928,7.91,7.91,0,0,0,1.46.928c.806,0,1.46-.639,1.46-2.13v-3.4h.715a.372.372,0,0,0,.37-.413l-.371-3.4a1.239,1.239,0,0,0,1.32,1.1A1.26,1.26,0,0,0,174.9,131.217Z" transform="translate(-150.582 -109.703)"/><g transform="translate(15.303 29.033)"><path class="i" d="M209.781,433.221a1.457,1.457,0,0,1-1.154-.566.386.386,0,0,0-.612,0,1.46,1.46,0,0,1-2.614-.894v1.349a1.483,1.483,0,0,0,1.407,1.494,1.46,1.46,0,0,0,1.513-1.459,1.46,1.46,0,0,0,1.513,1.459,1.483,1.483,0,0,0,1.407-1.494v-1.349A1.46,1.46,0,0,1,209.781,433.221Z" transform="translate(-205.401 -431.761)"/></g><path class="j" d="M358.637,60.191,357.8,51.57a4.3,4.3,0,0,0-2.855-3.672,3.419,3.419,0,0,0,.987-2.408,3.456,3.456,0,0,0-6.912,0A3.42,3.42,0,0,0,350,47.9a4.3,4.3,0,0,0-2.855,3.672l-.841,8.622a1.239,1.239,0,1,0,2.463.269l-.311,3.416a.373.373,0,0,0,.371.406h.722v6.777c0,1.625.616,2.136,1.407,2.165a7.653,7.653,0,0,0,1.513-1.066,7.629,7.629,0,0,0,1.513,1.066c.791-.028,1.407-.78,1.407-2.165V64.282h.722a.372.372,0,0,0,.371-.406l-.311-3.416a1.239,1.239,0,1,0,2.463-.269Z" transform="translate(-320.5 -42.061)"/><g transform="translate(29.052 28.998)"><path class="k" d="M394.39,432.785a1.458,1.458,0,0,1-1.211-.569.383.383,0,0,0-.605,0,1.458,1.458,0,0,1-1.211.569,1.483,1.483,0,0,1-1.407-1.494v1.384a1.483,1.483,0,0,0,1.407,1.494,1.514,1.514,0,0,1,3.026,0,1.483,1.483,0,0,0,1.407-1.494v-1.384A1.483,1.483,0,0,1,394.39,432.785Z" transform="translate(-389.957 -431.291)"/></g><g transform="translate(14.012 14.693)"><path class="l" d="M237.431,384.263a.577.577,0,0,1-.577-.577V378.9a.577.577,0,0,1,1.154,0v4.789A.577.577,0,0,1,237.431,384.263Z" transform="translate(-233.22 -367.961)"/><path class="l" d="M188.653,246.981a.583.583,0,0,1-.063,0,.577.577,0,0,1-.511-.636l.714-6.546a.577.577,0,1,1,1.147.125l-.714,6.546A.577.577,0,0,1,188.653,246.981Z" transform="translate(-188.076 -239.281)"/><path class="l" d="M277.337,246.982a.577.577,0,0,1-.573-.514l-.714-6.546a.577.577,0,1,1,1.147-.125l.714,6.546a.577.577,0,0,1-.511.636A.588.588,0,0,1,277.337,246.982Z" transform="translate(-269.493 -239.282)"/></g><g transform="translate(27.693 9.246)"><path class="m" d="M421.985,341.936a.577.577,0,0,1-.577-.577v-8.2a.577.577,0,1,1,1.154,0v8.2A.577.577,0,0,1,421.985,341.936Z" transform="translate(-417.706 -320.187)"/><path class="m" d="M461.96,175.891a.577.577,0,0,1-.574-.524l-.782-8.577a.577.577,0,0,1,1.149-.1l.782,8.576a.577.577,0,0,1-.522.627Z" transform="translate(-453.98 -166.161)"/><path class="m" d="M372.3,175.891l-.053,0a.577.577,0,0,1-.522-.627l.782-8.577a.577.577,0,0,1,1.149.1l-.782,8.576A.577.577,0,0,1,372.3,175.891Z" transform="translate(-371.718 -166.161)"/></g></g></g></svg>