<svg xmlns="http://www.w3.org/2000/svg" width="441.057" height="302.615" viewBox="0 0 441.057 302.615"><defs><style>.a{fill:#9bc1f9;opacity:0.3;}.b{fill:#466eb6;}.c{fill:#7f1ca0;}.d{fill:#f47458;}.e{fill:#f48c7f;}.f{fill:#b75742;}.g{fill:#13375b;}.h{fill:#355389;}.i{fill:#86b1f2;}.j{fill:#fae0b2;}.k{fill:#daeef7;mix-blend-mode:multiply;isolation:isolate;}.l{fill:#50bfa5;}.m{fill:#3c8f7c;}.n{fill:#184655;}.o{fill:#f7cc7f;}.p{fill:#fff;}.q{fill:#f79c8d;}.r{fill:#042a44;}.s{fill:#1d8efc;}.t{fill:#f7a491;}.u{fill:#230124;}.v{fill:#07345a;}.w{fill:#327f6b;}</style></defs><g transform="translate(-19.473 -12.2)"><g transform="translate(48.135 12.2)"><path class="a" d="M460.384,472.16H411.472c5.235-5.982,8.573-15.042,8.573-25.183v-7.452c0-21.587,12.62-39.087,28.188-39.087h0c15.959,0,28.9-17.939,28.9-40.069h0c0-22.129-12.937-40.069-28.9-40.069H443.5c-15.568,0-28.188-17.5-28.188-39.087h0c0-18.014-10.531-32.617-23.522-32.617H208c-14.459,0-26.181,16.254-26.181,36.3h0c0,13.707,5.479,25.637,13.564,31.816H163.094c-13.464,0-24.38,14.007-24.38,31.286h0c0,20.707-13.08,37.492-29.216,37.492h-4.907c-16.541,0-29.949,17.208-29.949,38.434h0c0,21.227,13.409,38.434,29.949,38.434h0c16.135,0,29.216,16.786,29.216,37.493V507c0,17.279,10.915,31.286,24.38,31.286H271.631a21.742,21.742,0,0,0,2.6.157H460.384c14.72,0,26.653-14.839,26.653-33.143h0C487.036,487,475.1,472.16,460.384,472.16Z" transform="translate(-74.642 -238.566)"/><g transform="translate(91.919 193.81)"><path class="b" d="M912.689,1309.9c-.923,0-1.674,1.062-1.677,2.377s.742,2.383,1.665,2.386,1.674-1.062,1.677-2.377S913.612,1309.905,912.689,1309.9Zm0,.673c.5,0,.9.249.9.554s-.4.551-.9.549-.9-.249-.9-.553S912.192,1310.575,912.687,1310.576Zm-.008,3.2c-.7,0-1.264-.384-1.263-.854s.569-.849,1.267-.847,1.264.384,1.263.854S913.378,1313.774,912.68,1313.772Z" transform="translate(-908.316 -1309.903)"/><path class="c" d="M896.02,1340.27a5.776,5.776,0,0,0-.537,2.414l-.043,17.436a1.916,1.916,0,0,0,1.921,1.911l9.97.025a1.916,1.916,0,0,0,1.931-1.9l.043-17.436a5.771,5.771,0,0,0-.525-2.416Z" transform="translate(-895.44 -1335.011)"/><path class="c" d="M896.02,1340.27a5.776,5.776,0,0,0-.537,2.414l-.043,17.436a1.916,1.916,0,0,0,1.921,1.911l9.97.025a1.916,1.916,0,0,0,1.931-1.9l.043-17.436a5.771,5.771,0,0,0-.525-2.416Z" transform="translate(-895.44 -1335.011)"/><path class="d" d="M909.311,1342.72l-.043,17.438a1.918,1.918,0,0,1-1.931,1.9l-9.97-.024a1.917,1.917,0,0,1-1.922-1.911l.043-17.438a5.768,5.768,0,0,1,.536-2.412l12.76.031A5.778,5.778,0,0,1,909.311,1342.72Z" transform="translate(-895.444 -1335.015)"/><path class="e" d="M898.083,1360.126l.043-17.436a5.776,5.776,0,0,1,.537-2.414l-2.643-.006a5.776,5.776,0,0,0-.537,2.414l-.043,17.436a1.916,1.916,0,0,0,1.921,1.911l2.644.006A1.916,1.916,0,0,1,898.083,1360.126Z" transform="translate(-895.44 -1335.011)"/><path class="f" d="M946.627,1342.823l-.043,17.438a1.918,1.918,0,0,1-1.931,1.9l-4.077-.01a1.928,1.928,0,0,0,1.951-1.9l.043-17.438a5.744,5.744,0,0,0-.531-2.415l4.061.01A5.777,5.777,0,0,1,946.627,1342.823Z" transform="translate(-932.761 -1335.117)"/><path class="g" d="M911.542,1335.493l-12.762-.031h0a1.015,1.015,0,0,1,1.022-1.007l10.723.026a1.015,1.015,0,0,1,1.017,1.012Z" transform="translate(-898.202 -1330.203)"/><rect class="h" width="2.167" height="13.823" transform="translate(0.004 23.833) rotate(-89.859)"/></g><g transform="translate(28.9 193.183)"><path class="i" d="M629.6,1306.551h1.525a1.6,1.6,0,0,0-.9-.273H592.027a3.431,3.431,0,0,0-3.618,3.207v2.037a3.431,3.431,0,0,0,3.618,3.207l37.765-.011Z" transform="translate(-578.557 -1306.278)"/><path class="b" d="M684.522,1306.322a3.281,3.281,0,0,0-3.46,3.067v2.3a3.281,3.281,0,0,0,3.46,3.067H708.3v-.515h-.1l-6.044-.507-1.222-4.249s2.358-2.348,2.512-2.408,4.754-.244,4.754-.244h.1v-.512Z" transform="translate(-655.166 -1306.315)"/><path class="j" d="M710.427,1312.984a4.908,4.908,0,0,1,1.448-3.688H688.68a3.014,3.014,0,0,0-3.178,2.817v1.772a3.014,3.014,0,0,0,3.178,2.817h23.195S710.427,1316.112,710.427,1312.984Z" transform="translate(-658.837 -1308.774)"/><path class="k" d="M685.5,1312.113v1.772a2.523,2.523,0,0,0,.093.676,6.646,6.646,0,0,1,5.136-3.856c6.664-1.227,21.144-1.409,21.144-1.409H688.68A3.014,3.014,0,0,0,685.5,1312.113Z" transform="translate(-658.837 -1308.774)"/><path class="l" d="M600.043,1403.776h1.725a1.686,1.686,0,0,0-1.019-.341H557.522a4.055,4.055,0,0,0-4.1,4.015V1410a4.055,4.055,0,0,0,4.1,4.014l42.743-.014Z" transform="translate(-549.632 -1386.611)"/><path class="m" d="M662.209,1403.489a3.878,3.878,0,0,0-3.916,3.839v2.882a3.878,3.878,0,0,0,3.916,3.839h26.91v-.645h-.111l-6.841-.635-1.383-5.318s2.669-2.938,2.843-3.014,5.381-.306,5.381-.306h.111v-.641Z" transform="translate(-636.339 -1386.656)"/><path class="j" d="M691.528,1411.829a6.432,6.432,0,0,1,1.639-4.616H666.915a3.562,3.562,0,0,0-3.6,3.526v2.218a3.562,3.562,0,0,0,3.6,3.526h26.252S691.528,1415.744,691.528,1411.829Z" transform="translate(-640.494 -1389.734)"/><path class="k" d="M663.318,1410.738v2.218a3.468,3.468,0,0,0,.1.846,7.692,7.692,0,0,1,5.813-4.827c7.542-1.536,23.931-1.763,23.931-1.763H666.915A3.562,3.562,0,0,0,663.318,1410.738Z" transform="translate(-640.494 -1389.734)"/><path class="d" d="M536.958,1355.231h-1.726a1.987,1.987,0,0,1,1.02-.271H579.5c2.262,0,4.1,1.426,4.1,3.186v2.023c0,1.759-1.834,3.185-4.1,3.185l-42.76-.011Z" transform="translate(-534.588 -1346.53)"/><path class="f" d="M558.434,1355c2.164,0,3.918,1.364,3.918,3.046v2.287c0,1.682-1.754,3.046-3.918,3.046h-26.92v-.511h.111l6.844-.5,1.383-4.219s-2.67-2.332-2.844-2.392-5.383-.243-5.383-.243h-.111V1355Z" transform="translate(-531.514 -1346.567)"/><path class="j" d="M533.769,1361.62a4.65,4.65,0,0,0-1.64-3.663h26.262c1.987,0,3.6,1.253,3.6,2.8v1.76c0,1.545-1.611,2.8-3.6,2.8H532.129S533.769,1364.727,533.769,1361.62Z" transform="translate(-532.023 -1349.008)"/><path class="k" d="M561.99,1360.755v1.76a2.211,2.211,0,0,1-.1.671,7.441,7.441,0,0,0-5.815-3.83c-7.545-1.218-23.941-1.4-23.941-1.4h26.262C560.379,1357.957,561.99,1359.21,561.99,1360.755Z" transform="translate(-532.023 -1349.008)"/></g><rect class="n" width="4.126" height="94.554" transform="translate(185.943 205.618) rotate(10.732)"/><path class="n" d="M2054.046,1472.146h4.876l-18.173-94.108-4.054.768Z" transform="translate(-1747.151 -1172.429)"/><path class="n" d="M1538.475,1472.146h4.876l-18.173-94.108-4.054.768Z" transform="translate(-1320.859 -1172.429)"/><path class="n" d="M1861.4,1474.163l-3.959.047,17.422-93.733,4.054.768Z" transform="translate(-1598.94 -1174.446)"/><path class="j" d="M1326.7,644.206c16.054,1.719,36.83,3.533,57.687,38.927,22.8,38.684,10.8,96.468-7.2,112.525s-76.754,35.884-126.151,6.2c0,0-29.827-17.988-14.519-47.841,23.556-45.94,20.227-55.52,30.76-73.523S1292.626,640.557,1326.7,644.206Z" transform="translate(-1081.928 -565.339)"/><path class="o" d="M1430.664,698.131c-14.236-24.158-28.433-32.67-41.118-36.188A106.214,106.214,0,0,1,1404.405,682c22.8,38.684,10.8,96.468-7.2,112.525-15.955,14.24-63.974,31.438-109.09,14.449a45.834,45.834,0,0,0,9.2,7.883c49.4,29.682,108.159,9.855,126.151-6.2S1453.459,736.815,1430.664,698.131Z" transform="translate(-1128.202 -580.336)"/><path class="e" d="M491.766,766.279c-.455,3.589,3.282,6.437,6.605,6.212a8.179,8.179,0,0,0,7.328-6.872c.581-3.908-1.767-7.034-5.4-7.32a4.532,4.532,0,0,0-4.777,6.045c.732,2.277,2.811,3.126,3.858,2.5a1.041,1.041,0,0,0-.221-1.943,1.022,1.022,0,0,0-1.015.437,2.984,2.984,0,0,1-1.13-3.618c.714-2.172,3.459-2.3,5.165-1.283,2.171,1.289,2.512,4.066,1.716,6.278a6.679,6.679,0,0,1-5.6,4.329,5.2,5.2,0,0,1-5.514-4.76A.508.508,0,0,0,491.766,766.279Z" transform="translate(-469.717 -659.992)"/><g transform="translate(95.766 96.607)"><path class="d" d="M919.793,783.374l45.875-.344a1.9,1.9,0,0,0,1.883-1.911l-.23-30.67a1.9,1.9,0,0,0-1.911-1.883l-45.875.344a1.9,1.9,0,0,0-1.882,1.911l.23,30.67A1.9,1.9,0,0,0,919.793,783.374Z" transform="translate(-917.652 -748.566)"/><path class="d" d="M1179.834,847.086l14.812,15.094-18.272-3.411Z" transform="translate(-1131.573 -830.026)"/><g transform="translate(12.07 3.869)"><path class="p" d="M1010.184,781.975l-4.457-.08s-5.617-4.194-5.789-5.677.749-4.62-.122-5.014a2.92,2.92,0,0,0-3.882,1.258c-.846,1.425-.142,6.626-.666,6.974a23.567,23.567,0,0,1-4.764.233,3.307,3.307,0,0,0-2.941,1.758l0,0a1.762,1.762,0,0,0,.426,2.177l.994.831-.783,1.04a1.762,1.762,0,0,0,.339,2.46l.785.6-.538.612a1.762,1.762,0,0,0,.313,2.605l.7.489-.1.193a1.762,1.762,0,0,0,.576,2.31l.7.464,11.872.211a8.163,8.163,0,0,0,3.246-.61l4.188-.616a.919.919,0,0,0,.785-.907l.027-10.392A.919.919,0,0,0,1010.184,781.975Z" transform="translate(-987.356 -770.911)"/></g></g><path class="q" d="M1460.811,985.671l-4.126,12.379,12.575-4.946Z" transform="translate(-1267.578 -848.006)"/><path class="r" d="M1473.943,772.937c-.838.035-3.135.8-6.495,7.128-4.29,8.08-10.56,32.489-10.56,32.489L1475.6,819.5l2.4-5.095,3.96-39.222S1474.176,772.927,1473.943,772.937Z" transform="translate(-1267.746 -672.11)"/><path class="s" d="M1574.451,752.619c-5.352.007-18.594,1.563-24.74,3.52,0,0-4.515,38.675,4.065,68.063,1.921,6.578-1.589,27.271-1.589,27.271l55.457-.729s-6.57-50.024-4.095-58.1,2.534-36.24,2.534-36.24-.38-.059-12.46-2.14A125.981,125.981,0,0,0,1574.451,752.619Z" transform="translate(-1343.513 -655.31)"/><path class="t" d="M1714.313,1738.023s-1.227,14.112-3.482,18.02.118,10.551.237,11.463,4.749,2.215,12.11,1.433,7.242-2.475,6.649-5.211-4.512-6.253-4.749-8.858,2.256-11.984,2.256-11.984Z" transform="translate(-1476.913 -1470.078)"/><path class="u" d="M1365.8,1252.087s-38.282-2.119-46.83,3.041,1.546,15.755,1.546,15.755,31.166,13.5,83.342,16.505c12.355.711,13.42-32.107,11.11-34.823S1365.8,1252.087,1365.8,1252.087Z" transform="translate(-1150.866 -1067.572)"/><path class="h" d="M1720.289,1860.133c7.58-.8,6.643-4.516,6.031-7.333-.383-1.764-2.557-3.843-3.853-5.81a12.651,12.651,0,0,1-5.072,2.457c-3.418,1.006-8.1-.985-11.09-2.233a36.376,36.376,0,0,0-1.014,9.744C1705.414,1857.9,1712.709,1860.938,1720.289,1860.133Z" transform="translate(-1473.106 -1560.175)"/><path class="u" d="M1724.439,1281.19c-1.53,11.534-9.1,68.955-9.1,68.955l17.571,2.171s21.608-74.947,20.5-86.411-9.2-12.428-9.2-12.428S1728.488,1250.657,1724.439,1281.19Z" transform="translate(-1481.44 -1069.381)"/><path class="v" d="M1598.629,459.482s5.838-6.155,10.534,1.333a4.667,4.667,0,0,1,6.155,1.587s6.536-1.967,8.122,7.8c0,0,3.363-.634,3.808,3.363a9.892,9.892,0,0,1-1.586,6.663s1.889,1.417,1.031,5.092a4.548,4.548,0,0,1-3.316,3.6s-.7,5.267-2.982,6.853a7.449,7.449,0,0,1-5.394.825s-.825,2.856-3.49,2.6-5.965-2.792-8.947-1.65-10.724-.064-10.724-.064-8.693-3.871-6.092-12.755c0,0-4.569-4.125-.571-9.074,0,0-2.919-7.742,2.856-12.31S1598.629,459.482,1598.629,459.482Z" transform="translate(-1372.463 -410.966)"/><path class="t" d="M1667.158,653.209l-1.057,7.84s-2.367,11.3.678,13.473,12.952-13.8,12.952-13.8l-1.046-19.867Z" transform="translate(-1440.006 -562.905)"/><path class="d" d="M1683.977,647.3c-2.516,6.776-8.508,10.941-12.761,12.557l.9-6.647,11.527-12.349Z" transform="translate(-1444.96 -562.904)"/><path class="t" d="M1632.76,517.625a10.478,10.478,0,0,0-13.712,8.349,79.188,79.188,0,0,0-.85,10.059c-.166,9.157,4.574,18.069,8.732,18.069s15.651-5.928,16.067-18.928C1643.253,527.148,1639.246,519.858,1632.76,517.625Z" transform="translate(-1401.119 -460.541)"/><path class="t" d="M1743.733,610.148c0,2.02,1.339,3.658,2.991,3.658s2.991-1.638,2.991-3.658-1.339-3.658-2.991-3.658S1743.733,608.128,1743.733,610.148Z" transform="translate(-1504.919 -534.486)"/><path class="v" d="M1576.652,480.66c-4.3,3.4-5.8,8.573-3.362,11.548s7.9,2.628,12.192-.774,5.8-8.573,3.362-11.548S1580.947,477.258,1576.652,480.66Z" transform="translate(-1363.026 -428.132)"/><path class="t" d="M1576.794,798.995c-5.185-1.938-7.722,44.622-8.421,63.787-9.182.88-25.187.007-29.172-.292-1.874-.14-6.2-1.718-8.06-1.961a18.719,18.719,0,0,0-4.581-.216c-.345.06-9.916,3.96-10.735,4.816-1.015,1.061-3.76,3.737-3.3,4.894s5.279-3.224,5.279-3.224l2.354-1.316c-2.93,2.853-8.519,6.61-7.714,7.978.785,1.334,5.827-2.479,9.419-5.077-3.082,2.774-6.91,7.738-6.028,8.512.793.7,5.148-5.052,9.8-6.707,1.725-.613,3.444,1.085,4.8,1.291a9.789,9.789,0,0,0,3.515.2L1539,870.25c1.717.155,1.76,1.167,3.493,1.535,2.013.427,5.314.876,7.878,1.5,14.759,3.594,19.681,5.263,24.2,5.26C1588.255,878.537,1589.049,803.576,1576.794,798.995Z" transform="translate(-1313.62 -693.607)"/><path class="v" d="M1840.809,821.934c.971-19.63.829-43.826-10.213-47.954-4.357-1.629-12.037,8.165-10.656,48.353C1825.835,822.818,1834.489,823.208,1840.809,821.934Z" transform="translate(-1567.795 -672.833)"/><path class="q" d="M1584.494,1003h1.126l16.92,41.44-1.165-.177Z" transform="translate(-1373.255 -862.335)"/><path class="t" d="M1351.71,1807.733s1.533,4.9-1.212,8.139-14.153,6.418-15.651,8.173a4.908,4.908,0,0,0-1.384,3.249l32.018-.878-.349-9.637-1.475-6.925Z" transform="translate(-1165.693 -1527.716)"/><path class="h" d="M1324.917,1860.556s8.227,3.317,12.2,1.353,3.854-2.507,5-1.775,1.562,9.766,1.562,9.766l-36,1.055c-2.505-.058-3.772-1.9-1.737-3.471a29.355,29.355,0,0,1,3.925-2.326C1312.685,1863.548,1324.917,1860.556,1324.917,1860.556Z" transform="translate(-1142.102 -1570.785)"/><path class="u" d="M1311.264,1264.877c-2.475-5.19-8.1-11.947-18.006-7.877-9.445,3.882-11.98,13.422-9,23.19s22.6,67.2,23.282,75.091l15.664.1s-2.847-45.471-3.545-56.462C1318.986,1288.347,1315.546,1273.86,1311.264,1264.877Z" transform="translate(-1124.032 -1071.319)"/><path class="d" d="M1282.687,1003h52.36a3.414,3.414,0,0,1,3.159,2.119l16.122,39.321h28.866a1.461,1.461,0,0,1,1.462,1.461h0a1.461,1.461,0,0,1-1.462,1.46h-82.156a5.735,5.735,0,0,1-5.232-3.386l-16.234-36.162A3.414,3.414,0,0,1,1282.687,1003Z" transform="translate(-1120.884 -862.335)"/><path class="p" d="M1461.457,1117.05a2.881,2.881,0,1,0,2.16-3.758A3.08,3.08,0,0,0,1461.457,1117.05Z" transform="translate(-1271.463 -953.487)"/><ellipse class="a" cx="25.854" cy="25.908" rx="25.854" ry="25.908" transform="translate(311.346 33.23)"/><g transform="translate(309.395 31.47)"><g transform="translate(0 27.157)"><rect class="n" width="9.531" height="0.734"/></g><g transform="translate(46.137 27.157)"><rect class="n" width="9.531" height="0.734"/></g><g transform="translate(27.398)"><rect class="n" width="0.732" height="9.551"/></g><g transform="translate(27.398 46.048)"><rect class="n" width="0.732" height="9.551"/></g><path class="n" d="M2308.921,528.409a.789.789,0,1,1-.789-.791A.79.79,0,0,1,2308.921,528.409Z" transform="translate(-2280.328 -500.742)"/><g transform="translate(13.275 13.107)"><path class="n" d="M2242.524,463.018a.351.351,0,0,1-.25-.1L2228.1,448.709a.353.353,0,1,1,.5-.5l14.176,14.206a.353.353,0,0,1-.249.6Z" transform="translate(-2227.995 -448.105)"/></g><g transform="translate(27.639 27.667)"><path class="n" d="M2315.667,546.541a.257.257,0,0,1-.128-.149l-4.582-13.87a.256.256,0,1,1,.487-.162l4.582,13.87a.257.257,0,0,1-.359.31Z" transform="translate(-2310.944 -532.184)"/></g></g><path class="v" d="M2549.291,802.563l2.308-3.748-1.854-.752a.792.792,0,0,1-.436-1.032h0a.791.791,0,0,1,1.031-.437l2.137.867,2.063-3.366-1.979-.8a.792.792,0,0,1-.436-1.032h0a.792.792,0,0,1,1.031-.437l2.264.918,2.4-3.854a.793.793,0,0,1,.97-.316l.346.14a.792.792,0,0,1,.378,1.148l-2.229,3.637,3.282,1.331,2.4-3.855a.792.792,0,0,1,.97-.316l.377.153a.792.792,0,0,1,.378,1.148l-2.229,3.637,1.854.751a.792.792,0,0,1,.436,1.032h0a.792.792,0,0,1-1.032.437l-2.137-.867-2.031,3.379,1.979.8a.792.792,0,0,1,.437,1.032h0a.793.793,0,0,1-1.032.437l-2.263-.918-2.447,3.975a.792.792,0,0,1-.972.319l-.4-.164a.792.792,0,0,1-.376-1.15l2.307-3.748-3.281-1.331-2.448,3.975a.792.792,0,0,1-.972.319l-.4-.164A.792.792,0,0,1,2549.291,802.563Zm8.362-3,2.063-3.366-3.282-1.331-2.063,3.366Z" transform="translate(-2170.886 -684.989)"/><path class="e" d="M1376.909,206.3l2.359-5.325-3.049-4.963a.8.8,0,0,1,.764-1.215l5.793.6,3.777-4.434a.8.8,0,0,1,1.392.351l1.221,5.7,5.384,2.223a.8.8,0,0,1,.1,1.432l-5.039,2.921-.45,5.807a.8.8,0,0,1-1.333.534l-4.336-3.89-5.662,1.367A.8.8,0,0,1,1376.909,206.3Z" transform="translate(-1200.947 -190.675)"/><path class="o" d="M2364.9,224.9l1.77-3.994-2.287-3.723a.6.6,0,0,1,.573-.912l4.346.449,2.833-3.326a.6.6,0,0,1,1.044.264l.916,4.272,4.038,1.667a.6.6,0,0,1,.072,1.074l-3.78,2.191-.337,4.356a.6.6,0,0,1-1,.4l-3.252-2.918-4.247,1.025A.6.6,0,0,1,2364.9,224.9Z" transform="translate(-2018.017 -209.289)"/><path class="e" d="M2250.139,888.947l-.281-3.309-2.885-1.645a.456.456,0,0,1,.049-.817l3.06-1.289.673-3.252a.456.456,0,0,1,.792-.206l2.172,2.512,3.3-.365a.456.456,0,0,1,.441.69l-1.718,2.842,1.367,3.026a.456.456,0,0,1-.52.632l-3.233-.756-2.456,2.235A.456.456,0,0,1,2250.139,888.947Z" transform="translate(-1920.826 -759.204)"/><path class="o" d="M735.536,617.969l1.3-2.929-1.677-2.73a.44.44,0,0,1,.42-.668l3.187.329,2.078-2.439a.44.44,0,0,1,.766.193l.672,3.133,2.961,1.222a.44.44,0,0,1,.053.788l-2.772,1.607-.247,3.194a.44.44,0,0,1-.733.294l-2.385-2.139-3.115.752A.44.44,0,0,1,735.536,617.969Z" transform="translate(-670.937 -536.873)"/><path class="l" d="M1315.629,587.358l1.3-2.929-1.677-2.73a.441.441,0,0,1,.421-.669l3.187.329,2.078-2.439a.44.44,0,0,1,.766.193l.672,3.133,2.962,1.223a.44.44,0,0,1,.053.788l-2.771,1.607-.248,3.194a.44.44,0,0,1-.733.293l-2.385-2.139-3.115.752A.44.44,0,0,1,1315.629,587.358Z" transform="translate(-1150.579 -511.563)"/><path class="l" d="M1028,333.546l5.143-.746,2.114,8.143,7.654-.163,2.579,5.835,2.954-1.305-3.449-7.8-7.254.155-2.2-8.471-7.739,1.123Z" transform="translate(-912.96 -305.204)"/><path class="v" d="M956,1104.864l3.892-3.444,6.233,5.65,6.312-4.334,5.356,3.466,1.754-2.711-7.163-4.635-5.981,4.107-6.484-5.878-5.857,5.182Z" transform="translate(-851.991 -940.127)"/><path class="l" d="M611.456,1071.666l3.266-5.3L612.1,1065.3a1.121,1.121,0,0,1-.618-1.46h0a1.122,1.122,0,0,1,1.461-.618l3.025,1.227,2.92-4.764-2.8-1.136a1.122,1.122,0,0,1-.618-1.461h0a1.121,1.121,0,0,1,1.461-.618l3.2,1.3,3.391-5.455a1.121,1.121,0,0,1,1.374-.447l.489.2a1.122,1.122,0,0,1,.535,1.625l-3.154,5.147,4.645,1.884,3.391-5.455a1.121,1.121,0,0,1,1.374-.447l.534.216a1.122,1.122,0,0,1,.535,1.625l-3.154,5.148,2.623,1.063a1.121,1.121,0,0,1,.618,1.461h0a1.121,1.121,0,0,1-1.461.618l-3.025-1.226-2.875,4.782,2.8,1.136a1.122,1.122,0,0,1,.618,1.461h0a1.121,1.121,0,0,1-1.461.618l-3.2-1.3-3.464,5.626a1.121,1.121,0,0,1-1.376.451l-.572-.232a1.121,1.121,0,0,1-.534-1.627l3.266-5.3-4.644-1.883-3.464,5.626a1.121,1.121,0,0,1-1.376.451l-.572-.232A1.121,1.121,0,0,1,611.456,1071.666Zm11.835-4.25,2.92-4.764-4.644-1.884-2.92,4.764Z" transform="translate(-568.575 -902.669)"/><g transform="translate(298.541 140.291)"><path class="m" d="M2129.677,1192.85a24.227,24.227,0,0,0-2.088-8.552c-1.656-3.183-4.565-5.48-7.105-8.01a44.436,44.436,0,0,1-10.6-16.889c-1.7-4.9-2.542-10.121-4.879-14.748-1.427-2.826-3.373-5.352-4.994-8.07-3.831-6.426-5.916-14.02-11.111-19.4a23.316,23.316,0,0,0,5.266,18.444,31.086,31.086,0,0,1,3.738,4.546c1.77,3.1,1.608,6.883,1.816,10.448a45.883,45.883,0,0,0,5.487,19.2c3.409,6.259,8.329,11.833,10.151,18.725,1.366,5.165.96,10.959,3.871,15.436a3.947,3.947,0,0,1,.754,1.546,3.373,3.373,0,0,1-.057.971l-.2,1.247c-.663,4.228-1.347,9.607,2.285,12.771,2.518,2.193,5.758,2.242,7.566-.671,1.821-2.933,1.659-7.225,1.524-10.525C2130.885,1203.825,2130.3,1198.313,2129.677,1192.85Z" transform="translate(-2088.648 -1097.034)"/><path class="w" d="M2266.6,1093.25c-1.414-4.894-3.607-9.554-4.706-14.528-1.066-4.825-1.074-9.812-1.078-14.754q-.007-8.122-.012-16.244a61.3,61.3,0,0,0-.563-10.085c-1.2-7.153-4.916-13.767-5.546-20.993-.272-3.125.044-6.283-.3-9.4a14.807,14.807,0,0,0-1.478-5.179,2.307,2.307,0,0,0-4.139.116c-1.806,3.912-2.951,8.141-2.222,12.333a50.462,50.462,0,0,0,2.34,7.278c3.621,10.771,1.7,22.7,4.5,33.71.846,3.325,2.125,6.585,2.273,10.013.356,8.2-5.771,15.7-5.209,23.89.461,6.717,5.29,12.275,7.317,18.694,1.134,3.594,1.377,7.429,2.593,11,.944,2.771,3.141,6.136,6.552,5.3,3.239-.8,2.26-3.442,2.116-5.967C2268.553,1109.883,2269.014,1101.595,2266.6,1093.25Z" transform="translate(-2219.031 -1000.835)"/><path class="m" d="M2340.581,1121.042c-.142-2.543-.572-5.1-.216-7.621a44.449,44.449,0,0,1,1.753-6.2,55.753,55.753,0,0,0,1.69-11.947l1.5-21.928c.776-11.362,1.557-22.756,3.681-33.944.59-3.106,1.252-6.472-.144-9.308-.294-.6-.873-1.232-1.508-1.033-.453.142-.674.64-.838,1.086-4.644,12.62-6.4,26.207-11.582,38.615-1.242,2.972-2.687,5.9-3.329,9.053-.772,3.791-.348,7.707-.248,11.574a54.617,54.617,0,0,1-1.929,16.469,68.268,68.268,0,0,0-2.314,8.387c-.547,3.578-.088,7.223.255,10.827a166.39,166.39,0,0,1,.668,20.854c-.126,4.089,3.327,3.982,5.613,1.47,1.6-1.757,1.584-3.686,2.132-5.874C2337.563,1134.342,2341.018,1128.828,2340.581,1121.042Z" transform="translate(-2285.596 -1024.142)"/><path class="w" d="M2182.771,1512.585c-3.053-4.9-9.134-7.693-11.084-13.134-.5-1.384-.691-2.873-1.3-4.213-1.347-2.975-4.409-4.656-7.421-6.025a.637.637,0,0,0-.9.573h0a2.173,2.173,0,0,0,.942,1.837,12.215,12.215,0,0,1,4.867,6.639c.93,3.188.526,6.683,1.682,9.8.971,2.614,2.969,4.75,3.907,7.375.858,2.4.768,5.022,1.172,7.538s1.521,5.188,3.832,6.252C2186.833,1533.078,2184.743,1515.754,2182.771,1512.585Z" transform="translate(-2149.355 -1404.596)"/><path class="m" d="M2410.028,1458.531c-.13,2.372.232,4.858-.7,7.043a21.361,21.361,0,0,1-2.538,3.769c-3.078,4.354-4.195,10.523-8.924,12.974a1.609,1.609,0,0,1-1.005.242,1.542,1.542,0,0,1-1-1.011c-1.159-2.7.142-5.745.912-8.583a2.106,2.106,0,0,0,.012-1.507c-.26-.5-.854-.72-1.259-1.114-.808-.786-.732-2.087-.572-3.2a72.7,72.7,0,0,1,1.687-8.283,14.5,14.5,0,0,1,1.773-4.431,19.631,19.631,0,0,1,3.736-3.7,44.276,44.276,0,0,0,12.926-19.081,12.532,12.532,0,0,1,2.164-4.52c1.129-1.247,3.142-1.889,4.517-.921.979.688-3.029,7.135-3.5,7.908-1.335,2.209-1.353,4.131-2.108,6.584C2414.309,1446.711,2410.382,1452.091,2410.028,1458.531Z" transform="translate(-2341.832 -1352.161)"/><path class="w" d="M2366.135,1359.492a29.164,29.164,0,0,0,2.045-6.963c.32-2.678-.1-5.416.353-8.074.588-3.417,2.58-6.422,3.567-9.746a64.512,64.512,0,0,0,1.315-7.389c1.223-7.054,4.54-13.948,3.588-21.044-.207-1.544-.9-3.343-2.436-3.606-1.386-.238-2.649,1.03-3.01,2.392a12.932,12.932,0,0,0,.008,4.207,17.364,17.364,0,0,1-3.11,11.137c-2.179,3.083-5.34,5.4-7.3,8.631-2.4,3.958-2.732,8.789-3.959,13.256-2.44,8.884-8.561,16.635-9.677,25.781-.444,3.64.41,8.064,3.769,9.518C2361,1381.8,2363.934,1365.183,2366.135,1359.492Z" transform="translate(-2302.601 -1250.379)"/><path class="d" d="M2239.741,1696.059h-22.3a2.364,2.364,0,0,0-2.3,2.912l8.127,34.272a2.362,2.362,0,0,0,2.3,1.819h26.782a2.362,2.362,0,0,0,2.3-1.819l8.127-34.272a2.364,2.364,0,0,0-2.3-2.912Z" transform="translate(-2193.19 -1575.671)"/></g><g transform="translate(0 220.567)"><rect class="n" width="108.375" height="5.597" transform="translate(13.026)"/><rect class="n" width="70.856" height="4.898" transform="translate(14.985 32.47)"/><rect class="n" width="4.571" height="76.342" transform="translate(106.195 2.799)"/><rect class="n" width="4.571" height="76.342" transform="translate(41.543 2.799)"/><path class="n" d="M768.79,1553.785l24.626-75.686-4.037-1.313-25.053,77Z" transform="translate(-695.111 -1474.644)"/><path class="n" d="M369.024,1553.841l21.063-75.851-4.09-1.136-21.378,76.987Z" transform="translate(-364.618 -1474.7)"/></g><path class="n" d="M2167.726,357.454a30.257,30.257,0,1,0,30.194,30.257A30.225,30.225,0,0,0,2167.726,357.454Zm1.62,56.114a25.907,25.907,0,1,1,24.183-27.479A25.872,25.872,0,0,1,2169.346,413.568Z" transform="translate(-1830.527 -328.574)"/></g><rect class="r" width="441.057" height="3.376" transform="translate(19.473 311.439)"/></g></svg>