<svg xmlns="http://www.w3.org/2000/svg" width="25.692" height="25.692" viewBox="0 0 25.692 25.692"><defs><style>.a{fill:#fff;}</style></defs><g transform="translate(-1 -1)"><path class="a" d="M26.729,14.459A3.729,3.729,0,1,0,23,10.729,3.734,3.734,0,0,0,26.729,14.459Zm0-6.63a2.9,2.9,0,1,1-2.9,2.9A2.9,2.9,0,0,1,26.729,7.829Z" transform="translate(-12.884 -3.514)"/><path class="a" d="M29.072,15.144A2.072,2.072,0,1,0,27,13.072,2.074,2.074,0,0,0,29.072,15.144Zm0-3.315a1.243,1.243,0,1,1-1.243,1.243A1.245,1.245,0,0,1,29.072,11.829Z" transform="translate(-15.226 -5.856)"/><path class="a" d="M25.863,22.548V9.7A2.074,2.074,0,0,0,23.791,7.63H20.062V5.648L18.9,5.363q-.076-.206-.172-.412l.618-1.022L17.132,1.711,16.11,2.33q-.206-.1-.412-.172L15.414,1H12.278l-.285,1.158q-.206.076-.412.172l-1.022-.618L8.341,3.93,8.96,4.952q-.1.205-.173.412L7.63,5.648V7.63H3.9A2.074,2.074,0,0,0,1.829,9.7V22.548H1V24.62a2.074,2.074,0,0,0,2.072,2.072H24.62a2.074,2.074,0,0,0,2.072-2.072V22.548ZM8.459,6.3l.972-.239.07-.221a4.622,4.622,0,0,1,.3-.716l.107-.206-.52-.859,1.3-1.3.859.52.207-.107a4.531,4.531,0,0,1,.715-.3l.222-.07.239-.972h1.837L15,2.8l.222.07a4.53,4.53,0,0,1,.715.3l.207.107.859-.52,1.3,1.3-.52.859.107.206a4.523,4.523,0,0,1,.3.716l.07.221.972.239V8.134l-.972.239-.07.221a4.556,4.556,0,0,1-.3.716l-.107.206.52.859-1.3,1.3-.859-.52-.207.107a4.531,4.531,0,0,1-.715.3l-.222.07-.239.972H12.928l-.239-.972-.221-.07a4.532,4.532,0,0,1-.716-.3l-.207-.107-.859.52-1.3-1.3.52-.859L9.8,9.31a4.523,4.523,0,0,1-.3-.716l-.07-.221-.972-.239Zm2.1,6.422,1.022-.618q.205.1.412.172l.284,1.158h3.136l.285-1.158q.206-.076.412-.172l1.022.618L19.35,10.5l-.234-.386h4.26V20.89H4.315V10.116h4.26l-.234.386ZM2.658,9.7A1.245,1.245,0,0,1,3.9,8.459H7.63v.325l1.158.285c.027.073.061.146.092.219H4.315a.83.83,0,0,0-.829.829V20.89a.83.83,0,0,0,.829.829H23.377a.83.83,0,0,0,.829-.829V10.116a.83.83,0,0,0-.829-.829H18.812c.031-.073.065-.146.092-.219l1.158-.285V8.459h3.729A1.245,1.245,0,0,1,25.034,9.7V22.548H2.658ZM25.863,24.62a1.245,1.245,0,0,1-1.243,1.243H3.072A1.245,1.245,0,0,1,1.829,24.62V23.377H25.863Z"/><path class="a" d="M5,57h.829v.829H5Z" transform="translate(-2.342 -32.795)"/><path class="a" d="M9,57h.829v.829H9Z" transform="translate(-4.685 -32.795)"/><path class="a" d="M13,57h.829v.829H13Z" transform="translate(-7.027 -32.795)"/><path class="a" d="M13,34.315a3.315,3.315,0,1,0,6.325-1.38l.978-.782-.518-.647-.9.72A3.313,3.313,0,0,0,13,34.315Zm3.315-2.486a2.482,2.482,0,0,1,1.924.914l-2.308,1.846-.981-.981-.586.586L15.87,35.7l2.782-2.225a2.485,2.485,0,1,1-2.337-1.645Z" transform="translate(-7.027 -17.568)"/><path class="a" d="M38.315,37.63A3.315,3.315,0,1,0,35,34.315,3.319,3.319,0,0,0,38.315,37.63Zm0-5.8a2.486,2.486,0,1,1-2.486,2.486A2.489,2.489,0,0,1,38.315,31.829Z" transform="translate(-19.911 -17.568)"/><path class="a" d="M39.879,38.365l.95-.95.95.95.586-.586-.95-.95.95-.95-.586-.586-.95.95-.95-.95-.586.586.95.95-.95.95Z" transform="translate(-22.425 -20.083)"/></g></svg>