<svg xmlns="http://www.w3.org/2000/svg" width="42.554" height="38.824" viewBox="0 0 42.554 38.824"><defs><style>.a{fill:#fff;}</style></defs><g transform="translate(-2.353 -9)"><g transform="translate(12.804 21.673)"><path class="a" d="M36.227,36.935H27.667a.567.567,0,1,1,0-1.135h8.559a.567.567,0,1,1,0,1.135Z" transform="translate(-27.1 -35.8)"/></g><g transform="translate(12.804 23.943)"><path class="a" d="M39.4,41.735H27.667a.567.567,0,0,1,0-1.135H39.442a.546.546,0,0,1,.567.567A.586.586,0,0,1,39.4,41.735Z" transform="translate(-27.1 -40.6)"/></g><g transform="translate(7.696 20.207)"><path class="a" d="M17.577,35.49a1.338,1.338,0,0,0,1.277-1.419A1.356,1.356,0,0,0,17.577,32.7,1.338,1.338,0,0,0,16.3,34.119a1.3,1.3,0,0,0,1.277,1.371" transform="translate(-16.3 -32.7)"/></g><g transform="translate(6.514 22.997)"><path class="a" d="M18.718,40.492V39.5c0-.757-.615-.9-1.324-.9a1.979,1.979,0,0,1-1.135.378,2.173,2.173,0,0,1-1.135-.378c-.709,0-1.324.189-1.324.946v.993a5.457,5.457,0,0,0,2.459.52A7.427,7.427,0,0,0,18.718,40.492Z" transform="translate(-13.8 -38.6)"/></g><g transform="translate(7.696 28.483)"><path class="a" d="M17.577,52.99A1.4,1.4,0,1,0,16.3,51.619a1.324,1.324,0,0,0,1.277,1.371" transform="translate(-16.3 -50.2)"/></g><g transform="translate(6.514 31.273)"><path class="a" d="M18.718,57.992V57c0-.757-.615-.9-1.324-.9a1.979,1.979,0,0,1-1.135.378,2.173,2.173,0,0,1-1.135-.378c-.709,0-1.324.189-1.324.946v.993a5.457,5.457,0,0,0,2.459.52A6.2,6.2,0,0,0,18.718,57.992Z" transform="translate(-13.8 -56.1)"/></g><g transform="translate(12.804 38.272)"><path class="a" d="M36.227,72.035H27.667a.567.567,0,1,1,0-1.135h8.559a.567.567,0,1,1,0,1.135Z" transform="translate(-27.1 -70.9)"/></g><g transform="translate(12.804 40.541)"><path class="a" d="M39.4,76.835H27.667a.567.567,0,1,1,0-1.135H39.442a.546.546,0,0,1,.567.567A.657.657,0,0,1,39.4,76.835Z" transform="translate(-27.1 -75.7)"/></g><g transform="translate(7.696 36.806)"><path class="a" d="M17.577,70.59A1.4,1.4,0,1,0,16.3,69.219a1.3,1.3,0,0,0,1.277,1.371" transform="translate(-16.3 -67.8)"/></g><g transform="translate(6.514 39.596)"><path class="a" d="M18.718,75.592V74.6c0-.757-.615-.9-1.324-.9a1.979,1.979,0,0,1-1.135.378,2.173,2.173,0,0,1-1.135-.378c-.709,0-1.324.189-1.324.946v.993a5.457,5.457,0,0,0,2.459.52A7.427,7.427,0,0,0,18.718,75.592Z" transform="translate(-13.8 -73.7)"/></g><path class="a" d="M27.667,54.535h8.559a.567.567,0,0,0,0-1.135H27.667a.567.567,0,0,0,0,1.135Z" transform="translate(-14.296 -23.404)"/><path class="a" d="M89.282,15.332l-3.121-2.79a.569.569,0,0,0-.8.047l-.709.757a.588.588,0,0,0,.047.8l3.121,2.79a.537.537,0,0,0,.378.142h.047a.584.584,0,0,0,.378-.189l.709-.757A.585.585,0,0,0,89.282,15.332Z" transform="translate(-44.559 -1.792)"/><path class="a" d="M45.432,15.715l-3.121-2.79a.588.588,0,0,0-.8.047l-9.6,10.687V14.3a2.846,2.846,0,0,0-2.837-2.837H21.22a2.628,2.628,0,0,1-1.04-.993C19.754,9.426,19.234,9,18.477,9s-1.277.426-1.75,1.466a2.114,2.114,0,0,1-1.04.993H7.837A2.846,2.846,0,0,0,5,14.3v30.69a2.846,2.846,0,0,0,2.837,2.837H29.023a2.846,2.846,0,0,0,2.837-2.837V31.6L45.432,16.519a.578.578,0,0,0,.142-.426A.537.537,0,0,0,45.432,15.715Zm-27-6.006a.757.757,0,1,1-.757.757A.747.747,0,0,1,18.43,9.709ZM30.252,44.987a1.252,1.252,0,0,1-1.23,1.229H7.837a1.252,1.252,0,0,1-1.23-1.229V14.3a1.252,1.252,0,0,1,1.23-1.23h7.093V14.3a14.59,14.59,0,0,0-3.168.331c-1.277.378-1.419,2.223-1.419,2.317,0,.047,0,.047.047.095a.165.165,0,0,0,.095.047H26.422c.047,0,.047,0,.095-.047a.165.165,0,0,0,.047-.095c0-.095-.095-1.892-1.419-2.317a25.027,25.027,0,0,0-3.168-.331v-1.23H29.07A1.252,1.252,0,0,1,30.3,14.3V25.5l-3.925,4.3a1.034,1.034,0,0,0-.142.236l-.52,2.175H16.018a.567.567,0,1,0,0,1.135h9.458l-.236.946a.449.449,0,0,0,.189.52.537.537,0,0,0,.378.142A.284.284,0,0,0,26,34.914L30.11,33.5c.095-.047.142-.047.189-.142V44.987ZM42.358,15.762,29.306,30.327a.513.513,0,0,1-.426.189.537.537,0,0,1-.378-.142.586.586,0,0,1-.047-.8l13.1-14.565a.553.553,0,1,1,.8.757Z" transform="translate(-2.647 0)"/></g></svg>