<svg xmlns="http://www.w3.org/2000/svg" width="38" height="38" viewBox="0 0 38 38"><defs><style>.a{fill:#fff;}</style></defs><path class="a" d="M70.094,49A10.094,10.094,0,1,0,80.188,59.094,10.094,10.094,0,0,0,70.094,49Zm0,19A8.906,8.906,0,1,1,79,59.094,8.906,8.906,0,0,1,70.094,68Z" transform="translate(-42.188 -34.453)"/><path class="a" d="M88.628,61.976l-.2-.1a2.086,2.086,0,0,0-2.768.926l-3.594,7.082c0,.006,0,.013-.007.019a.584.584,0,0,0-.023.061c-.006.017-.011.033-.015.05a.772.772,0,0,0-.016.119c0,.008,0,.016,0,.024l.021,3.487a.594.594,0,0,0,.327.527.606.606,0,0,0,.618-.051l2.847-2.082a.59.59,0,0,0,.068-.061l.017-.016a.585.585,0,0,0,.086-.123s.006-.007.008-.012l3.575-7.045a2.077,2.077,0,0,0-.939-2.807ZM85.2,70.769l-1.8-.883,2.445-4.819,1.8.883Z" transform="translate(-57.656 -43.36)"/><path class="a" d="M2.375,38h23.75a2.378,2.378,0,0,0,2.357-2.093q-.286.014-.576.015a11.268,11.268,0,0,1-8.971-4.452H5.2a.594.594,0,0,1,0-1.187H18.142l.009.015a11.2,11.2,0,0,1-1.488-4.765H5.2a.594.594,0,0,1,0-1.187H16.633a11.2,11.2,0,0,1,1.189-4.75H5.2a.594.594,0,0,1,0-1.187H18.51l0,0a11.279,11.279,0,0,1,9.4-5.051q.3,0,.594.016v-11A2.378,2.378,0,0,0,26.125,0H2.375A2.378,2.378,0,0,0,0,2.375v33.25A2.378,2.378,0,0,0,2.375,38ZM23.453,13.656H5.2a.594.594,0,0,1,0-1.187H23.453a.594.594,0,0,1,0,1.188ZM5.047,6.531H23.3a.594.594,0,0,1,0,1.188H5.047a.594.594,0,0,1,0-1.187Z"/></svg>