<svg xmlns="http://www.w3.org/2000/svg" width="30.798" height="30.796" viewBox="0 0 30.798 30.796"><defs><style>.a{fill:#29485a;}.b{fill:#ed1c24;}.c{fill:#fbb03b;}.d{fill:#f8cf26;}.e{fill:#39b54a;}.f{fill:#0071bc;}</style></defs><g transform="translate(0 -0.018)"><g transform="translate(0 29.787)"><path class="a" d="M0,494.916H30.8v1.027H0Z" transform="translate(0 -494.916)"/></g><g transform="translate(2.01 0.359)"><path class="b" d="M33.5,28.454l-.087-1.027A27.392,27.392,0,0,0,56.889,9.213L58.121,5.7l.969.339L57.858,9.552A28.419,28.419,0,0,1,33.5,28.454Z" transform="translate(-33.408 -5.7)"/><path class="b" d="M42.667,418.116H46.26v3.08H42.667Z" transform="translate(-42.11 -393.309)"/></g><path class="c" d="M136.533,392.516h3.593v4.62h-3.593Z" transform="translate(-128.32 -368.889)"/><path class="d" d="M230.4,349.849h3.593v7.186H230.4Z" transform="translate(-216.541 -328.788)"/><path class="e" d="M324.267,290.116h3.593V300.9h-3.593Z" transform="translate(-304.762 -272.648)"/><path class="f" d="M418.133,170.649h3.593v17.965h-3.593Z" transform="translate(-392.982 -160.368)"/><path class="b" d="M382.134,5.149a.513.513,0,0,1-.462-.284L379.849,1.22,376.2,3.044a.514.514,0,0,1-.459-.919L379.852.072a.513.513,0,0,1,.689.229h0l2.053,4.106a.513.513,0,0,1-.459.74Z" transform="translate(-352.877 0)"/></g></svg>