<svg xmlns="http://www.w3.org/2000/svg" width="251.924" height="219" viewBox="0 0 251.924 219"><defs><style>.a{fill:#b9c3eb;}.b{fill:#fad000;}.ad,.ae,.ai,.c,.i,.m,.p,.w,.x{fill:none;}.c,.m,.w,.x{stroke:#fff;}.ad,.c,.m,.p,.w,.x{stroke-miterlimit:10;}.c{stroke-width:1.075px;}.d,.q,.r{fill:#fff;}.e,.o,.t{fill:#d2cfe9;}.e{opacity:0.59;}.aa,.ac,.ah,.e,.o,.s,.t,.y,.z{mix-blend-mode:multiply;isolation:isolate;}.f,.y{fill:#48cb99;}.af,.g{fill:#fcfaeb;}.h,.z{fill:#6571af;}.i,.p{stroke:#6571af;}.ae,.ai,.i{stroke-linecap:round;stroke-linejoin:round;}.i{stroke-width:1.738px;}.j,.s{fill:#473ea5;}.k{fill:#ded8eb;}.ah,.l{fill:#28215e;}.m{stroke-width:0.798px;}.n,.v{fill:#8293dc;}.p{stroke-width:0.481px;}.q{font-size:5px;}.af,.q,.r,.v{font-family:SegoeUI, Segoe UI;}.r{font-size:3px;}.s{opacity:0.58;}.t{opacity:0.48;}.aa,.u{fill:#ffd864;}.v{font-size:6px;}.w{stroke-width:1.1px;}.x{stroke-width:1.241px;}.y{opacity:0.36;}.z{opacity:0.46;}.aa{opacity:0.49;}.ab,.ac{fill:#ed6a8d;}.ac{opacity:0.54;}.ad{stroke:#ed6a8d;stroke-width:3.289px;}.ae{stroke:#454b8f;stroke-width:1.282px;}.af{font-size:4px;}.ag{fill:#373271;}.ah{opacity:0.41;}.ai{stroke:#deb800;stroke-width:2px;}.aj{fill:#deb800;}</style></defs><g transform="translate(-25.861 -56.893)"><path class="a" d="M76.3,58.112c23.021-4.729,49.545,4.3,66.68,27.14,5.361,7.146,9.883,15.16,16.883,20.711a44.063,44.063,0,0,0,11.8,6.329,87.868,87.868,0,0,0,52.018,3.19c8.444-2.086,16.627-5.444,25.281-6.325s18.308,1.27,23.587,8.183c3.023,3.959,4.26,9,4.853,13.941.8,6.645.509,13.629-2.395,19.658-5.165,10.724-17.086,16.03-27.689,21.44-14.2,7.244-28.219,16.873-34.912,31.339-2.628,5.68-4.008,11.885-6.781,17.5-6.339,12.83-19.726,21.385-33.837,23.774s-28.771-.875-41.636-7.142c-4.632-2.256-9.161-4.966-12.533-8.861-3.22-3.718-5.213-8.308-7.613-12.6a72.192,72.192,0,0,0-22.373-24.4c-13.7-9.3-29.58-15.321-41.382-26.938C7.134,126.54,28.215,67.99,76.3,58.112Z" transform="translate(0 0)"/><g transform="translate(29.668 69.745)"><g transform="translate(0 79.261)"><circle class="b" cx="16.183" cy="16.183" r="16.183"/><circle class="c" cx="14.392" cy="14.392" r="14.392" transform="translate(1.791 1.791)"/><path class="d" d="M55.222,234.909v15.8l9.885-8.72Z" transform="translate(-42.38 -226.079)"/></g><ellipse class="e" cx="93.559" cy="5.164" rx="93.559" ry="5.164" transform="translate(49.266 184.751)"/><g transform="translate(167.016 2.664)"><circle class="f" cx="30.402" cy="30.402" r="30.402" transform="matrix(0.218, -0.976, 0.976, 0.218, 0, 59.339)"/><circle class="g" cx="27.125" cy="27.125" r="27.125" transform="translate(3.302 55.86) rotate(-75.651)"/><path class="h" d="M392.318,147.156a1.469,1.469,0,1,1-1.469-1.469A1.469,1.469,0,0,1,392.318,147.156Z" transform="translate(-354.072 -110.853)"/><path class="h" d="M432.172,146.16a1.469,1.469,0,1,1-1.469-1.469A1.469,1.469,0,0,1,432.172,146.16Z" transform="translate(-371.327 -110.422)"/><path class="h" d="M392.318,106.637a1.469,1.469,0,1,1-1.469-1.469A1.469,1.469,0,0,1,392.318,106.637Z" transform="translate(-354.072 -93.31)"/><path class="h" d="M352.252,147.156a1.469,1.469,0,1,1-1.469-1.469A1.469,1.469,0,0,1,352.252,147.156Z" transform="translate(-336.725 -110.853)"/><path class="h" d="M392.318,186.029a1.469,1.469,0,1,1-1.469-1.469A1.469,1.469,0,0,1,392.318,186.029Z" transform="translate(-354.072 -127.683)"/><line class="i" x1="8.203" y2="10.376" transform="translate(37.199 25.363)"/><line class="i" y2="7.379" transform="translate(36.777 37.773)"/><line class="i" x1="1.54" y2="2.746" transform="translate(47.403 14.796)"/><line class="i" x1="2.802" y2="1.777" transform="translate(55.105 23.585)"/><line class="i" x2="1.54" y2="2.746" transform="translate(24.798 14.796)"/><line class="i" x2="2.802" y2="1.777" transform="translate(15.834 23.585)"/><line class="i" x1="1.54" y1="2.746" transform="translate(47.403 54.131)"/><line class="i" x1="2.802" y1="1.777" transform="translate(55.106 46.311)"/><line class="i" y1="2.746" x2="1.54" transform="translate(24.799 54.131)"/><line class="i" y1="1.777" x2="2.802" transform="translate(15.834 46.311)"/></g><g transform="translate(50.735 57.935)"><path class="j" d="M257.879,362.416l6.97,23.839H228.872l6.97-23.839Z" transform="translate(-168.298 -259.959)"/><rect class="j" width="42.449" height="3.539" transform="translate(57.36 126.296)"/><rect class="j" width="156.895" height="102.442" rx="13.595"/><rect class="k" width="144.645" height="78.827" rx="8.706" transform="translate(6.262 6.783)"/><path class="l" d="M261.046,344.886a2.761,2.761,0,1,1-2.761-2.761A2.761,2.761,0,0,1,261.046,344.886Z" transform="translate(-179.838 -251.173)"/><g transform="translate(13.347 13.105)"><rect class="m" width="129.66" height="62.999" transform="translate(0.241 0.272)"/><rect class="n" width="130.124" height="5.172"/><g transform="translate(2.598 1.752)"><circle class="d" cx="0.833" cy="0.833" r="0.833"/><circle class="d" cx="0.833" cy="0.833" r="0.833" transform="translate(2.5)"/><circle class="d" cx="0.833" cy="0.833" r="0.833" transform="translate(5.238)"/></g></g><path class="e" d="M141.8,276.288H276.569a4.937,4.937,0,0,0,4.937-4.937V202.4S259.778,270.374,141.8,276.288Z" transform="translate(-130.599 -190.677)"/></g><g transform="translate(97.888 49.941)"><path class="o" d="M265.6,170.064H214.281a5.773,5.773,0,0,0-5.773,5.773v69.207a5.773,5.773,0,0,0,5.773,5.773H265.6a5.773,5.773,0,0,0,5.773-5.773V175.837A5.773,5.773,0,0,0,265.6,170.064Z" transform="translate(-206.634 -168.684)"/><path class="d" d="M268.067,183.545V249.5a5.773,5.773,0,0,1-5.773,5.773H210.977A5.773,5.773,0,0,1,205.2,249.5v-65.59" transform="translate(-205.204 -174.521)"/><path class="h" d="M205.2,177.021V173.4a5.773,5.773,0,0,1,5.773-5.773h51.317a5.773,5.773,0,0,1,5.773,5.773v3.251Z" transform="translate(-205.204 -167.631)"/><g transform="translate(11.609 16.19)"><rect class="h" width="45.701" height="1.229"/><rect class="h" width="45.701" height="1.229" transform="translate(0 3.317)"/><rect class="h" width="23.43" height="1.228" transform="translate(0 6.88)"/></g><rect class="p" width="2.703" height="2.703" transform="translate(6.546 16.19)"/><g transform="translate(11.609 28.353)"><rect class="h" width="45.701" height="1.229"/><rect class="h" width="45.701" height="1.229" transform="translate(0 3.317)"/><rect class="h" width="23.43" height="1.228" transform="translate(0 6.88)"/></g><rect class="p" width="2.703" height="2.703" transform="translate(6.546 28.353)"/><g transform="translate(12.95 44.151)"><rect class="p" width="2.703" height="2.703"/><rect class="h" width="36.123" height="1.229" transform="translate(4.42 0.123)"/><rect class="h" width="36.123" height="1.228" transform="translate(4.42 2.827)"/><rect class="h" width="36.123" height="1.228" transform="translate(4.42 5.605)"/><rect class="p" width="2.703" height="2.703" transform="translate(0 10.665)"/><rect class="h" width="36.123" height="1.229" transform="translate(4.42 10.787)"/><rect class="h" width="36.123" height="1.228" transform="translate(4.42 13.491)"/><rect class="h" width="36.123" height="1.228" transform="translate(4.42 16.27)"/><rect class="p" width="2.703" height="2.703" transform="translate(0 20.653)"/><rect class="h" width="36.123" height="1.229" transform="translate(4.42 20.776)"/><rect class="h" width="36.123" height="1.229" transform="translate(4.42 23.48)"/><rect class="h" width="36.123" height="1.229" transform="translate(4.42 26.258)"/></g></g><g transform="translate(51.288 87.82)"><rect class="o" width="34.915" height="25.789" rx="3.897" transform="translate(4.133 1.004)"/><rect class="f" width="34.915" height="25.789" rx="3.897" transform="translate(2.837)"/><text class="q" transform="translate(23 9.744)"><tspan x="-23.367" y="0">TIME LEFT:</tspan></text><text class="r" transform="translate(18.925 16.977)"><tspan x="-9.064" y="0">30 min</tspan></text></g><path class="s" d="M240.287,362.416h22.037l1.148,3.926H239.139Z" transform="translate(-122.008 -202.024)"/><g transform="translate(147.163 81.15)"><rect class="t" width="74.206" height="92.771" transform="translate(2.453 3.612)"/><rect class="n" width="74.206" height="92.771"/><rect class="g" width="69.518" height="87.502" transform="translate(2.453 2.158)"/><g transform="translate(22.235 69.207)"><g transform="translate(9.633 22.793)"><path class="j" d="M359.134,403.027l-5.416-2.408-5.416,2.408V384.915h10.832Z" transform="translate(-348.302 -384.915)"/></g><path class="b" d="M349.671,347.2a5.99,5.99,0,0,1-3.761-2.484,7.952,7.952,0,0,1-9.074,2.764,7.215,7.215,0,0,1-5.321,7.434,9.873,9.873,0,0,1-.2,11.58,7.289,7.289,0,0,1,5.638,7.7,7.43,7.43,0,0,1,9.535,2.853,5.863,5.863,0,0,1,3.96-3.568,10.078,10.078,0,0,1,5.47.133,6.334,6.334,0,0,1,5.352-8.152,11.874,11.874,0,0,1-.759-11.123,5.7,5.7,0,0,1-4.474-2.926,11.439,11.439,0,0,1-1.09-4.724A8.356,8.356,0,0,1,349.671,347.2Z" transform="translate(-331.313 -344.719)"/><path class="g" d="M359.69,367.9a9.736,9.736,0,1,1-7.272-11.691A9.736,9.736,0,0,1,359.69,367.9Z" transform="translate(-335.277 -349.581)"/><path class="u" d="M359.3,368.891a7.881,7.881,0,1,1-5.888-9.464A7.882,7.882,0,0,1,359.3,368.891Z" transform="translate(-336.694 -350.997)"/></g><g transform="translate(15.911 29.305)"><rect class="n" width="22.687" height="1.359" transform="translate(9.713 3.15)"/><rect class="n" width="41.126" height="1.359"/><rect class="n" width="33.315" height="1.359" transform="translate(4.471 14.321)"/><rect class="n" width="33.315" height="1.359" transform="translate(4.272 20.692)"/><rect class="n" width="33.315" height="1.359" transform="translate(4.272 24.212)"/><rect class="n" width="38.282" height="1.359" transform="translate(2.051 17.412)"/><rect class="n" width="15.957" height="1.359" transform="translate(0 34.1)"/><rect class="n" width="15.957" height="1.359" transform="translate(25.17 34.1)"/></g><text class="v" transform="translate(35.567 19.108)"><tspan x="-32.669" y="0">CERTIFICATE</tspan></text></g><g transform="translate(5.145 164.736)"><ellipse class="e" cx="43.744" cy="5.164" rx="43.744" ry="5.164" transform="translate(0 31.083)"/><g transform="translate(3.506)"><rect class="f" width="78.864" height="11.394" transform="translate(1.183 25.896)"/><rect class="u" width="78.864" height="11.394"/><rect class="h" width="78.864" height="14.502" transform="translate(3.747 11.394)"/><line class="w" y2="11.394" transform="translate(11.352 25.896)"/><line class="w" y2="11.394" transform="translate(15.063 25.896)"/><line class="w" y2="11.394" transform="translate(66.827 25.896)"/><line class="w" y2="11.394" transform="translate(70.537 25.896)"/><line class="x" y2="14.502" transform="translate(73.524 11.394)"/><line class="x" y2="14.502" transform="translate(77.234 11.394)"/><line class="x" y2="14.502" transform="translate(16.979 11.394)"/><line class="x" y2="14.502" transform="translate(20.689 11.394)"/><line class="w" y2="11.394" transform="translate(5.43)"/><line class="w" y2="11.394" transform="translate(9.14)"/><line class="w" y2="11.394" transform="translate(66.827)"/><line class="w" y2="11.394" transform="translate(70.537)"/><rect class="y" width="78.864" height="2.085" transform="translate(1.183 35.205)"/><rect class="z" width="78.864" height="2.085" transform="translate(3.747 23.811)"/><rect class="aa" width="78.864" height="2.085" transform="translate(0 9.309)"/></g></g><g transform="translate(12.104 116.946)"><g transform="translate(0 17.151)"><path class="ab" d="M0,0H24.752a0,0,0,0,1,0,0V18.513a12.2,12.2,0,0,1-12.2,12.2h0A12.552,12.552,0,0,1,0,18.161V0A0,0,0,0,1,0,0Z" transform="translate(5.934 0)"/><path class="ac" d="M71.27,345.2a8.917,8.917,0,0,0,5.052,1.559h7.093a8.7,8.7,0,0,0,8.7-8.7V316.043S89.813,346.452,71.27,345.2" transform="translate(-61.432 -316.043)"/><path class="ad" d="M60.911,325.252a3.253,3.253,0,0,0-5.8-.933,5.815,5.815,0,0,0-.809,2.345,26.044,26.044,0,0,0-.205,7.5c.184,1.555.659,3.3,2.061,4a3.524,3.524,0,0,0,3.55-.522,9.753,9.753,0,0,0,2.369-2.907" transform="translate(-53.921 -319.02)"/></g><g transform="translate(12.209)"><path class="ae" d="M77.337,285.8a5.686,5.686,0,0,0-1.223,6.884c.447.8,1.085,1.47,1.53,2.267a5.615,5.615,0,0,1-.938,6.548" transform="translate(-75.451 -285.797)"/><path class="ae" d="M85.012,285.8a5.685,5.685,0,0,0-1.223,6.884c.447.8,1.085,1.47,1.53,2.267a5.615,5.615,0,0,1-.938,6.548" transform="translate(-78.774 -285.797)"/><path class="ae" d="M93.832,285.8a5.685,5.685,0,0,0-1.223,6.884c.447.8,1.085,1.47,1.53,2.267A5.615,5.615,0,0,1,93.2,301.5" transform="translate(-82.593 -285.797)"/></g></g><text class="af" transform="translate(124.794 54.558)"><tspan x="0" y="0">TEST</tspan></text><g transform="translate(27.447 32.34)"><path class="ag" d="M80.979,174.552l25.99-36.505,45.446-1.456-28.126,33.268Z" transform="translate(-80.979 -136.591)"/><path class="l" d="M144.838,149.063a52.536,52.536,0,0,0-41.12,21.851l9.8,18.445s19.2-17.647,41.12-21.852l-9.608-18.082" transform="translate(-90.824 -141.991)"/><path class="ah" d="M139.691,172.366a68.247,68.247,0,0,1,14.947-4.858l-9.608-18.082-.193-.362a52.536,52.536,0,0,0-41.12,21.851l1.835,3.453s21.448-18.763,34.138-2" transform="translate(-90.824 -141.991)"/><path class="ai" d="M92.335,186.363a3.843,3.843,0,0,0-.676,3.031c.41,2.075,2.333,3.473,3.34,5.333a10.476,10.476,0,0,1,.792,6.244,50.272,50.272,0,0,0-.75,6.345" transform="translate(-85.571 -158.14)"/><path class="aj" d="M96.028,220.154c.429.061.646.54.769.955a15.827,15.827,0,0,1,.5,6.573c-.033.246-.205.57-.43.466a2.972,2.972,0,0,0-.336-.781,3.655,3.655,0,0,1-.365.827c-.052.086-.136.183-.233.155a.242.242,0,0,1-.129-.143l-.291-.6a.482.482,0,0,1-.493.517.527.527,0,0,1-.464-.565.421.421,0,0,1-.421.492.669.669,0,0,1-.566-.434,1.774,1.774,0,0,1-.094-.743,23.28,23.28,0,0,1,.961-5.244,2.893,2.893,0,0,1,.446-1.074.986.986,0,0,1,1.026-.394" transform="translate(-86.389 -172.758)"/></g><g transform="translate(137.025 22.38)"><path class="ab" d="M274.224,119.026v12.85h22.6l4.285,4.386V119.026Z" transform="translate(-274.224 -119.026)"/><g transform="translate(7.73 4.749)"><path class="d" d="M290.445,128.695a1.294,1.294,0,1,1-1.294-1.294A1.294,1.294,0,0,1,290.445,128.695Z" transform="translate(-287.857 -127.401)"/><path class="d" d="M297.292,128.695A1.294,1.294,0,1,1,296,127.4,1.294,1.294,0,0,1,297.292,128.695Z" transform="translate(-290.821 -127.401)"/><circle class="d" cx="1.294" cy="1.294" r="1.294" transform="translate(8.134 0)"/></g></g><g transform="translate(20.352)"><path class="d" d="M215.57,143.315c4.059-.217,4.329-5.2,4.329-5.2s.27,4.979,4.329,5.2c-4.059.216-4.329,5.2-4.329,5.2S219.629,143.531,215.57,143.315Z" transform="translate(-132.156 -104.912)"/><g transform="translate(0 32.18)"><path class="d" d="M90.975,146.6c2.715-.145,2.9-3.475,2.9-3.475s.181,3.33,2.9,3.475c-2.715.145-2.9,3.475-2.9,3.475S93.69,146.74,90.975,146.6Z" transform="translate(-78.211 -139.258)"/><path class="d" d="M80.532,159.967c2.025-.108,2.16-2.592,2.16-2.592s.135,2.485,2.16,2.592c-2.025.108-2.16,2.593-2.16,2.593S82.557,160.076,80.532,159.967Z" transform="translate(-73.69 -145.43)"/><path class="d" d="M68.466,141.062c3.714-.2,3.961-4.753,3.961-4.753s.248,4.554,3.961,4.753c-3.713.2-3.961,4.753-3.961,4.753S72.179,141.26,68.466,141.062Z" transform="translate(-68.466 -136.309)"/></g><path class="d" d="M429.371,210.378c4.059-.217,4.33-5.2,4.33-5.2s.27,4.979,4.329,5.2c-4.059.216-4.329,5.2-4.329,5.2S433.43,210.594,429.371,210.378Z" transform="translate(-224.723 -133.948)"/><path class="d" d="M444.319,197.885c2.025-.108,2.16-2.593,2.16-2.593s.135,2.484,2.16,2.593c-2.025.108-2.16,2.592-2.16,2.592S446.344,197.992,444.319,197.885Z" transform="translate(-231.195 -129.666)"/><path class="d" d="M452.509,210.2c2.025-.108,2.16-2.593,2.16-2.593s.135,2.484,2.16,2.593c-2.026.108-2.16,2.592-2.16,2.592S454.534,210.306,452.509,210.2Z" transform="translate(-234.741 -134.997)"/><g transform="translate(140.4)"><path class="h" d="M338.575,89.845c2.715-.145,2.9-3.475,2.9-3.475s.181,3.33,2.9,3.475c-2.715.145-2.9,3.475-2.9,3.475S341.29,89.989,338.575,89.845Z" transform="translate(-325.811 -82.507)"/><path class="h" d="M328.132,103.217c2.025-.108,2.16-2.592,2.16-2.592s.135,2.484,2.16,2.592c-2.025.108-2.16,2.593-2.16,2.593S330.157,103.325,328.132,103.217Z" transform="translate(-321.29 -88.679)"/><path class="h" d="M316.066,84.311c3.713-.2,3.961-4.753,3.961-4.753s.248,4.555,3.961,4.753c-3.713.2-3.961,4.753-3.961,4.753S319.779,84.509,316.066,84.311Z" transform="translate(-316.066 -79.558)"/></g></g></g></g></svg>