<svg xmlns="http://www.w3.org/2000/svg" width="20.755" height="20.755" viewBox="0 0 20.755 20.755"><defs><style>.a{fill:#fff;}</style></defs><circle class="a" cx="0.798" cy="0.798" r="0.798" transform="translate(14.635 7.717)"/><path class="a" d="M17.512,1.621H16.458V.811a.811.811,0,1,0-1.621,0v.811H11.148V.811a.811.811,0,1,0-1.621,0v.811H5.878V.811a.811.811,0,1,0-1.621,0v.811H3.243A3.247,3.247,0,0,0,0,4.864V17.512a3.247,3.247,0,0,0,3.243,3.243h6.2a.811.811,0,1,0,0-1.621h-6.2a1.623,1.623,0,0,1-1.621-1.621V4.864A1.623,1.623,0,0,1,3.243,3.243H4.256v.811a.811.811,0,1,0,1.621,0V3.243H9.526v.811a.811.811,0,1,0,1.621,0V3.243h3.689v.811a.811.811,0,1,0,1.621,0V3.243h1.054a1.623,1.623,0,0,1,1.621,1.621V9.486a.811.811,0,1,0,1.621,0V4.864A3.247,3.247,0,0,0,17.512,1.621Z"/><path class="a" d="M274.9,270a4.9,4.9,0,1,0,4.9,4.9A4.911,4.911,0,0,0,274.9,270Zm0,8.188a3.284,3.284,0,1,1,3.284-3.284A3.287,3.287,0,0,1,274.9,278.188Z" transform="translate(-259.055 -259.055)"/><path class="a" d="M372.986,331.662h-.365v-.851a.811.811,0,1,0-1.621,0v1.662a.811.811,0,0,0,.811.811h1.176a.811.811,0,1,0,0-1.621Z" transform="translate(-355.961 -316.623)"/><circle class="a" cx="0.798" cy="0.798" r="0.798" transform="translate(11.442 7.717)"/><circle class="a" cx="0.798" cy="0.798" r="0.798" transform="translate(7.717 11.442)"/><ellipse class="a" cx="1.064" cy="0.798" rx="1.064" ry="0.798" transform="translate(3.991 7.717)"/><ellipse class="a" cx="1.064" cy="0.798" rx="1.064" ry="0.798" transform="translate(3.991 11.442)"/><ellipse class="a" cx="1.064" cy="0.798" rx="1.064" ry="0.798" transform="translate(3.991 14.635)"/><circle class="a" cx="0.798" cy="0.798" r="0.798" transform="translate(7.717 14.635)"/><circle class="a" cx="0.798" cy="0.798" r="0.798" transform="translate(7.717 7.717)"/></svg>