<svg xmlns="http://www.w3.org/2000/svg" width="38.035" height="42.052" viewBox="0 0 38.035 42.052"><defs><style>.a{fill:#fff;}</style></defs><g transform="translate(-3.099 -2.5)"><g transform="translate(3.099 2.5)"><path class="a" d="M49.424,63.744l-1.107,1.062a.928.928,0,0,1-1.416-.133l-3.453-4.648a.952.952,0,0,0-1.549.044l-5.887,9.473a.919.919,0,0,0,.8,1.416H54.072a.921.921,0,0,0,.752-1.461L50.84,63.876A.959.959,0,0,0,49.424,63.744Z" transform="translate(-23.086 -34.352)"/><circle class="a" cx="2.39" cy="2.39" r="2.39" transform="translate(26.205 21.778)"/><path class="a" d="M44.8,18.7,35.684,9.582a.9.9,0,0,0-.664-.266L26.3,9.273A9.906,9.906,0,1,0,13.728,21.8V41.763a2.777,2.777,0,0,0,2.789,2.789H42.235a2.777,2.777,0,0,0,2.789-2.789V19.321A.651.651,0,0,0,44.8,18.7Zm-8.853-6.2,5.931,5.931H35.949Zm-27.09-.089a8.056,8.056,0,1,1,8.056,8.056A8.086,8.086,0,0,1,8.859,12.415Zm34.35,29.348a.908.908,0,0,1-.93.93H16.517a.908.908,0,0,1-.93-.93V22.242c.443.044.885.089,1.328.089a9.927,9.927,0,0,0,9.915-9.915,12.505,12.505,0,0,0-.089-1.284l7.348.044v8.189a.908.908,0,0,0,.93.93h8.189V41.763Z" transform="translate(-7 -2.5)"/><path class="a" d="M23.741,15.963H24.98v3.32a.3.3,0,0,0,.31.31H26.8a.3.3,0,0,0,.31-.31v-3.32h1.239a.367.367,0,0,0,.31-.575l-2.3-3.054a.378.378,0,0,0-.575,0l-2.3,3.054A.341.341,0,0,0,23.741,15.963Z" transform="translate(-16.128 -7.906)"/><path class="a" d="M28.253,31.73a.935.935,0,0,0-.93-.93H20.33a.93.93,0,1,0,0,1.859h7.038A.9.9,0,0,0,28.253,31.73Z" transform="translate(-13.911 -18.273)"/></g></g></svg>